<?xml version="1.0" encoding="utf-8" standalone="no"?>
<!DOCTYPE svg PUBLIC "-//W3C//DTD SVG 1.1//EN"
  "http://www.w3.org/Graphics/SVG/1.1/DTD/svg11.dtd">
<svg xmlns:xlink="http://www.w3.org/1999/xlink" width="856.351875pt" height="711.969687pt" viewBox="0 0 856.351875 711.969687" xmlns="http://www.w3.org/2000/svg" version="1.1">
 <metadata>
  <rdf:RDF xmlns:dc="http://purl.org/dc/elements/1.1/" xmlns:cc="http://creativecommons.org/ns#" xmlns:rdf="http://www.w3.org/1999/02/22-rdf-syntax-ns#">
   <cc:Work>
    <dc:type rdf:resource="http://purl.org/dc/dcmitype/StillImage"/>
    <dc:date>2025-04-11T11:31:53.072609</dc:date>
    <dc:format>image/svg+xml</dc:format>
    <dc:creator>
     <cc:Agent>
      <dc:title>Matplotlib v3.10.1, https://matplotlib.org/</dc:title>
     </cc:Agent>
    </dc:creator>
   </cc:Work>
  </rdf:RDF>
 </metadata>
 <defs>
  <style type="text/css">*{stroke-linejoin: round; stroke-linecap: butt}</style>
 </defs>
 <g id="figure_1">
  <g id="patch_1">
   <path d="M 0 711.969687 
L 856.351875 711.969687 
L 856.351875 0 
L 0 0 
z
" style="fill: #ffffff"/>
  </g>
  <g id="axes_1">
   <g id="patch_2">
    <path d="M 71.166875 317.877812 
L 849.151875 317.877812 
L 849.151875 23.837812 
L 71.166875 23.837812 
z
" style="fill: #ffffff"/>
   </g>
   <g id="matplotlib.axis_1">
    <g id="xtick_1">
     <g id="line2d_1">
      <path d="M 106.52983 317.877812 
L 106.52983 23.837812 
" clip-path="url(#pe9bdc888b0)" style="fill: none; stroke: #b0b0b0; stroke-opacity: 0.3; stroke-width: 0.8; stroke-linecap: square"/>
     </g>
     <g id="line2d_2">
      <defs>
       <path id="mfca334ef21" d="M 0 0 
L 0 3.5 
" style="stroke: #000000; stroke-width: 0.8"/>
      </defs>
      <g>
       <use xlink:href="#mfca334ef21" x="106.52983" y="317.877812" style="stroke: #000000; stroke-width: 0.8"/>
      </g>
     </g>
     <g id="text_1">
      <!-- 0 -->
      <g transform="translate(103.34858 332.47625) scale(0.1 -0.1)">
       <defs>
        <path id="DejaVuSans-30" d="M 2034 4250 
Q 1547 4250 1301 3770 
Q 1056 3291 1056 2328 
Q 1056 1369 1301 889 
Q 1547 409 2034 409 
Q 2525 409 2770 889 
Q 3016 1369 3016 2328 
Q 3016 3291 2770 3770 
Q 2525 4250 2034 4250 
z
M 2034 4750 
Q 2819 4750 3233 4129 
Q 3647 3509 3647 2328 
Q 3647 1150 3233 529 
Q 2819 -91 2034 -91 
Q 1250 -91 836 529 
Q 422 1150 422 2328 
Q 422 3509 836 4129 
Q 1250 4750 2034 4750 
z
" transform="scale(0.015625)"/>
       </defs>
       <use xlink:href="#DejaVuSans-30"/>
      </g>
     </g>
    </g>
    <g id="xtick_2">
     <g id="line2d_3">
      <path d="M 206.708171 317.877812 
L 206.708171 23.837812 
" clip-path="url(#pe9bdc888b0)" style="fill: none; stroke: #b0b0b0; stroke-opacity: 0.3; stroke-width: 0.8; stroke-linecap: square"/>
     </g>
     <g id="line2d_4">
      <g>
       <use xlink:href="#mfca334ef21" x="206.708171" y="317.877812" style="stroke: #000000; stroke-width: 0.8"/>
      </g>
     </g>
     <g id="text_2">
      <!-- 10 -->
      <g transform="translate(200.345671 332.47625) scale(0.1 -0.1)">
       <defs>
        <path id="DejaVuSans-31" d="M 794 531 
L 1825 531 
L 1825 4091 
L 703 3866 
L 703 4441 
L 1819 4666 
L 2450 4666 
L 2450 531 
L 3481 531 
L 3481 0 
L 794 0 
L 794 531 
z
" transform="scale(0.015625)"/>
       </defs>
       <use xlink:href="#DejaVuSans-31"/>
       <use xlink:href="#DejaVuSans-30" transform="translate(63.623047 0)"/>
      </g>
     </g>
    </g>
    <g id="xtick_3">
     <g id="line2d_5">
      <path d="M 306.886513 317.877812 
L 306.886513 23.837812 
" clip-path="url(#pe9bdc888b0)" style="fill: none; stroke: #b0b0b0; stroke-opacity: 0.3; stroke-width: 0.8; stroke-linecap: square"/>
     </g>
     <g id="line2d_6">
      <g>
       <use xlink:href="#mfca334ef21" x="306.886513" y="317.877812" style="stroke: #000000; stroke-width: 0.8"/>
      </g>
     </g>
     <g id="text_3">
      <!-- 20 -->
      <g transform="translate(300.524013 332.47625) scale(0.1 -0.1)">
       <defs>
        <path id="DejaVuSans-32" d="M 1228 531 
L 3431 531 
L 3431 0 
L 469 0 
L 469 531 
Q 828 903 1448 1529 
Q 2069 2156 2228 2338 
Q 2531 2678 2651 2914 
Q 2772 3150 2772 3378 
Q 2772 3750 2511 3984 
Q 2250 4219 1831 4219 
Q 1534 4219 1204 4116 
Q 875 4013 500 3803 
L 500 4441 
Q 881 4594 1212 4672 
Q 1544 4750 1819 4750 
Q 2544 4750 2975 4387 
Q 3406 4025 3406 3419 
Q 3406 3131 3298 2873 
Q 3191 2616 2906 2266 
Q 2828 2175 2409 1742 
Q 1991 1309 1228 531 
z
" transform="scale(0.015625)"/>
       </defs>
       <use xlink:href="#DejaVuSans-32"/>
       <use xlink:href="#DejaVuSans-30" transform="translate(63.623047 0)"/>
      </g>
     </g>
    </g>
    <g id="xtick_4">
     <g id="line2d_7">
      <path d="M 407.064854 317.877812 
L 407.064854 23.837812 
" clip-path="url(#pe9bdc888b0)" style="fill: none; stroke: #b0b0b0; stroke-opacity: 0.3; stroke-width: 0.8; stroke-linecap: square"/>
     </g>
     <g id="line2d_8">
      <g>
       <use xlink:href="#mfca334ef21" x="407.064854" y="317.877812" style="stroke: #000000; stroke-width: 0.8"/>
      </g>
     </g>
     <g id="text_4">
      <!-- 30 -->
      <g transform="translate(400.702354 332.47625) scale(0.1 -0.1)">
       <defs>
        <path id="DejaVuSans-33" d="M 2597 2516 
Q 3050 2419 3304 2112 
Q 3559 1806 3559 1356 
Q 3559 666 3084 287 
Q 2609 -91 1734 -91 
Q 1441 -91 1130 -33 
Q 819 25 488 141 
L 488 750 
Q 750 597 1062 519 
Q 1375 441 1716 441 
Q 2309 441 2620 675 
Q 2931 909 2931 1356 
Q 2931 1769 2642 2001 
Q 2353 2234 1838 2234 
L 1294 2234 
L 1294 2753 
L 1863 2753 
Q 2328 2753 2575 2939 
Q 2822 3125 2822 3475 
Q 2822 3834 2567 4026 
Q 2313 4219 1838 4219 
Q 1578 4219 1281 4162 
Q 984 4106 628 3988 
L 628 4550 
Q 988 4650 1302 4700 
Q 1616 4750 1894 4750 
Q 2613 4750 3031 4423 
Q 3450 4097 3450 3541 
Q 3450 3153 3228 2886 
Q 3006 2619 2597 2516 
z
" transform="scale(0.015625)"/>
       </defs>
       <use xlink:href="#DejaVuSans-33"/>
       <use xlink:href="#DejaVuSans-30" transform="translate(63.623047 0)"/>
      </g>
     </g>
    </g>
    <g id="xtick_5">
     <g id="line2d_9">
      <path d="M 507.243195 317.877812 
L 507.243195 23.837812 
" clip-path="url(#pe9bdc888b0)" style="fill: none; stroke: #b0b0b0; stroke-opacity: 0.3; stroke-width: 0.8; stroke-linecap: square"/>
     </g>
     <g id="line2d_10">
      <g>
       <use xlink:href="#mfca334ef21" x="507.243195" y="317.877812" style="stroke: #000000; stroke-width: 0.8"/>
      </g>
     </g>
     <g id="text_5">
      <!-- 40 -->
      <g transform="translate(500.880695 332.47625) scale(0.1 -0.1)">
       <defs>
        <path id="DejaVuSans-34" d="M 2419 4116 
L 825 1625 
L 2419 1625 
L 2419 4116 
z
M 2253 4666 
L 3047 4666 
L 3047 1625 
L 3713 1625 
L 3713 1100 
L 3047 1100 
L 3047 0 
L 2419 0 
L 2419 1100 
L 313 1100 
L 313 1709 
L 2253 4666 
z
" transform="scale(0.015625)"/>
       </defs>
       <use xlink:href="#DejaVuSans-34"/>
       <use xlink:href="#DejaVuSans-30" transform="translate(63.623047 0)"/>
      </g>
     </g>
    </g>
    <g id="xtick_6">
     <g id="line2d_11">
      <path d="M 607.421537 317.877812 
L 607.421537 23.837812 
" clip-path="url(#pe9bdc888b0)" style="fill: none; stroke: #b0b0b0; stroke-opacity: 0.3; stroke-width: 0.8; stroke-linecap: square"/>
     </g>
     <g id="line2d_12">
      <g>
       <use xlink:href="#mfca334ef21" x="607.421537" y="317.877812" style="stroke: #000000; stroke-width: 0.8"/>
      </g>
     </g>
     <g id="text_6">
      <!-- 50 -->
      <g transform="translate(601.059037 332.47625) scale(0.1 -0.1)">
       <defs>
        <path id="DejaVuSans-35" d="M 691 4666 
L 3169 4666 
L 3169 4134 
L 1269 4134 
L 1269 2991 
Q 1406 3038 1543 3061 
Q 1681 3084 1819 3084 
Q 2600 3084 3056 2656 
Q 3513 2228 3513 1497 
Q 3513 744 3044 326 
Q 2575 -91 1722 -91 
Q 1428 -91 1123 -41 
Q 819 9 494 109 
L 494 744 
Q 775 591 1075 516 
Q 1375 441 1709 441 
Q 2250 441 2565 725 
Q 2881 1009 2881 1497 
Q 2881 1984 2565 2268 
Q 2250 2553 1709 2553 
Q 1456 2553 1204 2497 
Q 953 2441 691 2322 
L 691 4666 
z
" transform="scale(0.015625)"/>
       </defs>
       <use xlink:href="#DejaVuSans-35"/>
       <use xlink:href="#DejaVuSans-30" transform="translate(63.623047 0)"/>
      </g>
     </g>
    </g>
    <g id="xtick_7">
     <g id="line2d_13">
      <path d="M 707.599878 317.877812 
L 707.599878 23.837812 
" clip-path="url(#pe9bdc888b0)" style="fill: none; stroke: #b0b0b0; stroke-opacity: 0.3; stroke-width: 0.8; stroke-linecap: square"/>
     </g>
     <g id="line2d_14">
      <g>
       <use xlink:href="#mfca334ef21" x="707.599878" y="317.877812" style="stroke: #000000; stroke-width: 0.8"/>
      </g>
     </g>
     <g id="text_7">
      <!-- 60 -->
      <g transform="translate(701.237378 332.47625) scale(0.1 -0.1)">
       <defs>
        <path id="DejaVuSans-36" d="M 2113 2584 
Q 1688 2584 1439 2293 
Q 1191 2003 1191 1497 
Q 1191 994 1439 701 
Q 1688 409 2113 409 
Q 2538 409 2786 701 
Q 3034 994 3034 1497 
Q 3034 2003 2786 2293 
Q 2538 2584 2113 2584 
z
M 3366 4563 
L 3366 3988 
Q 3128 4100 2886 4159 
Q 2644 4219 2406 4219 
Q 1781 4219 1451 3797 
Q 1122 3375 1075 2522 
Q 1259 2794 1537 2939 
Q 1816 3084 2150 3084 
Q 2853 3084 3261 2657 
Q 3669 2231 3669 1497 
Q 3669 778 3244 343 
Q 2819 -91 2113 -91 
Q 1303 -91 875 529 
Q 447 1150 447 2328 
Q 447 3434 972 4092 
Q 1497 4750 2381 4750 
Q 2619 4750 2861 4703 
Q 3103 4656 3366 4563 
z
" transform="scale(0.015625)"/>
       </defs>
       <use xlink:href="#DejaVuSans-36"/>
       <use xlink:href="#DejaVuSans-30" transform="translate(63.623047 0)"/>
      </g>
     </g>
    </g>
    <g id="xtick_8">
     <g id="line2d_15">
      <path d="M 807.77822 317.877812 
L 807.77822 23.837812 
" clip-path="url(#pe9bdc888b0)" style="fill: none; stroke: #b0b0b0; stroke-opacity: 0.3; stroke-width: 0.8; stroke-linecap: square"/>
     </g>
     <g id="line2d_16">
      <g>
       <use xlink:href="#mfca334ef21" x="807.77822" y="317.877812" style="stroke: #000000; stroke-width: 0.8"/>
      </g>
     </g>
     <g id="text_8">
      <!-- 70 -->
      <g transform="translate(801.41572 332.47625) scale(0.1 -0.1)">
       <defs>
        <path id="DejaVuSans-37" d="M 525 4666 
L 3525 4666 
L 3525 4397 
L 1831 0 
L 1172 0 
L 2766 4134 
L 525 4134 
L 525 4666 
z
" transform="scale(0.015625)"/>
       </defs>
       <use xlink:href="#DejaVuSans-37"/>
       <use xlink:href="#DejaVuSans-30" transform="translate(63.623047 0)"/>
      </g>
     </g>
    </g>
    <g id="text_9">
     <!-- Time (seconds) -->
     <g transform="translate(414.365313 347.674062) scale(0.12 -0.12)">
      <defs>
       <path id="DejaVuSans-54" d="M -19 4666 
L 3928 4666 
L 3928 4134 
L 2272 4134 
L 2272 0 
L 1638 0 
L 1638 4134 
L -19 4134 
L -19 4666 
z
" transform="scale(0.015625)"/>
       <path id="DejaVuSans-69" d="M 603 3500 
L 1178 3500 
L 1178 0 
L 603 0 
L 603 3500 
z
M 603 4863 
L 1178 4863 
L 1178 4134 
L 603 4134 
L 603 4863 
z
" transform="scale(0.015625)"/>
       <path id="DejaVuSans-6d" d="M 3328 2828 
Q 3544 3216 3844 3400 
Q 4144 3584 4550 3584 
Q 5097 3584 5394 3201 
Q 5691 2819 5691 2113 
L 5691 0 
L 5113 0 
L 5113 2094 
Q 5113 2597 4934 2840 
Q 4756 3084 4391 3084 
Q 3944 3084 3684 2787 
Q 3425 2491 3425 1978 
L 3425 0 
L 2847 0 
L 2847 2094 
Q 2847 2600 2669 2842 
Q 2491 3084 2119 3084 
Q 1678 3084 1418 2786 
Q 1159 2488 1159 1978 
L 1159 0 
L 581 0 
L 581 3500 
L 1159 3500 
L 1159 2956 
Q 1356 3278 1631 3431 
Q 1906 3584 2284 3584 
Q 2666 3584 2933 3390 
Q 3200 3197 3328 2828 
z
" transform="scale(0.015625)"/>
       <path id="DejaVuSans-65" d="M 3597 1894 
L 3597 1613 
L 953 1613 
Q 991 1019 1311 708 
Q 1631 397 2203 397 
Q 2534 397 2845 478 
Q 3156 559 3463 722 
L 3463 178 
Q 3153 47 2828 -22 
Q 2503 -91 2169 -91 
Q 1331 -91 842 396 
Q 353 884 353 1716 
Q 353 2575 817 3079 
Q 1281 3584 2069 3584 
Q 2775 3584 3186 3129 
Q 3597 2675 3597 1894 
z
M 3022 2063 
Q 3016 2534 2758 2815 
Q 2500 3097 2075 3097 
Q 1594 3097 1305 2825 
Q 1016 2553 972 2059 
L 3022 2063 
z
" transform="scale(0.015625)"/>
       <path id="DejaVuSans-20" transform="scale(0.015625)"/>
       <path id="DejaVuSans-28" d="M 1984 4856 
Q 1566 4138 1362 3434 
Q 1159 2731 1159 2009 
Q 1159 1288 1364 580 
Q 1569 -128 1984 -844 
L 1484 -844 
Q 1016 -109 783 600 
Q 550 1309 550 2009 
Q 550 2706 781 3412 
Q 1013 4119 1484 4856 
L 1984 4856 
z
" transform="scale(0.015625)"/>
       <path id="DejaVuSans-73" d="M 2834 3397 
L 2834 2853 
Q 2591 2978 2328 3040 
Q 2066 3103 1784 3103 
Q 1356 3103 1142 2972 
Q 928 2841 928 2578 
Q 928 2378 1081 2264 
Q 1234 2150 1697 2047 
L 1894 2003 
Q 2506 1872 2764 1633 
Q 3022 1394 3022 966 
Q 3022 478 2636 193 
Q 2250 -91 1575 -91 
Q 1294 -91 989 -36 
Q 684 19 347 128 
L 347 722 
Q 666 556 975 473 
Q 1284 391 1588 391 
Q 1994 391 2212 530 
Q 2431 669 2431 922 
Q 2431 1156 2273 1281 
Q 2116 1406 1581 1522 
L 1381 1569 
Q 847 1681 609 1914 
Q 372 2147 372 2553 
Q 372 3047 722 3315 
Q 1072 3584 1716 3584 
Q 2034 3584 2315 3537 
Q 2597 3491 2834 3397 
z
" transform="scale(0.015625)"/>
       <path id="DejaVuSans-63" d="M 3122 3366 
L 3122 2828 
Q 2878 2963 2633 3030 
Q 2388 3097 2138 3097 
Q 1578 3097 1268 2742 
Q 959 2388 959 1747 
Q 959 1106 1268 751 
Q 1578 397 2138 397 
Q 2388 397 2633 464 
Q 2878 531 3122 666 
L 3122 134 
Q 2881 22 2623 -34 
Q 2366 -91 2075 -91 
Q 1284 -91 818 406 
Q 353 903 353 1747 
Q 353 2603 823 3093 
Q 1294 3584 2113 3584 
Q 2378 3584 2631 3529 
Q 2884 3475 3122 3366 
z
" transform="scale(0.015625)"/>
       <path id="DejaVuSans-6f" d="M 1959 3097 
Q 1497 3097 1228 2736 
Q 959 2375 959 1747 
Q 959 1119 1226 758 
Q 1494 397 1959 397 
Q 2419 397 2687 759 
Q 2956 1122 2956 1747 
Q 2956 2369 2687 2733 
Q 2419 3097 1959 3097 
z
M 1959 3584 
Q 2709 3584 3137 3096 
Q 3566 2609 3566 1747 
Q 3566 888 3137 398 
Q 2709 -91 1959 -91 
Q 1206 -91 779 398 
Q 353 888 353 1747 
Q 353 2609 779 3096 
Q 1206 3584 1959 3584 
z
" transform="scale(0.015625)"/>
       <path id="DejaVuSans-6e" d="M 3513 2113 
L 3513 0 
L 2938 0 
L 2938 2094 
Q 2938 2591 2744 2837 
Q 2550 3084 2163 3084 
Q 1697 3084 1428 2787 
Q 1159 2491 1159 1978 
L 1159 0 
L 581 0 
L 581 3500 
L 1159 3500 
L 1159 2956 
Q 1366 3272 1645 3428 
Q 1925 3584 2291 3584 
Q 2894 3584 3203 3211 
Q 3513 2838 3513 2113 
z
" transform="scale(0.015625)"/>
       <path id="DejaVuSans-64" d="M 2906 2969 
L 2906 4863 
L 3481 4863 
L 3481 0 
L 2906 0 
L 2906 525 
Q 2725 213 2448 61 
Q 2172 -91 1784 -91 
Q 1150 -91 751 415 
Q 353 922 353 1747 
Q 353 2572 751 3078 
Q 1150 3584 1784 3584 
Q 2172 3584 2448 3432 
Q 2725 3281 2906 2969 
z
M 947 1747 
Q 947 1113 1208 752 
Q 1469 391 1925 391 
Q 2381 391 2643 752 
Q 2906 1113 2906 1747 
Q 2906 2381 2643 2742 
Q 2381 3103 1925 3103 
Q 1469 3103 1208 2742 
Q 947 2381 947 1747 
z
" transform="scale(0.015625)"/>
       <path id="DejaVuSans-29" d="M 513 4856 
L 1013 4856 
Q 1481 4119 1714 3412 
Q 1947 2706 1947 2009 
Q 1947 1309 1714 600 
Q 1481 -109 1013 -844 
L 513 -844 
Q 928 -128 1133 580 
Q 1338 1288 1338 2009 
Q 1338 2731 1133 3434 
Q 928 4138 513 4856 
z
" transform="scale(0.015625)"/>
      </defs>
      <use xlink:href="#DejaVuSans-54"/>
      <use xlink:href="#DejaVuSans-69" transform="translate(57.958984 0)"/>
      <use xlink:href="#DejaVuSans-6d" transform="translate(85.742188 0)"/>
      <use xlink:href="#DejaVuSans-65" transform="translate(183.154297 0)"/>
      <use xlink:href="#DejaVuSans-20" transform="translate(244.677734 0)"/>
      <use xlink:href="#DejaVuSans-28" transform="translate(276.464844 0)"/>
      <use xlink:href="#DejaVuSans-73" transform="translate(315.478516 0)"/>
      <use xlink:href="#DejaVuSans-65" transform="translate(367.578125 0)"/>
      <use xlink:href="#DejaVuSans-63" transform="translate(429.101562 0)"/>
      <use xlink:href="#DejaVuSans-6f" transform="translate(484.082031 0)"/>
      <use xlink:href="#DejaVuSans-6e" transform="translate(545.263672 0)"/>
      <use xlink:href="#DejaVuSans-64" transform="translate(608.642578 0)"/>
      <use xlink:href="#DejaVuSans-73" transform="translate(672.119141 0)"/>
      <use xlink:href="#DejaVuSans-29" transform="translate(724.21875 0)"/>
     </g>
    </g>
   </g>
   <g id="matplotlib.axis_2">
    <g id="ytick_1">
     <g id="line2d_17">
      <path d="M 71.166875 288.09819 
L 849.151875 288.09819 
" clip-path="url(#pe9bdc888b0)" style="fill: none; stroke: #b0b0b0; stroke-opacity: 0.3; stroke-width: 0.8; stroke-linecap: square"/>
     </g>
     <g id="line2d_18">
      <defs>
       <path id="m895b3c342a" d="M 0 0 
L -3.5 0 
" style="stroke: #000000; stroke-width: 0.8"/>
      </defs>
      <g>
       <use xlink:href="#m895b3c342a" x="71.166875" y="288.09819" style="stroke: #000000; stroke-width: 0.8"/>
      </g>
     </g>
     <g id="text_10">
      <!-- 0.00000 -->
      <g transform="translate(22.81375 291.897409) scale(0.1 -0.1)">
       <defs>
        <path id="DejaVuSans-2e" d="M 684 794 
L 1344 794 
L 1344 0 
L 684 0 
L 684 794 
z
" transform="scale(0.015625)"/>
       </defs>
       <use xlink:href="#DejaVuSans-30"/>
       <use xlink:href="#DejaVuSans-2e" transform="translate(63.623047 0)"/>
       <use xlink:href="#DejaVuSans-30" transform="translate(95.410156 0)"/>
       <use xlink:href="#DejaVuSans-30" transform="translate(159.033203 0)"/>
       <use xlink:href="#DejaVuSans-30" transform="translate(222.65625 0)"/>
       <use xlink:href="#DejaVuSans-30" transform="translate(286.279297 0)"/>
       <use xlink:href="#DejaVuSans-30" transform="translate(349.902344 0)"/>
      </g>
     </g>
    </g>
    <g id="ytick_2">
     <g id="line2d_19">
      <path d="M 71.166875 239.246791 
L 849.151875 239.246791 
" clip-path="url(#pe9bdc888b0)" style="fill: none; stroke: #b0b0b0; stroke-opacity: 0.3; stroke-width: 0.8; stroke-linecap: square"/>
     </g>
     <g id="line2d_20">
      <g>
       <use xlink:href="#m895b3c342a" x="71.166875" y="239.246791" style="stroke: #000000; stroke-width: 0.8"/>
      </g>
     </g>
     <g id="text_11">
      <!-- 0.00005 -->
      <g transform="translate(22.81375 243.04601) scale(0.1 -0.1)">
       <use xlink:href="#DejaVuSans-30"/>
       <use xlink:href="#DejaVuSans-2e" transform="translate(63.623047 0)"/>
       <use xlink:href="#DejaVuSans-30" transform="translate(95.410156 0)"/>
       <use xlink:href="#DejaVuSans-30" transform="translate(159.033203 0)"/>
       <use xlink:href="#DejaVuSans-30" transform="translate(222.65625 0)"/>
       <use xlink:href="#DejaVuSans-30" transform="translate(286.279297 0)"/>
       <use xlink:href="#DejaVuSans-35" transform="translate(349.902344 0)"/>
      </g>
     </g>
    </g>
    <g id="ytick_3">
     <g id="line2d_21">
      <path d="M 71.166875 190.395392 
L 849.151875 190.395392 
" clip-path="url(#pe9bdc888b0)" style="fill: none; stroke: #b0b0b0; stroke-opacity: 0.3; stroke-width: 0.8; stroke-linecap: square"/>
     </g>
     <g id="line2d_22">
      <g>
       <use xlink:href="#m895b3c342a" x="71.166875" y="190.395392" style="stroke: #000000; stroke-width: 0.8"/>
      </g>
     </g>
     <g id="text_12">
      <!-- 0.00010 -->
      <g transform="translate(22.81375 194.194611) scale(0.1 -0.1)">
       <use xlink:href="#DejaVuSans-30"/>
       <use xlink:href="#DejaVuSans-2e" transform="translate(63.623047 0)"/>
       <use xlink:href="#DejaVuSans-30" transform="translate(95.410156 0)"/>
       <use xlink:href="#DejaVuSans-30" transform="translate(159.033203 0)"/>
       <use xlink:href="#DejaVuSans-30" transform="translate(222.65625 0)"/>
       <use xlink:href="#DejaVuSans-31" transform="translate(286.279297 0)"/>
       <use xlink:href="#DejaVuSans-30" transform="translate(349.902344 0)"/>
      </g>
     </g>
    </g>
    <g id="ytick_4">
     <g id="line2d_23">
      <path d="M 71.166875 141.543993 
L 849.151875 141.543993 
" clip-path="url(#pe9bdc888b0)" style="fill: none; stroke: #b0b0b0; stroke-opacity: 0.3; stroke-width: 0.8; stroke-linecap: square"/>
     </g>
     <g id="line2d_24">
      <g>
       <use xlink:href="#m895b3c342a" x="71.166875" y="141.543993" style="stroke: #000000; stroke-width: 0.8"/>
      </g>
     </g>
     <g id="text_13">
      <!-- 0.00015 -->
      <g transform="translate(22.81375 145.343212) scale(0.1 -0.1)">
       <use xlink:href="#DejaVuSans-30"/>
       <use xlink:href="#DejaVuSans-2e" transform="translate(63.623047 0)"/>
       <use xlink:href="#DejaVuSans-30" transform="translate(95.410156 0)"/>
       <use xlink:href="#DejaVuSans-30" transform="translate(159.033203 0)"/>
       <use xlink:href="#DejaVuSans-30" transform="translate(222.65625 0)"/>
       <use xlink:href="#DejaVuSans-31" transform="translate(286.279297 0)"/>
       <use xlink:href="#DejaVuSans-35" transform="translate(349.902344 0)"/>
      </g>
     </g>
    </g>
    <g id="ytick_5">
     <g id="line2d_25">
      <path d="M 71.166875 92.692594 
L 849.151875 92.692594 
" clip-path="url(#pe9bdc888b0)" style="fill: none; stroke: #b0b0b0; stroke-opacity: 0.3; stroke-width: 0.8; stroke-linecap: square"/>
     </g>
     <g id="line2d_26">
      <g>
       <use xlink:href="#m895b3c342a" x="71.166875" y="92.692594" style="stroke: #000000; stroke-width: 0.8"/>
      </g>
     </g>
     <g id="text_14">
      <!-- 0.00020 -->
      <g transform="translate(22.81375 96.491813) scale(0.1 -0.1)">
       <use xlink:href="#DejaVuSans-30"/>
       <use xlink:href="#DejaVuSans-2e" transform="translate(63.623047 0)"/>
       <use xlink:href="#DejaVuSans-30" transform="translate(95.410156 0)"/>
       <use xlink:href="#DejaVuSans-30" transform="translate(159.033203 0)"/>
       <use xlink:href="#DejaVuSans-30" transform="translate(222.65625 0)"/>
       <use xlink:href="#DejaVuSans-32" transform="translate(286.279297 0)"/>
       <use xlink:href="#DejaVuSans-30" transform="translate(349.902344 0)"/>
      </g>
     </g>
    </g>
    <g id="ytick_6">
     <g id="line2d_27">
      <path d="M 71.166875 43.841195 
L 849.151875 43.841195 
" clip-path="url(#pe9bdc888b0)" style="fill: none; stroke: #b0b0b0; stroke-opacity: 0.3; stroke-width: 0.8; stroke-linecap: square"/>
     </g>
     <g id="line2d_28">
      <g>
       <use xlink:href="#m895b3c342a" x="71.166875" y="43.841195" style="stroke: #000000; stroke-width: 0.8"/>
      </g>
     </g>
     <g id="text_15">
      <!-- 0.00025 -->
      <g transform="translate(22.81375 47.640414) scale(0.1 -0.1)">
       <use xlink:href="#DejaVuSans-30"/>
       <use xlink:href="#DejaVuSans-2e" transform="translate(63.623047 0)"/>
       <use xlink:href="#DejaVuSans-30" transform="translate(95.410156 0)"/>
       <use xlink:href="#DejaVuSans-30" transform="translate(159.033203 0)"/>
       <use xlink:href="#DejaVuSans-30" transform="translate(222.65625 0)"/>
       <use xlink:href="#DejaVuSans-32" transform="translate(286.279297 0)"/>
       <use xlink:href="#DejaVuSans-35" transform="translate(349.902344 0)"/>
      </g>
     </g>
    </g>
    <g id="text_16">
     <!-- Thermal Strain -->
     <g transform="translate(16.318125 215.2475) rotate(-90) scale(0.12 -0.12)">
      <defs>
       <path id="DejaVuSans-68" d="M 3513 2113 
L 3513 0 
L 2938 0 
L 2938 2094 
Q 2938 2591 2744 2837 
Q 2550 3084 2163 3084 
Q 1697 3084 1428 2787 
Q 1159 2491 1159 1978 
L 1159 0 
L 581 0 
L 581 4863 
L 1159 4863 
L 1159 2956 
Q 1366 3272 1645 3428 
Q 1925 3584 2291 3584 
Q 2894 3584 3203 3211 
Q 3513 2838 3513 2113 
z
" transform="scale(0.015625)"/>
       <path id="DejaVuSans-72" d="M 2631 2963 
Q 2534 3019 2420 3045 
Q 2306 3072 2169 3072 
Q 1681 3072 1420 2755 
Q 1159 2438 1159 1844 
L 1159 0 
L 581 0 
L 581 3500 
L 1159 3500 
L 1159 2956 
Q 1341 3275 1631 3429 
Q 1922 3584 2338 3584 
Q 2397 3584 2469 3576 
Q 2541 3569 2628 3553 
L 2631 2963 
z
" transform="scale(0.015625)"/>
       <path id="DejaVuSans-61" d="M 2194 1759 
Q 1497 1759 1228 1600 
Q 959 1441 959 1056 
Q 959 750 1161 570 
Q 1363 391 1709 391 
Q 2188 391 2477 730 
Q 2766 1069 2766 1631 
L 2766 1759 
L 2194 1759 
z
M 3341 1997 
L 3341 0 
L 2766 0 
L 2766 531 
Q 2569 213 2275 61 
Q 1981 -91 1556 -91 
Q 1019 -91 701 211 
Q 384 513 384 1019 
Q 384 1609 779 1909 
Q 1175 2209 1959 2209 
L 2766 2209 
L 2766 2266 
Q 2766 2663 2505 2880 
Q 2244 3097 1772 3097 
Q 1472 3097 1187 3025 
Q 903 2953 641 2809 
L 641 3341 
Q 956 3463 1253 3523 
Q 1550 3584 1831 3584 
Q 2591 3584 2966 3190 
Q 3341 2797 3341 1997 
z
" transform="scale(0.015625)"/>
       <path id="DejaVuSans-6c" d="M 603 4863 
L 1178 4863 
L 1178 0 
L 603 0 
L 603 4863 
z
" transform="scale(0.015625)"/>
       <path id="DejaVuSans-53" d="M 3425 4513 
L 3425 3897 
Q 3066 4069 2747 4153 
Q 2428 4238 2131 4238 
Q 1616 4238 1336 4038 
Q 1056 3838 1056 3469 
Q 1056 3159 1242 3001 
Q 1428 2844 1947 2747 
L 2328 2669 
Q 3034 2534 3370 2195 
Q 3706 1856 3706 1288 
Q 3706 609 3251 259 
Q 2797 -91 1919 -91 
Q 1588 -91 1214 -16 
Q 841 59 441 206 
L 441 856 
Q 825 641 1194 531 
Q 1563 422 1919 422 
Q 2459 422 2753 634 
Q 3047 847 3047 1241 
Q 3047 1584 2836 1778 
Q 2625 1972 2144 2069 
L 1759 2144 
Q 1053 2284 737 2584 
Q 422 2884 422 3419 
Q 422 4038 858 4394 
Q 1294 4750 2059 4750 
Q 2388 4750 2728 4690 
Q 3069 4631 3425 4513 
z
" transform="scale(0.015625)"/>
       <path id="DejaVuSans-74" d="M 1172 4494 
L 1172 3500 
L 2356 3500 
L 2356 3053 
L 1172 3053 
L 1172 1153 
Q 1172 725 1289 603 
Q 1406 481 1766 481 
L 2356 481 
L 2356 0 
L 1766 0 
Q 1100 0 847 248 
Q 594 497 594 1153 
L 594 3053 
L 172 3053 
L 172 3500 
L 594 3500 
L 594 4494 
L 1172 4494 
z
" transform="scale(0.015625)"/>
      </defs>
      <use xlink:href="#DejaVuSans-54"/>
      <use xlink:href="#DejaVuSans-68" transform="translate(61.083984 0)"/>
      <use xlink:href="#DejaVuSans-65" transform="translate(124.462891 0)"/>
      <use xlink:href="#DejaVuSans-72" transform="translate(185.986328 0)"/>
      <use xlink:href="#DejaVuSans-6d" transform="translate(225.349609 0)"/>
      <use xlink:href="#DejaVuSans-61" transform="translate(322.761719 0)"/>
      <use xlink:href="#DejaVuSans-6c" transform="translate(384.041016 0)"/>
      <use xlink:href="#DejaVuSans-20" transform="translate(411.824219 0)"/>
      <use xlink:href="#DejaVuSans-53" transform="translate(443.611328 0)"/>
      <use xlink:href="#DejaVuSans-74" transform="translate(507.087891 0)"/>
      <use xlink:href="#DejaVuSans-72" transform="translate(546.296875 0)"/>
      <use xlink:href="#DejaVuSans-61" transform="translate(587.410156 0)"/>
      <use xlink:href="#DejaVuSans-69" transform="translate(648.689453 0)"/>
      <use xlink:href="#DejaVuSans-6e" transform="translate(676.472656 0)"/>
     </g>
    </g>
   </g>
   <g id="line2d_29">
    <path d="M 106.52983 73.769028 
L 108.533396 80.288247 
L 110.536963 190.047507 
L 112.54053 96.016932 
L 114.544097 141.484341 
L 116.547664 281.680728 
L 118.551231 211.419911 
L 120.554797 80.430404 
L 122.558364 74.11001 
L 124.561931 62.898126 
L 126.565498 80.220832 
L 128.569065 80.887654 
L 130.572632 155.935957 
L 132.576198 301.490821 
L 134.579765 218.31678 
L 136.583332 42.749366 
L 138.586899 162.479783 
L 140.590466 83.280395 
L 142.594032 77.248224 
L 144.597599 216.471194 
L 146.601166 198.75073 
L 148.604733 80.959465 
L 150.6083 140.406049 
L 152.611867 133.531875 
L 154.615433 54.236773 
L 156.619 85.716126 
L 158.622567 160.272447 
L 160.626134 100.70227 
L 162.629701 80.504659 
L 164.633268 141.877013 
L 166.636834 87.842139 
L 168.640401 69.683585 
L 170.643968 154.544938 
L 172.647535 282.12723 
L 174.651102 214.918081 
L 176.654669 89.622772 
L 178.658235 99.04865 
L 180.661802 216.317151 
L 182.665369 106.807717 
L 184.668936 71.37189 
L 186.672503 222.316215 
L 188.67607 79.213028 
L 190.679636 147.209583 
L 192.683203 162.792398 
L 194.68677 75.044049 
L 196.690337 92.708715 
L 198.693904 229.464982 
L 200.697471 210.680486 
L 202.701037 81.895946 
L 204.704604 71.45054 
L 206.708171 217.070161 
L 208.711738 92.569977 
L 210.715305 86.86218 
L 212.718872 113.787117 
L 214.722438 75.848632 
L 216.726005 224.163531 
L 218.729572 280.017744 
L 220.733139 276.059105 
L 222.736706 94.366732 
L 224.740273 150.757465 
L 226.743839 94.361358 
L 228.747406 96.912867 
L 230.750973 65.742254 
L 232.75454 105.540512 
L 234.758107 165.453529 
L 236.761673 96.38234 
L 238.76524 79.329294 
L 240.768807 211.673108 
L 242.772374 201.397558 
L 244.775941 94.292477 
L 246.779508 174.376432 
L 248.783074 174.300957 
L 250.786641 76.919454 
L 252.790208 66.045133 
L 254.793775 88.018981 
L 256.797342 62.887379 
L 258.800909 163.978949 
L 260.804475 275.361018 
L 262.808042 304.512358 
L 264.811609 93.04237 
L 266.815176 74.984451 
L 268.818743 82.579866 
L 270.82231 67.944475 
L 272.825876 223.635936 
L 274.829443 261.827618 
L 276.83301 159.647687 
L 278.836577 230.253318 
L 280.840144 74.459298 
L 282.843711 70.814495 
L 284.847277 91.240242 
L 286.850844 73.448074 
L 288.854411 109.553655 
L 290.857978 152.080263 
L 292.861545 152.329962 
L 294.865112 197.48588 
L 296.868678 194.115421 
L 298.872245 208.366845 
L 300.875812 194.762854 
L 302.879379 91.402917 
L 304.882946 149.21972 
L 306.886513 162.723098 
L 308.890079 72.539438 
L 310.893646 85.211491 
L 312.897213 233.057807 
L 314.90078 223.624163 
L 316.904347 81.893015 
L 318.907914 66.613763 
L 320.91148 100.34712 
L 322.915047 80.643885 
L 324.918614 127.916895 
L 326.922181 182.845506 
L 328.925748 278.392297 
L 330.929314 250.342409 
L 332.932881 79.869102 
L 334.936448 90.460085 
L 336.940015 82.230579 
L 338.943582 86.392229 
L 340.947149 160.091795 
L 342.950715 147.064152 
L 344.954282 53.623199 
L 346.957849 83.110392 
L 348.961416 159.126046 
L 350.964983 122.66493 
L 352.96855 284.096308 
L 354.972116 231.488359 
L 356.975683 83.198325 
L 358.97925 96.224062 
L 362.986384 83.549566 
L 364.989951 92.192844 
L 366.993517 68.885842 
L 368.997084 283.134883 
L 371.000651 78.470486 
L 373.004218 147.188088 
L 375.007785 154.320002 
L 377.011352 82.04592 
L 379.014918 76.46074 
L 381.018485 226.623218 
L 383.022052 221.58662 
L 385.025619 237.417062 
L 387.029186 265.497921 
L 389.032753 75.517908 
L 391.036319 54.880634 
L 393.039886 76.034267 
L 395.043453 95.230913 
L 397.04702 194.952446 
L 399.050587 223.208291 
L 401.054154 92.247069 
L 403.05772 167.341205 
L 405.061287 302.21663 
L 407.064854 87.764465 
L 409.068421 64.810658 
L 411.071988 64.56689 
L 413.075555 240.873054 
L 415.079121 135.999115 
L 417.082688 83.565199 
L 419.086255 224.576814 
L 421.089822 210.534284 
L 423.093389 72.438316 
L 425.096955 162.357459 
L 427.100522 98.875716 
L 429.104089 89.034601 
L 431.107656 111.194524 
L 433.111223 166.631487 
L 435.11479 211.900218 
L 437.118356 63.535637 
L 439.121923 148.770781 
L 441.12549 96.469784 
L 443.129057 81.887642 
L 445.132624 144.903211 
L 447.136191 145.042315 
L 449.139757 84.678522 
L 451.143324 71.143265 
L 453.146891 214.504632 
L 455.150458 242.4052 
L 457.154025 80.724978 
L 459.157592 130.772431 
L 461.161158 133.378042 
L 463.164725 71.951267 
L 465.168292 84.575446 
L 467.171859 113.93074 
L 469.175426 93.192832 
L 471.178993 96.725766 
L 473.182559 270.65425 
L 475.186126 297.221096 
L 477.189693 72.921944 
L 479.19326 74.284898 
L 481.196827 137.860598 
L 483.200394 106.916167 
L 485.20396 90.766383 
L 487.207527 207.835244 
L 489.211094 215.000865 
L 491.214661 101.054488 
L 493.218228 53.162531 
L 495.221795 70.419287 
L 497.225361 64.225418 
L 499.228928 64.756433 
L 501.232495 103.207858 
L 503.236062 77.818809 
L 505.239629 55.087276 
L 507.243195 76.974657 
L 509.246762 109.839924 
L 511.250329 93.126395 
L 513.253896 84.340959 
L 515.257463 66.323097 
L 517.26103 69.206307 
L 519.264596 145.244926 
L 521.268163 96.931919 
L 523.27173 56.382326 
L 525.275297 83.957964 
L 527.278864 88.866064 
L 529.282431 95.639799 
L 531.285997 55.534266 
L 533.289564 76.304415 
L 535.293131 61.468734 
L 537.296698 100.565974 
L 539.300265 111.557539 
L 541.303832 62.043226 
L 543.307398 181.115336 
L 545.310965 68.900497 
L 547.314532 76.804654 
L 549.318099 64.169728 
L 551.321666 99.789237 
L 553.325233 89.75174 
L 555.328799 61.680261 
L 557.332366 79.751859 
L 559.335933 79.687863 
L 561.3395 73.686469 
L 563.343067 79.782146 
L 565.346634 69.740741 
L 567.3502 83.384937 
L 569.353767 99.010546 
L 571.357334 86.996033 
L 573.360901 137.606619 
L 575.364468 91.006732 
L 577.368035 77.353743 
L 579.371601 55.156645 
L 581.375168 101.428201 
L 583.378735 62.734962 
L 585.382302 84.499726 
L 587.385869 144.551871 
L 589.389436 83.917906 
L 591.393002 80.469486 
L 593.396569 67.851169 
L 595.400136 91.632519 
L 597.403703 65.079829 
L 599.40727 81.776749 
L 601.410836 93.861608 
L 603.414403 68.450576 
L 605.41797 109.155027 
L 607.421537 93.314961 
L 609.425104 203.14678 
L 611.428671 85.13626 
L 613.432237 83.619912 
L 615.435804 76.653214 
L 617.439371 60.584035 
L 619.442938 61.017347 
L 621.446505 86.804047 
L 623.450072 145.041753 
L 625.453638 86.456225 
L 627.457205 83.271113 
L 629.460772 54.334476 
L 631.464339 77.546706 
L 633.467906 84.262797 
L 635.471473 51.488882 
L 637.475039 83.088409 
L 639.478606 98.906492 
L 641.482173 128.65929 
L 643.48574 91.980341 
L 645.489307 102.12238 
L 647.492874 81.232056 
L 649.49644 77.564293 
L 651.500007 61.531752 
L 653.503574 72.929272 
L 655.507141 64.800399 
L 657.510708 74.803212 
L 659.514275 86.796719 
L 661.517841 105.374417 
L 663.521408 141.313415 
L 665.524975 59.467292 
L 667.528542 80.718139 
L 669.532109 75.735297 
L 671.535676 80.547159 
L 673.539242 92.369198 
L 675.542809 74.187196 
L 677.546376 97.496641 
L 679.549943 91.967639 
L 681.55351 79.568666 
L 683.557077 37.203267 
L 685.560643 42.146052 
L 687.56421 109.111549 
L 689.567777 75.610237 
L 691.571344 88.100563 
L 693.574911 131.754271 
L 695.578477 82.655097 
L 697.582044 75.405061 
L 699.585611 66.305511 
L 701.589178 70.732425 
L 703.592745 68.63328 
L 705.596312 80.853458 
L 707.599878 118.110466 
L 709.603445 76.468068 
L 711.607012 70.758805 
L 713.610579 87.46354 
L 715.614146 111.28446 
L 717.617713 88.124988 
L 719.621279 69.9254 
L 721.624846 60.236702 
L 723.628413 78.626322 
L 725.63198 132.69466 
L 727.635547 70.433943 
L 729.639114 89.216329 
L 731.64268 76.090935 
L 733.646247 130.604211 
L 735.649814 69.963015 
L 737.653381 70.623486 
L 739.656948 75.942915 
L 741.660515 82.632626 
L 743.664081 81.104554 
L 745.667648 84.275498 
L 747.671215 90.212897 
L 749.674782 93.431716 
L 751.678349 120.234036 
L 753.681916 43.14604 
L 755.685482 81.440651 
L 757.689049 104.585956 
L 761.696183 67.962062 
L 763.69975 76.950719 
L 765.703317 79.454354 
L 767.706883 106.835074 
L 769.71045 104.724694 
L 771.714017 75.709405 
L 773.717584 95.672041 
L 777.724718 59.461918 
L 779.728284 79.919907 
L 781.731851 92.650093 
L 783.735418 137.239354 
L 785.738985 82.609177 
L 787.742552 70.301555 
L 789.746118 91.58611 
L 791.749685 70.910244 
L 793.753252 68.290832 
L 795.756819 93.28565 
L 797.760386 83.95943 
L 799.763953 105.93572 
L 801.767519 72.712372 
L 803.771086 53.132731 
L 805.774653 72.898496 
L 807.77822 105.136023 
L 809.781787 160.545233 
L 811.785354 100.752098 
L 813.78892 86.6912 
L 813.78892 86.6912 
" clip-path="url(#pe9bdc888b0)" style="fill: none; stroke: #ff0000; stroke-width: 2; stroke-linecap: square"/>
   </g>
   <g id="patch_3">
    <path d="M 71.166875 317.877812 
L 71.166875 23.837812 
" style="fill: none; stroke: #000000; stroke-width: 0.8; stroke-linejoin: miter; stroke-linecap: square"/>
   </g>
   <g id="patch_4">
    <path d="M 849.151875 317.877812 
L 849.151875 23.837812 
" style="fill: none; stroke: #000000; stroke-width: 0.8; stroke-linejoin: miter; stroke-linecap: square"/>
   </g>
   <g id="patch_5">
    <path d="M 71.166875 317.877812 
L 849.151875 317.877812 
" style="fill: none; stroke: #000000; stroke-width: 0.8; stroke-linejoin: miter; stroke-linecap: square"/>
   </g>
   <g id="patch_6">
    <path d="M 71.166875 23.837812 
L 849.151875 23.837812 
" style="fill: none; stroke: #000000; stroke-width: 0.8; stroke-linejoin: miter; stroke-linecap: square"/>
   </g>
   <g id="text_17">
    <!-- Thermal Strain Over Time at Point (44,17) -->
    <g transform="translate(313.371562 17.837812) scale(0.14 -0.14)">
     <defs>
      <path id="DejaVuSans-4f" d="M 2522 4238 
Q 1834 4238 1429 3725 
Q 1025 3213 1025 2328 
Q 1025 1447 1429 934 
Q 1834 422 2522 422 
Q 3209 422 3611 934 
Q 4013 1447 4013 2328 
Q 4013 3213 3611 3725 
Q 3209 4238 2522 4238 
z
M 2522 4750 
Q 3503 4750 4090 4092 
Q 4678 3434 4678 2328 
Q 4678 1225 4090 567 
Q 3503 -91 2522 -91 
Q 1538 -91 948 565 
Q 359 1222 359 2328 
Q 359 3434 948 4092 
Q 1538 4750 2522 4750 
z
" transform="scale(0.015625)"/>
      <path id="DejaVuSans-76" d="M 191 3500 
L 800 3500 
L 1894 563 
L 2988 3500 
L 3597 3500 
L 2284 0 
L 1503 0 
L 191 3500 
z
" transform="scale(0.015625)"/>
      <path id="DejaVuSans-50" d="M 1259 4147 
L 1259 2394 
L 2053 2394 
Q 2494 2394 2734 2622 
Q 2975 2850 2975 3272 
Q 2975 3691 2734 3919 
Q 2494 4147 2053 4147 
L 1259 4147 
z
M 628 4666 
L 2053 4666 
Q 2838 4666 3239 4311 
Q 3641 3956 3641 3272 
Q 3641 2581 3239 2228 
Q 2838 1875 2053 1875 
L 1259 1875 
L 1259 0 
L 628 0 
L 628 4666 
z
" transform="scale(0.015625)"/>
      <path id="DejaVuSans-2c" d="M 750 794 
L 1409 794 
L 1409 256 
L 897 -744 
L 494 -744 
L 750 256 
L 750 794 
z
" transform="scale(0.015625)"/>
     </defs>
     <use xlink:href="#DejaVuSans-54"/>
     <use xlink:href="#DejaVuSans-68" transform="translate(61.083984 0)"/>
     <use xlink:href="#DejaVuSans-65" transform="translate(124.462891 0)"/>
     <use xlink:href="#DejaVuSans-72" transform="translate(185.986328 0)"/>
     <use xlink:href="#DejaVuSans-6d" transform="translate(225.349609 0)"/>
     <use xlink:href="#DejaVuSans-61" transform="translate(322.761719 0)"/>
     <use xlink:href="#DejaVuSans-6c" transform="translate(384.041016 0)"/>
     <use xlink:href="#DejaVuSans-20" transform="translate(411.824219 0)"/>
     <use xlink:href="#DejaVuSans-53" transform="translate(443.611328 0)"/>
     <use xlink:href="#DejaVuSans-74" transform="translate(507.087891 0)"/>
     <use xlink:href="#DejaVuSans-72" transform="translate(546.296875 0)"/>
     <use xlink:href="#DejaVuSans-61" transform="translate(587.410156 0)"/>
     <use xlink:href="#DejaVuSans-69" transform="translate(648.689453 0)"/>
     <use xlink:href="#DejaVuSans-6e" transform="translate(676.472656 0)"/>
     <use xlink:href="#DejaVuSans-20" transform="translate(739.851562 0)"/>
     <use xlink:href="#DejaVuSans-4f" transform="translate(771.638672 0)"/>
     <use xlink:href="#DejaVuSans-76" transform="translate(850.349609 0)"/>
     <use xlink:href="#DejaVuSans-65" transform="translate(909.529297 0)"/>
     <use xlink:href="#DejaVuSans-72" transform="translate(971.052734 0)"/>
     <use xlink:href="#DejaVuSans-20" transform="translate(1012.166016 0)"/>
     <use xlink:href="#DejaVuSans-54" transform="translate(1043.953125 0)"/>
     <use xlink:href="#DejaVuSans-69" transform="translate(1101.912109 0)"/>
     <use xlink:href="#DejaVuSans-6d" transform="translate(1129.695312 0)"/>
     <use xlink:href="#DejaVuSans-65" transform="translate(1227.107422 0)"/>
     <use xlink:href="#DejaVuSans-20" transform="translate(1288.630859 0)"/>
     <use xlink:href="#DejaVuSans-61" transform="translate(1320.417969 0)"/>
     <use xlink:href="#DejaVuSans-74" transform="translate(1381.697266 0)"/>
     <use xlink:href="#DejaVuSans-20" transform="translate(1420.90625 0)"/>
     <use xlink:href="#DejaVuSans-50" transform="translate(1452.693359 0)"/>
     <use xlink:href="#DejaVuSans-6f" transform="translate(1509.371094 0)"/>
     <use xlink:href="#DejaVuSans-69" transform="translate(1570.552734 0)"/>
     <use xlink:href="#DejaVuSans-6e" transform="translate(1598.335938 0)"/>
     <use xlink:href="#DejaVuSans-74" transform="translate(1661.714844 0)"/>
     <use xlink:href="#DejaVuSans-20" transform="translate(1700.923828 0)"/>
     <use xlink:href="#DejaVuSans-28" transform="translate(1732.710938 0)"/>
     <use xlink:href="#DejaVuSans-34" transform="translate(1771.724609 0)"/>
     <use xlink:href="#DejaVuSans-34" transform="translate(1835.347656 0)"/>
     <use xlink:href="#DejaVuSans-2c" transform="translate(1898.970703 0)"/>
     <use xlink:href="#DejaVuSans-31" transform="translate(1930.757812 0)"/>
     <use xlink:href="#DejaVuSans-37" transform="translate(1994.380859 0)"/>
     <use xlink:href="#DejaVuSans-29" transform="translate(2058.003906 0)"/>
    </g>
   </g>
  </g>
  <g id="axes_2">
   <g id="patch_7">
    <path d="M 71.166875 672.477812 
L 849.151875 672.477812 
L 849.151875 378.437812 
L 71.166875 378.437812 
z
" style="fill: #ffffff"/>
   </g>
   <g id="matplotlib.axis_3">
    <g id="xtick_9">
     <g id="line2d_30">
      <path d="M 106.52983 672.477812 
L 106.52983 378.437812 
" clip-path="url(#p95a7b59f28)" style="fill: none; stroke: #b0b0b0; stroke-opacity: 0.3; stroke-width: 0.8; stroke-linecap: square"/>
     </g>
     <g id="line2d_31">
      <g>
       <use xlink:href="#mfca334ef21" x="106.52983" y="672.477812" style="stroke: #000000; stroke-width: 0.8"/>
      </g>
     </g>
     <g id="text_18">
      <!-- 0 -->
      <g transform="translate(103.34858 687.07625) scale(0.1 -0.1)">
       <use xlink:href="#DejaVuSans-30"/>
      </g>
     </g>
    </g>
    <g id="xtick_10">
     <g id="line2d_32">
      <path d="M 206.708171 672.477812 
L 206.708171 378.437812 
" clip-path="url(#p95a7b59f28)" style="fill: none; stroke: #b0b0b0; stroke-opacity: 0.3; stroke-width: 0.8; stroke-linecap: square"/>
     </g>
     <g id="line2d_33">
      <g>
       <use xlink:href="#mfca334ef21" x="206.708171" y="672.477812" style="stroke: #000000; stroke-width: 0.8"/>
      </g>
     </g>
     <g id="text_19">
      <!-- 10 -->
      <g transform="translate(200.345671 687.07625) scale(0.1 -0.1)">
       <use xlink:href="#DejaVuSans-31"/>
       <use xlink:href="#DejaVuSans-30" transform="translate(63.623047 0)"/>
      </g>
     </g>
    </g>
    <g id="xtick_11">
     <g id="line2d_34">
      <path d="M 306.886513 672.477812 
L 306.886513 378.437812 
" clip-path="url(#p95a7b59f28)" style="fill: none; stroke: #b0b0b0; stroke-opacity: 0.3; stroke-width: 0.8; stroke-linecap: square"/>
     </g>
     <g id="line2d_35">
      <g>
       <use xlink:href="#mfca334ef21" x="306.886513" y="672.477812" style="stroke: #000000; stroke-width: 0.8"/>
      </g>
     </g>
     <g id="text_20">
      <!-- 20 -->
      <g transform="translate(300.524013 687.07625) scale(0.1 -0.1)">
       <use xlink:href="#DejaVuSans-32"/>
       <use xlink:href="#DejaVuSans-30" transform="translate(63.623047 0)"/>
      </g>
     </g>
    </g>
    <g id="xtick_12">
     <g id="line2d_36">
      <path d="M 407.064854 672.477812 
L 407.064854 378.437812 
" clip-path="url(#p95a7b59f28)" style="fill: none; stroke: #b0b0b0; stroke-opacity: 0.3; stroke-width: 0.8; stroke-linecap: square"/>
     </g>
     <g id="line2d_37">
      <g>
       <use xlink:href="#mfca334ef21" x="407.064854" y="672.477812" style="stroke: #000000; stroke-width: 0.8"/>
      </g>
     </g>
     <g id="text_21">
      <!-- 30 -->
      <g transform="translate(400.702354 687.07625) scale(0.1 -0.1)">
       <use xlink:href="#DejaVuSans-33"/>
       <use xlink:href="#DejaVuSans-30" transform="translate(63.623047 0)"/>
      </g>
     </g>
    </g>
    <g id="xtick_13">
     <g id="line2d_38">
      <path d="M 507.243195 672.477812 
L 507.243195 378.437812 
" clip-path="url(#p95a7b59f28)" style="fill: none; stroke: #b0b0b0; stroke-opacity: 0.3; stroke-width: 0.8; stroke-linecap: square"/>
     </g>
     <g id="line2d_39">
      <g>
       <use xlink:href="#mfca334ef21" x="507.243195" y="672.477812" style="stroke: #000000; stroke-width: 0.8"/>
      </g>
     </g>
     <g id="text_22">
      <!-- 40 -->
      <g transform="translate(500.880695 687.07625) scale(0.1 -0.1)">
       <use xlink:href="#DejaVuSans-34"/>
       <use xlink:href="#DejaVuSans-30" transform="translate(63.623047 0)"/>
      </g>
     </g>
    </g>
    <g id="xtick_14">
     <g id="line2d_40">
      <path d="M 607.421537 672.477812 
L 607.421537 378.437812 
" clip-path="url(#p95a7b59f28)" style="fill: none; stroke: #b0b0b0; stroke-opacity: 0.3; stroke-width: 0.8; stroke-linecap: square"/>
     </g>
     <g id="line2d_41">
      <g>
       <use xlink:href="#mfca334ef21" x="607.421537" y="672.477812" style="stroke: #000000; stroke-width: 0.8"/>
      </g>
     </g>
     <g id="text_23">
      <!-- 50 -->
      <g transform="translate(601.059037 687.07625) scale(0.1 -0.1)">
       <use xlink:href="#DejaVuSans-35"/>
       <use xlink:href="#DejaVuSans-30" transform="translate(63.623047 0)"/>
      </g>
     </g>
    </g>
    <g id="xtick_15">
     <g id="line2d_42">
      <path d="M 707.599878 672.477812 
L 707.599878 378.437812 
" clip-path="url(#p95a7b59f28)" style="fill: none; stroke: #b0b0b0; stroke-opacity: 0.3; stroke-width: 0.8; stroke-linecap: square"/>
     </g>
     <g id="line2d_43">
      <g>
       <use xlink:href="#mfca334ef21" x="707.599878" y="672.477812" style="stroke: #000000; stroke-width: 0.8"/>
      </g>
     </g>
     <g id="text_24">
      <!-- 60 -->
      <g transform="translate(701.237378 687.07625) scale(0.1 -0.1)">
       <use xlink:href="#DejaVuSans-36"/>
       <use xlink:href="#DejaVuSans-30" transform="translate(63.623047 0)"/>
      </g>
     </g>
    </g>
    <g id="xtick_16">
     <g id="line2d_44">
      <path d="M 807.77822 672.477812 
L 807.77822 378.437812 
" clip-path="url(#p95a7b59f28)" style="fill: none; stroke: #b0b0b0; stroke-opacity: 0.3; stroke-width: 0.8; stroke-linecap: square"/>
     </g>
     <g id="line2d_45">
      <g>
       <use xlink:href="#mfca334ef21" x="807.77822" y="672.477812" style="stroke: #000000; stroke-width: 0.8"/>
      </g>
     </g>
     <g id="text_25">
      <!-- 70 -->
      <g transform="translate(801.41572 687.07625) scale(0.1 -0.1)">
       <use xlink:href="#DejaVuSans-37"/>
       <use xlink:href="#DejaVuSans-30" transform="translate(63.623047 0)"/>
      </g>
     </g>
    </g>
    <g id="text_26">
     <!-- Time (seconds) -->
     <g transform="translate(414.365313 702.274062) scale(0.12 -0.12)">
      <use xlink:href="#DejaVuSans-54"/>
      <use xlink:href="#DejaVuSans-69" transform="translate(57.958984 0)"/>
      <use xlink:href="#DejaVuSans-6d" transform="translate(85.742188 0)"/>
      <use xlink:href="#DejaVuSans-65" transform="translate(183.154297 0)"/>
      <use xlink:href="#DejaVuSans-20" transform="translate(244.677734 0)"/>
      <use xlink:href="#DejaVuSans-28" transform="translate(276.464844 0)"/>
      <use xlink:href="#DejaVuSans-73" transform="translate(315.478516 0)"/>
      <use xlink:href="#DejaVuSans-65" transform="translate(367.578125 0)"/>
      <use xlink:href="#DejaVuSans-63" transform="translate(429.101562 0)"/>
      <use xlink:href="#DejaVuSans-6f" transform="translate(484.082031 0)"/>
      <use xlink:href="#DejaVuSans-6e" transform="translate(545.263672 0)"/>
      <use xlink:href="#DejaVuSans-64" transform="translate(608.642578 0)"/>
      <use xlink:href="#DejaVuSans-73" transform="translate(672.119141 0)"/>
      <use xlink:href="#DejaVuSans-29" transform="translate(724.21875 0)"/>
     </g>
    </g>
   </g>
   <g id="matplotlib.axis_4">
    <g id="ytick_7">
     <g id="line2d_46">
      <path d="M 71.166875 652.583776 
L 849.151875 652.583776 
" clip-path="url(#p95a7b59f28)" style="fill: none; stroke: #b0b0b0; stroke-opacity: 0.3; stroke-width: 0.8; stroke-linecap: square"/>
     </g>
     <g id="line2d_47">
      <g>
       <use xlink:href="#m895b3c342a" x="71.166875" y="652.583776" style="stroke: #000000; stroke-width: 0.8"/>
      </g>
     </g>
     <g id="text_27">
      <!-- 0.0000 -->
      <g transform="translate(29.17625 656.382995) scale(0.1 -0.1)">
       <use xlink:href="#DejaVuSans-30"/>
       <use xlink:href="#DejaVuSans-2e" transform="translate(63.623047 0)"/>
       <use xlink:href="#DejaVuSans-30" transform="translate(95.410156 0)"/>
       <use xlink:href="#DejaVuSans-30" transform="translate(159.033203 0)"/>
       <use xlink:href="#DejaVuSans-30" transform="translate(222.65625 0)"/>
       <use xlink:href="#DejaVuSans-30" transform="translate(286.279297 0)"/>
      </g>
     </g>
    </g>
    <g id="ytick_8">
     <g id="line2d_48">
      <path d="M 71.166875 613.895804 
L 849.151875 613.895804 
" clip-path="url(#p95a7b59f28)" style="fill: none; stroke: #b0b0b0; stroke-opacity: 0.3; stroke-width: 0.8; stroke-linecap: square"/>
     </g>
     <g id="line2d_49">
      <g>
       <use xlink:href="#m895b3c342a" x="71.166875" y="613.895804" style="stroke: #000000; stroke-width: 0.8"/>
      </g>
     </g>
     <g id="text_28">
      <!-- 0.0001 -->
      <g transform="translate(29.17625 617.695023) scale(0.1 -0.1)">
       <use xlink:href="#DejaVuSans-30"/>
       <use xlink:href="#DejaVuSans-2e" transform="translate(63.623047 0)"/>
       <use xlink:href="#DejaVuSans-30" transform="translate(95.410156 0)"/>
       <use xlink:href="#DejaVuSans-30" transform="translate(159.033203 0)"/>
       <use xlink:href="#DejaVuSans-30" transform="translate(222.65625 0)"/>
       <use xlink:href="#DejaVuSans-31" transform="translate(286.279297 0)"/>
      </g>
     </g>
    </g>
    <g id="ytick_9">
     <g id="line2d_50">
      <path d="M 71.166875 575.207833 
L 849.151875 575.207833 
" clip-path="url(#p95a7b59f28)" style="fill: none; stroke: #b0b0b0; stroke-opacity: 0.3; stroke-width: 0.8; stroke-linecap: square"/>
     </g>
     <g id="line2d_51">
      <g>
       <use xlink:href="#m895b3c342a" x="71.166875" y="575.207833" style="stroke: #000000; stroke-width: 0.8"/>
      </g>
     </g>
     <g id="text_29">
      <!-- 0.0002 -->
      <g transform="translate(29.17625 579.007051) scale(0.1 -0.1)">
       <use xlink:href="#DejaVuSans-30"/>
       <use xlink:href="#DejaVuSans-2e" transform="translate(63.623047 0)"/>
       <use xlink:href="#DejaVuSans-30" transform="translate(95.410156 0)"/>
       <use xlink:href="#DejaVuSans-30" transform="translate(159.033203 0)"/>
       <use xlink:href="#DejaVuSans-30" transform="translate(222.65625 0)"/>
       <use xlink:href="#DejaVuSans-32" transform="translate(286.279297 0)"/>
      </g>
     </g>
    </g>
    <g id="ytick_10">
     <g id="line2d_52">
      <path d="M 71.166875 536.519861 
L 849.151875 536.519861 
" clip-path="url(#p95a7b59f28)" style="fill: none; stroke: #b0b0b0; stroke-opacity: 0.3; stroke-width: 0.8; stroke-linecap: square"/>
     </g>
     <g id="line2d_53">
      <g>
       <use xlink:href="#m895b3c342a" x="71.166875" y="536.519861" style="stroke: #000000; stroke-width: 0.8"/>
      </g>
     </g>
     <g id="text_30">
      <!-- 0.0003 -->
      <g transform="translate(29.17625 540.31908) scale(0.1 -0.1)">
       <use xlink:href="#DejaVuSans-30"/>
       <use xlink:href="#DejaVuSans-2e" transform="translate(63.623047 0)"/>
       <use xlink:href="#DejaVuSans-30" transform="translate(95.410156 0)"/>
       <use xlink:href="#DejaVuSans-30" transform="translate(159.033203 0)"/>
       <use xlink:href="#DejaVuSans-30" transform="translate(222.65625 0)"/>
       <use xlink:href="#DejaVuSans-33" transform="translate(286.279297 0)"/>
      </g>
     </g>
    </g>
    <g id="ytick_11">
     <g id="line2d_54">
      <path d="M 71.166875 497.831889 
L 849.151875 497.831889 
" clip-path="url(#p95a7b59f28)" style="fill: none; stroke: #b0b0b0; stroke-opacity: 0.3; stroke-width: 0.8; stroke-linecap: square"/>
     </g>
     <g id="line2d_55">
      <g>
       <use xlink:href="#m895b3c342a" x="71.166875" y="497.831889" style="stroke: #000000; stroke-width: 0.8"/>
      </g>
     </g>
     <g id="text_31">
      <!-- 0.0004 -->
      <g transform="translate(29.17625 501.631108) scale(0.1 -0.1)">
       <use xlink:href="#DejaVuSans-30"/>
       <use xlink:href="#DejaVuSans-2e" transform="translate(63.623047 0)"/>
       <use xlink:href="#DejaVuSans-30" transform="translate(95.410156 0)"/>
       <use xlink:href="#DejaVuSans-30" transform="translate(159.033203 0)"/>
       <use xlink:href="#DejaVuSans-30" transform="translate(222.65625 0)"/>
       <use xlink:href="#DejaVuSans-34" transform="translate(286.279297 0)"/>
      </g>
     </g>
    </g>
    <g id="ytick_12">
     <g id="line2d_56">
      <path d="M 71.166875 459.143917 
L 849.151875 459.143917 
" clip-path="url(#p95a7b59f28)" style="fill: none; stroke: #b0b0b0; stroke-opacity: 0.3; stroke-width: 0.8; stroke-linecap: square"/>
     </g>
     <g id="line2d_57">
      <g>
       <use xlink:href="#m895b3c342a" x="71.166875" y="459.143917" style="stroke: #000000; stroke-width: 0.8"/>
      </g>
     </g>
     <g id="text_32">
      <!-- 0.0005 -->
      <g transform="translate(29.17625 462.943136) scale(0.1 -0.1)">
       <use xlink:href="#DejaVuSans-30"/>
       <use xlink:href="#DejaVuSans-2e" transform="translate(63.623047 0)"/>
       <use xlink:href="#DejaVuSans-30" transform="translate(95.410156 0)"/>
       <use xlink:href="#DejaVuSans-30" transform="translate(159.033203 0)"/>
       <use xlink:href="#DejaVuSans-30" transform="translate(222.65625 0)"/>
       <use xlink:href="#DejaVuSans-35" transform="translate(286.279297 0)"/>
      </g>
     </g>
    </g>
    <g id="ytick_13">
     <g id="line2d_58">
      <path d="M 71.166875 420.455945 
L 849.151875 420.455945 
" clip-path="url(#p95a7b59f28)" style="fill: none; stroke: #b0b0b0; stroke-opacity: 0.3; stroke-width: 0.8; stroke-linecap: square"/>
     </g>
     <g id="line2d_59">
      <g>
       <use xlink:href="#m895b3c342a" x="71.166875" y="420.455945" style="stroke: #000000; stroke-width: 0.8"/>
      </g>
     </g>
     <g id="text_33">
      <!-- 0.0006 -->
      <g transform="translate(29.17625 424.255164) scale(0.1 -0.1)">
       <use xlink:href="#DejaVuSans-30"/>
       <use xlink:href="#DejaVuSans-2e" transform="translate(63.623047 0)"/>
       <use xlink:href="#DejaVuSans-30" transform="translate(95.410156 0)"/>
       <use xlink:href="#DejaVuSans-30" transform="translate(159.033203 0)"/>
       <use xlink:href="#DejaVuSans-30" transform="translate(222.65625 0)"/>
       <use xlink:href="#DejaVuSans-36" transform="translate(286.279297 0)"/>
      </g>
     </g>
    </g>
    <g id="ytick_14">
     <g id="line2d_60">
      <path d="M 71.166875 381.767974 
L 849.151875 381.767974 
" clip-path="url(#p95a7b59f28)" style="fill: none; stroke: #b0b0b0; stroke-opacity: 0.3; stroke-width: 0.8; stroke-linecap: square"/>
     </g>
     <g id="line2d_61">
      <g>
       <use xlink:href="#m895b3c342a" x="71.166875" y="381.767974" style="stroke: #000000; stroke-width: 0.8"/>
      </g>
     </g>
     <g id="text_34">
      <!-- 0.0007 -->
      <g transform="translate(29.17625 385.567192) scale(0.1 -0.1)">
       <use xlink:href="#DejaVuSans-30"/>
       <use xlink:href="#DejaVuSans-2e" transform="translate(63.623047 0)"/>
       <use xlink:href="#DejaVuSans-30" transform="translate(95.410156 0)"/>
       <use xlink:href="#DejaVuSans-30" transform="translate(159.033203 0)"/>
       <use xlink:href="#DejaVuSans-30" transform="translate(222.65625 0)"/>
       <use xlink:href="#DejaVuSans-37" transform="translate(286.279297 0)"/>
      </g>
     </g>
    </g>
    <g id="text_35">
     <!-- Average Thermal Strain -->
     <g transform="translate(22.680625 596.39375) rotate(-90) scale(0.12 -0.12)">
      <defs>
       <path id="DejaVuSans-41" d="M 2188 4044 
L 1331 1722 
L 3047 1722 
L 2188 4044 
z
M 1831 4666 
L 2547 4666 
L 4325 0 
L 3669 0 
L 3244 1197 
L 1141 1197 
L 716 0 
L 50 0 
L 1831 4666 
z
" transform="scale(0.015625)"/>
       <path id="DejaVuSans-67" d="M 2906 1791 
Q 2906 2416 2648 2759 
Q 2391 3103 1925 3103 
Q 1463 3103 1205 2759 
Q 947 2416 947 1791 
Q 947 1169 1205 825 
Q 1463 481 1925 481 
Q 2391 481 2648 825 
Q 2906 1169 2906 1791 
z
M 3481 434 
Q 3481 -459 3084 -895 
Q 2688 -1331 1869 -1331 
Q 1566 -1331 1297 -1286 
Q 1028 -1241 775 -1147 
L 775 -588 
Q 1028 -725 1275 -790 
Q 1522 -856 1778 -856 
Q 2344 -856 2625 -561 
Q 2906 -266 2906 331 
L 2906 616 
Q 2728 306 2450 153 
Q 2172 0 1784 0 
Q 1141 0 747 490 
Q 353 981 353 1791 
Q 353 2603 747 3093 
Q 1141 3584 1784 3584 
Q 2172 3584 2450 3431 
Q 2728 3278 2906 2969 
L 2906 3500 
L 3481 3500 
L 3481 434 
z
" transform="scale(0.015625)"/>
      </defs>
      <use xlink:href="#DejaVuSans-41"/>
      <use xlink:href="#DejaVuSans-76" transform="translate(62.533203 0)"/>
      <use xlink:href="#DejaVuSans-65" transform="translate(121.712891 0)"/>
      <use xlink:href="#DejaVuSans-72" transform="translate(183.236328 0)"/>
      <use xlink:href="#DejaVuSans-61" transform="translate(224.349609 0)"/>
      <use xlink:href="#DejaVuSans-67" transform="translate(285.628906 0)"/>
      <use xlink:href="#DejaVuSans-65" transform="translate(349.105469 0)"/>
      <use xlink:href="#DejaVuSans-20" transform="translate(410.628906 0)"/>
      <use xlink:href="#DejaVuSans-54" transform="translate(442.416016 0)"/>
      <use xlink:href="#DejaVuSans-68" transform="translate(503.5 0)"/>
      <use xlink:href="#DejaVuSans-65" transform="translate(566.878906 0)"/>
      <use xlink:href="#DejaVuSans-72" transform="translate(628.402344 0)"/>
      <use xlink:href="#DejaVuSans-6d" transform="translate(667.765625 0)"/>
      <use xlink:href="#DejaVuSans-61" transform="translate(765.177734 0)"/>
      <use xlink:href="#DejaVuSans-6c" transform="translate(826.457031 0)"/>
      <use xlink:href="#DejaVuSans-20" transform="translate(854.240234 0)"/>
      <use xlink:href="#DejaVuSans-53" transform="translate(886.027344 0)"/>
      <use xlink:href="#DejaVuSans-74" transform="translate(949.503906 0)"/>
      <use xlink:href="#DejaVuSans-72" transform="translate(988.712891 0)"/>
      <use xlink:href="#DejaVuSans-61" transform="translate(1029.826172 0)"/>
      <use xlink:href="#DejaVuSans-69" transform="translate(1091.105469 0)"/>
      <use xlink:href="#DejaVuSans-6e" transform="translate(1118.888672 0)"/>
     </g>
    </g>
   </g>
   <g id="line2d_62">
    <path d="M 106.52983 403.447131 
L 108.533396 407.408337 
L 110.536963 526.90521 
L 112.54053 413.105714 
L 114.544097 518.116698 
L 116.547664 649.819765 
L 118.551231 522.187608 
L 120.554797 404.472813 
L 122.558364 407.97026 
L 124.561931 400.923323 
L 126.565498 406.043056 
L 128.569065 405.167265 
L 130.572632 505.628664 
L 132.576198 658.310912 
L 134.579765 537.276884 
L 136.583332 395.639976 
L 138.586899 518.73369 
L 140.590466 410.396571 
L 142.594032 408.417217 
L 144.597599 525.758987 
L 146.601166 530.361375 
L 148.604733 407.588853 
L 150.6083 518.473464 
L 152.611867 517.36896 
L 154.615433 398.540724 
L 156.619 408.196438 
L 158.622567 521.501711 
L 160.626134 411.179489 
L 162.629701 402.844301 
L 164.633268 522.968753 
L 166.636834 409.341663 
L 168.640401 406.498909 
L 170.643968 520.487406 
L 172.647535 615.910021 
L 174.651102 534.67167 
L 176.654669 412.470718 
L 178.658235 413.453251 
L 180.661802 541.847904 
L 182.665369 416.286592 
L 184.668936 406.033884 
L 186.672503 537.165268 
L 188.67607 405.848246 
L 190.679636 492.659735 
L 192.683203 524.578434 
L 194.68677 407.580404 
L 196.690337 407.52046 
L 198.693904 538.261478 
L 200.697471 531.007063 
L 202.701037 408.954804 
L 204.704604 398.480223 
L 206.708171 539.888027 
L 208.711738 408.044053 
L 210.715305 408.055531 
L 212.718872 414.619555 
L 214.722438 407.176975 
L 216.726005 538.79058 
L 218.729572 649.029194 
L 220.733139 625.496056 
L 222.736706 411.75316 
L 224.740273 526.62687 
L 226.743839 410.831173 
L 228.747406 409.91548 
L 230.750973 398.910308 
L 232.75454 413.276055 
L 234.758107 526.299035 
L 236.761673 410.294379 
L 238.76524 403.510189 
L 240.768807 537.40162 
L 242.772374 500.81155 
L 244.775941 409.121157 
L 246.779508 518.745043 
L 248.783074 526.082831 
L 250.786641 407.976151 
L 252.790208 401.251104 
L 254.793775 407.127856 
L 256.797342 399.274152 
L 260.804475 642.094887 
L 262.808042 659.112358 
L 264.811609 409.250664 
L 266.815176 405.857506 
L 268.818743 408.374809 
L 270.82231 406.095312 
L 272.825876 541.62202 
L 274.829443 631.893906 
L 276.83301 522.727176 
L 278.836577 538.348797 
L 280.840144 403.577121 
L 282.843711 401.168024 
L 284.847277 414.03653 
L 286.850844 405.28312 
L 288.854411 414.080779 
L 290.857978 522.127408 
L 292.861545 503.502326 
L 294.865112 531.935798 
L 296.868678 531.244922 
L 298.872245 536.577442 
L 300.875812 522.523396 
L 302.879379 406.25188 
L 304.882946 521.476247 
L 306.886513 529.501441 
L 308.890079 406.72218 
L 310.893646 403.77366 
L 312.897213 541.970072 
L 314.90078 540.688357 
L 316.904347 407.218391 
L 318.907914 404.08905 
L 320.91148 413.365534 
L 322.915047 410.566496 
L 324.918614 465.674824 
L 326.922181 530.897404 
L 328.925748 640.208064 
L 330.929314 589.077134 
L 332.932881 408.899263 
L 334.936448 409.222474 
L 336.940015 406.256986 
L 338.943582 404.369552 
L 340.947149 522.688314 
L 342.950715 521.310248 
L 344.954282 398.496016 
L 346.957849 407.846077 
L 348.961416 528.12464 
L 350.964983 484.556055 
L 352.96855 646.790159 
L 354.972116 537.304763 
L 356.975683 410.3409 
L 358.97925 414.081575 
L 360.982817 411.915529 
L 362.986384 406.529655 
L 364.989951 410.345874 
L 366.993517 400.402378 
L 368.997084 651.177565 
L 371.000651 405.886754 
L 373.004218 511.497436 
L 375.007785 516.951259 
L 377.011352 408.280663 
L 379.014918 408.095771 
L 381.018485 540.663108 
L 383.022052 538.954559 
L 385.025619 592.41551 
L 387.029186 553.060807 
L 389.032753 403.394827 
L 391.036319 396.522181 
L 393.039886 408.600843 
L 395.043453 411.52808 
L 397.04702 491.785041 
L 399.050587 539.074957 
L 401.054154 410.487584 
L 403.05772 520.764109 
L 405.061287 646.915542 
L 407.064854 412.097411 
L 409.068421 402.332939 
L 411.071988 402.375203 
L 413.075555 543.096811 
L 415.079121 517.057341 
L 417.082688 404.966635 
L 419.086255 536.908346 
L 421.089822 530.142365 
L 423.093389 406.36122 
L 425.096955 527.077507 
L 427.100522 409.817658 
L 429.104089 407.096586 
L 431.107656 470.984779 
L 433.111223 528.994033 
L 435.11479 534.329593 
L 437.118356 402.126916 
L 439.121923 523.369303 
L 441.12549 409.72901 
L 443.129057 408.375923 
L 445.132624 509.60152 
L 447.136191 519.331157 
L 449.139757 409.757153 
L 451.143324 403.741658 
L 453.146891 537.834033 
L 455.150458 544.158222 
L 457.154025 411.632768 
L 459.157592 513.461169 
L 461.161158 514.874013 
L 463.164725 402.807477 
L 465.168292 409.081809 
L 467.171859 466.446805 
L 469.175426 411.887388 
L 471.178993 413.485132 
L 473.182559 643.199059 
L 475.186126 656.408595 
L 477.189693 406.703761 
L 479.19326 403.998815 
L 481.196827 458.209539 
L 483.200394 413.739657 
L 485.20396 407.82171 
L 487.207527 534.864173 
L 489.211094 539.27537 
L 491.214661 413.639974 
L 493.218228 399.40978 
L 495.221795 402.161194 
L 497.225361 408.197856 
L 499.228928 418.439233 
L 501.232495 479.560129 
L 503.236062 408.026381 
L 505.239629 400.754395 
L 507.243195 408.794848 
L 509.246762 415.776731 
L 511.250329 414.001588 
L 513.253896 410.096426 
L 515.257463 411.814622 
L 517.26103 424.130614 
L 519.264596 494.520623 
L 521.268163 413.30591 
L 523.27173 396.839838 
L 525.275297 407.168993 
L 527.278864 413.106976 
L 529.282431 411.111536 
L 531.285997 401.811199 
L 533.289564 406.098451 
L 535.293131 401.448108 
L 537.296698 415.787293 
L 539.300265 471.560021 
L 541.303832 404.054379 
L 543.307398 508.865865 
L 545.310965 404.213017 
L 547.314532 403.828495 
L 549.318099 405.093521 
L 551.321666 413.975204 
L 553.325233 431.656748 
L 555.328799 402.508529 
L 557.332366 407.012444 
L 559.335933 404.766564 
L 561.3395 410.661751 
L 563.343067 408.258721 
L 565.346634 435.199208 
L 567.3502 409.137307 
L 569.353767 414.673333 
L 571.357334 411.78526 
L 573.360901 499.230645 
L 575.364468 447.242945 
L 577.368035 410.070237 
L 579.371601 402.927239 
L 581.375168 442.614787 
L 583.378735 400.071558 
L 585.382302 409.119519 
L 587.385869 497.477036 
L 589.389436 410.44504 
L 591.393002 408.493392 
L 593.396569 403.620405 
L 595.400136 433.43052 
L 597.403703 403.151076 
L 599.40727 410.18097 
L 601.410836 408.965522 
L 603.414403 402.448528 
L 605.41797 432.924423 
L 607.421537 411.483352 
L 609.425104 520.014188 
L 611.428671 409.731685 
L 613.432237 412.300608 
L 615.435804 424.937268 
L 617.439371 412.340203 
L 619.442938 400.538572 
L 621.446505 408.389458 
L 623.450072 492.432143 
L 625.453638 411.13347 
L 627.457205 411.17537 
L 629.460772 400.264131 
L 631.464339 409.329188 
L 633.467906 410.143748 
L 635.471473 392.6662 
L 637.475039 427.832773 
L 639.478606 419.796697 
L 641.482173 485.843087 
L 643.48574 411.278217 
L 645.489307 412.885351 
L 647.492874 409.992894 
L 649.49644 409.598748 
L 651.500007 400.26149 
L 653.503574 408.312868 
L 655.507141 402.904428 
L 657.510708 405.676241 
L 659.514275 410.80744 
L 661.517841 416.283544 
L 663.521408 484.099117 
L 665.524975 404.028395 
L 667.528542 405.82056 
L 669.532109 403.373035 
L 671.535676 405.115594 
L 673.539242 427.446396 
L 675.542809 411.395786 
L 677.546376 416.744273 
L 679.549943 414.87533 
L 681.55351 417.492793 
L 683.557077 391.803267 
L 685.560643 394.180031 
L 687.56421 433.327739 
L 689.567777 408.411548 
L 691.571344 410.456305 
L 693.574911 479.203763 
L 695.578477 405.749794 
L 697.582044 407.475484 
L 699.585611 413.228073 
L 701.589178 403.882782 
L 703.592745 402.92416 
L 705.596312 406.200918 
L 707.599878 473.798341 
L 709.603445 411.480649 
L 711.607012 440.514243 
L 713.610579 410.166268 
L 715.614146 415.600403 
L 717.617713 412.529272 
L 719.621279 417.512901 
L 721.624846 401.497446 
L 723.628413 406.405898 
L 725.63198 461.061578 
L 727.635547 405.807849 
L 729.639114 408.268829 
L 731.64268 409.047889 
L 733.646247 449.563166 
L 735.649814 411.506728 
L 737.653381 403.734898 
L 739.656948 409.669927 
L 741.660515 405.5994 
L 743.664081 406.461837 
L 745.667648 409.920441 
L 747.671215 410.023601 
L 749.674782 462.773689 
L 751.678349 450.474764 
L 753.681916 398.914505 
L 755.685482 411.150899 
L 757.689049 415.274022 
L 759.692616 408.721808 
L 761.696183 404.413556 
L 763.69975 417.867895 
L 765.703317 406.216686 
L 767.706883 462.666572 
L 769.71045 447.168361 
L 771.714017 411.604323 
L 773.717584 411.531145 
L 775.721151 406.93488 
L 777.724718 402.753278 
L 779.728284 408.960902 
L 781.731851 412.617665 
L 783.735418 478.367864 
L 785.738985 407.44807 
L 787.742552 405.386192 
L 789.746118 405.224506 
L 791.749685 402.747698 
L 793.753252 408.398966 
L 795.756819 429.408897 
L 797.760386 412.88707 
L 799.763953 418.142343 
L 801.767519 401.691616 
L 803.771086 394.985758 
L 805.774653 412.81018 
L 807.77822 421.922475 
L 809.781787 508.059797 
L 811.785354 410.805633 
L 813.78892 405.776328 
L 813.78892 405.776328 
" clip-path="url(#p95a7b59f28)" style="fill: none; stroke: #0000ff; stroke-width: 2; stroke-linecap: square"/>
   </g>
   <g id="patch_8">
    <path d="M 71.166875 672.477812 
L 71.166875 378.437812 
" style="fill: none; stroke: #000000; stroke-width: 0.8; stroke-linejoin: miter; stroke-linecap: square"/>
   </g>
   <g id="patch_9">
    <path d="M 849.151875 672.477812 
L 849.151875 378.437812 
" style="fill: none; stroke: #000000; stroke-width: 0.8; stroke-linejoin: miter; stroke-linecap: square"/>
   </g>
   <g id="patch_10">
    <path d="M 71.166875 672.477812 
L 849.151875 672.477812 
" style="fill: none; stroke: #000000; stroke-width: 0.8; stroke-linejoin: miter; stroke-linecap: square"/>
   </g>
   <g id="patch_11">
    <path d="M 71.166875 378.437812 
L 849.151875 378.437812 
" style="fill: none; stroke: #000000; stroke-width: 0.8; stroke-linejoin: miter; stroke-linecap: square"/>
   </g>
   <g id="text_36">
    <!-- Average Thermal Strain Over Time (Entire Component) -->
    <g transform="translate(267.858437 372.437812) scale(0.14 -0.14)">
     <defs>
      <path id="DejaVuSans-45" d="M 628 4666 
L 3578 4666 
L 3578 4134 
L 1259 4134 
L 1259 2753 
L 3481 2753 
L 3481 2222 
L 1259 2222 
L 1259 531 
L 3634 531 
L 3634 0 
L 628 0 
L 628 4666 
z
" transform="scale(0.015625)"/>
      <path id="DejaVuSans-43" d="M 4122 4306 
L 4122 3641 
Q 3803 3938 3442 4084 
Q 3081 4231 2675 4231 
Q 1875 4231 1450 3742 
Q 1025 3253 1025 2328 
Q 1025 1406 1450 917 
Q 1875 428 2675 428 
Q 3081 428 3442 575 
Q 3803 722 4122 1019 
L 4122 359 
Q 3791 134 3420 21 
Q 3050 -91 2638 -91 
Q 1578 -91 968 557 
Q 359 1206 359 2328 
Q 359 3453 968 4101 
Q 1578 4750 2638 4750 
Q 3056 4750 3426 4639 
Q 3797 4528 4122 4306 
z
" transform="scale(0.015625)"/>
      <path id="DejaVuSans-70" d="M 1159 525 
L 1159 -1331 
L 581 -1331 
L 581 3500 
L 1159 3500 
L 1159 2969 
Q 1341 3281 1617 3432 
Q 1894 3584 2278 3584 
Q 2916 3584 3314 3078 
Q 3713 2572 3713 1747 
Q 3713 922 3314 415 
Q 2916 -91 2278 -91 
Q 1894 -91 1617 61 
Q 1341 213 1159 525 
z
M 3116 1747 
Q 3116 2381 2855 2742 
Q 2594 3103 2138 3103 
Q 1681 3103 1420 2742 
Q 1159 2381 1159 1747 
Q 1159 1113 1420 752 
Q 1681 391 2138 391 
Q 2594 391 2855 752 
Q 3116 1113 3116 1747 
z
" transform="scale(0.015625)"/>
     </defs>
     <use xlink:href="#DejaVuSans-41"/>
     <use xlink:href="#DejaVuSans-76" transform="translate(62.533203 0)"/>
     <use xlink:href="#DejaVuSans-65" transform="translate(121.712891 0)"/>
     <use xlink:href="#DejaVuSans-72" transform="translate(183.236328 0)"/>
     <use xlink:href="#DejaVuSans-61" transform="translate(224.349609 0)"/>
     <use xlink:href="#DejaVuSans-67" transform="translate(285.628906 0)"/>
     <use xlink:href="#DejaVuSans-65" transform="translate(349.105469 0)"/>
     <use xlink:href="#DejaVuSans-20" transform="translate(410.628906 0)"/>
     <use xlink:href="#DejaVuSans-54" transform="translate(442.416016 0)"/>
     <use xlink:href="#DejaVuSans-68" transform="translate(503.5 0)"/>
     <use xlink:href="#DejaVuSans-65" transform="translate(566.878906 0)"/>
     <use xlink:href="#DejaVuSans-72" transform="translate(628.402344 0)"/>
     <use xlink:href="#DejaVuSans-6d" transform="translate(667.765625 0)"/>
     <use xlink:href="#DejaVuSans-61" transform="translate(765.177734 0)"/>
     <use xlink:href="#DejaVuSans-6c" transform="translate(826.457031 0)"/>
     <use xlink:href="#DejaVuSans-20" transform="translate(854.240234 0)"/>
     <use xlink:href="#DejaVuSans-53" transform="translate(886.027344 0)"/>
     <use xlink:href="#DejaVuSans-74" transform="translate(949.503906 0)"/>
     <use xlink:href="#DejaVuSans-72" transform="translate(988.712891 0)"/>
     <use xlink:href="#DejaVuSans-61" transform="translate(1029.826172 0)"/>
     <use xlink:href="#DejaVuSans-69" transform="translate(1091.105469 0)"/>
     <use xlink:href="#DejaVuSans-6e" transform="translate(1118.888672 0)"/>
     <use xlink:href="#DejaVuSans-20" transform="translate(1182.267578 0)"/>
     <use xlink:href="#DejaVuSans-4f" transform="translate(1214.054688 0)"/>
     <use xlink:href="#DejaVuSans-76" transform="translate(1292.765625 0)"/>
     <use xlink:href="#DejaVuSans-65" transform="translate(1351.945312 0)"/>
     <use xlink:href="#DejaVuSans-72" transform="translate(1413.46875 0)"/>
     <use xlink:href="#DejaVuSans-20" transform="translate(1454.582031 0)"/>
     <use xlink:href="#DejaVuSans-54" transform="translate(1486.369141 0)"/>
     <use xlink:href="#DejaVuSans-69" transform="translate(1544.328125 0)"/>
     <use xlink:href="#DejaVuSans-6d" transform="translate(1572.111328 0)"/>
     <use xlink:href="#DejaVuSans-65" transform="translate(1669.523438 0)"/>
     <use xlink:href="#DejaVuSans-20" transform="translate(1731.046875 0)"/>
     <use xlink:href="#DejaVuSans-28" transform="translate(1762.833984 0)"/>
     <use xlink:href="#DejaVuSans-45" transform="translate(1801.847656 0)"/>
     <use xlink:href="#DejaVuSans-6e" transform="translate(1865.03125 0)"/>
     <use xlink:href="#DejaVuSans-74" transform="translate(1928.410156 0)"/>
     <use xlink:href="#DejaVuSans-69" transform="translate(1967.619141 0)"/>
     <use xlink:href="#DejaVuSans-72" transform="translate(1995.402344 0)"/>
     <use xlink:href="#DejaVuSans-65" transform="translate(2034.265625 0)"/>
     <use xlink:href="#DejaVuSans-20" transform="translate(2095.789062 0)"/>
     <use xlink:href="#DejaVuSans-43" transform="translate(2127.576172 0)"/>
     <use xlink:href="#DejaVuSans-6f" transform="translate(2197.400391 0)"/>
     <use xlink:href="#DejaVuSans-6d" transform="translate(2258.582031 0)"/>
     <use xlink:href="#DejaVuSans-70" transform="translate(2355.994141 0)"/>
     <use xlink:href="#DejaVuSans-6f" transform="translate(2419.470703 0)"/>
     <use xlink:href="#DejaVuSans-6e" transform="translate(2480.652344 0)"/>
     <use xlink:href="#DejaVuSans-65" transform="translate(2544.03125 0)"/>
     <use xlink:href="#DejaVuSans-6e" transform="translate(2605.554688 0)"/>
     <use xlink:href="#DejaVuSans-74" transform="translate(2668.933594 0)"/>
     <use xlink:href="#DejaVuSans-29" transform="translate(2708.142578 0)"/>
    </g>
   </g>
  </g>
 </g>
 <defs>
  <clipPath id="pe9bdc888b0">
   <rect x="71.166875" y="23.837812" width="777.985" height="294.04"/>
  </clipPath>
  <clipPath id="p95a7b59f28">
   <rect x="71.166875" y="378.437812" width="777.985" height="294.04"/>
  </clipPath>
 </defs>
</svg>
