<?xml version="1.0" encoding="utf-8" standalone="no"?>
<!DOCTYPE svg PUBLIC "-//W3C//DTD SVG 1.1//EN"
  "http://www.w3.org/Graphics/SVG/1.1/DTD/svg11.dtd">
<svg xmlns:xlink="http://www.w3.org/1999/xlink" width="1267.970313pt" height="625.392969pt" viewBox="0 0 1267.970313 625.392969" xmlns="http://www.w3.org/2000/svg" version="1.1">
 <metadata>
  <rdf:RDF xmlns:dc="http://purl.org/dc/elements/1.1/" xmlns:cc="http://creativecommons.org/ns#" xmlns:rdf="http://www.w3.org/1999/02/22-rdf-syntax-ns#">
   <cc:Work>
    <dc:type rdf:resource="http://purl.org/dc/dcmitype/StillImage"/>
    <dc:date>2025-03-31T12:33:26.529616</dc:date>
    <dc:format>image/svg+xml</dc:format>
    <dc:creator>
     <cc:Agent>
      <dc:title>Matplotlib v3.10.1, https://matplotlib.org/</dc:title>
     </cc:Agent>
    </dc:creator>
   </cc:Work>
  </rdf:RDF>
 </metadata>
 <defs>
  <style type="text/css">*{stroke-linejoin: round; stroke-linecap: butt}</style>
 </defs>
 <g id="figure_1">
  <g id="patch_1">
   <path d="M 0 625.392969 
L 1267.970313 625.392969 
L 1267.970313 0 
L 0 0 
z
" style="fill: #ffffff"/>
  </g>
  <g id="axes_1">
   <g id="patch_2">
    <path d="M 72.770313 582.997656 
L 512.770313 582.997656 
L 512.770313 28.597656 
L 72.770313 28.597656 
z
" style="fill: #ffffff"/>
   </g>
   <g id="matplotlib.axis_1">
    <g id="xtick_1">
     <g id="line2d_1">
      <path d="M 92.770313 582.997656 
L 92.770313 28.597656 
" clip-path="url(#paaaeb5aa06)" style="fill: none; stroke: #b0b0b0; stroke-opacity: 0.7; stroke-width: 0.8; stroke-linecap: square"/>
     </g>
     <g id="line2d_2">
      <defs>
       <path id="maa2ebadaf9" d="M 0 0 
L 0 3.5 
" style="stroke: #000000; stroke-width: 0.8"/>
      </defs>
      <g>
       <use xlink:href="#maa2ebadaf9" x="92.770313" y="582.997656" style="stroke: #000000; stroke-width: 0.8"/>
      </g>
     </g>
     <g id="text_1">
      <!-- 0 -->
      <g transform="translate(88.952813 599.115781) scale(0.12 -0.12)">
       <defs>
        <path id="DejaVuSans-30" d="M 2034 4250 
Q 1547 4250 1301 3770 
Q 1056 3291 1056 2328 
Q 1056 1369 1301 889 
Q 1547 409 2034 409 
Q 2525 409 2770 889 
Q 3016 1369 3016 2328 
Q 3016 3291 2770 3770 
Q 2525 4250 2034 4250 
z
M 2034 4750 
Q 2819 4750 3233 4129 
Q 3647 3509 3647 2328 
Q 3647 1150 3233 529 
Q 2819 -91 2034 -91 
Q 1250 -91 836 529 
Q 422 1150 422 2328 
Q 422 3509 836 4129 
Q 1250 4750 2034 4750 
z
" transform="scale(0.015625)"/>
       </defs>
       <use xlink:href="#DejaVuSans-30"/>
      </g>
     </g>
    </g>
    <g id="xtick_2">
     <g id="line2d_3">
      <path d="M 149.427536 582.997656 
L 149.427536 28.597656 
" clip-path="url(#paaaeb5aa06)" style="fill: none; stroke: #b0b0b0; stroke-opacity: 0.7; stroke-width: 0.8; stroke-linecap: square"/>
     </g>
     <g id="line2d_4">
      <g>
       <use xlink:href="#maa2ebadaf9" x="149.427536" y="582.997656" style="stroke: #000000; stroke-width: 0.8"/>
      </g>
     </g>
     <g id="text_2">
      <!-- 10 -->
      <g transform="translate(141.792536 599.115781) scale(0.12 -0.12)">
       <defs>
        <path id="DejaVuSans-31" d="M 794 531 
L 1825 531 
L 1825 4091 
L 703 3866 
L 703 4441 
L 1819 4666 
L 2450 4666 
L 2450 531 
L 3481 531 
L 3481 0 
L 794 0 
L 794 531 
z
" transform="scale(0.015625)"/>
       </defs>
       <use xlink:href="#DejaVuSans-31"/>
       <use xlink:href="#DejaVuSans-30" transform="translate(63.623047 0)"/>
      </g>
     </g>
    </g>
    <g id="xtick_3">
     <g id="line2d_5">
      <path d="M 206.08476 582.997656 
L 206.08476 28.597656 
" clip-path="url(#paaaeb5aa06)" style="fill: none; stroke: #b0b0b0; stroke-opacity: 0.7; stroke-width: 0.8; stroke-linecap: square"/>
     </g>
     <g id="line2d_6">
      <g>
       <use xlink:href="#maa2ebadaf9" x="206.08476" y="582.997656" style="stroke: #000000; stroke-width: 0.8"/>
      </g>
     </g>
     <g id="text_3">
      <!-- 20 -->
      <g transform="translate(198.44976 599.115781) scale(0.12 -0.12)">
       <defs>
        <path id="DejaVuSans-32" d="M 1228 531 
L 3431 531 
L 3431 0 
L 469 0 
L 469 531 
Q 828 903 1448 1529 
Q 2069 2156 2228 2338 
Q 2531 2678 2651 2914 
Q 2772 3150 2772 3378 
Q 2772 3750 2511 3984 
Q 2250 4219 1831 4219 
Q 1534 4219 1204 4116 
Q 875 4013 500 3803 
L 500 4441 
Q 881 4594 1212 4672 
Q 1544 4750 1819 4750 
Q 2544 4750 2975 4387 
Q 3406 4025 3406 3419 
Q 3406 3131 3298 2873 
Q 3191 2616 2906 2266 
Q 2828 2175 2409 1742 
Q 1991 1309 1228 531 
z
" transform="scale(0.015625)"/>
       </defs>
       <use xlink:href="#DejaVuSans-32"/>
       <use xlink:href="#DejaVuSans-30" transform="translate(63.623047 0)"/>
      </g>
     </g>
    </g>
    <g id="xtick_4">
     <g id="line2d_7">
      <path d="M 262.741984 582.997656 
L 262.741984 28.597656 
" clip-path="url(#paaaeb5aa06)" style="fill: none; stroke: #b0b0b0; stroke-opacity: 0.7; stroke-width: 0.8; stroke-linecap: square"/>
     </g>
     <g id="line2d_8">
      <g>
       <use xlink:href="#maa2ebadaf9" x="262.741984" y="582.997656" style="stroke: #000000; stroke-width: 0.8"/>
      </g>
     </g>
     <g id="text_4">
      <!-- 30 -->
      <g transform="translate(255.106984 599.115781) scale(0.12 -0.12)">
       <defs>
        <path id="DejaVuSans-33" d="M 2597 2516 
Q 3050 2419 3304 2112 
Q 3559 1806 3559 1356 
Q 3559 666 3084 287 
Q 2609 -91 1734 -91 
Q 1441 -91 1130 -33 
Q 819 25 488 141 
L 488 750 
Q 750 597 1062 519 
Q 1375 441 1716 441 
Q 2309 441 2620 675 
Q 2931 909 2931 1356 
Q 2931 1769 2642 2001 
Q 2353 2234 1838 2234 
L 1294 2234 
L 1294 2753 
L 1863 2753 
Q 2328 2753 2575 2939 
Q 2822 3125 2822 3475 
Q 2822 3834 2567 4026 
Q 2313 4219 1838 4219 
Q 1578 4219 1281 4162 
Q 984 4106 628 3988 
L 628 4550 
Q 988 4650 1302 4700 
Q 1616 4750 1894 4750 
Q 2613 4750 3031 4423 
Q 3450 4097 3450 3541 
Q 3450 3153 3228 2886 
Q 3006 2619 2597 2516 
z
" transform="scale(0.015625)"/>
       </defs>
       <use xlink:href="#DejaVuSans-33"/>
       <use xlink:href="#DejaVuSans-30" transform="translate(63.623047 0)"/>
      </g>
     </g>
    </g>
    <g id="xtick_5">
     <g id="line2d_9">
      <path d="M 319.399208 582.997656 
L 319.399208 28.597656 
" clip-path="url(#paaaeb5aa06)" style="fill: none; stroke: #b0b0b0; stroke-opacity: 0.7; stroke-width: 0.8; stroke-linecap: square"/>
     </g>
     <g id="line2d_10">
      <g>
       <use xlink:href="#maa2ebadaf9" x="319.399208" y="582.997656" style="stroke: #000000; stroke-width: 0.8"/>
      </g>
     </g>
     <g id="text_5">
      <!-- 40 -->
      <g transform="translate(311.764208 599.115781) scale(0.12 -0.12)">
       <defs>
        <path id="DejaVuSans-34" d="M 2419 4116 
L 825 1625 
L 2419 1625 
L 2419 4116 
z
M 2253 4666 
L 3047 4666 
L 3047 1625 
L 3713 1625 
L 3713 1100 
L 3047 1100 
L 3047 0 
L 2419 0 
L 2419 1100 
L 313 1100 
L 313 1709 
L 2253 4666 
z
" transform="scale(0.015625)"/>
       </defs>
       <use xlink:href="#DejaVuSans-34"/>
       <use xlink:href="#DejaVuSans-30" transform="translate(63.623047 0)"/>
      </g>
     </g>
    </g>
    <g id="xtick_6">
     <g id="line2d_11">
      <path d="M 376.056431 582.997656 
L 376.056431 28.597656 
" clip-path="url(#paaaeb5aa06)" style="fill: none; stroke: #b0b0b0; stroke-opacity: 0.7; stroke-width: 0.8; stroke-linecap: square"/>
     </g>
     <g id="line2d_12">
      <g>
       <use xlink:href="#maa2ebadaf9" x="376.056431" y="582.997656" style="stroke: #000000; stroke-width: 0.8"/>
      </g>
     </g>
     <g id="text_6">
      <!-- 50 -->
      <g transform="translate(368.421431 599.115781) scale(0.12 -0.12)">
       <defs>
        <path id="DejaVuSans-35" d="M 691 4666 
L 3169 4666 
L 3169 4134 
L 1269 4134 
L 1269 2991 
Q 1406 3038 1543 3061 
Q 1681 3084 1819 3084 
Q 2600 3084 3056 2656 
Q 3513 2228 3513 1497 
Q 3513 744 3044 326 
Q 2575 -91 1722 -91 
Q 1428 -91 1123 -41 
Q 819 9 494 109 
L 494 744 
Q 775 591 1075 516 
Q 1375 441 1709 441 
Q 2250 441 2565 725 
Q 2881 1009 2881 1497 
Q 2881 1984 2565 2268 
Q 2250 2553 1709 2553 
Q 1456 2553 1204 2497 
Q 953 2441 691 2322 
L 691 4666 
z
" transform="scale(0.015625)"/>
       </defs>
       <use xlink:href="#DejaVuSans-35"/>
       <use xlink:href="#DejaVuSans-30" transform="translate(63.623047 0)"/>
      </g>
     </g>
    </g>
    <g id="xtick_7">
     <g id="line2d_13">
      <path d="M 432.713655 582.997656 
L 432.713655 28.597656 
" clip-path="url(#paaaeb5aa06)" style="fill: none; stroke: #b0b0b0; stroke-opacity: 0.7; stroke-width: 0.8; stroke-linecap: square"/>
     </g>
     <g id="line2d_14">
      <g>
       <use xlink:href="#maa2ebadaf9" x="432.713655" y="582.997656" style="stroke: #000000; stroke-width: 0.8"/>
      </g>
     </g>
     <g id="text_7">
      <!-- 60 -->
      <g transform="translate(425.078655 599.115781) scale(0.12 -0.12)">
       <defs>
        <path id="DejaVuSans-36" d="M 2113 2584 
Q 1688 2584 1439 2293 
Q 1191 2003 1191 1497 
Q 1191 994 1439 701 
Q 1688 409 2113 409 
Q 2538 409 2786 701 
Q 3034 994 3034 1497 
Q 3034 2003 2786 2293 
Q 2538 2584 2113 2584 
z
M 3366 4563 
L 3366 3988 
Q 3128 4100 2886 4159 
Q 2644 4219 2406 4219 
Q 1781 4219 1451 3797 
Q 1122 3375 1075 2522 
Q 1259 2794 1537 2939 
Q 1816 3084 2150 3084 
Q 2853 3084 3261 2657 
Q 3669 2231 3669 1497 
Q 3669 778 3244 343 
Q 2819 -91 2113 -91 
Q 1303 -91 875 529 
Q 447 1150 447 2328 
Q 447 3434 972 4092 
Q 1497 4750 2381 4750 
Q 2619 4750 2861 4703 
Q 3103 4656 3366 4563 
z
" transform="scale(0.015625)"/>
       </defs>
       <use xlink:href="#DejaVuSans-36"/>
       <use xlink:href="#DejaVuSans-30" transform="translate(63.623047 0)"/>
      </g>
     </g>
    </g>
    <g id="xtick_8">
     <g id="line2d_15">
      <path d="M 489.370879 582.997656 
L 489.370879 28.597656 
" clip-path="url(#paaaeb5aa06)" style="fill: none; stroke: #b0b0b0; stroke-opacity: 0.7; stroke-width: 0.8; stroke-linecap: square"/>
     </g>
     <g id="line2d_16">
      <g>
       <use xlink:href="#maa2ebadaf9" x="489.370879" y="582.997656" style="stroke: #000000; stroke-width: 0.8"/>
      </g>
     </g>
     <g id="text_8">
      <!-- 70 -->
      <g transform="translate(481.735879 599.115781) scale(0.12 -0.12)">
       <defs>
        <path id="DejaVuSans-37" d="M 525 4666 
L 3525 4666 
L 3525 4397 
L 1831 0 
L 1172 0 
L 2766 4134 
L 525 4134 
L 525 4666 
z
" transform="scale(0.015625)"/>
       </defs>
       <use xlink:href="#DejaVuSans-37"/>
       <use xlink:href="#DejaVuSans-30" transform="translate(63.623047 0)"/>
      </g>
     </g>
    </g>
    <g id="text_9">
     <!-- Time (seconds) -->
     <g transform="translate(243.160078 615.489375) scale(0.13 -0.13)">
      <defs>
       <path id="DejaVuSans-54" d="M -19 4666 
L 3928 4666 
L 3928 4134 
L 2272 4134 
L 2272 0 
L 1638 0 
L 1638 4134 
L -19 4134 
L -19 4666 
z
" transform="scale(0.015625)"/>
       <path id="DejaVuSans-69" d="M 603 3500 
L 1178 3500 
L 1178 0 
L 603 0 
L 603 3500 
z
M 603 4863 
L 1178 4863 
L 1178 4134 
L 603 4134 
L 603 4863 
z
" transform="scale(0.015625)"/>
       <path id="DejaVuSans-6d" d="M 3328 2828 
Q 3544 3216 3844 3400 
Q 4144 3584 4550 3584 
Q 5097 3584 5394 3201 
Q 5691 2819 5691 2113 
L 5691 0 
L 5113 0 
L 5113 2094 
Q 5113 2597 4934 2840 
Q 4756 3084 4391 3084 
Q 3944 3084 3684 2787 
Q 3425 2491 3425 1978 
L 3425 0 
L 2847 0 
L 2847 2094 
Q 2847 2600 2669 2842 
Q 2491 3084 2119 3084 
Q 1678 3084 1418 2786 
Q 1159 2488 1159 1978 
L 1159 0 
L 581 0 
L 581 3500 
L 1159 3500 
L 1159 2956 
Q 1356 3278 1631 3431 
Q 1906 3584 2284 3584 
Q 2666 3584 2933 3390 
Q 3200 3197 3328 2828 
z
" transform="scale(0.015625)"/>
       <path id="DejaVuSans-65" d="M 3597 1894 
L 3597 1613 
L 953 1613 
Q 991 1019 1311 708 
Q 1631 397 2203 397 
Q 2534 397 2845 478 
Q 3156 559 3463 722 
L 3463 178 
Q 3153 47 2828 -22 
Q 2503 -91 2169 -91 
Q 1331 -91 842 396 
Q 353 884 353 1716 
Q 353 2575 817 3079 
Q 1281 3584 2069 3584 
Q 2775 3584 3186 3129 
Q 3597 2675 3597 1894 
z
M 3022 2063 
Q 3016 2534 2758 2815 
Q 2500 3097 2075 3097 
Q 1594 3097 1305 2825 
Q 1016 2553 972 2059 
L 3022 2063 
z
" transform="scale(0.015625)"/>
       <path id="DejaVuSans-20" transform="scale(0.015625)"/>
       <path id="DejaVuSans-28" d="M 1984 4856 
Q 1566 4138 1362 3434 
Q 1159 2731 1159 2009 
Q 1159 1288 1364 580 
Q 1569 -128 1984 -844 
L 1484 -844 
Q 1016 -109 783 600 
Q 550 1309 550 2009 
Q 550 2706 781 3412 
Q 1013 4119 1484 4856 
L 1984 4856 
z
" transform="scale(0.015625)"/>
       <path id="DejaVuSans-73" d="M 2834 3397 
L 2834 2853 
Q 2591 2978 2328 3040 
Q 2066 3103 1784 3103 
Q 1356 3103 1142 2972 
Q 928 2841 928 2578 
Q 928 2378 1081 2264 
Q 1234 2150 1697 2047 
L 1894 2003 
Q 2506 1872 2764 1633 
Q 3022 1394 3022 966 
Q 3022 478 2636 193 
Q 2250 -91 1575 -91 
Q 1294 -91 989 -36 
Q 684 19 347 128 
L 347 722 
Q 666 556 975 473 
Q 1284 391 1588 391 
Q 1994 391 2212 530 
Q 2431 669 2431 922 
Q 2431 1156 2273 1281 
Q 2116 1406 1581 1522 
L 1381 1569 
Q 847 1681 609 1914 
Q 372 2147 372 2553 
Q 372 3047 722 3315 
Q 1072 3584 1716 3584 
Q 2034 3584 2315 3537 
Q 2597 3491 2834 3397 
z
" transform="scale(0.015625)"/>
       <path id="DejaVuSans-63" d="M 3122 3366 
L 3122 2828 
Q 2878 2963 2633 3030 
Q 2388 3097 2138 3097 
Q 1578 3097 1268 2742 
Q 959 2388 959 1747 
Q 959 1106 1268 751 
Q 1578 397 2138 397 
Q 2388 397 2633 464 
Q 2878 531 3122 666 
L 3122 134 
Q 2881 22 2623 -34 
Q 2366 -91 2075 -91 
Q 1284 -91 818 406 
Q 353 903 353 1747 
Q 353 2603 823 3093 
Q 1294 3584 2113 3584 
Q 2378 3584 2631 3529 
Q 2884 3475 3122 3366 
z
" transform="scale(0.015625)"/>
       <path id="DejaVuSans-6f" d="M 1959 3097 
Q 1497 3097 1228 2736 
Q 959 2375 959 1747 
Q 959 1119 1226 758 
Q 1494 397 1959 397 
Q 2419 397 2687 759 
Q 2956 1122 2956 1747 
Q 2956 2369 2687 2733 
Q 2419 3097 1959 3097 
z
M 1959 3584 
Q 2709 3584 3137 3096 
Q 3566 2609 3566 1747 
Q 3566 888 3137 398 
Q 2709 -91 1959 -91 
Q 1206 -91 779 398 
Q 353 888 353 1747 
Q 353 2609 779 3096 
Q 1206 3584 1959 3584 
z
" transform="scale(0.015625)"/>
       <path id="DejaVuSans-6e" d="M 3513 2113 
L 3513 0 
L 2938 0 
L 2938 2094 
Q 2938 2591 2744 2837 
Q 2550 3084 2163 3084 
Q 1697 3084 1428 2787 
Q 1159 2491 1159 1978 
L 1159 0 
L 581 0 
L 581 3500 
L 1159 3500 
L 1159 2956 
Q 1366 3272 1645 3428 
Q 1925 3584 2291 3584 
Q 2894 3584 3203 3211 
Q 3513 2838 3513 2113 
z
" transform="scale(0.015625)"/>
       <path id="DejaVuSans-64" d="M 2906 2969 
L 2906 4863 
L 3481 4863 
L 3481 0 
L 2906 0 
L 2906 525 
Q 2725 213 2448 61 
Q 2172 -91 1784 -91 
Q 1150 -91 751 415 
Q 353 922 353 1747 
Q 353 2572 751 3078 
Q 1150 3584 1784 3584 
Q 2172 3584 2448 3432 
Q 2725 3281 2906 2969 
z
M 947 1747 
Q 947 1113 1208 752 
Q 1469 391 1925 391 
Q 2381 391 2643 752 
Q 2906 1113 2906 1747 
Q 2906 2381 2643 2742 
Q 2381 3103 1925 3103 
Q 1469 3103 1208 2742 
Q 947 2381 947 1747 
z
" transform="scale(0.015625)"/>
       <path id="DejaVuSans-29" d="M 513 4856 
L 1013 4856 
Q 1481 4119 1714 3412 
Q 1947 2706 1947 2009 
Q 1947 1309 1714 600 
Q 1481 -109 1013 -844 
L 513 -844 
Q 928 -128 1133 580 
Q 1338 1288 1338 2009 
Q 1338 2731 1133 3434 
Q 928 4138 513 4856 
z
" transform="scale(0.015625)"/>
      </defs>
      <use xlink:href="#DejaVuSans-54"/>
      <use xlink:href="#DejaVuSans-69" transform="translate(57.958984 0)"/>
      <use xlink:href="#DejaVuSans-6d" transform="translate(85.742188 0)"/>
      <use xlink:href="#DejaVuSans-65" transform="translate(183.154297 0)"/>
      <use xlink:href="#DejaVuSans-20" transform="translate(244.677734 0)"/>
      <use xlink:href="#DejaVuSans-28" transform="translate(276.464844 0)"/>
      <use xlink:href="#DejaVuSans-73" transform="translate(315.478516 0)"/>
      <use xlink:href="#DejaVuSans-65" transform="translate(367.578125 0)"/>
      <use xlink:href="#DejaVuSans-63" transform="translate(429.101562 0)"/>
      <use xlink:href="#DejaVuSans-6f" transform="translate(484.082031 0)"/>
      <use xlink:href="#DejaVuSans-6e" transform="translate(545.263672 0)"/>
      <use xlink:href="#DejaVuSans-64" transform="translate(608.642578 0)"/>
      <use xlink:href="#DejaVuSans-73" transform="translate(672.119141 0)"/>
      <use xlink:href="#DejaVuSans-29" transform="translate(724.21875 0)"/>
     </g>
    </g>
   </g>
   <g id="matplotlib.axis_2">
    <g id="ytick_1">
     <g id="line2d_17">
      <path d="M 72.770313 562.970607 
L 512.770313 562.970607 
" clip-path="url(#paaaeb5aa06)" style="fill: none; stroke: #b0b0b0; stroke-opacity: 0.7; stroke-width: 0.8; stroke-linecap: square"/>
     </g>
     <g id="line2d_18">
      <defs>
       <path id="mc6b6d72b80" d="M 0 0 
L -3.5 0 
" style="stroke: #000000; stroke-width: 0.8"/>
      </defs>
      <g>
       <use xlink:href="#mc6b6d72b80" x="72.770313" y="562.970607" style="stroke: #000000; stroke-width: 0.8"/>
      </g>
     </g>
     <g id="text_10">
      <!-- 0.0000 -->
      <g transform="translate(23.781563 567.52967) scale(0.12 -0.12)">
       <defs>
        <path id="DejaVuSans-2e" d="M 684 794 
L 1344 794 
L 1344 0 
L 684 0 
L 684 794 
z
" transform="scale(0.015625)"/>
       </defs>
       <use xlink:href="#DejaVuSans-30"/>
       <use xlink:href="#DejaVuSans-2e" transform="translate(63.623047 0)"/>
       <use xlink:href="#DejaVuSans-30" transform="translate(95.410156 0)"/>
       <use xlink:href="#DejaVuSans-30" transform="translate(159.033203 0)"/>
       <use xlink:href="#DejaVuSans-30" transform="translate(222.65625 0)"/>
       <use xlink:href="#DejaVuSans-30" transform="translate(286.279297 0)"/>
      </g>
     </g>
    </g>
    <g id="ytick_2">
     <g id="line2d_19">
      <path d="M 72.770313 476.399241 
L 512.770313 476.399241 
" clip-path="url(#paaaeb5aa06)" style="fill: none; stroke: #b0b0b0; stroke-opacity: 0.7; stroke-width: 0.8; stroke-linecap: square"/>
     </g>
     <g id="line2d_20">
      <g>
       <use xlink:href="#mc6b6d72b80" x="72.770313" y="476.399241" style="stroke: #000000; stroke-width: 0.8"/>
      </g>
     </g>
     <g id="text_11">
      <!-- 0.0005 -->
      <g transform="translate(23.781563 480.958304) scale(0.12 -0.12)">
       <use xlink:href="#DejaVuSans-30"/>
       <use xlink:href="#DejaVuSans-2e" transform="translate(63.623047 0)"/>
       <use xlink:href="#DejaVuSans-30" transform="translate(95.410156 0)"/>
       <use xlink:href="#DejaVuSans-30" transform="translate(159.033203 0)"/>
       <use xlink:href="#DejaVuSans-30" transform="translate(222.65625 0)"/>
       <use xlink:href="#DejaVuSans-35" transform="translate(286.279297 0)"/>
      </g>
     </g>
    </g>
    <g id="ytick_3">
     <g id="line2d_21">
      <path d="M 72.770313 389.827875 
L 512.770313 389.827875 
" clip-path="url(#paaaeb5aa06)" style="fill: none; stroke: #b0b0b0; stroke-opacity: 0.7; stroke-width: 0.8; stroke-linecap: square"/>
     </g>
     <g id="line2d_22">
      <g>
       <use xlink:href="#mc6b6d72b80" x="72.770313" y="389.827875" style="stroke: #000000; stroke-width: 0.8"/>
      </g>
     </g>
     <g id="text_12">
      <!-- 0.0010 -->
      <g transform="translate(23.781563 394.386938) scale(0.12 -0.12)">
       <use xlink:href="#DejaVuSans-30"/>
       <use xlink:href="#DejaVuSans-2e" transform="translate(63.623047 0)"/>
       <use xlink:href="#DejaVuSans-30" transform="translate(95.410156 0)"/>
       <use xlink:href="#DejaVuSans-30" transform="translate(159.033203 0)"/>
       <use xlink:href="#DejaVuSans-31" transform="translate(222.65625 0)"/>
       <use xlink:href="#DejaVuSans-30" transform="translate(286.279297 0)"/>
      </g>
     </g>
    </g>
    <g id="ytick_4">
     <g id="line2d_23">
      <path d="M 72.770313 303.25651 
L 512.770313 303.25651 
" clip-path="url(#paaaeb5aa06)" style="fill: none; stroke: #b0b0b0; stroke-opacity: 0.7; stroke-width: 0.8; stroke-linecap: square"/>
     </g>
     <g id="line2d_24">
      <g>
       <use xlink:href="#mc6b6d72b80" x="72.770313" y="303.25651" style="stroke: #000000; stroke-width: 0.8"/>
      </g>
     </g>
     <g id="text_13">
      <!-- 0.0015 -->
      <g transform="translate(23.781563 307.815572) scale(0.12 -0.12)">
       <use xlink:href="#DejaVuSans-30"/>
       <use xlink:href="#DejaVuSans-2e" transform="translate(63.623047 0)"/>
       <use xlink:href="#DejaVuSans-30" transform="translate(95.410156 0)"/>
       <use xlink:href="#DejaVuSans-30" transform="translate(159.033203 0)"/>
       <use xlink:href="#DejaVuSans-31" transform="translate(222.65625 0)"/>
       <use xlink:href="#DejaVuSans-35" transform="translate(286.279297 0)"/>
      </g>
     </g>
    </g>
    <g id="ytick_5">
     <g id="line2d_25">
      <path d="M 72.770313 216.685144 
L 512.770313 216.685144 
" clip-path="url(#paaaeb5aa06)" style="fill: none; stroke: #b0b0b0; stroke-opacity: 0.7; stroke-width: 0.8; stroke-linecap: square"/>
     </g>
     <g id="line2d_26">
      <g>
       <use xlink:href="#mc6b6d72b80" x="72.770313" y="216.685144" style="stroke: #000000; stroke-width: 0.8"/>
      </g>
     </g>
     <g id="text_14">
      <!-- 0.0020 -->
      <g transform="translate(23.781563 221.244206) scale(0.12 -0.12)">
       <use xlink:href="#DejaVuSans-30"/>
       <use xlink:href="#DejaVuSans-2e" transform="translate(63.623047 0)"/>
       <use xlink:href="#DejaVuSans-30" transform="translate(95.410156 0)"/>
       <use xlink:href="#DejaVuSans-30" transform="translate(159.033203 0)"/>
       <use xlink:href="#DejaVuSans-32" transform="translate(222.65625 0)"/>
       <use xlink:href="#DejaVuSans-30" transform="translate(286.279297 0)"/>
      </g>
     </g>
    </g>
    <g id="ytick_6">
     <g id="line2d_27">
      <path d="M 72.770313 130.113778 
L 512.770313 130.113778 
" clip-path="url(#paaaeb5aa06)" style="fill: none; stroke: #b0b0b0; stroke-opacity: 0.7; stroke-width: 0.8; stroke-linecap: square"/>
     </g>
     <g id="line2d_28">
      <g>
       <use xlink:href="#mc6b6d72b80" x="72.770313" y="130.113778" style="stroke: #000000; stroke-width: 0.8"/>
      </g>
     </g>
     <g id="text_15">
      <!-- 0.0025 -->
      <g transform="translate(23.781563 134.672841) scale(0.12 -0.12)">
       <use xlink:href="#DejaVuSans-30"/>
       <use xlink:href="#DejaVuSans-2e" transform="translate(63.623047 0)"/>
       <use xlink:href="#DejaVuSans-30" transform="translate(95.410156 0)"/>
       <use xlink:href="#DejaVuSans-30" transform="translate(159.033203 0)"/>
       <use xlink:href="#DejaVuSans-32" transform="translate(222.65625 0)"/>
       <use xlink:href="#DejaVuSans-35" transform="translate(286.279297 0)"/>
      </g>
     </g>
    </g>
    <g id="ytick_7">
     <g id="line2d_29">
      <path d="M 72.770313 43.542412 
L 512.770313 43.542412 
" clip-path="url(#paaaeb5aa06)" style="fill: none; stroke: #b0b0b0; stroke-opacity: 0.7; stroke-width: 0.8; stroke-linecap: square"/>
     </g>
     <g id="line2d_30">
      <g>
       <use xlink:href="#mc6b6d72b80" x="72.770313" y="43.542412" style="stroke: #000000; stroke-width: 0.8"/>
      </g>
     </g>
     <g id="text_16">
      <!-- 0.0030 -->
      <g transform="translate(23.781563 48.101475) scale(0.12 -0.12)">
       <use xlink:href="#DejaVuSans-30"/>
       <use xlink:href="#DejaVuSans-2e" transform="translate(63.623047 0)"/>
       <use xlink:href="#DejaVuSans-30" transform="translate(95.410156 0)"/>
       <use xlink:href="#DejaVuSans-30" transform="translate(159.033203 0)"/>
       <use xlink:href="#DejaVuSans-33" transform="translate(222.65625 0)"/>
       <use xlink:href="#DejaVuSans-30" transform="translate(286.279297 0)"/>
      </g>
     </g>
    </g>
    <g id="text_17">
     <!-- Strain (ε) -->
     <g transform="translate(17.077969 335.70375) rotate(-90) scale(0.13 -0.13)">
      <defs>
       <path id="DejaVuSans-53" d="M 3425 4513 
L 3425 3897 
Q 3066 4069 2747 4153 
Q 2428 4238 2131 4238 
Q 1616 4238 1336 4038 
Q 1056 3838 1056 3469 
Q 1056 3159 1242 3001 
Q 1428 2844 1947 2747 
L 2328 2669 
Q 3034 2534 3370 2195 
Q 3706 1856 3706 1288 
Q 3706 609 3251 259 
Q 2797 -91 1919 -91 
Q 1588 -91 1214 -16 
Q 841 59 441 206 
L 441 856 
Q 825 641 1194 531 
Q 1563 422 1919 422 
Q 2459 422 2753 634 
Q 3047 847 3047 1241 
Q 3047 1584 2836 1778 
Q 2625 1972 2144 2069 
L 1759 2144 
Q 1053 2284 737 2584 
Q 422 2884 422 3419 
Q 422 4038 858 4394 
Q 1294 4750 2059 4750 
Q 2388 4750 2728 4690 
Q 3069 4631 3425 4513 
z
" transform="scale(0.015625)"/>
       <path id="DejaVuSans-74" d="M 1172 4494 
L 1172 3500 
L 2356 3500 
L 2356 3053 
L 1172 3053 
L 1172 1153 
Q 1172 725 1289 603 
Q 1406 481 1766 481 
L 2356 481 
L 2356 0 
L 1766 0 
Q 1100 0 847 248 
Q 594 497 594 1153 
L 594 3053 
L 172 3053 
L 172 3500 
L 594 3500 
L 594 4494 
L 1172 4494 
z
" transform="scale(0.015625)"/>
       <path id="DejaVuSans-72" d="M 2631 2963 
Q 2534 3019 2420 3045 
Q 2306 3072 2169 3072 
Q 1681 3072 1420 2755 
Q 1159 2438 1159 1844 
L 1159 0 
L 581 0 
L 581 3500 
L 1159 3500 
L 1159 2956 
Q 1341 3275 1631 3429 
Q 1922 3584 2338 3584 
Q 2397 3584 2469 3576 
Q 2541 3569 2628 3553 
L 2631 2963 
z
" transform="scale(0.015625)"/>
       <path id="DejaVuSans-61" d="M 2194 1759 
Q 1497 1759 1228 1600 
Q 959 1441 959 1056 
Q 959 750 1161 570 
Q 1363 391 1709 391 
Q 2188 391 2477 730 
Q 2766 1069 2766 1631 
L 2766 1759 
L 2194 1759 
z
M 3341 1997 
L 3341 0 
L 2766 0 
L 2766 531 
Q 2569 213 2275 61 
Q 1981 -91 1556 -91 
Q 1019 -91 701 211 
Q 384 513 384 1019 
Q 384 1609 779 1909 
Q 1175 2209 1959 2209 
L 2766 2209 
L 2766 2266 
Q 2766 2663 2505 2880 
Q 2244 3097 1772 3097 
Q 1472 3097 1187 3025 
Q 903 2953 641 2809 
L 641 3341 
Q 956 3463 1253 3523 
Q 1550 3584 1831 3584 
Q 2591 3584 2966 3190 
Q 3341 2797 3341 1997 
z
" transform="scale(0.015625)"/>
       <path id="DejaVuSans-3b5" d="M 1234 1888 
Q 884 1963 697 2166 
Q 509 2366 509 2656 
Q 509 3097 866 3344 
Q 1219 3588 1831 3588 
Q 2069 3588 2334 3550 
Q 2600 3513 2906 3438 
L 2906 2916 
Q 2603 3006 2353 3047 
Q 2100 3088 1878 3088 
Q 1506 3088 1291 2944 
Q 1072 2800 1072 2600 
Q 1072 2381 1284 2241 
Q 1494 2103 1856 2103 
L 2341 2103 
L 2341 1628 
L 1878 1628 
Q 1450 1628 1225 1469 
Q 981 1294 981 1019 
Q 981 738 1244 563 
Q 1509 388 1981 388 
Q 2272 388 2538 444 
Q 2803 503 3025 619 
L 3025 84 
Q 2744 -3 2481 -47 
Q 2216 -91 1966 -91 
Q 1222 -91 819 194 
Q 416 478 416 1019 
Q 416 1356 631 1584 
Q 847 1813 1234 1888 
z
" transform="scale(0.015625)"/>
      </defs>
      <use xlink:href="#DejaVuSans-53"/>
      <use xlink:href="#DejaVuSans-74" transform="translate(63.476562 0)"/>
      <use xlink:href="#DejaVuSans-72" transform="translate(102.685547 0)"/>
      <use xlink:href="#DejaVuSans-61" transform="translate(143.798828 0)"/>
      <use xlink:href="#DejaVuSans-69" transform="translate(205.078125 0)"/>
      <use xlink:href="#DejaVuSans-6e" transform="translate(232.861328 0)"/>
      <use xlink:href="#DejaVuSans-20" transform="translate(296.240234 0)"/>
      <use xlink:href="#DejaVuSans-28" transform="translate(328.027344 0)"/>
      <use xlink:href="#DejaVuSans-3b5" transform="translate(367.041016 0)"/>
      <use xlink:href="#DejaVuSans-29" transform="translate(421.09375 0)"/>
     </g>
    </g>
   </g>
   <g id="line2d_31">
    <path d="M 92.770313 67.571161 
L 93.903457 69.970919 
L 95.036601 191.368214 
L 96.169746 97.490225 
L 97.30289 79.164798 
L 98.436035 557.797656 
L 99.569179 209.726537 
L 100.702324 84.106291 
L 101.835468 90.379253 
L 102.968613 74.810258 
L 104.101757 78.728478 
L 105.234902 74.398178 
L 106.368046 89.312693 
L 107.501191 543.957977 
L 108.634335 181.731089 
L 109.76748 74.758315 
L 110.900624 84.551268 
L 112.033769 79.563026 
L 113.166913 110.188512 
L 114.300058 211.354079 
L 115.433202 227.492713 
L 116.566346 75.329686 
L 117.699491 92.484668 
L 118.832635 80.69538 
L 119.96578 63.549055 
L 121.098924 92.250926 
L 122.232069 78.09997 
L 123.365213 82.264053 
L 124.498358 79.694615 
L 125.631502 76.112291 
L 126.764647 83.851772 
L 127.897791 102.21529 
L 129.030936 75.705406 
L 130.16408 384.598965 
L 131.297225 201.701372 
L 132.430369 92.720142 
L 133.563514 92.417143 
L 134.696658 214.171111 
L 135.829803 85.288856 
L 136.962947 83.136692 
L 138.096092 213.315786 
L 139.229236 87.903312 
L 140.36238 77.367576 
L 141.495525 68.566731 
L 142.628669 90.365401 
L 143.761814 62.962101 
L 144.894958 205.401432 
L 146.028103 187.015405 
L 147.161247 76.626525 
L 148.294392 73.395682 
L 149.427536 220.504673 
L 150.560681 69.929365 
L 151.693825 74.734075 
L 152.82697 102.791855 
L 153.960114 98.397492 
L 155.093259 197.513049 
L 156.226403 520.192925 
L 157.359548 439.663028 
L 158.492692 88.04702 
L 159.625837 85.160731 
L 160.758981 89.30923 
L 161.892126 73.894333 
L 163.02527 94.300935 
L 164.158414 88.805385 
L 165.291559 91.58952 
L 166.424703 81.207882 
L 167.557848 73.946276 
L 168.690992 226.692794 
L 169.824137 242.575176 
L 170.957281 101.995398 
L 172.090426 92.185131 
L 173.22357 101.31841 
L 174.356715 91.908103 
L 175.489859 87.370032 
L 176.623004 94.846335 
L 177.756148 96.425397 
L 178.889293 74.41203 
L 180.022437 490.725071 
L 181.155582 557.329894 
L 182.288726 82.322921 
L 183.421871 84.677662 
L 184.555015 82.560127 
L 185.68816 75.395481 
L 186.821304 228.377473 
L 187.954448 485.606625 
L 189.087593 90.152436 
L 190.220737 211.837147 
L 191.353882 95.299969 
L 192.487026 100.741845 
L 193.620171 80.36814 
L 194.753315 77.270616 
L 195.88646 77.220405 
L 197.019604 97.744744 
L 198.152749 67.389361 
L 199.285893 197.294889 
L 200.419038 216.300767 
L 201.552182 206.786574 
L 202.685327 219.32557 
L 203.818471 83.095138 
L 204.951616 100.244925 
L 206.08476 95.44714 
L 207.217905 82.180944 
L 208.351049 95.270535 
L 209.484194 231.679304 
L 210.617338 230.673345 
L 211.750482 77.727713 
L 212.883627 75.55304 
L 214.016771 79.244444 
L 215.149916 96.813236 
L 216.28306 160.792939 
L 217.416205 79.099004 
L 218.549349 532.996657 
L 219.682494 330.73253 
L 220.815638 93.239571 
L 221.948783 95.866146 
L 223.081927 92.886359 
L 224.215072 83.526263 
L 225.348216 70.945712 
L 226.481361 114.226201 
L 227.614505 85.503553 
L 228.74765 92.399828 
L 229.880794 117.929724 
L 231.013939 103.652374 
L 232.147083 520.686728 
L 233.280228 210.647657 
L 234.413372 85.981427 
L 235.546516 95.950986 
L 236.679661 125.78521 
L 237.812805 97.862481 
L 240.079094 86.646295 
L 241.212239 548.719627 
L 242.345383 60.661034 
L 243.478528 83.979897 
L 244.611672 83.611103 
L 245.744817 88.102426 
L 246.877961 79.587266 
L 248.011106 215.708619 
L 249.14425 199.232356 
L 250.277395 307.882883 
L 251.410539 215.556253 
L 252.543684 84.461234 
L 253.676828 77.802165 
L 254.809973 88.062603 
L 255.943117 78.079193 
L 257.076262 226.446931 
L 258.209406 203.134994 
L 259.34255 88.20458 
L 260.475695 79.130169 
L 261.608839 551.77596 
L 262.741984 90.223424 
L 263.875128 90.801721 
L 265.008273 86.521633 
L 266.141417 215.161488 
L 267.274562 83.915834 
L 268.407706 98.215693 
L 269.540851 197.410895 
L 270.673995 217.876366 
L 271.80714 101.666427 
L 272.940284 88.026243 
L 274.073429 80.81658 
L 275.206573 76.8014 
L 276.339718 61.682576 
L 277.472862 87.657449 
L 278.606007 206.821202 
L 279.739151 95.455797 
L 280.872296 74.595561 
L 282.00544 101.728759 
L 283.138584 79.855637 
L 284.271729 78.619398 
L 285.404873 88.933511 
L 286.538018 86.618592 
L 287.671162 89.146476 
L 288.804307 198.030746 
L 289.937451 221.228409 
L 291.070596 79.795037 
L 292.20374 71.369912 
L 293.336885 74.881247 
L 294.470029 77.935484 
L 295.603174 70.613278 
L 296.736318 107.390526 
L 297.869463 81.47279 
L 299.002607 105.953441 
L 300.135752 512.410679 
L 301.268896 543.804226 
L 302.402041 81.623425 
L 303.535185 84.928719 
L 304.668329 219.356736 
L 305.801474 98.565441 
L 306.934618 72.916077 
L 308.067763 205.365072 
L 309.200907 198.501694 
L 310.334052 81.069368 
L 311.467196 78.896427 
L 312.600341 91.262281 
L 313.733485 110.377238 
L 314.86663 148.023662 
L 315.999774 80.039169 
L 317.132919 75.177321 
L 318.266063 83.557429 
L 319.399208 77.087085 
L 320.532352 82.189601 
L 321.665497 109.973816 
L 322.798641 86.419478 
L 323.931786 86.232484 
L 325.06493 76.167697 
L 326.198075 197.246409 
L 327.331219 97.183762 
L 328.464363 88.05914 
L 329.597508 71.427049 
L 330.730652 86.803855 
L 331.863797 70.795078 
L 334.130086 87.702466 
L 335.26323 103.636792 
L 336.396375 94.771884 
L 337.529519 184.806104 
L 338.662664 85.020485 
L 339.795808 233.386492 
L 340.928953 80.4045 
L 342.062097 76.320063 
L 343.195242 71.776797 
L 344.328386 84.289823 
L 346.594675 83.192098 
L 347.72782 64.62254 
L 348.860964 95.647986 
L 349.994109 98.329967 
L 351.127253 75.343538 
L 352.260397 183.322271 
L 353.393542 85.027411 
L 354.526686 105.113699 
L 355.659831 97.440013 
L 356.792975 75.151349 
L 357.92612 229.868231 
L 359.059264 107.587909 
L 360.192409 89.811344 
L 361.325553 92.763428 
L 362.458698 85.671502 
L 363.591842 113.086922 
L 364.724987 83.154006 
L 365.858131 87.70766 
L 366.991276 90.24247 
L 368.12442 80.323123 
L 369.257565 179.849028 
L 370.390709 70.04537 
L 371.523854 78.264456 
L 372.656998 91.920223 
L 373.790143 72.980139 
L 374.923287 81.704802 
L 376.056431 88.891957 
L 377.189576 203.173085 
L 378.32272 103.39266 
L 379.455865 76.915674 
L 380.589009 75.61364 
L 381.722154 98.544664 
L 382.855298 81.985293 
L 383.988443 89.994876 
L 385.121587 190.627163 
L 386.254732 97.066025 
L 387.387876 84.987588 
L 388.521021 87.189963 
L 389.654165 93.043919 
L 390.78731 91.208606 
L 391.920454 64.376677 
L 393.053599 168.215568 
L 394.186743 98.36979 
L 395.319888 83.914103 
L 396.453032 56.557551 
L 397.586177 111.1079 
L 398.719321 111.057689 
L 399.852465 67.482858 
L 400.98561 53.797656 
L 402.118754 64.181026 
L 403.251899 96.120666 
L 404.385043 102.771078 
L 405.518188 72.280643 
L 406.651332 90.708224 
L 407.784477 211.412948 
L 408.917621 103.067152 
L 410.050766 106.100613 
L 411.18391 81.005305 
L 412.317055 85.037799 
L 413.450199 87.563952 
L 414.583344 100.707217 
L 415.716488 97.789761 
L 416.849633 95.73802 
L 417.982777 167.900448 
L 419.115922 62.496347 
L 420.249066 84.312331 
L 421.382211 133.858855 
L 422.515355 101.820524 
L 423.648499 84.175549 
L 424.781644 82.786944 
L 425.914788 102.745106 
L 427.047933 104.222014 
L 428.181077 121.52763 
L 429.314222 73.283139 
L 430.447366 80.385454 
L 431.580511 74.190407 
L 432.713655 215.196116 
L 433.8468 103.600432 
L 434.979944 86.587427 
L 436.113089 100.388634 
L 437.246233 97.43655 
L 438.379378 106.703149 
L 439.512522 81.097071 
L 440.645667 68.002286 
L 441.778811 84.958154 
L 442.911956 96.899808 
L 444.0451 80.880642 
L 445.178245 90.872709 
L 446.311389 89.766327 
L 447.444533 165.864289 
L 448.577678 65.375711 
L 449.710822 79.89546 
L 450.843967 61.689502 
L 451.977111 103.510397 
L 453.110256 119.605746 
L 454.2434 91.883863 
L 455.376545 101.28205 
L 456.509689 104.739711 
L 457.642834 188.977113 
L 458.775978 92.249194 
L 459.909123 73.497836 
L 461.042267 104.741442 
L 462.175412 98.336893 
L 463.308556 82.876978 
L 464.441701 119.422214 
L 465.574845 87.134558 
L 466.70799 227.494445 
L 467.841134 87.754409 
L 468.974279 79.078226 
L 470.107423 72.026123 
L 471.240567 87.118975 
L 472.373712 81.258093 
L 473.506856 64.795683 
L 474.640001 81.348128 
L 475.773145 77.835062 
L 476.90629 70.654833 
L 478.039434 60.420366 
L 479.172579 77.745027 
L 480.305723 80.709231 
L 481.438868 107.883983 
L 482.572012 137.787464 
L 483.705157 78.037639 
L 484.838301 77.902587 
L 485.971446 104.30166 
L 487.10459 73.826807 
L 488.237735 82.790407 
L 489.370879 95.826323 
L 490.504024 262.150694 
L 491.637168 73.783522 
L 492.770313 69.593468 
L 492.770313 69.593468 
" clip-path="url(#paaaeb5aa06)" style="fill: none; stroke: #1f77b4; stroke-width: 1.5; stroke-linecap: square"/>
   </g>
   <g id="patch_3">
    <path d="M 72.770313 582.997656 
L 72.770313 28.597656 
" style="fill: none; stroke: #000000; stroke-width: 0.8; stroke-linejoin: miter; stroke-linecap: square"/>
   </g>
   <g id="patch_4">
    <path d="M 512.770313 582.997656 
L 512.770313 28.597656 
" style="fill: none; stroke: #000000; stroke-width: 0.8; stroke-linejoin: miter; stroke-linecap: square"/>
   </g>
   <g id="patch_5">
    <path d="M 72.770312 582.997656 
L 512.770313 582.997656 
" style="fill: none; stroke: #000000; stroke-width: 0.8; stroke-linejoin: miter; stroke-linecap: square"/>
   </g>
   <g id="patch_6">
    <path d="M 72.770312 28.597656 
L 512.770313 28.597656 
" style="fill: none; stroke: #000000; stroke-width: 0.8; stroke-linejoin: miter; stroke-linecap: square"/>
   </g>
   <g id="text_18">
    <g id="patch_7">
     <path d="M 371.980625 97.228375 
L 499.570312 97.228375 
Q 503.970313 97.228375 503.970313 92.828375 
L 503.970313 45.229656 
Q 503.970313 40.829656 499.570312 40.829656 
L 371.980625 40.829656 
Q 367.580625 40.829656 367.580625 45.229656 
L 367.580625 92.828375 
Q 367.580625 97.228375 371.980625 97.228375 
z
" style="fill: #ffffff; opacity: 0.8; stroke: #808080; stroke-linejoin: miter"/>
    </g>
    <!-- Cycles detected: 110 -->
    <g transform="translate(383.137031 53.587938) scale(0.11 -0.11)">
     <defs>
      <path id="DejaVuSans-43" d="M 4122 4306 
L 4122 3641 
Q 3803 3938 3442 4084 
Q 3081 4231 2675 4231 
Q 1875 4231 1450 3742 
Q 1025 3253 1025 2328 
Q 1025 1406 1450 917 
Q 1875 428 2675 428 
Q 3081 428 3442 575 
Q 3803 722 4122 1019 
L 4122 359 
Q 3791 134 3420 21 
Q 3050 -91 2638 -91 
Q 1578 -91 968 557 
Q 359 1206 359 2328 
Q 359 3453 968 4101 
Q 1578 4750 2638 4750 
Q 3056 4750 3426 4639 
Q 3797 4528 4122 4306 
z
" transform="scale(0.015625)"/>
      <path id="DejaVuSans-79" d="M 2059 -325 
Q 1816 -950 1584 -1140 
Q 1353 -1331 966 -1331 
L 506 -1331 
L 506 -850 
L 844 -850 
Q 1081 -850 1212 -737 
Q 1344 -625 1503 -206 
L 1606 56 
L 191 3500 
L 800 3500 
L 1894 763 
L 2988 3500 
L 3597 3500 
L 2059 -325 
z
" transform="scale(0.015625)"/>
      <path id="DejaVuSans-6c" d="M 603 4863 
L 1178 4863 
L 1178 0 
L 603 0 
L 603 4863 
z
" transform="scale(0.015625)"/>
      <path id="DejaVuSans-3a" d="M 750 794 
L 1409 794 
L 1409 0 
L 750 0 
L 750 794 
z
M 750 3309 
L 1409 3309 
L 1409 2516 
L 750 2516 
L 750 3309 
z
" transform="scale(0.015625)"/>
     </defs>
     <use xlink:href="#DejaVuSans-43"/>
     <use xlink:href="#DejaVuSans-79" transform="translate(69.824219 0)"/>
     <use xlink:href="#DejaVuSans-63" transform="translate(129.003906 0)"/>
     <use xlink:href="#DejaVuSans-6c" transform="translate(183.984375 0)"/>
     <use xlink:href="#DejaVuSans-65" transform="translate(211.767578 0)"/>
     <use xlink:href="#DejaVuSans-73" transform="translate(273.291016 0)"/>
     <use xlink:href="#DejaVuSans-20" transform="translate(325.390625 0)"/>
     <use xlink:href="#DejaVuSans-64" transform="translate(357.177734 0)"/>
     <use xlink:href="#DejaVuSans-65" transform="translate(420.654297 0)"/>
     <use xlink:href="#DejaVuSans-74" transform="translate(482.177734 0)"/>
     <use xlink:href="#DejaVuSans-65" transform="translate(521.386719 0)"/>
     <use xlink:href="#DejaVuSans-63" transform="translate(582.910156 0)"/>
     <use xlink:href="#DejaVuSans-74" transform="translate(637.890625 0)"/>
     <use xlink:href="#DejaVuSans-65" transform="translate(677.099609 0)"/>
     <use xlink:href="#DejaVuSans-64" transform="translate(738.623047 0)"/>
     <use xlink:href="#DejaVuSans-3a" transform="translate(802.099609 0)"/>
     <use xlink:href="#DejaVuSans-20" transform="translate(835.791016 0)"/>
     <use xlink:href="#DejaVuSans-31" transform="translate(867.578125 0)"/>
     <use xlink:href="#DejaVuSans-31" transform="translate(931.201172 0)"/>
     <use xlink:href="#DejaVuSans-30" transform="translate(994.824219 0)"/>
    </g>
    <!-- Cycle multiplier: 10 -->
    <g transform="translate(392.507656 65.905531) scale(0.11 -0.11)">
     <defs>
      <path id="DejaVuSans-75" d="M 544 1381 
L 544 3500 
L 1119 3500 
L 1119 1403 
Q 1119 906 1312 657 
Q 1506 409 1894 409 
Q 2359 409 2629 706 
Q 2900 1003 2900 1516 
L 2900 3500 
L 3475 3500 
L 3475 0 
L 2900 0 
L 2900 538 
Q 2691 219 2414 64 
Q 2138 -91 1772 -91 
Q 1169 -91 856 284 
Q 544 659 544 1381 
z
M 1991 3584 
L 1991 3584 
z
" transform="scale(0.015625)"/>
      <path id="DejaVuSans-70" d="M 1159 525 
L 1159 -1331 
L 581 -1331 
L 581 3500 
L 1159 3500 
L 1159 2969 
Q 1341 3281 1617 3432 
Q 1894 3584 2278 3584 
Q 2916 3584 3314 3078 
Q 3713 2572 3713 1747 
Q 3713 922 3314 415 
Q 2916 -91 2278 -91 
Q 1894 -91 1617 61 
Q 1341 213 1159 525 
z
M 3116 1747 
Q 3116 2381 2855 2742 
Q 2594 3103 2138 3103 
Q 1681 3103 1420 2742 
Q 1159 2381 1159 1747 
Q 1159 1113 1420 752 
Q 1681 391 2138 391 
Q 2594 391 2855 752 
Q 3116 1113 3116 1747 
z
" transform="scale(0.015625)"/>
     </defs>
     <use xlink:href="#DejaVuSans-43"/>
     <use xlink:href="#DejaVuSans-79" transform="translate(69.824219 0)"/>
     <use xlink:href="#DejaVuSans-63" transform="translate(129.003906 0)"/>
     <use xlink:href="#DejaVuSans-6c" transform="translate(183.984375 0)"/>
     <use xlink:href="#DejaVuSans-65" transform="translate(211.767578 0)"/>
     <use xlink:href="#DejaVuSans-20" transform="translate(273.291016 0)"/>
     <use xlink:href="#DejaVuSans-6d" transform="translate(305.078125 0)"/>
     <use xlink:href="#DejaVuSans-75" transform="translate(402.490234 0)"/>
     <use xlink:href="#DejaVuSans-6c" transform="translate(465.869141 0)"/>
     <use xlink:href="#DejaVuSans-74" transform="translate(493.652344 0)"/>
     <use xlink:href="#DejaVuSans-69" transform="translate(532.861328 0)"/>
     <use xlink:href="#DejaVuSans-70" transform="translate(560.644531 0)"/>
     <use xlink:href="#DejaVuSans-6c" transform="translate(624.121094 0)"/>
     <use xlink:href="#DejaVuSans-69" transform="translate(651.904297 0)"/>
     <use xlink:href="#DejaVuSans-65" transform="translate(679.6875 0)"/>
     <use xlink:href="#DejaVuSans-72" transform="translate(741.210938 0)"/>
     <use xlink:href="#DejaVuSans-3a" transform="translate(780.574219 0)"/>
     <use xlink:href="#DejaVuSans-20" transform="translate(814.265625 0)"/>
     <use xlink:href="#DejaVuSans-31" transform="translate(846.052734 0)"/>
     <use xlink:href="#DejaVuSans-30" transform="translate(909.675781 0)"/>
    </g>
    <!-- Est. life: 100000 cycles -->
    <g transform="translate(371.980625 78.223125) scale(0.11 -0.11)">
     <defs>
      <path id="DejaVuSans-45" d="M 628 4666 
L 3578 4666 
L 3578 4134 
L 1259 4134 
L 1259 2753 
L 3481 2753 
L 3481 2222 
L 1259 2222 
L 1259 531 
L 3634 531 
L 3634 0 
L 628 0 
L 628 4666 
z
" transform="scale(0.015625)"/>
      <path id="DejaVuSans-66" d="M 2375 4863 
L 2375 4384 
L 1825 4384 
Q 1516 4384 1395 4259 
Q 1275 4134 1275 3809 
L 1275 3500 
L 2222 3500 
L 2222 3053 
L 1275 3053 
L 1275 0 
L 697 0 
L 697 3053 
L 147 3053 
L 147 3500 
L 697 3500 
L 697 3744 
Q 697 4328 969 4595 
Q 1241 4863 1831 4863 
L 2375 4863 
z
" transform="scale(0.015625)"/>
     </defs>
     <use xlink:href="#DejaVuSans-45"/>
     <use xlink:href="#DejaVuSans-73" transform="translate(63.183594 0)"/>
     <use xlink:href="#DejaVuSans-74" transform="translate(115.283203 0)"/>
     <use xlink:href="#DejaVuSans-2e" transform="translate(154.492188 0)"/>
     <use xlink:href="#DejaVuSans-20" transform="translate(186.279297 0)"/>
     <use xlink:href="#DejaVuSans-6c" transform="translate(218.066406 0)"/>
     <use xlink:href="#DejaVuSans-69" transform="translate(245.849609 0)"/>
     <use xlink:href="#DejaVuSans-66" transform="translate(273.632812 0)"/>
     <use xlink:href="#DejaVuSans-65" transform="translate(308.837891 0)"/>
     <use xlink:href="#DejaVuSans-3a" transform="translate(370.361328 0)"/>
     <use xlink:href="#DejaVuSans-20" transform="translate(404.052734 0)"/>
     <use xlink:href="#DejaVuSans-31" transform="translate(435.839844 0)"/>
     <use xlink:href="#DejaVuSans-30" transform="translate(499.462891 0)"/>
     <use xlink:href="#DejaVuSans-30" transform="translate(563.085938 0)"/>
     <use xlink:href="#DejaVuSans-30" transform="translate(626.708984 0)"/>
     <use xlink:href="#DejaVuSans-30" transform="translate(690.332031 0)"/>
     <use xlink:href="#DejaVuSans-30" transform="translate(753.955078 0)"/>
     <use xlink:href="#DejaVuSans-20" transform="translate(817.578125 0)"/>
     <use xlink:href="#DejaVuSans-63" transform="translate(849.365234 0)"/>
     <use xlink:href="#DejaVuSans-79" transform="translate(904.345703 0)"/>
     <use xlink:href="#DejaVuSans-63" transform="translate(963.525391 0)"/>
     <use xlink:href="#DejaVuSans-6c" transform="translate(1018.505859 0)"/>
     <use xlink:href="#DejaVuSans-65" transform="translate(1046.289062 0)"/>
     <use xlink:href="#DejaVuSans-73" transform="translate(1107.8125 0)"/>
    </g>
    <!-- Safety factor: 90.9 -->
    <g transform="translate(397.158594 90.540719) scale(0.11 -0.11)">
     <defs>
      <path id="DejaVuSans-39" d="M 703 97 
L 703 672 
Q 941 559 1184 500 
Q 1428 441 1663 441 
Q 2288 441 2617 861 
Q 2947 1281 2994 2138 
Q 2813 1869 2534 1725 
Q 2256 1581 1919 1581 
Q 1219 1581 811 2004 
Q 403 2428 403 3163 
Q 403 3881 828 4315 
Q 1253 4750 1959 4750 
Q 2769 4750 3195 4129 
Q 3622 3509 3622 2328 
Q 3622 1225 3098 567 
Q 2575 -91 1691 -91 
Q 1453 -91 1209 -44 
Q 966 3 703 97 
z
M 1959 2075 
Q 2384 2075 2632 2365 
Q 2881 2656 2881 3163 
Q 2881 3666 2632 3958 
Q 2384 4250 1959 4250 
Q 1534 4250 1286 3958 
Q 1038 3666 1038 3163 
Q 1038 2656 1286 2365 
Q 1534 2075 1959 2075 
z
" transform="scale(0.015625)"/>
     </defs>
     <use xlink:href="#DejaVuSans-53"/>
     <use xlink:href="#DejaVuSans-61" transform="translate(63.476562 0)"/>
     <use xlink:href="#DejaVuSans-66" transform="translate(124.755859 0)"/>
     <use xlink:href="#DejaVuSans-65" transform="translate(159.960938 0)"/>
     <use xlink:href="#DejaVuSans-74" transform="translate(221.484375 0)"/>
     <use xlink:href="#DejaVuSans-79" transform="translate(260.693359 0)"/>
     <use xlink:href="#DejaVuSans-20" transform="translate(319.873047 0)"/>
     <use xlink:href="#DejaVuSans-66" transform="translate(351.660156 0)"/>
     <use xlink:href="#DejaVuSans-61" transform="translate(386.865234 0)"/>
     <use xlink:href="#DejaVuSans-63" transform="translate(448.144531 0)"/>
     <use xlink:href="#DejaVuSans-74" transform="translate(503.125 0)"/>
     <use xlink:href="#DejaVuSans-6f" transform="translate(542.333984 0)"/>
     <use xlink:href="#DejaVuSans-72" transform="translate(603.515625 0)"/>
     <use xlink:href="#DejaVuSans-3a" transform="translate(642.878906 0)"/>
     <use xlink:href="#DejaVuSans-20" transform="translate(676.570312 0)"/>
     <use xlink:href="#DejaVuSans-39" transform="translate(708.357422 0)"/>
     <use xlink:href="#DejaVuSans-30" transform="translate(771.980469 0)"/>
     <use xlink:href="#DejaVuSans-2e" transform="translate(835.603516 0)"/>
     <use xlink:href="#DejaVuSans-39" transform="translate(867.390625 0)"/>
    </g>
   </g>
   <g id="text_19">
    <!-- Strain History - Max Principal Strain Location (0,33) -->
    <g transform="translate(100.521875 18.597656) scale(0.15 -0.15)">
     <defs>
      <path id="DejaVuSans-48" d="M 628 4666 
L 1259 4666 
L 1259 2753 
L 3553 2753 
L 3553 4666 
L 4184 4666 
L 4184 0 
L 3553 0 
L 3553 2222 
L 1259 2222 
L 1259 0 
L 628 0 
L 628 4666 
z
" transform="scale(0.015625)"/>
      <path id="DejaVuSans-2d" d="M 313 2009 
L 1997 2009 
L 1997 1497 
L 313 1497 
L 313 2009 
z
" transform="scale(0.015625)"/>
      <path id="DejaVuSans-4d" d="M 628 4666 
L 1569 4666 
L 2759 1491 
L 3956 4666 
L 4897 4666 
L 4897 0 
L 4281 0 
L 4281 4097 
L 3078 897 
L 2444 897 
L 1241 4097 
L 1241 0 
L 628 0 
L 628 4666 
z
" transform="scale(0.015625)"/>
      <path id="DejaVuSans-78" d="M 3513 3500 
L 2247 1797 
L 3578 0 
L 2900 0 
L 1881 1375 
L 863 0 
L 184 0 
L 1544 1831 
L 300 3500 
L 978 3500 
L 1906 2253 
L 2834 3500 
L 3513 3500 
z
" transform="scale(0.015625)"/>
      <path id="DejaVuSans-50" d="M 1259 4147 
L 1259 2394 
L 2053 2394 
Q 2494 2394 2734 2622 
Q 2975 2850 2975 3272 
Q 2975 3691 2734 3919 
Q 2494 4147 2053 4147 
L 1259 4147 
z
M 628 4666 
L 2053 4666 
Q 2838 4666 3239 4311 
Q 3641 3956 3641 3272 
Q 3641 2581 3239 2228 
Q 2838 1875 2053 1875 
L 1259 1875 
L 1259 0 
L 628 0 
L 628 4666 
z
" transform="scale(0.015625)"/>
      <path id="DejaVuSans-4c" d="M 628 4666 
L 1259 4666 
L 1259 531 
L 3531 531 
L 3531 0 
L 628 0 
L 628 4666 
z
" transform="scale(0.015625)"/>
      <path id="DejaVuSans-2c" d="M 750 794 
L 1409 794 
L 1409 256 
L 897 -744 
L 494 -744 
L 750 256 
L 750 794 
z
" transform="scale(0.015625)"/>
     </defs>
     <use xlink:href="#DejaVuSans-53"/>
     <use xlink:href="#DejaVuSans-74" transform="translate(63.476562 0)"/>
     <use xlink:href="#DejaVuSans-72" transform="translate(102.685547 0)"/>
     <use xlink:href="#DejaVuSans-61" transform="translate(143.798828 0)"/>
     <use xlink:href="#DejaVuSans-69" transform="translate(205.078125 0)"/>
     <use xlink:href="#DejaVuSans-6e" transform="translate(232.861328 0)"/>
     <use xlink:href="#DejaVuSans-20" transform="translate(296.240234 0)"/>
     <use xlink:href="#DejaVuSans-48" transform="translate(328.027344 0)"/>
     <use xlink:href="#DejaVuSans-69" transform="translate(403.222656 0)"/>
     <use xlink:href="#DejaVuSans-73" transform="translate(431.005859 0)"/>
     <use xlink:href="#DejaVuSans-74" transform="translate(483.105469 0)"/>
     <use xlink:href="#DejaVuSans-6f" transform="translate(522.314453 0)"/>
     <use xlink:href="#DejaVuSans-72" transform="translate(583.496094 0)"/>
     <use xlink:href="#DejaVuSans-79" transform="translate(624.609375 0)"/>
     <use xlink:href="#DejaVuSans-20" transform="translate(683.789062 0)"/>
     <use xlink:href="#DejaVuSans-2d" transform="translate(715.576172 0)"/>
     <use xlink:href="#DejaVuSans-20" transform="translate(751.660156 0)"/>
     <use xlink:href="#DejaVuSans-4d" transform="translate(783.447266 0)"/>
     <use xlink:href="#DejaVuSans-61" transform="translate(869.726562 0)"/>
     <use xlink:href="#DejaVuSans-78" transform="translate(931.005859 0)"/>
     <use xlink:href="#DejaVuSans-20" transform="translate(990.185547 0)"/>
     <use xlink:href="#DejaVuSans-50" transform="translate(1021.972656 0)"/>
     <use xlink:href="#DejaVuSans-72" transform="translate(1080.525391 0)"/>
     <use xlink:href="#DejaVuSans-69" transform="translate(1121.638672 0)"/>
     <use xlink:href="#DejaVuSans-6e" transform="translate(1149.421875 0)"/>
     <use xlink:href="#DejaVuSans-63" transform="translate(1212.800781 0)"/>
     <use xlink:href="#DejaVuSans-69" transform="translate(1267.78125 0)"/>
     <use xlink:href="#DejaVuSans-70" transform="translate(1295.564453 0)"/>
     <use xlink:href="#DejaVuSans-61" transform="translate(1359.041016 0)"/>
     <use xlink:href="#DejaVuSans-6c" transform="translate(1420.320312 0)"/>
     <use xlink:href="#DejaVuSans-20" transform="translate(1448.103516 0)"/>
     <use xlink:href="#DejaVuSans-53" transform="translate(1479.890625 0)"/>
     <use xlink:href="#DejaVuSans-74" transform="translate(1543.367188 0)"/>
     <use xlink:href="#DejaVuSans-72" transform="translate(1582.576172 0)"/>
     <use xlink:href="#DejaVuSans-61" transform="translate(1623.689453 0)"/>
     <use xlink:href="#DejaVuSans-69" transform="translate(1684.96875 0)"/>
     <use xlink:href="#DejaVuSans-6e" transform="translate(1712.751953 0)"/>
     <use xlink:href="#DejaVuSans-20" transform="translate(1776.130859 0)"/>
     <use xlink:href="#DejaVuSans-4c" transform="translate(1807.917969 0)"/>
     <use xlink:href="#DejaVuSans-6f" transform="translate(1861.880859 0)"/>
     <use xlink:href="#DejaVuSans-63" transform="translate(1923.0625 0)"/>
     <use xlink:href="#DejaVuSans-61" transform="translate(1978.042969 0)"/>
     <use xlink:href="#DejaVuSans-74" transform="translate(2039.322266 0)"/>
     <use xlink:href="#DejaVuSans-69" transform="translate(2078.53125 0)"/>
     <use xlink:href="#DejaVuSans-6f" transform="translate(2106.314453 0)"/>
     <use xlink:href="#DejaVuSans-6e" transform="translate(2167.496094 0)"/>
     <use xlink:href="#DejaVuSans-20" transform="translate(2230.875 0)"/>
     <use xlink:href="#DejaVuSans-28" transform="translate(2262.662109 0)"/>
     <use xlink:href="#DejaVuSans-30" transform="translate(2301.675781 0)"/>
     <use xlink:href="#DejaVuSans-2c" transform="translate(2365.298828 0)"/>
     <use xlink:href="#DejaVuSans-33" transform="translate(2397.085938 0)"/>
     <use xlink:href="#DejaVuSans-33" transform="translate(2460.708984 0)"/>
     <use xlink:href="#DejaVuSans-29" transform="translate(2524.332031 0)"/>
    </g>
   </g>
   <g id="legend_1">
    <g id="patch_8">
     <path d="M 295.78125 51.275781 
L 505.770313 51.275781 
Q 507.770313 51.275781 507.770313 49.275781 
L 507.770313 35.597656 
Q 507.770313 33.597656 505.770313 33.597656 
L 295.78125 33.597656 
Q 293.78125 33.597656 293.78125 35.597656 
L 293.78125 49.275781 
Q 293.78125 51.275781 295.78125 51.275781 
z
" style="fill: #ffffff; opacity: 0.8; stroke: #cccccc; stroke-linejoin: miter"/>
    </g>
    <g id="line2d_32">
     <path d="M 297.78125 41.696094 
L 307.78125 41.696094 
L 317.78125 41.696094 
" style="fill: none; stroke: #1f77b4; stroke-width: 1.5; stroke-linecap: square"/>
    </g>
    <g id="text_20">
     <!-- Max Principal Strain Location (0,33) -->
     <g transform="translate(325.78125 45.196094) scale(0.1 -0.1)">
      <use xlink:href="#DejaVuSans-4d"/>
      <use xlink:href="#DejaVuSans-61" transform="translate(86.279297 0)"/>
      <use xlink:href="#DejaVuSans-78" transform="translate(147.558594 0)"/>
      <use xlink:href="#DejaVuSans-20" transform="translate(206.738281 0)"/>
      <use xlink:href="#DejaVuSans-50" transform="translate(238.525391 0)"/>
      <use xlink:href="#DejaVuSans-72" transform="translate(297.078125 0)"/>
      <use xlink:href="#DejaVuSans-69" transform="translate(338.191406 0)"/>
      <use xlink:href="#DejaVuSans-6e" transform="translate(365.974609 0)"/>
      <use xlink:href="#DejaVuSans-63" transform="translate(429.353516 0)"/>
      <use xlink:href="#DejaVuSans-69" transform="translate(484.333984 0)"/>
      <use xlink:href="#DejaVuSans-70" transform="translate(512.117188 0)"/>
      <use xlink:href="#DejaVuSans-61" transform="translate(575.59375 0)"/>
      <use xlink:href="#DejaVuSans-6c" transform="translate(636.873047 0)"/>
      <use xlink:href="#DejaVuSans-20" transform="translate(664.65625 0)"/>
      <use xlink:href="#DejaVuSans-53" transform="translate(696.443359 0)"/>
      <use xlink:href="#DejaVuSans-74" transform="translate(759.919922 0)"/>
      <use xlink:href="#DejaVuSans-72" transform="translate(799.128906 0)"/>
      <use xlink:href="#DejaVuSans-61" transform="translate(840.242188 0)"/>
      <use xlink:href="#DejaVuSans-69" transform="translate(901.521484 0)"/>
      <use xlink:href="#DejaVuSans-6e" transform="translate(929.304688 0)"/>
      <use xlink:href="#DejaVuSans-20" transform="translate(992.683594 0)"/>
      <use xlink:href="#DejaVuSans-4c" transform="translate(1024.470703 0)"/>
      <use xlink:href="#DejaVuSans-6f" transform="translate(1078.433594 0)"/>
      <use xlink:href="#DejaVuSans-63" transform="translate(1139.615234 0)"/>
      <use xlink:href="#DejaVuSans-61" transform="translate(1194.595703 0)"/>
      <use xlink:href="#DejaVuSans-74" transform="translate(1255.875 0)"/>
      <use xlink:href="#DejaVuSans-69" transform="translate(1295.083984 0)"/>
      <use xlink:href="#DejaVuSans-6f" transform="translate(1322.867188 0)"/>
      <use xlink:href="#DejaVuSans-6e" transform="translate(1384.048828 0)"/>
      <use xlink:href="#DejaVuSans-20" transform="translate(1447.427734 0)"/>
      <use xlink:href="#DejaVuSans-28" transform="translate(1479.214844 0)"/>
      <use xlink:href="#DejaVuSans-30" transform="translate(1518.228516 0)"/>
      <use xlink:href="#DejaVuSans-2c" transform="translate(1581.851562 0)"/>
      <use xlink:href="#DejaVuSans-33" transform="translate(1613.638672 0)"/>
      <use xlink:href="#DejaVuSans-33" transform="translate(1677.261719 0)"/>
      <use xlink:href="#DejaVuSans-29" transform="translate(1740.884766 0)"/>
     </g>
    </g>
   </g>
  </g>
  <g id="axes_2">
   <g id="patch_9">
    <path d="M 820.770312 582.997656 
L 1260.770313 582.997656 
L 1260.770313 28.597656 
L 820.770312 28.597656 
z
" style="fill: #ffffff"/>
   </g>
   <g id="matplotlib.axis_3">
    <g id="xtick_9">
     <g id="line2d_33">
      <path d="M 840.770312 582.997656 
L 840.770312 28.597656 
" clip-path="url(#p8d11cc8b50)" style="fill: none; stroke: #b0b0b0; stroke-opacity: 0.7; stroke-width: 0.8; stroke-linecap: square"/>
     </g>
     <g id="line2d_34">
      <g>
       <use xlink:href="#maa2ebadaf9" x="840.770312" y="582.997656" style="stroke: #000000; stroke-width: 0.8"/>
      </g>
     </g>
     <g id="text_21">
      <!-- 0 -->
      <g transform="translate(836.952812 599.115781) scale(0.12 -0.12)">
       <use xlink:href="#DejaVuSans-30"/>
      </g>
     </g>
    </g>
    <g id="xtick_10">
     <g id="line2d_35">
      <path d="M 897.427536 582.997656 
L 897.427536 28.597656 
" clip-path="url(#p8d11cc8b50)" style="fill: none; stroke: #b0b0b0; stroke-opacity: 0.7; stroke-width: 0.8; stroke-linecap: square"/>
     </g>
     <g id="line2d_36">
      <g>
       <use xlink:href="#maa2ebadaf9" x="897.427536" y="582.997656" style="stroke: #000000; stroke-width: 0.8"/>
      </g>
     </g>
     <g id="text_22">
      <!-- 10 -->
      <g transform="translate(889.792536 599.115781) scale(0.12 -0.12)">
       <use xlink:href="#DejaVuSans-31"/>
       <use xlink:href="#DejaVuSans-30" transform="translate(63.623047 0)"/>
      </g>
     </g>
    </g>
    <g id="xtick_11">
     <g id="line2d_37">
      <path d="M 954.08476 582.997656 
L 954.08476 28.597656 
" clip-path="url(#p8d11cc8b50)" style="fill: none; stroke: #b0b0b0; stroke-opacity: 0.7; stroke-width: 0.8; stroke-linecap: square"/>
     </g>
     <g id="line2d_38">
      <g>
       <use xlink:href="#maa2ebadaf9" x="954.08476" y="582.997656" style="stroke: #000000; stroke-width: 0.8"/>
      </g>
     </g>
     <g id="text_23">
      <!-- 20 -->
      <g transform="translate(946.44976 599.115781) scale(0.12 -0.12)">
       <use xlink:href="#DejaVuSans-32"/>
       <use xlink:href="#DejaVuSans-30" transform="translate(63.623047 0)"/>
      </g>
     </g>
    </g>
    <g id="xtick_12">
     <g id="line2d_39">
      <path d="M 1010.741984 582.997656 
L 1010.741984 28.597656 
" clip-path="url(#p8d11cc8b50)" style="fill: none; stroke: #b0b0b0; stroke-opacity: 0.7; stroke-width: 0.8; stroke-linecap: square"/>
     </g>
     <g id="line2d_40">
      <g>
       <use xlink:href="#maa2ebadaf9" x="1010.741984" y="582.997656" style="stroke: #000000; stroke-width: 0.8"/>
      </g>
     </g>
     <g id="text_24">
      <!-- 30 -->
      <g transform="translate(1003.106984 599.115781) scale(0.12 -0.12)">
       <use xlink:href="#DejaVuSans-33"/>
       <use xlink:href="#DejaVuSans-30" transform="translate(63.623047 0)"/>
      </g>
     </g>
    </g>
    <g id="xtick_13">
     <g id="line2d_41">
      <path d="M 1067.399208 582.997656 
L 1067.399208 28.597656 
" clip-path="url(#p8d11cc8b50)" style="fill: none; stroke: #b0b0b0; stroke-opacity: 0.7; stroke-width: 0.8; stroke-linecap: square"/>
     </g>
     <g id="line2d_42">
      <g>
       <use xlink:href="#maa2ebadaf9" x="1067.399208" y="582.997656" style="stroke: #000000; stroke-width: 0.8"/>
      </g>
     </g>
     <g id="text_25">
      <!-- 40 -->
      <g transform="translate(1059.764208 599.115781) scale(0.12 -0.12)">
       <use xlink:href="#DejaVuSans-34"/>
       <use xlink:href="#DejaVuSans-30" transform="translate(63.623047 0)"/>
      </g>
     </g>
    </g>
    <g id="xtick_14">
     <g id="line2d_43">
      <path d="M 1124.056431 582.997656 
L 1124.056431 28.597656 
" clip-path="url(#p8d11cc8b50)" style="fill: none; stroke: #b0b0b0; stroke-opacity: 0.7; stroke-width: 0.8; stroke-linecap: square"/>
     </g>
     <g id="line2d_44">
      <g>
       <use xlink:href="#maa2ebadaf9" x="1124.056431" y="582.997656" style="stroke: #000000; stroke-width: 0.8"/>
      </g>
     </g>
     <g id="text_26">
      <!-- 50 -->
      <g transform="translate(1116.421431 599.115781) scale(0.12 -0.12)">
       <use xlink:href="#DejaVuSans-35"/>
       <use xlink:href="#DejaVuSans-30" transform="translate(63.623047 0)"/>
      </g>
     </g>
    </g>
    <g id="xtick_15">
     <g id="line2d_45">
      <path d="M 1180.713655 582.997656 
L 1180.713655 28.597656 
" clip-path="url(#p8d11cc8b50)" style="fill: none; stroke: #b0b0b0; stroke-opacity: 0.7; stroke-width: 0.8; stroke-linecap: square"/>
     </g>
     <g id="line2d_46">
      <g>
       <use xlink:href="#maa2ebadaf9" x="1180.713655" y="582.997656" style="stroke: #000000; stroke-width: 0.8"/>
      </g>
     </g>
     <g id="text_27">
      <!-- 60 -->
      <g transform="translate(1173.078655 599.115781) scale(0.12 -0.12)">
       <use xlink:href="#DejaVuSans-36"/>
       <use xlink:href="#DejaVuSans-30" transform="translate(63.623047 0)"/>
      </g>
     </g>
    </g>
    <g id="xtick_16">
     <g id="line2d_47">
      <path d="M 1237.370879 582.997656 
L 1237.370879 28.597656 
" clip-path="url(#p8d11cc8b50)" style="fill: none; stroke: #b0b0b0; stroke-opacity: 0.7; stroke-width: 0.8; stroke-linecap: square"/>
     </g>
     <g id="line2d_48">
      <g>
       <use xlink:href="#maa2ebadaf9" x="1237.370879" y="582.997656" style="stroke: #000000; stroke-width: 0.8"/>
      </g>
     </g>
     <g id="text_28">
      <!-- 70 -->
      <g transform="translate(1229.735879 599.115781) scale(0.12 -0.12)">
       <use xlink:href="#DejaVuSans-37"/>
       <use xlink:href="#DejaVuSans-30" transform="translate(63.623047 0)"/>
      </g>
     </g>
    </g>
    <g id="text_29">
     <!-- Time (seconds) -->
     <g transform="translate(991.160078 615.489375) scale(0.13 -0.13)">
      <use xlink:href="#DejaVuSans-54"/>
      <use xlink:href="#DejaVuSans-69" transform="translate(57.958984 0)"/>
      <use xlink:href="#DejaVuSans-6d" transform="translate(85.742188 0)"/>
      <use xlink:href="#DejaVuSans-65" transform="translate(183.154297 0)"/>
      <use xlink:href="#DejaVuSans-20" transform="translate(244.677734 0)"/>
      <use xlink:href="#DejaVuSans-28" transform="translate(276.464844 0)"/>
      <use xlink:href="#DejaVuSans-73" transform="translate(315.478516 0)"/>
      <use xlink:href="#DejaVuSans-65" transform="translate(367.578125 0)"/>
      <use xlink:href="#DejaVuSans-63" transform="translate(429.101562 0)"/>
      <use xlink:href="#DejaVuSans-6f" transform="translate(484.082031 0)"/>
      <use xlink:href="#DejaVuSans-6e" transform="translate(545.263672 0)"/>
      <use xlink:href="#DejaVuSans-64" transform="translate(608.642578 0)"/>
      <use xlink:href="#DejaVuSans-73" transform="translate(672.119141 0)"/>
      <use xlink:href="#DejaVuSans-29" transform="translate(724.21875 0)"/>
     </g>
    </g>
   </g>
   <g id="matplotlib.axis_4">
    <g id="ytick_8">
     <g id="line2d_49">
      <path d="M 820.770312 567.338334 
L 1260.770313 567.338334 
" clip-path="url(#p8d11cc8b50)" style="fill: none; stroke: #b0b0b0; stroke-opacity: 0.7; stroke-width: 0.8; stroke-linecap: square"/>
     </g>
     <g id="line2d_50">
      <g>
       <use xlink:href="#mc6b6d72b80" x="820.770312" y="567.338334" style="stroke: #000000; stroke-width: 0.8"/>
      </g>
     </g>
     <g id="text_30">
      <!-- 0.0000 -->
      <g transform="translate(771.781562 571.897396) scale(0.12 -0.12)">
       <use xlink:href="#DejaVuSans-30"/>
       <use xlink:href="#DejaVuSans-2e" transform="translate(63.623047 0)"/>
       <use xlink:href="#DejaVuSans-30" transform="translate(95.410156 0)"/>
       <use xlink:href="#DejaVuSans-30" transform="translate(159.033203 0)"/>
       <use xlink:href="#DejaVuSans-30" transform="translate(222.65625 0)"/>
       <use xlink:href="#DejaVuSans-30" transform="translate(286.279297 0)"/>
      </g>
     </g>
    </g>
    <g id="ytick_9">
     <g id="line2d_51">
      <path d="M 820.770312 499.673953 
L 1260.770313 499.673953 
" clip-path="url(#p8d11cc8b50)" style="fill: none; stroke: #b0b0b0; stroke-opacity: 0.7; stroke-width: 0.8; stroke-linecap: square"/>
     </g>
     <g id="line2d_52">
      <g>
       <use xlink:href="#mc6b6d72b80" x="820.770312" y="499.673953" style="stroke: #000000; stroke-width: 0.8"/>
      </g>
     </g>
     <g id="text_31">
      <!-- 0.0002 -->
      <g transform="translate(771.781562 504.233016) scale(0.12 -0.12)">
       <use xlink:href="#DejaVuSans-30"/>
       <use xlink:href="#DejaVuSans-2e" transform="translate(63.623047 0)"/>
       <use xlink:href="#DejaVuSans-30" transform="translate(95.410156 0)"/>
       <use xlink:href="#DejaVuSans-30" transform="translate(159.033203 0)"/>
       <use xlink:href="#DejaVuSans-30" transform="translate(222.65625 0)"/>
       <use xlink:href="#DejaVuSans-32" transform="translate(286.279297 0)"/>
      </g>
     </g>
    </g>
    <g id="ytick_10">
     <g id="line2d_53">
      <path d="M 820.770312 432.009573 
L 1260.770313 432.009573 
" clip-path="url(#p8d11cc8b50)" style="fill: none; stroke: #b0b0b0; stroke-opacity: 0.7; stroke-width: 0.8; stroke-linecap: square"/>
     </g>
     <g id="line2d_54">
      <g>
       <use xlink:href="#mc6b6d72b80" x="820.770312" y="432.009573" style="stroke: #000000; stroke-width: 0.8"/>
      </g>
     </g>
     <g id="text_32">
      <!-- 0.0004 -->
      <g transform="translate(771.781562 436.568635) scale(0.12 -0.12)">
       <use xlink:href="#DejaVuSans-30"/>
       <use xlink:href="#DejaVuSans-2e" transform="translate(63.623047 0)"/>
       <use xlink:href="#DejaVuSans-30" transform="translate(95.410156 0)"/>
       <use xlink:href="#DejaVuSans-30" transform="translate(159.033203 0)"/>
       <use xlink:href="#DejaVuSans-30" transform="translate(222.65625 0)"/>
       <use xlink:href="#DejaVuSans-34" transform="translate(286.279297 0)"/>
      </g>
     </g>
    </g>
    <g id="ytick_11">
     <g id="line2d_55">
      <path d="M 820.770312 364.345192 
L 1260.770313 364.345192 
" clip-path="url(#p8d11cc8b50)" style="fill: none; stroke: #b0b0b0; stroke-opacity: 0.7; stroke-width: 0.8; stroke-linecap: square"/>
     </g>
     <g id="line2d_56">
      <g>
       <use xlink:href="#mc6b6d72b80" x="820.770312" y="364.345192" style="stroke: #000000; stroke-width: 0.8"/>
      </g>
     </g>
     <g id="text_33">
      <!-- 0.0006 -->
      <g transform="translate(771.781562 368.904254) scale(0.12 -0.12)">
       <use xlink:href="#DejaVuSans-30"/>
       <use xlink:href="#DejaVuSans-2e" transform="translate(63.623047 0)"/>
       <use xlink:href="#DejaVuSans-30" transform="translate(95.410156 0)"/>
       <use xlink:href="#DejaVuSans-30" transform="translate(159.033203 0)"/>
       <use xlink:href="#DejaVuSans-30" transform="translate(222.65625 0)"/>
       <use xlink:href="#DejaVuSans-36" transform="translate(286.279297 0)"/>
      </g>
     </g>
    </g>
    <g id="ytick_12">
     <g id="line2d_57">
      <path d="M 820.770312 296.680811 
L 1260.770313 296.680811 
" clip-path="url(#p8d11cc8b50)" style="fill: none; stroke: #b0b0b0; stroke-opacity: 0.7; stroke-width: 0.8; stroke-linecap: square"/>
     </g>
     <g id="line2d_58">
      <g>
       <use xlink:href="#mc6b6d72b80" x="820.770312" y="296.680811" style="stroke: #000000; stroke-width: 0.8"/>
      </g>
     </g>
     <g id="text_34">
      <!-- 0.0008 -->
      <g transform="translate(771.781562 301.239874) scale(0.12 -0.12)">
       <defs>
        <path id="DejaVuSans-38" d="M 2034 2216 
Q 1584 2216 1326 1975 
Q 1069 1734 1069 1313 
Q 1069 891 1326 650 
Q 1584 409 2034 409 
Q 2484 409 2743 651 
Q 3003 894 3003 1313 
Q 3003 1734 2745 1975 
Q 2488 2216 2034 2216 
z
M 1403 2484 
Q 997 2584 770 2862 
Q 544 3141 544 3541 
Q 544 4100 942 4425 
Q 1341 4750 2034 4750 
Q 2731 4750 3128 4425 
Q 3525 4100 3525 3541 
Q 3525 3141 3298 2862 
Q 3072 2584 2669 2484 
Q 3125 2378 3379 2068 
Q 3634 1759 3634 1313 
Q 3634 634 3220 271 
Q 2806 -91 2034 -91 
Q 1263 -91 848 271 
Q 434 634 434 1313 
Q 434 1759 690 2068 
Q 947 2378 1403 2484 
z
M 1172 3481 
Q 1172 3119 1398 2916 
Q 1625 2713 2034 2713 
Q 2441 2713 2670 2916 
Q 2900 3119 2900 3481 
Q 2900 3844 2670 4047 
Q 2441 4250 2034 4250 
Q 1625 4250 1398 4047 
Q 1172 3844 1172 3481 
z
" transform="scale(0.015625)"/>
       </defs>
       <use xlink:href="#DejaVuSans-30"/>
       <use xlink:href="#DejaVuSans-2e" transform="translate(63.623047 0)"/>
       <use xlink:href="#DejaVuSans-30" transform="translate(95.410156 0)"/>
       <use xlink:href="#DejaVuSans-30" transform="translate(159.033203 0)"/>
       <use xlink:href="#DejaVuSans-30" transform="translate(222.65625 0)"/>
       <use xlink:href="#DejaVuSans-38" transform="translate(286.279297 0)"/>
      </g>
     </g>
    </g>
    <g id="ytick_13">
     <g id="line2d_59">
      <path d="M 820.770312 229.016431 
L 1260.770313 229.016431 
" clip-path="url(#p8d11cc8b50)" style="fill: none; stroke: #b0b0b0; stroke-opacity: 0.7; stroke-width: 0.8; stroke-linecap: square"/>
     </g>
     <g id="line2d_60">
      <g>
       <use xlink:href="#mc6b6d72b80" x="820.770312" y="229.016431" style="stroke: #000000; stroke-width: 0.8"/>
      </g>
     </g>
     <g id="text_35">
      <!-- 0.0010 -->
      <g transform="translate(771.781562 233.575493) scale(0.12 -0.12)">
       <use xlink:href="#DejaVuSans-30"/>
       <use xlink:href="#DejaVuSans-2e" transform="translate(63.623047 0)"/>
       <use xlink:href="#DejaVuSans-30" transform="translate(95.410156 0)"/>
       <use xlink:href="#DejaVuSans-30" transform="translate(159.033203 0)"/>
       <use xlink:href="#DejaVuSans-31" transform="translate(222.65625 0)"/>
       <use xlink:href="#DejaVuSans-30" transform="translate(286.279297 0)"/>
      </g>
     </g>
    </g>
    <g id="ytick_14">
     <g id="line2d_61">
      <path d="M 820.770312 161.35205 
L 1260.770313 161.35205 
" clip-path="url(#p8d11cc8b50)" style="fill: none; stroke: #b0b0b0; stroke-opacity: 0.7; stroke-width: 0.8; stroke-linecap: square"/>
     </g>
     <g id="line2d_62">
      <g>
       <use xlink:href="#mc6b6d72b80" x="820.770312" y="161.35205" style="stroke: #000000; stroke-width: 0.8"/>
      </g>
     </g>
     <g id="text_36">
      <!-- 0.0012 -->
      <g transform="translate(771.781562 165.911113) scale(0.12 -0.12)">
       <use xlink:href="#DejaVuSans-30"/>
       <use xlink:href="#DejaVuSans-2e" transform="translate(63.623047 0)"/>
       <use xlink:href="#DejaVuSans-30" transform="translate(95.410156 0)"/>
       <use xlink:href="#DejaVuSans-30" transform="translate(159.033203 0)"/>
       <use xlink:href="#DejaVuSans-31" transform="translate(222.65625 0)"/>
       <use xlink:href="#DejaVuSans-32" transform="translate(286.279297 0)"/>
      </g>
     </g>
    </g>
    <g id="ytick_15">
     <g id="line2d_63">
      <path d="M 820.770312 93.687669 
L 1260.770313 93.687669 
" clip-path="url(#p8d11cc8b50)" style="fill: none; stroke: #b0b0b0; stroke-opacity: 0.7; stroke-width: 0.8; stroke-linecap: square"/>
     </g>
     <g id="line2d_64">
      <g>
       <use xlink:href="#mc6b6d72b80" x="820.770312" y="93.687669" style="stroke: #000000; stroke-width: 0.8"/>
      </g>
     </g>
     <g id="text_37">
      <!-- 0.0014 -->
      <g transform="translate(771.781562 98.246732) scale(0.12 -0.12)">
       <use xlink:href="#DejaVuSans-30"/>
       <use xlink:href="#DejaVuSans-2e" transform="translate(63.623047 0)"/>
       <use xlink:href="#DejaVuSans-30" transform="translate(95.410156 0)"/>
       <use xlink:href="#DejaVuSans-30" transform="translate(159.033203 0)"/>
       <use xlink:href="#DejaVuSans-31" transform="translate(222.65625 0)"/>
       <use xlink:href="#DejaVuSans-34" transform="translate(286.279297 0)"/>
      </g>
     </g>
    </g>
    <g id="text_38">
     <!-- Strain (ε) -->
     <g transform="translate(765.077969 335.70375) rotate(-90) scale(0.13 -0.13)">
      <use xlink:href="#DejaVuSans-53"/>
      <use xlink:href="#DejaVuSans-74" transform="translate(63.476562 0)"/>
      <use xlink:href="#DejaVuSans-72" transform="translate(102.685547 0)"/>
      <use xlink:href="#DejaVuSans-61" transform="translate(143.798828 0)"/>
      <use xlink:href="#DejaVuSans-69" transform="translate(205.078125 0)"/>
      <use xlink:href="#DejaVuSans-6e" transform="translate(232.861328 0)"/>
      <use xlink:href="#DejaVuSans-20" transform="translate(296.240234 0)"/>
      <use xlink:href="#DejaVuSans-28" transform="translate(328.027344 0)"/>
      <use xlink:href="#DejaVuSans-3b5" transform="translate(367.041016 0)"/>
      <use xlink:href="#DejaVuSans-29" transform="translate(421.09375 0)"/>
     </g>
    </g>
   </g>
   <g id="line2d_65">
    <path d="M 840.770312 435.345427 
L 841.903457 421.467462 
L 843.036601 232.650515 
L 844.169746 469.732465 
L 845.30289 62.134077 
L 846.436035 511.623009 
L 847.569179 329.662291 
L 848.702324 455.649816 
L 849.835468 464.471559 
L 850.968613 431.715233 
L 852.101757 453.180066 
L 853.234902 418.239871 
L 854.368046 126.59844 
L 855.501191 514.797957 
L 856.634335 215.525337 
L 857.76748 428.162853 
L 858.900624 93.280211 
L 860.033769 445.332689 
L 861.166913 473.954722 
L 862.300058 278.756686 
L 863.433202 262.735283 
L 864.566346 443.383955 
L 865.699491 90.362473 
L 866.832635 90.504822 
L 867.96578 427.420236 
L 869.098924 460.70942 
L 870.232069 85.85073 
L 871.365213 445.577973 
L 872.498358 425.114572 
L 873.631502 99.482616 
L 874.764647 437.297544 
L 875.897791 497.143305 
L 877.030936 67.997365 
L 878.16408 378.616422 
L 879.297225 213.515607 
L 880.430369 454.805702 
L 881.563514 476.847374 
L 882.696658 231.64553 
L 883.829803 468.416393 
L 884.962947 447.071664 
L 886.096092 255.992866 
L 887.229236 460.978386 
L 888.36238 223.050293 
L 889.495525 84.304311 
L 890.628669 468.676901 
L 891.761814 424.585098 
L 892.894958 243.371598 
L 894.028103 234.103608 
L 895.161247 435.80047 
L 896.294392 475.353683 
L 897.427536 256.7864 
L 898.560681 455.43329 
L 899.693825 446.484675 
L 900.82697 464.764208 
L 901.960114 460.567324 
L 903.093259 220.236588 
L 904.226403 530.543882 
L 905.359548 467.696444 
L 906.492692 443.020259 
L 907.625837 83.932039 
L 908.758981 442.749601 
L 909.892126 435.59071 
L 911.02527 462.121914 
L 912.158414 440.01596 
L 913.291559 92.826488 
L 914.424703 432.598253 
L 915.557848 424.064083 
L 916.690992 238.793934 
L 917.824137 446.075306 
L 918.957281 472.053353 
L 920.090426 111.015485 
L 921.22357 99.856208 
L 922.356715 466.234216 
L 923.489859 465.447618 
L 924.623004 460.936095 
L 925.756148 449.903418 
L 926.889293 92.862452 
L 928.022437 521.975795 
L 929.155582 545.178723 
L 930.288726 440.922663 
L 931.421871 463.948852 
L 933.68816 420.290102 
L 934.821304 250.489773 
L 935.954448 481.881232 
L 937.087593 72.491126 
L 938.220737 239.900483 
L 939.353882 447.404911 
L 940.487026 463.160562 
L 941.620171 430.696884 
L 942.753315 451.542588 
L 943.88646 442.172763 
L 945.019604 92.931351 
L 946.152749 116.742616 
L 947.285893 231.154287 
L 948.419038 228.583754 
L 949.552182 237.951005 
L 950.685327 271.527424 
L 951.818471 453.865168 
L 952.951616 102.507908 
L 954.08476 92.96772 
L 955.217905 436.362084 
L 956.351049 446.728267 
L 957.484194 264.2239 
L 958.617338 256.459074 
L 959.750482 429.91536 
L 960.883627 458.122949 
L 962.016771 451.657617 
L 963.149916 451.084162 
L 964.28306 458.287035 
L 965.416205 67.283336 
L 966.549349 553.638648 
L 967.682494 348.082532 
L 968.815638 443.531125 
L 969.948783 454.753263 
L 971.081927 449.135427 
L 972.215072 439.709779 
L 973.348216 57.198299 
L 974.481361 103.069167 
L 975.614505 456.823793 
L 976.74765 471.273521 
L 977.880794 117.29364 
L 979.013939 296.509959 
L 980.147083 523.837157 
L 981.280228 256.756459 
L 982.413372 455.056061 
L 983.546516 448.847854 
L 984.679661 494.879932 
L 985.812805 504.430759 
L 986.94595 459.841624 
L 988.079094 454.408174 
L 989.212239 534.346078 
L 990.345383 447.156244 
L 991.478528 103.889276 
L 992.611672 83.048731 
L 993.744817 438.222854 
L 994.877961 432.117836 
L 996.011106 252.355567 
L 997.14425 203.671096 
L 998.277395 298.775193 
L 999.410539 229.448055 
L 1000.543684 462.487301 
L 1001.676828 448.879994 
L 1002.809973 459.706295 
L 1003.943117 440.897289 
L 1005.076262 460.881964 
L 1006.209406 224.727236 
L 1007.34255 458.236287 
L 1008.475695 82.145682 
L 1009.608839 557.237175 
L 1010.741984 455.725938 
L 1011.875128 444.009851 
L 1013.008273 448.426643 
L 1014.141417 243.103157 
L 1015.274562 68.680944 
L 1016.407706 470.590111 
L 1017.540851 245.687919 
L 1018.673995 272.046917 
L 1019.80714 483.111405 
L 1020.940284 92.224038 
L 1022.073429 470.307612 
L 1023.206573 435.147508 
L 1025.472862 106.27815 
L 1026.606007 232.427443 
L 1027.739151 438.444455 
L 1028.872296 58.864534 
L 1030.00544 445.32254 
L 1031.138584 469.972673 
L 1032.271729 118.371635 
L 1033.404873 81.101418 
L 1034.538018 466.163169 
L 1035.671162 473.890441 
L 1036.804307 223.744868 
L 1037.937451 251.428058 
L 1039.070596 435.731114 
L 1040.20374 53.797656 
L 1041.336885 57.152625 
L 1042.470029 438.853825 
L 1043.603174 432.043405 
L 1044.736318 345.258762 
L 1045.869463 429.637936 
L 1047.002607 427.021016 
L 1048.135752 515.671268 
L 1049.268896 535.990069 
L 1050.402041 462.998167 
L 1051.535185 433.81452 
L 1052.668329 550.42393 
L 1053.801474 462.177737 
L 1054.934618 457.5884 
L 1056.067763 237.98619 
L 1057.200907 230.895978 
L 1058.334052 417.850801 
L 1059.467196 422.890106 
L 1060.600341 442.040817 
L 1061.733485 464.140004 
L 1062.86663 521.509249 
L 1063.999774 167.092189 
L 1065.132919 463.040458 
L 1066.266063 466.503182 
L 1067.399208 455.981371 
L 1068.532352 443.279075 
L 1069.665497 476.718812 
L 1070.798641 481.377505 
L 1071.931786 437.441331 
L 1073.06493 356.122278 
L 1074.198075 313.381057 
L 1075.331219 460.885347 
L 1076.464363 433.095586 
L 1077.597508 436.63105 
L 1078.730652 464.258416 
L 1079.863797 415.717681 
L 1080.996941 452.484814 
L 1082.130086 457.317743 
L 1083.26323 469.272347 
L 1084.396375 458.806359 
L 1085.529519 403.62944 
L 1086.662664 460.486127 
L 1087.795808 325.908779 
L 1088.928953 438.161956 
L 1090.062097 435.230397 
L 1091.195242 417.832193 
L 1092.328386 457.796468 
L 1093.461531 387.376456 
L 1094.594675 455.071285 
L 1095.72782 409.419819 
L 1096.860964 454.052936 
L 1097.994109 460.910721 
L 1099.127253 441.022468 
L 1100.260397 495.17258 
L 1101.393542 427.599547 
L 1102.526686 457.552876 
L 1103.659831 464.397128 
L 1104.792975 120.258626 
L 1105.92612 507.443516 
L 1107.059264 477.233061 
L 1108.192409 456.891457 
L 1109.325553 393.408735 
L 1110.458698 441.387856 
L 1111.591842 476.08615 
L 1112.724987 146.041292 
L 1113.858131 442.758059 
L 1114.991276 489.131843 
L 1116.12442 459.855157 
L 1117.257565 557.797656 
L 1118.390709 430.076063 
L 1119.523854 423.343457 
L 1120.656998 443.681678 
L 1121.790143 430.495582 
L 1122.923287 343.445356 
L 1124.056431 476.679905 
L 1125.189576 282.605098 
L 1126.32272 502.994583 
L 1127.455865 453.092102 
L 1128.589009 383.047627 
L 1129.722154 444.495342 
L 1130.855298 472.819652 
L 1131.988443 438.853825 
L 1133.121587 299.383496 
L 1134.254732 434.673858 
L 1135.387876 454.675449 
L 1136.521021 469.948991 
L 1137.654165 458.023144 
L 1138.78731 456.482088 
L 1139.920454 444.043683 
L 1141.053599 502.196143 
L 1142.186743 477.309184 
L 1143.319888 176.622547 
L 1144.453032 422.457054 
L 1145.586177 475.159148 
L 1146.719321 492.714672 
L 1147.852465 432.53228 
L 1148.98561 438.471521 
L 1150.118754 418.919898 
L 1151.251899 465.104221 
L 1152.385043 467.859853 
L 1153.518188 463.916711 
L 1154.651332 436.854342 
L 1155.784477 372.602615 
L 1156.917621 470.632401 
L 1158.050766 490.688124 
L 1159.18391 423.067725 
L 1160.317055 449.88481 
L 1161.450199 423.478786 
L 1162.583344 460.596082 
L 1163.716488 436.233522 
L 1164.849633 466.310339 
L 1165.982777 516.30755 
L 1167.115922 443.08454 
L 1168.249066 460.810916 
L 1169.382211 495.769719 
L 1170.515355 456.830559 
L 1171.648499 461.384372 
L 1172.781644 211.941663 
L 1173.914788 464.985809 
L 1175.047933 475.649715 
L 1176.181077 494.651565 
L 1177.314222 441.379398 
L 1178.447366 475.319851 
L 1179.580511 457.791393 
L 1180.713655 403.654814 
L 1181.8468 480.969827 
L 1182.979944 342.174958 
L 1184.113089 487.797163 
L 1185.246233 456.262178 
L 1186.379378 476.507361 
L 1187.512522 454.717739 
L 1188.645667 436.319794 
L 1189.778811 446.012716 
L 1190.911956 270.579953 
L 1192.0451 449.942325 
L 1193.178245 467.795572 
L 1194.311389 451.256706 
L 1195.444533 519.031041 
L 1196.577678 406.127947 
L 1197.710822 465.545731 
L 1198.843967 437.201122 
L 1199.977111 466.53194 
L 1201.110256 474.337026 
L 1202.2434 470.361744 
L 1203.376545 479.356031 
L 1204.509689 267.773911 
L 1205.642834 509.975855 
L 1206.775978 485.7131 
L 1207.909123 450.759373 
L 1209.042267 473.690831 
L 1210.175412 443.191112 
L 1211.308556 446.609854 
L 1212.441701 479.317124 
L 1213.574845 446.592938 
L 1214.70799 449.634452 
L 1215.841134 365.568226 
L 1216.974279 440.398264 
L 1218.107423 417.47188 
L 1219.240567 419.02647 
L 1220.373712 471.275213 
L 1221.506856 436.703789 
L 1222.640001 432.114452 
L 1223.773145 197.376397 
L 1224.90629 433.559087 
L 1226.039434 450.879477 
L 1227.172579 443.504059 
L 1228.305723 468.947558 
L 1229.438868 485.887336 
L 1230.572012 517.104298 
L 1231.705157 458.581375 
L 1232.838301 462.346898 
L 1233.971446 479.59624 
L 1235.10459 442.864631 
L 1236.237735 416.55672 
L 1237.370879 465.341047 
L 1238.504024 405.588324 
L 1239.637168 418.887758 
L 1240.770313 403.759694 
L 1240.770313 403.759694 
" clip-path="url(#p8d11cc8b50)" style="fill: none; stroke: #1f77b4; stroke-width: 1.5; stroke-linecap: square"/>
   </g>
   <g id="patch_10">
    <path d="M 820.770312 582.997656 
L 820.770312 28.597656 
" style="fill: none; stroke: #000000; stroke-width: 0.8; stroke-linejoin: miter; stroke-linecap: square"/>
   </g>
   <g id="patch_11">
    <path d="M 1260.770313 582.997656 
L 1260.770313 28.597656 
" style="fill: none; stroke: #000000; stroke-width: 0.8; stroke-linejoin: miter; stroke-linecap: square"/>
   </g>
   <g id="patch_12">
    <path d="M 820.770312 582.997656 
L 1260.770313 582.997656 
" style="fill: none; stroke: #000000; stroke-width: 0.8; stroke-linejoin: miter; stroke-linecap: square"/>
   </g>
   <g id="patch_13">
    <path d="M 820.770312 28.597656 
L 1260.770313 28.597656 
" style="fill: none; stroke: #000000; stroke-width: 0.8; stroke-linejoin: miter; stroke-linecap: square"/>
   </g>
   <g id="text_39">
    <g id="patch_14">
     <path d="M 1119.980625 97.228375 
L 1247.570312 97.228375 
Q 1251.970312 97.228375 1251.970312 92.828375 
L 1251.970312 45.229656 
Q 1251.970312 40.829656 1247.570312 40.829656 
L 1119.980625 40.829656 
Q 1115.580625 40.829656 1115.580625 45.229656 
L 1115.580625 92.828375 
Q 1115.580625 97.228375 1119.980625 97.228375 
z
" style="fill: #ffffff; opacity: 0.8; stroke: #808080; stroke-linejoin: miter"/>
    </g>
    <!-- Cycles detected: 115 -->
    <g transform="translate(1131.137031 53.587938) scale(0.11 -0.11)">
     <use xlink:href="#DejaVuSans-43"/>
     <use xlink:href="#DejaVuSans-79" transform="translate(69.824219 0)"/>
     <use xlink:href="#DejaVuSans-63" transform="translate(129.003906 0)"/>
     <use xlink:href="#DejaVuSans-6c" transform="translate(183.984375 0)"/>
     <use xlink:href="#DejaVuSans-65" transform="translate(211.767578 0)"/>
     <use xlink:href="#DejaVuSans-73" transform="translate(273.291016 0)"/>
     <use xlink:href="#DejaVuSans-20" transform="translate(325.390625 0)"/>
     <use xlink:href="#DejaVuSans-64" transform="translate(357.177734 0)"/>
     <use xlink:href="#DejaVuSans-65" transform="translate(420.654297 0)"/>
     <use xlink:href="#DejaVuSans-74" transform="translate(482.177734 0)"/>
     <use xlink:href="#DejaVuSans-65" transform="translate(521.386719 0)"/>
     <use xlink:href="#DejaVuSans-63" transform="translate(582.910156 0)"/>
     <use xlink:href="#DejaVuSans-74" transform="translate(637.890625 0)"/>
     <use xlink:href="#DejaVuSans-65" transform="translate(677.099609 0)"/>
     <use xlink:href="#DejaVuSans-64" transform="translate(738.623047 0)"/>
     <use xlink:href="#DejaVuSans-3a" transform="translate(802.099609 0)"/>
     <use xlink:href="#DejaVuSans-20" transform="translate(835.791016 0)"/>
     <use xlink:href="#DejaVuSans-31" transform="translate(867.578125 0)"/>
     <use xlink:href="#DejaVuSans-31" transform="translate(931.201172 0)"/>
     <use xlink:href="#DejaVuSans-35" transform="translate(994.824219 0)"/>
    </g>
    <!-- Cycle multiplier: 10 -->
    <g transform="translate(1140.507656 65.905531) scale(0.11 -0.11)">
     <use xlink:href="#DejaVuSans-43"/>
     <use xlink:href="#DejaVuSans-79" transform="translate(69.824219 0)"/>
     <use xlink:href="#DejaVuSans-63" transform="translate(129.003906 0)"/>
     <use xlink:href="#DejaVuSans-6c" transform="translate(183.984375 0)"/>
     <use xlink:href="#DejaVuSans-65" transform="translate(211.767578 0)"/>
     <use xlink:href="#DejaVuSans-20" transform="translate(273.291016 0)"/>
     <use xlink:href="#DejaVuSans-6d" transform="translate(305.078125 0)"/>
     <use xlink:href="#DejaVuSans-75" transform="translate(402.490234 0)"/>
     <use xlink:href="#DejaVuSans-6c" transform="translate(465.869141 0)"/>
     <use xlink:href="#DejaVuSans-74" transform="translate(493.652344 0)"/>
     <use xlink:href="#DejaVuSans-69" transform="translate(532.861328 0)"/>
     <use xlink:href="#DejaVuSans-70" transform="translate(560.644531 0)"/>
     <use xlink:href="#DejaVuSans-6c" transform="translate(624.121094 0)"/>
     <use xlink:href="#DejaVuSans-69" transform="translate(651.904297 0)"/>
     <use xlink:href="#DejaVuSans-65" transform="translate(679.6875 0)"/>
     <use xlink:href="#DejaVuSans-72" transform="translate(741.210938 0)"/>
     <use xlink:href="#DejaVuSans-3a" transform="translate(780.574219 0)"/>
     <use xlink:href="#DejaVuSans-20" transform="translate(814.265625 0)"/>
     <use xlink:href="#DejaVuSans-31" transform="translate(846.052734 0)"/>
     <use xlink:href="#DejaVuSans-30" transform="translate(909.675781 0)"/>
    </g>
    <!-- Est. life: 100000 cycles -->
    <g transform="translate(1119.980625 78.223125) scale(0.11 -0.11)">
     <use xlink:href="#DejaVuSans-45"/>
     <use xlink:href="#DejaVuSans-73" transform="translate(63.183594 0)"/>
     <use xlink:href="#DejaVuSans-74" transform="translate(115.283203 0)"/>
     <use xlink:href="#DejaVuSans-2e" transform="translate(154.492188 0)"/>
     <use xlink:href="#DejaVuSans-20" transform="translate(186.279297 0)"/>
     <use xlink:href="#DejaVuSans-6c" transform="translate(218.066406 0)"/>
     <use xlink:href="#DejaVuSans-69" transform="translate(245.849609 0)"/>
     <use xlink:href="#DejaVuSans-66" transform="translate(273.632812 0)"/>
     <use xlink:href="#DejaVuSans-65" transform="translate(308.837891 0)"/>
     <use xlink:href="#DejaVuSans-3a" transform="translate(370.361328 0)"/>
     <use xlink:href="#DejaVuSans-20" transform="translate(404.052734 0)"/>
     <use xlink:href="#DejaVuSans-31" transform="translate(435.839844 0)"/>
     <use xlink:href="#DejaVuSans-30" transform="translate(499.462891 0)"/>
     <use xlink:href="#DejaVuSans-30" transform="translate(563.085938 0)"/>
     <use xlink:href="#DejaVuSans-30" transform="translate(626.708984 0)"/>
     <use xlink:href="#DejaVuSans-30" transform="translate(690.332031 0)"/>
     <use xlink:href="#DejaVuSans-30" transform="translate(753.955078 0)"/>
     <use xlink:href="#DejaVuSans-20" transform="translate(817.578125 0)"/>
     <use xlink:href="#DejaVuSans-63" transform="translate(849.365234 0)"/>
     <use xlink:href="#DejaVuSans-79" transform="translate(904.345703 0)"/>
     <use xlink:href="#DejaVuSans-63" transform="translate(963.525391 0)"/>
     <use xlink:href="#DejaVuSans-6c" transform="translate(1018.505859 0)"/>
     <use xlink:href="#DejaVuSans-65" transform="translate(1046.289062 0)"/>
     <use xlink:href="#DejaVuSans-73" transform="translate(1107.8125 0)"/>
    </g>
    <!-- Safety factor: 87.0 -->
    <g transform="translate(1145.158594 90.540719) scale(0.11 -0.11)">
     <use xlink:href="#DejaVuSans-53"/>
     <use xlink:href="#DejaVuSans-61" transform="translate(63.476562 0)"/>
     <use xlink:href="#DejaVuSans-66" transform="translate(124.755859 0)"/>
     <use xlink:href="#DejaVuSans-65" transform="translate(159.960938 0)"/>
     <use xlink:href="#DejaVuSans-74" transform="translate(221.484375 0)"/>
     <use xlink:href="#DejaVuSans-79" transform="translate(260.693359 0)"/>
     <use xlink:href="#DejaVuSans-20" transform="translate(319.873047 0)"/>
     <use xlink:href="#DejaVuSans-66" transform="translate(351.660156 0)"/>
     <use xlink:href="#DejaVuSans-61" transform="translate(386.865234 0)"/>
     <use xlink:href="#DejaVuSans-63" transform="translate(448.144531 0)"/>
     <use xlink:href="#DejaVuSans-74" transform="translate(503.125 0)"/>
     <use xlink:href="#DejaVuSans-6f" transform="translate(542.333984 0)"/>
     <use xlink:href="#DejaVuSans-72" transform="translate(603.515625 0)"/>
     <use xlink:href="#DejaVuSans-3a" transform="translate(642.878906 0)"/>
     <use xlink:href="#DejaVuSans-20" transform="translate(676.570312 0)"/>
     <use xlink:href="#DejaVuSans-38" transform="translate(708.357422 0)"/>
     <use xlink:href="#DejaVuSans-37" transform="translate(771.980469 0)"/>
     <use xlink:href="#DejaVuSans-2e" transform="translate(835.603516 0)"/>
     <use xlink:href="#DejaVuSans-30" transform="translate(867.390625 0)"/>
    </g>
   </g>
   <g id="text_40">
    <!-- Strain History - Max Shear Strain Location (0,33) -->
    <g transform="translate(858.672656 18.597656) scale(0.15 -0.15)">
     <defs>
      <path id="DejaVuSans-68" d="M 3513 2113 
L 3513 0 
L 2938 0 
L 2938 2094 
Q 2938 2591 2744 2837 
Q 2550 3084 2163 3084 
Q 1697 3084 1428 2787 
Q 1159 2491 1159 1978 
L 1159 0 
L 581 0 
L 581 4863 
L 1159 4863 
L 1159 2956 
Q 1366 3272 1645 3428 
Q 1925 3584 2291 3584 
Q 2894 3584 3203 3211 
Q 3513 2838 3513 2113 
z
" transform="scale(0.015625)"/>
     </defs>
     <use xlink:href="#DejaVuSans-53"/>
     <use xlink:href="#DejaVuSans-74" transform="translate(63.476562 0)"/>
     <use xlink:href="#DejaVuSans-72" transform="translate(102.685547 0)"/>
     <use xlink:href="#DejaVuSans-61" transform="translate(143.798828 0)"/>
     <use xlink:href="#DejaVuSans-69" transform="translate(205.078125 0)"/>
     <use xlink:href="#DejaVuSans-6e" transform="translate(232.861328 0)"/>
     <use xlink:href="#DejaVuSans-20" transform="translate(296.240234 0)"/>
     <use xlink:href="#DejaVuSans-48" transform="translate(328.027344 0)"/>
     <use xlink:href="#DejaVuSans-69" transform="translate(403.222656 0)"/>
     <use xlink:href="#DejaVuSans-73" transform="translate(431.005859 0)"/>
     <use xlink:href="#DejaVuSans-74" transform="translate(483.105469 0)"/>
     <use xlink:href="#DejaVuSans-6f" transform="translate(522.314453 0)"/>
     <use xlink:href="#DejaVuSans-72" transform="translate(583.496094 0)"/>
     <use xlink:href="#DejaVuSans-79" transform="translate(624.609375 0)"/>
     <use xlink:href="#DejaVuSans-20" transform="translate(683.789062 0)"/>
     <use xlink:href="#DejaVuSans-2d" transform="translate(715.576172 0)"/>
     <use xlink:href="#DejaVuSans-20" transform="translate(751.660156 0)"/>
     <use xlink:href="#DejaVuSans-4d" transform="translate(783.447266 0)"/>
     <use xlink:href="#DejaVuSans-61" transform="translate(869.726562 0)"/>
     <use xlink:href="#DejaVuSans-78" transform="translate(931.005859 0)"/>
     <use xlink:href="#DejaVuSans-20" transform="translate(990.185547 0)"/>
     <use xlink:href="#DejaVuSans-53" transform="translate(1021.972656 0)"/>
     <use xlink:href="#DejaVuSans-68" transform="translate(1085.449219 0)"/>
     <use xlink:href="#DejaVuSans-65" transform="translate(1148.828125 0)"/>
     <use xlink:href="#DejaVuSans-61" transform="translate(1210.351562 0)"/>
     <use xlink:href="#DejaVuSans-72" transform="translate(1271.630859 0)"/>
     <use xlink:href="#DejaVuSans-20" transform="translate(1312.744141 0)"/>
     <use xlink:href="#DejaVuSans-53" transform="translate(1344.53125 0)"/>
     <use xlink:href="#DejaVuSans-74" transform="translate(1408.007812 0)"/>
     <use xlink:href="#DejaVuSans-72" transform="translate(1447.216797 0)"/>
     <use xlink:href="#DejaVuSans-61" transform="translate(1488.330078 0)"/>
     <use xlink:href="#DejaVuSans-69" transform="translate(1549.609375 0)"/>
     <use xlink:href="#DejaVuSans-6e" transform="translate(1577.392578 0)"/>
     <use xlink:href="#DejaVuSans-20" transform="translate(1640.771484 0)"/>
     <use xlink:href="#DejaVuSans-4c" transform="translate(1672.558594 0)"/>
     <use xlink:href="#DejaVuSans-6f" transform="translate(1726.521484 0)"/>
     <use xlink:href="#DejaVuSans-63" transform="translate(1787.703125 0)"/>
     <use xlink:href="#DejaVuSans-61" transform="translate(1842.683594 0)"/>
     <use xlink:href="#DejaVuSans-74" transform="translate(1903.962891 0)"/>
     <use xlink:href="#DejaVuSans-69" transform="translate(1943.171875 0)"/>
     <use xlink:href="#DejaVuSans-6f" transform="translate(1970.955078 0)"/>
     <use xlink:href="#DejaVuSans-6e" transform="translate(2032.136719 0)"/>
     <use xlink:href="#DejaVuSans-20" transform="translate(2095.515625 0)"/>
     <use xlink:href="#DejaVuSans-28" transform="translate(2127.302734 0)"/>
     <use xlink:href="#DejaVuSans-30" transform="translate(2166.316406 0)"/>
     <use xlink:href="#DejaVuSans-2c" transform="translate(2229.939453 0)"/>
     <use xlink:href="#DejaVuSans-33" transform="translate(2261.726562 0)"/>
     <use xlink:href="#DejaVuSans-33" transform="translate(2325.349609 0)"/>
     <use xlink:href="#DejaVuSans-29" transform="translate(2388.972656 0)"/>
    </g>
   </g>
   <g id="legend_2">
    <g id="patch_15">
     <path d="M 1057.315625 51.275781 
L 1253.770313 51.275781 
Q 1255.770313 51.275781 1255.770313 49.275781 
L 1255.770313 35.597656 
Q 1255.770313 33.597656 1253.770313 33.597656 
L 1057.315625 33.597656 
Q 1055.315625 33.597656 1055.315625 35.597656 
L 1055.315625 49.275781 
Q 1055.315625 51.275781 1057.315625 51.275781 
z
" style="fill: #ffffff; opacity: 0.8; stroke: #cccccc; stroke-linejoin: miter"/>
    </g>
    <g id="line2d_66">
     <path d="M 1059.315625 41.696094 
L 1069.315625 41.696094 
L 1079.315625 41.696094 
" style="fill: none; stroke: #1f77b4; stroke-width: 1.5; stroke-linecap: square"/>
    </g>
    <g id="text_41">
     <!-- Max Shear Strain Location (0,33) -->
     <g transform="translate(1087.315625 45.196094) scale(0.1 -0.1)">
      <use xlink:href="#DejaVuSans-4d"/>
      <use xlink:href="#DejaVuSans-61" transform="translate(86.279297 0)"/>
      <use xlink:href="#DejaVuSans-78" transform="translate(147.558594 0)"/>
      <use xlink:href="#DejaVuSans-20" transform="translate(206.738281 0)"/>
      <use xlink:href="#DejaVuSans-53" transform="translate(238.525391 0)"/>
      <use xlink:href="#DejaVuSans-68" transform="translate(302.001953 0)"/>
      <use xlink:href="#DejaVuSans-65" transform="translate(365.380859 0)"/>
      <use xlink:href="#DejaVuSans-61" transform="translate(426.904297 0)"/>
      <use xlink:href="#DejaVuSans-72" transform="translate(488.183594 0)"/>
      <use xlink:href="#DejaVuSans-20" transform="translate(529.296875 0)"/>
      <use xlink:href="#DejaVuSans-53" transform="translate(561.083984 0)"/>
      <use xlink:href="#DejaVuSans-74" transform="translate(624.560547 0)"/>
      <use xlink:href="#DejaVuSans-72" transform="translate(663.769531 0)"/>
      <use xlink:href="#DejaVuSans-61" transform="translate(704.882812 0)"/>
      <use xlink:href="#DejaVuSans-69" transform="translate(766.162109 0)"/>
      <use xlink:href="#DejaVuSans-6e" transform="translate(793.945312 0)"/>
      <use xlink:href="#DejaVuSans-20" transform="translate(857.324219 0)"/>
      <use xlink:href="#DejaVuSans-4c" transform="translate(889.111328 0)"/>
      <use xlink:href="#DejaVuSans-6f" transform="translate(943.074219 0)"/>
      <use xlink:href="#DejaVuSans-63" transform="translate(1004.255859 0)"/>
      <use xlink:href="#DejaVuSans-61" transform="translate(1059.236328 0)"/>
      <use xlink:href="#DejaVuSans-74" transform="translate(1120.515625 0)"/>
      <use xlink:href="#DejaVuSans-69" transform="translate(1159.724609 0)"/>
      <use xlink:href="#DejaVuSans-6f" transform="translate(1187.507812 0)"/>
      <use xlink:href="#DejaVuSans-6e" transform="translate(1248.689453 0)"/>
      <use xlink:href="#DejaVuSans-20" transform="translate(1312.068359 0)"/>
      <use xlink:href="#DejaVuSans-28" transform="translate(1343.855469 0)"/>
      <use xlink:href="#DejaVuSans-30" transform="translate(1382.869141 0)"/>
      <use xlink:href="#DejaVuSans-2c" transform="translate(1446.492188 0)"/>
      <use xlink:href="#DejaVuSans-33" transform="translate(1478.279297 0)"/>
      <use xlink:href="#DejaVuSans-33" transform="translate(1541.902344 0)"/>
      <use xlink:href="#DejaVuSans-29" transform="translate(1605.525391 0)"/>
     </g>
    </g>
   </g>
  </g>
 </g>
 <defs>
  <clipPath id="paaaeb5aa06">
   <rect x="72.770313" y="28.597656" width="440" height="554.4"/>
  </clipPath>
  <clipPath id="p8d11cc8b50">
   <rect x="820.770312" y="28.597656" width="440" height="554.4"/>
  </clipPath>
 </defs>
</svg>
