<?xml version="1.0" encoding="utf-8" standalone="no"?>
<!DOCTYPE svg PUBLIC "-//W3C//DTD SVG 1.1//EN"
  "http://www.w3.org/Graphics/SVG/1.1/DTD/svg11.dtd">
<svg xmlns:xlink="http://www.w3.org/1999/xlink" width="856.547812pt" height="567.969688pt" viewBox="0 0 856.547812 567.969688" xmlns="http://www.w3.org/2000/svg" version="1.1">
 <metadata>
  <rdf:RDF xmlns:dc="http://purl.org/dc/elements/1.1/" xmlns:cc="http://creativecommons.org/ns#" xmlns:rdf="http://www.w3.org/1999/02/22-rdf-syntax-ns#">
   <cc:Work>
    <dc:type rdf:resource="http://purl.org/dc/dcmitype/StillImage"/>
    <dc:date>2025-04-08T17:46:11.318760</dc:date>
    <dc:format>image/svg+xml</dc:format>
    <dc:creator>
     <cc:Agent>
      <dc:title>Matplotlib v3.10.1, https://matplotlib.org/</dc:title>
     </cc:Agent>
    </dc:creator>
   </cc:Work>
  </rdf:RDF>
 </metadata>
 <defs>
  <style type="text/css">*{stroke-linejoin: round; stroke-linecap: butt}</style>
 </defs>
 <g id="figure_1">
  <g id="patch_1">
   <path d="M -0 567.969688 
L 856.547812 567.969688 
L 856.547812 0 
L -0 0 
z
" style="fill: #ffffff"/>
  </g>
  <g id="axes_1">
   <g id="patch_2">
    <path d="M 58.402813 528.477813 
L 849.347813 528.477813 
L 849.347813 23.837812 
L 58.402813 23.837812 
z
" style="fill: #ffffff"/>
   </g>
   <g id="matplotlib.axis_1">
    <g id="xtick_1">
     <g id="line2d_1">
      <path d="M 94.354858 528.477813 
L 94.354858 23.837812 
" clip-path="url(#p3563c2b9ff)" style="fill: none; stroke-dasharray: 2.96,1.28; stroke-dashoffset: 0; stroke: #b0b0b0; stroke-opacity: 0.7; stroke-width: 0.8"/>
     </g>
     <g id="line2d_2">
      <defs>
       <path id="m8b79ad80f0" d="M 0 0 
L 0 3.5 
" style="stroke: #000000; stroke-width: 0.8"/>
      </defs>
      <g>
       <use xlink:href="#m8b79ad80f0" x="94.354858" y="528.477813" style="stroke: #000000; stroke-width: 0.8"/>
      </g>
     </g>
     <g id="text_1">
      <!-- 0.000 -->
      <g transform="translate(80.040795 543.07625) scale(0.1 -0.1)">
       <defs>
        <path id="DejaVuSans-30" d="M 2034 4250 
Q 1547 4250 1301 3770 
Q 1056 3291 1056 2328 
Q 1056 1369 1301 889 
Q 1547 409 2034 409 
Q 2525 409 2770 889 
Q 3016 1369 3016 2328 
Q 3016 3291 2770 3770 
Q 2525 4250 2034 4250 
z
M 2034 4750 
Q 2819 4750 3233 4129 
Q 3647 3509 3647 2328 
Q 3647 1150 3233 529 
Q 2819 -91 2034 -91 
Q 1250 -91 836 529 
Q 422 1150 422 2328 
Q 422 3509 836 4129 
Q 1250 4750 2034 4750 
z
" transform="scale(0.015625)"/>
        <path id="DejaVuSans-2e" d="M 684 794 
L 1344 794 
L 1344 0 
L 684 0 
L 684 794 
z
" transform="scale(0.015625)"/>
       </defs>
       <use xlink:href="#DejaVuSans-30"/>
       <use xlink:href="#DejaVuSans-2e" transform="translate(63.623047 0)"/>
       <use xlink:href="#DejaVuSans-30" transform="translate(95.410156 0)"/>
       <use xlink:href="#DejaVuSans-30" transform="translate(159.033203 0)"/>
       <use xlink:href="#DejaVuSans-30" transform="translate(222.65625 0)"/>
      </g>
     </g>
    </g>
    <g id="xtick_2">
     <g id="line2d_3">
      <path d="M 229.817428 528.477813 
L 229.817428 23.837812 
" clip-path="url(#p3563c2b9ff)" style="fill: none; stroke-dasharray: 2.96,1.28; stroke-dashoffset: 0; stroke: #b0b0b0; stroke-opacity: 0.7; stroke-width: 0.8"/>
     </g>
     <g id="line2d_4">
      <g>
       <use xlink:href="#m8b79ad80f0" x="229.817428" y="528.477813" style="stroke: #000000; stroke-width: 0.8"/>
      </g>
     </g>
     <g id="text_2">
      <!-- 0.005 -->
      <g transform="translate(215.503366 543.07625) scale(0.1 -0.1)">
       <defs>
        <path id="DejaVuSans-35" d="M 691 4666 
L 3169 4666 
L 3169 4134 
L 1269 4134 
L 1269 2991 
Q 1406 3038 1543 3061 
Q 1681 3084 1819 3084 
Q 2600 3084 3056 2656 
Q 3513 2228 3513 1497 
Q 3513 744 3044 326 
Q 2575 -91 1722 -91 
Q 1428 -91 1123 -41 
Q 819 9 494 109 
L 494 744 
Q 775 591 1075 516 
Q 1375 441 1709 441 
Q 2250 441 2565 725 
Q 2881 1009 2881 1497 
Q 2881 1984 2565 2268 
Q 2250 2553 1709 2553 
Q 1456 2553 1204 2497 
Q 953 2441 691 2322 
L 691 4666 
z
" transform="scale(0.015625)"/>
       </defs>
       <use xlink:href="#DejaVuSans-30"/>
       <use xlink:href="#DejaVuSans-2e" transform="translate(63.623047 0)"/>
       <use xlink:href="#DejaVuSans-30" transform="translate(95.410156 0)"/>
       <use xlink:href="#DejaVuSans-30" transform="translate(159.033203 0)"/>
       <use xlink:href="#DejaVuSans-35" transform="translate(222.65625 0)"/>
      </g>
     </g>
    </g>
    <g id="xtick_3">
     <g id="line2d_5">
      <path d="M 365.279998 528.477813 
L 365.279998 23.837812 
" clip-path="url(#p3563c2b9ff)" style="fill: none; stroke-dasharray: 2.96,1.28; stroke-dashoffset: 0; stroke: #b0b0b0; stroke-opacity: 0.7; stroke-width: 0.8"/>
     </g>
     <g id="line2d_6">
      <g>
       <use xlink:href="#m8b79ad80f0" x="365.279998" y="528.477813" style="stroke: #000000; stroke-width: 0.8"/>
      </g>
     </g>
     <g id="text_3">
      <!-- 0.010 -->
      <g transform="translate(350.965936 543.07625) scale(0.1 -0.1)">
       <defs>
        <path id="DejaVuSans-31" d="M 794 531 
L 1825 531 
L 1825 4091 
L 703 3866 
L 703 4441 
L 1819 4666 
L 2450 4666 
L 2450 531 
L 3481 531 
L 3481 0 
L 794 0 
L 794 531 
z
" transform="scale(0.015625)"/>
       </defs>
       <use xlink:href="#DejaVuSans-30"/>
       <use xlink:href="#DejaVuSans-2e" transform="translate(63.623047 0)"/>
       <use xlink:href="#DejaVuSans-30" transform="translate(95.410156 0)"/>
       <use xlink:href="#DejaVuSans-31" transform="translate(159.033203 0)"/>
       <use xlink:href="#DejaVuSans-30" transform="translate(222.65625 0)"/>
      </g>
     </g>
    </g>
    <g id="xtick_4">
     <g id="line2d_7">
      <path d="M 500.742568 528.477813 
L 500.742568 23.837812 
" clip-path="url(#p3563c2b9ff)" style="fill: none; stroke-dasharray: 2.96,1.28; stroke-dashoffset: 0; stroke: #b0b0b0; stroke-opacity: 0.7; stroke-width: 0.8"/>
     </g>
     <g id="line2d_8">
      <g>
       <use xlink:href="#m8b79ad80f0" x="500.742568" y="528.477813" style="stroke: #000000; stroke-width: 0.8"/>
      </g>
     </g>
     <g id="text_4">
      <!-- 0.015 -->
      <g transform="translate(486.428506 543.07625) scale(0.1 -0.1)">
       <use xlink:href="#DejaVuSans-30"/>
       <use xlink:href="#DejaVuSans-2e" transform="translate(63.623047 0)"/>
       <use xlink:href="#DejaVuSans-30" transform="translate(95.410156 0)"/>
       <use xlink:href="#DejaVuSans-31" transform="translate(159.033203 0)"/>
       <use xlink:href="#DejaVuSans-35" transform="translate(222.65625 0)"/>
      </g>
     </g>
    </g>
    <g id="xtick_5">
     <g id="line2d_9">
      <path d="M 636.205138 528.477813 
L 636.205138 23.837812 
" clip-path="url(#p3563c2b9ff)" style="fill: none; stroke-dasharray: 2.96,1.28; stroke-dashoffset: 0; stroke: #b0b0b0; stroke-opacity: 0.7; stroke-width: 0.8"/>
     </g>
     <g id="line2d_10">
      <g>
       <use xlink:href="#m8b79ad80f0" x="636.205138" y="528.477813" style="stroke: #000000; stroke-width: 0.8"/>
      </g>
     </g>
     <g id="text_5">
      <!-- 0.020 -->
      <g transform="translate(621.891076 543.07625) scale(0.1 -0.1)">
       <defs>
        <path id="DejaVuSans-32" d="M 1228 531 
L 3431 531 
L 3431 0 
L 469 0 
L 469 531 
Q 828 903 1448 1529 
Q 2069 2156 2228 2338 
Q 2531 2678 2651 2914 
Q 2772 3150 2772 3378 
Q 2772 3750 2511 3984 
Q 2250 4219 1831 4219 
Q 1534 4219 1204 4116 
Q 875 4013 500 3803 
L 500 4441 
Q 881 4594 1212 4672 
Q 1544 4750 1819 4750 
Q 2544 4750 2975 4387 
Q 3406 4025 3406 3419 
Q 3406 3131 3298 2873 
Q 3191 2616 2906 2266 
Q 2828 2175 2409 1742 
Q 1991 1309 1228 531 
z
" transform="scale(0.015625)"/>
       </defs>
       <use xlink:href="#DejaVuSans-30"/>
       <use xlink:href="#DejaVuSans-2e" transform="translate(63.623047 0)"/>
       <use xlink:href="#DejaVuSans-30" transform="translate(95.410156 0)"/>
       <use xlink:href="#DejaVuSans-32" transform="translate(159.033203 0)"/>
       <use xlink:href="#DejaVuSans-30" transform="translate(222.65625 0)"/>
      </g>
     </g>
    </g>
    <g id="xtick_6">
     <g id="line2d_11">
      <path d="M 771.667708 528.477813 
L 771.667708 23.837812 
" clip-path="url(#p3563c2b9ff)" style="fill: none; stroke-dasharray: 2.96,1.28; stroke-dashoffset: 0; stroke: #b0b0b0; stroke-opacity: 0.7; stroke-width: 0.8"/>
     </g>
     <g id="line2d_12">
      <g>
       <use xlink:href="#m8b79ad80f0" x="771.667708" y="528.477813" style="stroke: #000000; stroke-width: 0.8"/>
      </g>
     </g>
     <g id="text_6">
      <!-- 0.025 -->
      <g transform="translate(757.353646 543.07625) scale(0.1 -0.1)">
       <use xlink:href="#DejaVuSans-30"/>
       <use xlink:href="#DejaVuSans-2e" transform="translate(63.623047 0)"/>
       <use xlink:href="#DejaVuSans-30" transform="translate(95.410156 0)"/>
       <use xlink:href="#DejaVuSans-32" transform="translate(159.033203 0)"/>
       <use xlink:href="#DejaVuSans-35" transform="translate(222.65625 0)"/>
      </g>
     </g>
    </g>
    <g id="text_7">
     <!-- Time (years) -->
     <g transform="translate(416.094063 558.274063) scale(0.12 -0.12)">
      <defs>
       <path id="DejaVuSans-54" d="M -19 4666 
L 3928 4666 
L 3928 4134 
L 2272 4134 
L 2272 0 
L 1638 0 
L 1638 4134 
L -19 4134 
L -19 4666 
z
" transform="scale(0.015625)"/>
       <path id="DejaVuSans-69" d="M 603 3500 
L 1178 3500 
L 1178 0 
L 603 0 
L 603 3500 
z
M 603 4863 
L 1178 4863 
L 1178 4134 
L 603 4134 
L 603 4863 
z
" transform="scale(0.015625)"/>
       <path id="DejaVuSans-6d" d="M 3328 2828 
Q 3544 3216 3844 3400 
Q 4144 3584 4550 3584 
Q 5097 3584 5394 3201 
Q 5691 2819 5691 2113 
L 5691 0 
L 5113 0 
L 5113 2094 
Q 5113 2597 4934 2840 
Q 4756 3084 4391 3084 
Q 3944 3084 3684 2787 
Q 3425 2491 3425 1978 
L 3425 0 
L 2847 0 
L 2847 2094 
Q 2847 2600 2669 2842 
Q 2491 3084 2119 3084 
Q 1678 3084 1418 2786 
Q 1159 2488 1159 1978 
L 1159 0 
L 581 0 
L 581 3500 
L 1159 3500 
L 1159 2956 
Q 1356 3278 1631 3431 
Q 1906 3584 2284 3584 
Q 2666 3584 2933 3390 
Q 3200 3197 3328 2828 
z
" transform="scale(0.015625)"/>
       <path id="DejaVuSans-65" d="M 3597 1894 
L 3597 1613 
L 953 1613 
Q 991 1019 1311 708 
Q 1631 397 2203 397 
Q 2534 397 2845 478 
Q 3156 559 3463 722 
L 3463 178 
Q 3153 47 2828 -22 
Q 2503 -91 2169 -91 
Q 1331 -91 842 396 
Q 353 884 353 1716 
Q 353 2575 817 3079 
Q 1281 3584 2069 3584 
Q 2775 3584 3186 3129 
Q 3597 2675 3597 1894 
z
M 3022 2063 
Q 3016 2534 2758 2815 
Q 2500 3097 2075 3097 
Q 1594 3097 1305 2825 
Q 1016 2553 972 2059 
L 3022 2063 
z
" transform="scale(0.015625)"/>
       <path id="DejaVuSans-20" transform="scale(0.015625)"/>
       <path id="DejaVuSans-28" d="M 1984 4856 
Q 1566 4138 1362 3434 
Q 1159 2731 1159 2009 
Q 1159 1288 1364 580 
Q 1569 -128 1984 -844 
L 1484 -844 
Q 1016 -109 783 600 
Q 550 1309 550 2009 
Q 550 2706 781 3412 
Q 1013 4119 1484 4856 
L 1984 4856 
z
" transform="scale(0.015625)"/>
       <path id="DejaVuSans-79" d="M 2059 -325 
Q 1816 -950 1584 -1140 
Q 1353 -1331 966 -1331 
L 506 -1331 
L 506 -850 
L 844 -850 
Q 1081 -850 1212 -737 
Q 1344 -625 1503 -206 
L 1606 56 
L 191 3500 
L 800 3500 
L 1894 763 
L 2988 3500 
L 3597 3500 
L 2059 -325 
z
" transform="scale(0.015625)"/>
       <path id="DejaVuSans-61" d="M 2194 1759 
Q 1497 1759 1228 1600 
Q 959 1441 959 1056 
Q 959 750 1161 570 
Q 1363 391 1709 391 
Q 2188 391 2477 730 
Q 2766 1069 2766 1631 
L 2766 1759 
L 2194 1759 
z
M 3341 1997 
L 3341 0 
L 2766 0 
L 2766 531 
Q 2569 213 2275 61 
Q 1981 -91 1556 -91 
Q 1019 -91 701 211 
Q 384 513 384 1019 
Q 384 1609 779 1909 
Q 1175 2209 1959 2209 
L 2766 2209 
L 2766 2266 
Q 2766 2663 2505 2880 
Q 2244 3097 1772 3097 
Q 1472 3097 1187 3025 
Q 903 2953 641 2809 
L 641 3341 
Q 956 3463 1253 3523 
Q 1550 3584 1831 3584 
Q 2591 3584 2966 3190 
Q 3341 2797 3341 1997 
z
" transform="scale(0.015625)"/>
       <path id="DejaVuSans-72" d="M 2631 2963 
Q 2534 3019 2420 3045 
Q 2306 3072 2169 3072 
Q 1681 3072 1420 2755 
Q 1159 2438 1159 1844 
L 1159 0 
L 581 0 
L 581 3500 
L 1159 3500 
L 1159 2956 
Q 1341 3275 1631 3429 
Q 1922 3584 2338 3584 
Q 2397 3584 2469 3576 
Q 2541 3569 2628 3553 
L 2631 2963 
z
" transform="scale(0.015625)"/>
       <path id="DejaVuSans-73" d="M 2834 3397 
L 2834 2853 
Q 2591 2978 2328 3040 
Q 2066 3103 1784 3103 
Q 1356 3103 1142 2972 
Q 928 2841 928 2578 
Q 928 2378 1081 2264 
Q 1234 2150 1697 2047 
L 1894 2003 
Q 2506 1872 2764 1633 
Q 3022 1394 3022 966 
Q 3022 478 2636 193 
Q 2250 -91 1575 -91 
Q 1294 -91 989 -36 
Q 684 19 347 128 
L 347 722 
Q 666 556 975 473 
Q 1284 391 1588 391 
Q 1994 391 2212 530 
Q 2431 669 2431 922 
Q 2431 1156 2273 1281 
Q 2116 1406 1581 1522 
L 1381 1569 
Q 847 1681 609 1914 
Q 372 2147 372 2553 
Q 372 3047 722 3315 
Q 1072 3584 1716 3584 
Q 2034 3584 2315 3537 
Q 2597 3491 2834 3397 
z
" transform="scale(0.015625)"/>
       <path id="DejaVuSans-29" d="M 513 4856 
L 1013 4856 
Q 1481 4119 1714 3412 
Q 1947 2706 1947 2009 
Q 1947 1309 1714 600 
Q 1481 -109 1013 -844 
L 513 -844 
Q 928 -128 1133 580 
Q 1338 1288 1338 2009 
Q 1338 2731 1133 3434 
Q 928 4138 513 4856 
z
" transform="scale(0.015625)"/>
      </defs>
      <use xlink:href="#DejaVuSans-54"/>
      <use xlink:href="#DejaVuSans-69" transform="translate(57.958984 0)"/>
      <use xlink:href="#DejaVuSans-6d" transform="translate(85.742188 0)"/>
      <use xlink:href="#DejaVuSans-65" transform="translate(183.154297 0)"/>
      <use xlink:href="#DejaVuSans-20" transform="translate(244.677734 0)"/>
      <use xlink:href="#DejaVuSans-28" transform="translate(276.464844 0)"/>
      <use xlink:href="#DejaVuSans-79" transform="translate(315.478516 0)"/>
      <use xlink:href="#DejaVuSans-65" transform="translate(374.658203 0)"/>
      <use xlink:href="#DejaVuSans-61" transform="translate(436.181641 0)"/>
      <use xlink:href="#DejaVuSans-72" transform="translate(497.460938 0)"/>
      <use xlink:href="#DejaVuSans-73" transform="translate(538.574219 0)"/>
      <use xlink:href="#DejaVuSans-29" transform="translate(590.673828 0)"/>
     </g>
    </g>
   </g>
   <g id="matplotlib.axis_2">
    <g id="ytick_1">
     <g id="line2d_13">
      <path d="M 58.402813 528.477813 
L 849.347813 528.477813 
" clip-path="url(#p3563c2b9ff)" style="fill: none; stroke-dasharray: 2.96,1.28; stroke-dashoffset: 0; stroke: #b0b0b0; stroke-opacity: 0.7; stroke-width: 0.8"/>
     </g>
     <g id="line2d_14">
      <defs>
       <path id="md2ae61624a" d="M 0 0 
L -3.5 0 
" style="stroke: #000000; stroke-width: 0.8"/>
      </defs>
      <g>
       <use xlink:href="#md2ae61624a" x="58.402813" y="528.477813" style="stroke: #000000; stroke-width: 0.8"/>
      </g>
     </g>
     <g id="text_8">
      <!-- 0% -->
      <g transform="translate(35.53875 532.277031) scale(0.1 -0.1)">
       <defs>
        <path id="DejaVuSans-25" d="M 4653 2053 
Q 4381 2053 4226 1822 
Q 4072 1591 4072 1178 
Q 4072 772 4226 539 
Q 4381 306 4653 306 
Q 4919 306 5073 539 
Q 5228 772 5228 1178 
Q 5228 1588 5073 1820 
Q 4919 2053 4653 2053 
z
M 4653 2450 
Q 5147 2450 5437 2106 
Q 5728 1763 5728 1178 
Q 5728 594 5436 251 
Q 5144 -91 4653 -91 
Q 4153 -91 3862 251 
Q 3572 594 3572 1178 
Q 3572 1766 3864 2108 
Q 4156 2450 4653 2450 
z
M 1428 4353 
Q 1159 4353 1004 4120 
Q 850 3888 850 3481 
Q 850 3069 1003 2837 
Q 1156 2606 1428 2606 
Q 1700 2606 1854 2837 
Q 2009 3069 2009 3481 
Q 2009 3884 1853 4118 
Q 1697 4353 1428 4353 
z
M 4250 4750 
L 4750 4750 
L 1831 -91 
L 1331 -91 
L 4250 4750 
z
M 1428 4750 
Q 1922 4750 2215 4408 
Q 2509 4066 2509 3481 
Q 2509 2891 2217 2550 
Q 1925 2209 1428 2209 
Q 931 2209 642 2551 
Q 353 2894 353 3481 
Q 353 4063 643 4406 
Q 934 4750 1428 4750 
z
" transform="scale(0.015625)"/>
       </defs>
       <use xlink:href="#DejaVuSans-30"/>
       <use xlink:href="#DejaVuSans-25" transform="translate(63.623047 0)"/>
      </g>
     </g>
    </g>
    <g id="ytick_2">
     <g id="line2d_15">
      <path d="M 58.402813 427.549812 
L 849.347813 427.549812 
" clip-path="url(#p3563c2b9ff)" style="fill: none; stroke-dasharray: 2.96,1.28; stroke-dashoffset: 0; stroke: #b0b0b0; stroke-opacity: 0.7; stroke-width: 0.8"/>
     </g>
     <g id="line2d_16">
      <g>
       <use xlink:href="#md2ae61624a" x="58.402813" y="427.549812" style="stroke: #000000; stroke-width: 0.8"/>
      </g>
     </g>
     <g id="text_9">
      <!-- 20% -->
      <g transform="translate(29.17625 431.349031) scale(0.1 -0.1)">
       <use xlink:href="#DejaVuSans-32"/>
       <use xlink:href="#DejaVuSans-30" transform="translate(63.623047 0)"/>
       <use xlink:href="#DejaVuSans-25" transform="translate(127.246094 0)"/>
      </g>
     </g>
    </g>
    <g id="ytick_3">
     <g id="line2d_17">
      <path d="M 58.402813 326.621812 
L 849.347813 326.621812 
" clip-path="url(#p3563c2b9ff)" style="fill: none; stroke-dasharray: 2.96,1.28; stroke-dashoffset: 0; stroke: #b0b0b0; stroke-opacity: 0.7; stroke-width: 0.8"/>
     </g>
     <g id="line2d_18">
      <g>
       <use xlink:href="#md2ae61624a" x="58.402813" y="326.621812" style="stroke: #000000; stroke-width: 0.8"/>
      </g>
     </g>
     <g id="text_10">
      <!-- 40% -->
      <g transform="translate(29.17625 330.421031) scale(0.1 -0.1)">
       <defs>
        <path id="DejaVuSans-34" d="M 2419 4116 
L 825 1625 
L 2419 1625 
L 2419 4116 
z
M 2253 4666 
L 3047 4666 
L 3047 1625 
L 3713 1625 
L 3713 1100 
L 3047 1100 
L 3047 0 
L 2419 0 
L 2419 1100 
L 313 1100 
L 313 1709 
L 2253 4666 
z
" transform="scale(0.015625)"/>
       </defs>
       <use xlink:href="#DejaVuSans-34"/>
       <use xlink:href="#DejaVuSans-30" transform="translate(63.623047 0)"/>
       <use xlink:href="#DejaVuSans-25" transform="translate(127.246094 0)"/>
      </g>
     </g>
    </g>
    <g id="ytick_4">
     <g id="line2d_19">
      <path d="M 58.402813 225.693812 
L 849.347813 225.693812 
" clip-path="url(#p3563c2b9ff)" style="fill: none; stroke-dasharray: 2.96,1.28; stroke-dashoffset: 0; stroke: #b0b0b0; stroke-opacity: 0.7; stroke-width: 0.8"/>
     </g>
     <g id="line2d_20">
      <g>
       <use xlink:href="#md2ae61624a" x="58.402813" y="225.693812" style="stroke: #000000; stroke-width: 0.8"/>
      </g>
     </g>
     <g id="text_11">
      <!-- 60% -->
      <g transform="translate(29.17625 229.493031) scale(0.1 -0.1)">
       <defs>
        <path id="DejaVuSans-36" d="M 2113 2584 
Q 1688 2584 1439 2293 
Q 1191 2003 1191 1497 
Q 1191 994 1439 701 
Q 1688 409 2113 409 
Q 2538 409 2786 701 
Q 3034 994 3034 1497 
Q 3034 2003 2786 2293 
Q 2538 2584 2113 2584 
z
M 3366 4563 
L 3366 3988 
Q 3128 4100 2886 4159 
Q 2644 4219 2406 4219 
Q 1781 4219 1451 3797 
Q 1122 3375 1075 2522 
Q 1259 2794 1537 2939 
Q 1816 3084 2150 3084 
Q 2853 3084 3261 2657 
Q 3669 2231 3669 1497 
Q 3669 778 3244 343 
Q 2819 -91 2113 -91 
Q 1303 -91 875 529 
Q 447 1150 447 2328 
Q 447 3434 972 4092 
Q 1497 4750 2381 4750 
Q 2619 4750 2861 4703 
Q 3103 4656 3366 4563 
z
" transform="scale(0.015625)"/>
       </defs>
       <use xlink:href="#DejaVuSans-36"/>
       <use xlink:href="#DejaVuSans-30" transform="translate(63.623047 0)"/>
       <use xlink:href="#DejaVuSans-25" transform="translate(127.246094 0)"/>
      </g>
     </g>
    </g>
    <g id="ytick_5">
     <g id="line2d_21">
      <path d="M 58.402813 124.765812 
L 849.347813 124.765812 
" clip-path="url(#p3563c2b9ff)" style="fill: none; stroke-dasharray: 2.96,1.28; stroke-dashoffset: 0; stroke: #b0b0b0; stroke-opacity: 0.7; stroke-width: 0.8"/>
     </g>
     <g id="line2d_22">
      <g>
       <use xlink:href="#md2ae61624a" x="58.402813" y="124.765812" style="stroke: #000000; stroke-width: 0.8"/>
      </g>
     </g>
     <g id="text_12">
      <!-- 80% -->
      <g transform="translate(29.17625 128.565031) scale(0.1 -0.1)">
       <defs>
        <path id="DejaVuSans-38" d="M 2034 2216 
Q 1584 2216 1326 1975 
Q 1069 1734 1069 1313 
Q 1069 891 1326 650 
Q 1584 409 2034 409 
Q 2484 409 2743 651 
Q 3003 894 3003 1313 
Q 3003 1734 2745 1975 
Q 2488 2216 2034 2216 
z
M 1403 2484 
Q 997 2584 770 2862 
Q 544 3141 544 3541 
Q 544 4100 942 4425 
Q 1341 4750 2034 4750 
Q 2731 4750 3128 4425 
Q 3525 4100 3525 3541 
Q 3525 3141 3298 2862 
Q 3072 2584 2669 2484 
Q 3125 2378 3379 2068 
Q 3634 1759 3634 1313 
Q 3634 634 3220 271 
Q 2806 -91 2034 -91 
Q 1263 -91 848 271 
Q 434 634 434 1313 
Q 434 1759 690 2068 
Q 947 2378 1403 2484 
z
M 1172 3481 
Q 1172 3119 1398 2916 
Q 1625 2713 2034 2713 
Q 2441 2713 2670 2916 
Q 2900 3119 2900 3481 
Q 2900 3844 2670 4047 
Q 2441 4250 2034 4250 
Q 1625 4250 1398 4047 
Q 1172 3844 1172 3481 
z
" transform="scale(0.015625)"/>
       </defs>
       <use xlink:href="#DejaVuSans-38"/>
       <use xlink:href="#DejaVuSans-30" transform="translate(63.623047 0)"/>
       <use xlink:href="#DejaVuSans-25" transform="translate(127.246094 0)"/>
      </g>
     </g>
    </g>
    <g id="ytick_6">
     <g id="line2d_23">
      <path d="M 58.402813 23.837812 
L 849.347813 23.837812 
" clip-path="url(#p3563c2b9ff)" style="fill: none; stroke-dasharray: 2.96,1.28; stroke-dashoffset: 0; stroke: #b0b0b0; stroke-opacity: 0.7; stroke-width: 0.8"/>
     </g>
     <g id="line2d_24">
      <g>
       <use xlink:href="#md2ae61624a" x="58.402813" y="23.837812" style="stroke: #000000; stroke-width: 0.8"/>
      </g>
     </g>
     <g id="text_13">
      <!-- 100% -->
      <g transform="translate(22.81375 27.637031) scale(0.1 -0.1)">
       <use xlink:href="#DejaVuSans-31"/>
       <use xlink:href="#DejaVuSans-30" transform="translate(63.623047 0)"/>
       <use xlink:href="#DejaVuSans-30" transform="translate(127.246094 0)"/>
       <use xlink:href="#DejaVuSans-25" transform="translate(190.869141 0)"/>
      </g>
     </g>
    </g>
    <g id="text_14">
     <!-- Remaining Useful Life (%) -->
     <g transform="translate(16.318125 353.725625) rotate(-90) scale(0.12 -0.12)">
      <defs>
       <path id="DejaVuSans-52" d="M 2841 2188 
Q 3044 2119 3236 1894 
Q 3428 1669 3622 1275 
L 4263 0 
L 3584 0 
L 2988 1197 
Q 2756 1666 2539 1819 
Q 2322 1972 1947 1972 
L 1259 1972 
L 1259 0 
L 628 0 
L 628 4666 
L 2053 4666 
Q 2853 4666 3247 4331 
Q 3641 3997 3641 3322 
Q 3641 2881 3436 2590 
Q 3231 2300 2841 2188 
z
M 1259 4147 
L 1259 2491 
L 2053 2491 
Q 2509 2491 2742 2702 
Q 2975 2913 2975 3322 
Q 2975 3731 2742 3939 
Q 2509 4147 2053 4147 
L 1259 4147 
z
" transform="scale(0.015625)"/>
       <path id="DejaVuSans-6e" d="M 3513 2113 
L 3513 0 
L 2938 0 
L 2938 2094 
Q 2938 2591 2744 2837 
Q 2550 3084 2163 3084 
Q 1697 3084 1428 2787 
Q 1159 2491 1159 1978 
L 1159 0 
L 581 0 
L 581 3500 
L 1159 3500 
L 1159 2956 
Q 1366 3272 1645 3428 
Q 1925 3584 2291 3584 
Q 2894 3584 3203 3211 
Q 3513 2838 3513 2113 
z
" transform="scale(0.015625)"/>
       <path id="DejaVuSans-67" d="M 2906 1791 
Q 2906 2416 2648 2759 
Q 2391 3103 1925 3103 
Q 1463 3103 1205 2759 
Q 947 2416 947 1791 
Q 947 1169 1205 825 
Q 1463 481 1925 481 
Q 2391 481 2648 825 
Q 2906 1169 2906 1791 
z
M 3481 434 
Q 3481 -459 3084 -895 
Q 2688 -1331 1869 -1331 
Q 1566 -1331 1297 -1286 
Q 1028 -1241 775 -1147 
L 775 -588 
Q 1028 -725 1275 -790 
Q 1522 -856 1778 -856 
Q 2344 -856 2625 -561 
Q 2906 -266 2906 331 
L 2906 616 
Q 2728 306 2450 153 
Q 2172 0 1784 0 
Q 1141 0 747 490 
Q 353 981 353 1791 
Q 353 2603 747 3093 
Q 1141 3584 1784 3584 
Q 2172 3584 2450 3431 
Q 2728 3278 2906 2969 
L 2906 3500 
L 3481 3500 
L 3481 434 
z
" transform="scale(0.015625)"/>
       <path id="DejaVuSans-55" d="M 556 4666 
L 1191 4666 
L 1191 1831 
Q 1191 1081 1462 751 
Q 1734 422 2344 422 
Q 2950 422 3222 751 
Q 3494 1081 3494 1831 
L 3494 4666 
L 4128 4666 
L 4128 1753 
Q 4128 841 3676 375 
Q 3225 -91 2344 -91 
Q 1459 -91 1007 375 
Q 556 841 556 1753 
L 556 4666 
z
" transform="scale(0.015625)"/>
       <path id="DejaVuSans-66" d="M 2375 4863 
L 2375 4384 
L 1825 4384 
Q 1516 4384 1395 4259 
Q 1275 4134 1275 3809 
L 1275 3500 
L 2222 3500 
L 2222 3053 
L 1275 3053 
L 1275 0 
L 697 0 
L 697 3053 
L 147 3053 
L 147 3500 
L 697 3500 
L 697 3744 
Q 697 4328 969 4595 
Q 1241 4863 1831 4863 
L 2375 4863 
z
" transform="scale(0.015625)"/>
       <path id="DejaVuSans-75" d="M 544 1381 
L 544 3500 
L 1119 3500 
L 1119 1403 
Q 1119 906 1312 657 
Q 1506 409 1894 409 
Q 2359 409 2629 706 
Q 2900 1003 2900 1516 
L 2900 3500 
L 3475 3500 
L 3475 0 
L 2900 0 
L 2900 538 
Q 2691 219 2414 64 
Q 2138 -91 1772 -91 
Q 1169 -91 856 284 
Q 544 659 544 1381 
z
M 1991 3584 
L 1991 3584 
z
" transform="scale(0.015625)"/>
       <path id="DejaVuSans-6c" d="M 603 4863 
L 1178 4863 
L 1178 0 
L 603 0 
L 603 4863 
z
" transform="scale(0.015625)"/>
       <path id="DejaVuSans-4c" d="M 628 4666 
L 1259 4666 
L 1259 531 
L 3531 531 
L 3531 0 
L 628 0 
L 628 4666 
z
" transform="scale(0.015625)"/>
      </defs>
      <use xlink:href="#DejaVuSans-52"/>
      <use xlink:href="#DejaVuSans-65" transform="translate(64.982422 0)"/>
      <use xlink:href="#DejaVuSans-6d" transform="translate(126.505859 0)"/>
      <use xlink:href="#DejaVuSans-61" transform="translate(223.917969 0)"/>
      <use xlink:href="#DejaVuSans-69" transform="translate(285.197266 0)"/>
      <use xlink:href="#DejaVuSans-6e" transform="translate(312.980469 0)"/>
      <use xlink:href="#DejaVuSans-69" transform="translate(376.359375 0)"/>
      <use xlink:href="#DejaVuSans-6e" transform="translate(404.142578 0)"/>
      <use xlink:href="#DejaVuSans-67" transform="translate(467.521484 0)"/>
      <use xlink:href="#DejaVuSans-20" transform="translate(530.998047 0)"/>
      <use xlink:href="#DejaVuSans-55" transform="translate(562.785156 0)"/>
      <use xlink:href="#DejaVuSans-73" transform="translate(635.978516 0)"/>
      <use xlink:href="#DejaVuSans-65" transform="translate(688.078125 0)"/>
      <use xlink:href="#DejaVuSans-66" transform="translate(749.601562 0)"/>
      <use xlink:href="#DejaVuSans-75" transform="translate(784.806641 0)"/>
      <use xlink:href="#DejaVuSans-6c" transform="translate(848.185547 0)"/>
      <use xlink:href="#DejaVuSans-20" transform="translate(875.96875 0)"/>
      <use xlink:href="#DejaVuSans-4c" transform="translate(907.755859 0)"/>
      <use xlink:href="#DejaVuSans-69" transform="translate(963.46875 0)"/>
      <use xlink:href="#DejaVuSans-66" transform="translate(991.251953 0)"/>
      <use xlink:href="#DejaVuSans-65" transform="translate(1026.457031 0)"/>
      <use xlink:href="#DejaVuSans-20" transform="translate(1087.980469 0)"/>
      <use xlink:href="#DejaVuSans-28" transform="translate(1119.767578 0)"/>
      <use xlink:href="#DejaVuSans-25" transform="translate(1158.78125 0)"/>
      <use xlink:href="#DejaVuSans-29" transform="translate(1253.800781 0)"/>
     </g>
    </g>
   </g>
   <g id="line2d_25">
    <path d="M 94.354858 23.837812 
L 98.920863 26.363538 
L 103.486868 32.630801 
L 108.052873 38.851363 
L 112.618879 45.025572 
L 117.184884 51.153773 
L 121.750889 57.23631 
L 126.316894 63.273522 
L 130.882899 69.265748 
L 135.448904 75.213322 
L 140.014909 81.116578 
L 144.580914 86.975845 
L 149.14692 92.791451 
L 153.712925 98.563722 
L 158.27893 104.29298 
L 162.844935 109.979547 
L 167.41094 115.623739 
L 171.976945 121.225874 
L 176.54295 126.786264 
L 181.108956 132.30522 
L 185.674961 137.783052 
L 190.240966 143.220065 
L 194.806971 148.616564 
L 199.372976 153.97285 
L 203.938981 159.289224 
L 208.504986 164.565982 
L 213.070992 169.803421 
L 217.636997 175.001832 
L 222.203002 180.161507 
L 226.769007 185.282734 
L 231.335012 190.3658 
L 235.901017 195.410989 
L 240.467022 200.418584 
L 245.033028 205.388864 
L 249.599033 210.322108 
L 254.165038 215.218592 
L 258.731043 220.078589 
L 263.297048 224.902372 
L 267.863053 229.690209 
L 272.429058 234.44237 
L 276.995064 239.15912 
L 281.561069 243.840723 
L 286.127074 248.48744 
L 290.693079 253.099533 
L 295.259084 257.677257 
L 299.825089 262.220871 
L 304.391094 266.730628 
L 308.9571 271.206779 
L 313.523105 275.649577 
L 318.08911 280.059269 
L 322.655115 284.436101 
L 327.22112 288.78032 
L 331.787125 293.092167 
L 336.35313 297.371884 
L 340.919135 301.61971 
L 345.485141 305.835884 
L 350.051146 310.020641 
L 354.617151 314.174214 
L 359.183156 318.296837 
L 363.749161 322.38874 
L 368.315166 326.450152 
L 372.881171 330.4813 
L 377.447177 334.482409 
L 382.013182 338.453704 
L 386.579187 342.395407 
L 391.145192 346.307738 
L 395.711197 350.190916 
L 400.277202 354.045158 
L 404.843207 357.87068 
L 409.409213 361.667695 
L 413.975218 365.436418 
L 418.541223 369.177057 
L 423.107228 372.889822 
L 427.673233 376.574922 
L 432.239238 380.232562 
L 436.805243 383.862947 
L 441.371249 387.46628 
L 445.937254 391.042762 
L 450.503259 394.592594 
L 455.069264 398.115974 
L 459.635269 401.613099 
L 464.201274 405.084166 
L 468.767279 408.529367 
L 473.333285 411.948897 
L 477.89929 415.342945 
L 482.465295 418.711703 
L 487.0313 422.055358 
L 491.597305 425.374097 
L 496.16331 428.668107 
L 500.729315 431.937571 
L 505.295321 435.182673 
L 509.861326 438.403593 
L 514.427331 441.600513 
L 518.993336 444.77361 
L 523.559341 447.923063 
L 528.125346 451.049048 
L 532.691351 454.151739 
L 537.257356 457.231311 
L 541.823362 460.287934 
L 546.389367 463.321781 
L 550.955372 466.333021 
L 555.521377 469.321823 
L 560.087382 472.288353 
L 564.653387 475.232779 
L 569.219392 478.155263 
L 573.785398 481.055971 
L 578.351403 483.935063 
L 582.917408 486.792702 
L 587.483413 489.629047 
L 592.049418 492.444257 
L 596.615423 495.238489 
L 601.181428 498.0119 
L 605.747434 500.764644 
L 610.313439 503.496876 
L 614.879444 506.208749 
L 619.445449 508.900414 
L 624.011454 511.572022 
L 628.577459 514.223723 
L 633.143464 516.855664 
L 637.70947 519.467993 
L 642.275475 522.060856 
L 646.84148 524.634398 
L 651.407485 527.188763 
L 655.97349 528.477813 
" clip-path="url(#p3563c2b9ff)" style="fill: none; stroke: #d62728; stroke-width: 2; stroke-linecap: square"/>
   </g>
   <g id="line2d_26">
    <path d="M 94.354858 23.837812 
L 99.847926 26.363538 
L 105.340993 32.630801 
L 110.834061 38.851363 
L 116.327128 45.025572 
L 121.820196 51.153773 
L 127.313264 57.23631 
L 132.806331 63.273522 
L 138.299399 69.265748 
L 143.792466 75.213322 
L 149.285534 81.116578 
L 154.778602 86.975845 
L 160.271669 92.791451 
L 165.764737 98.563722 
L 171.257805 104.29298 
L 176.750872 109.979547 
L 182.24394 115.623739 
L 187.737007 121.225874 
L 193.230075 126.786264 
L 198.723143 132.30522 
L 204.21621 137.783052 
L 209.709278 143.220065 
L 215.202345 148.616564 
L 220.695413 153.97285 
L 226.188481 159.289224 
L 231.681548 164.565982 
L 237.174616 169.803421 
L 242.667683 175.001832 
L 248.160751 180.161507 
L 253.653819 185.282734 
L 259.146886 190.3658 
L 264.639954 195.410989 
L 270.133022 200.418584 
L 275.626089 205.388864 
L 281.119157 210.322108 
L 286.612224 215.218592 
L 292.105292 220.078589 
L 297.59836 224.902372 
L 303.091427 229.690209 
L 308.584495 234.44237 
L 314.077562 239.15912 
L 319.57063 243.840723 
L 325.063698 248.48744 
L 330.556765 253.099533 
L 336.049833 257.677257 
L 341.5429 262.220871 
L 347.035968 266.730628 
L 352.529036 271.206779 
L 358.022103 275.649577 
L 363.515171 280.059269 
L 369.008239 284.436101 
L 374.501306 288.78032 
L 379.994374 293.092167 
L 385.487441 297.371884 
L 390.980509 301.61971 
L 396.473577 305.835884 
L 401.966644 310.020641 
L 407.459712 314.174214 
L 412.952779 318.296837 
L 418.445847 322.38874 
L 423.938915 326.450152 
L 429.431982 330.4813 
L 434.92505 334.482409 
L 440.418117 338.453704 
L 445.911185 342.395407 
L 451.404253 346.307738 
L 456.89732 350.190916 
L 462.390388 354.045158 
L 467.883456 357.87068 
L 473.376523 361.667695 
L 478.869591 365.436418 
L 484.362658 369.177057 
L 489.855726 372.889822 
L 495.348794 376.574922 
L 500.841861 380.232562 
L 506.334929 383.862947 
L 511.827996 387.46628 
L 517.321064 391.042762 
L 522.814132 394.592594 
L 528.307199 398.115974 
L 533.800267 401.613099 
L 539.293335 405.084166 
L 544.786402 408.529367 
L 550.27947 411.948897 
L 555.772537 415.342945 
L 561.265605 418.711703 
L 566.758673 422.055358 
L 572.25174 425.374097 
L 577.744808 428.668107 
L 583.237875 431.937571 
L 588.730943 435.182673 
L 594.224011 438.403593 
L 599.717078 441.600513 
L 605.210146 444.77361 
L 610.703213 447.923063 
L 616.196281 451.049048 
L 621.689349 454.151739 
L 627.182416 457.231311 
L 632.675484 460.287934 
L 638.168552 463.321781 
L 643.661619 466.333021 
L 649.154687 469.321823 
L 654.647754 472.288353 
L 660.140822 475.232779 
L 665.63389 478.155263 
L 671.126957 481.055971 
L 676.620025 483.935063 
L 682.113092 486.792702 
L 687.60616 489.629047 
L 693.099228 492.444257 
L 698.592295 495.238489 
L 704.085363 498.0119 
L 709.57843 500.764644 
L 715.071498 503.496876 
L 720.564566 506.208749 
L 726.057633 508.900414 
L 731.550701 511.572022 
L 737.043769 514.223723 
L 742.536836 516.855664 
L 748.029904 519.467993 
L 753.522971 522.060856 
L 759.016039 524.634398 
L 764.509107 527.188763 
L 770.002174 528.477813 
" clip-path="url(#p3563c2b9ff)" style="fill: none; stroke: #2ca02c; stroke-width: 2; stroke-linecap: square"/>
   </g>
   <g id="line2d_27">
    <path d="M 94.354858 23.837812 
L 100.003734 26.363538 
L 105.65261 32.630801 
L 111.301487 38.851363 
L 116.950363 45.025572 
L 122.599239 51.153773 
L 128.248115 57.23631 
L 133.896991 63.273522 
L 139.545868 69.265748 
L 145.194744 75.213322 
L 150.84362 81.116578 
L 156.492496 86.975845 
L 162.141372 92.791451 
L 167.790248 98.563722 
L 173.439125 104.29298 
L 179.088001 109.979547 
L 184.736877 115.623739 
L 190.385753 121.225874 
L 196.034629 126.786264 
L 201.683506 132.30522 
L 207.332382 137.783052 
L 212.981258 143.220065 
L 218.630134 148.616564 
L 224.27901 153.97285 
L 229.927887 159.289224 
L 235.576763 164.565982 
L 241.225639 169.803421 
L 246.874515 175.001832 
L 252.523391 180.161507 
L 258.172268 185.282734 
L 263.821144 190.3658 
L 269.47002 195.410989 
L 275.118896 200.418584 
L 280.767772 205.388864 
L 286.416649 210.322108 
L 292.065525 215.218592 
L 297.714401 220.078589 
L 303.363277 224.902372 
L 309.012153 229.690209 
L 314.66103 234.44237 
L 320.309906 239.15912 
L 325.958782 243.840723 
L 331.607658 248.48744 
L 337.256534 253.099533 
L 342.90541 257.677257 
L 348.554287 262.220871 
L 354.203163 266.730628 
L 359.852039 271.206779 
L 365.500915 275.649577 
L 371.149791 280.059269 
L 376.798668 284.436101 
L 382.447544 288.78032 
L 388.09642 293.092167 
L 393.745296 297.371884 
L 399.394172 301.61971 
L 405.043049 305.835884 
L 410.691925 310.020641 
L 416.340801 314.174214 
L 421.989677 318.296837 
L 427.638553 322.38874 
L 433.28743 326.450152 
L 438.936306 330.4813 
L 444.585182 334.482409 
L 450.234058 338.453704 
L 455.882934 342.395407 
L 461.531811 346.307738 
L 467.180687 350.190916 
L 472.829563 354.045158 
L 478.478439 357.87068 
L 484.127315 361.667695 
L 489.776192 365.436418 
L 495.425068 369.177057 
L 501.073944 372.889822 
L 506.72282 376.574922 
L 512.371696 380.232562 
L 518.020573 383.862947 
L 523.669449 387.46628 
L 529.318325 391.042762 
L 534.967201 394.592594 
L 540.616077 398.115974 
L 546.264953 401.613099 
L 551.91383 405.084166 
L 557.562706 408.529367 
L 563.211582 411.948897 
L 568.860458 415.342945 
L 574.509334 418.711703 
L 580.158211 422.055358 
L 585.807087 425.374097 
L 591.455963 428.668107 
L 597.104839 431.937571 
L 602.753715 435.182673 
L 608.402592 438.403593 
L 614.051468 441.600513 
L 619.700344 444.77361 
L 625.34922 447.923063 
L 630.998096 451.049048 
L 636.646973 454.151739 
L 642.295849 457.231311 
L 647.944725 460.287934 
L 653.593601 463.321781 
L 659.242477 466.333021 
L 664.891354 469.321823 
L 670.54023 472.288353 
L 676.189106 475.232779 
L 681.837982 478.155263 
L 687.486858 481.055971 
L 693.135735 483.935063 
L 698.784611 486.792702 
L 704.433487 489.629047 
L 710.082363 492.444257 
L 715.731239 495.238489 
L 721.380116 498.0119 
L 727.028992 500.764644 
L 732.677868 503.496876 
L 738.326744 506.208749 
L 743.97562 508.900414 
L 749.624496 511.572022 
L 755.273373 514.223723 
L 760.922249 516.855664 
L 766.571125 519.467993 
L 772.220001 522.060856 
L 777.868877 524.634398 
L 783.517754 527.188763 
L 789.16663 528.477813 
" clip-path="url(#p3563c2b9ff)" style="fill: none; stroke: #1f77b4; stroke-width: 2; stroke-linecap: square"/>
   </g>
   <g id="line2d_28">
    <path d="M 94.354858 23.837812 
L 100.030567 26.363538 
L 105.706276 32.630801 
L 111.381984 38.851363 
L 117.057693 45.025572 
L 122.733402 51.153773 
L 128.409111 57.23631 
L 134.08482 63.273522 
L 139.760529 69.265748 
L 145.436237 75.213322 
L 151.111946 81.116578 
L 156.787655 86.975845 
L 162.463364 92.791451 
L 168.139073 98.563722 
L 173.814782 104.29298 
L 179.490491 109.979547 
L 185.166199 115.623739 
L 190.841908 121.225874 
L 196.517617 126.786264 
L 202.193326 132.30522 
L 207.869035 137.783052 
L 213.544744 143.220065 
L 219.220452 148.616564 
L 224.896161 153.97285 
L 230.57187 159.289224 
L 236.247579 164.565982 
L 241.923288 169.803421 
L 247.598997 175.001832 
L 253.274705 180.161507 
L 258.950414 185.282734 
L 264.626123 190.3658 
L 270.301832 195.410989 
L 275.977541 200.418584 
L 281.65325 205.388864 
L 287.328958 210.322108 
L 293.004667 215.218592 
L 298.680376 220.078589 
L 304.356085 224.902372 
L 310.031794 229.690209 
L 315.707503 234.44237 
L 321.383211 239.15912 
L 327.05892 243.840723 
L 332.734629 248.48744 
L 338.410338 253.099533 
L 344.086047 257.677257 
L 349.761756 262.220871 
L 355.437465 266.730628 
L 361.113173 271.206779 
L 366.788882 275.649577 
L 372.464591 280.059269 
L 378.1403 284.436101 
L 383.816009 288.78032 
L 389.491718 293.092167 
L 395.167426 297.371884 
L 400.843135 301.61971 
L 406.518844 305.835884 
L 412.194553 310.020641 
L 417.870262 314.174214 
L 423.545971 318.296837 
L 429.221679 322.38874 
L 434.897388 326.450152 
L 440.573097 330.4813 
L 446.248806 334.482409 
L 451.924515 338.453704 
L 457.600224 342.395407 
L 463.275932 346.307738 
L 468.951641 350.190916 
L 474.62735 354.045158 
L 480.303059 357.87068 
L 485.978768 361.667695 
L 491.654477 365.436418 
L 497.330185 369.177057 
L 503.005894 372.889822 
L 508.681603 376.574922 
L 514.357312 380.232562 
L 520.033021 383.862947 
L 525.70873 387.46628 
L 531.384438 391.042762 
L 537.060147 394.592594 
L 542.735856 398.115974 
L 548.411565 401.613099 
L 554.087274 405.084166 
L 559.762983 408.529367 
L 565.438692 411.948897 
L 571.1144 415.342945 
L 576.790109 418.711703 
L 582.465818 422.055358 
L 588.141527 425.374097 
L 593.817236 428.668107 
L 599.492945 431.937571 
L 605.168653 435.182673 
L 610.844362 438.403593 
L 616.520071 441.600513 
L 622.19578 444.77361 
L 627.871489 447.923063 
L 633.547198 451.049048 
L 639.222906 454.151739 
L 644.898615 457.231311 
L 650.574324 460.287934 
L 656.250033 463.321781 
L 661.925742 466.333021 
L 667.601451 469.321823 
L 673.277159 472.288353 
L 678.952868 475.232779 
L 684.628577 478.155263 
L 690.304286 481.055971 
L 695.979995 483.935063 
L 701.655704 486.792702 
L 707.331412 489.629047 
L 713.007121 492.444257 
L 718.68283 495.238489 
L 724.358539 498.0119 
L 730.034248 500.764644 
L 735.709957 503.496876 
L 741.385665 506.208749 
L 747.061374 508.900414 
L 752.737083 511.572022 
L 758.412792 514.223723 
L 764.088501 516.855664 
L 769.76421 519.467993 
L 775.439919 522.060856 
L 781.115627 524.634398 
L 786.791336 527.188763 
L 792.467045 528.477813 
" clip-path="url(#p3563c2b9ff)" style="fill: none; stroke: #9467bd; stroke-width: 2; stroke-linecap: square"/>
   </g>
   <g id="line2d_29">
    <path d="M 94.354858 23.837812 
L 100.200719 26.363538 
L 106.04658 32.630801 
L 111.892441 38.851363 
L 117.738302 45.025572 
L 123.584163 51.153773 
L 129.430024 57.23631 
L 135.275885 63.273522 
L 141.121746 69.265748 
L 146.967607 75.213322 
L 152.813468 81.116578 
L 158.659329 86.975845 
L 164.505191 92.791451 
L 170.351052 98.563722 
L 176.196913 104.29298 
L 182.042774 109.979547 
L 187.888635 115.623739 
L 193.734496 121.225874 
L 199.580357 126.786264 
L 205.426218 132.30522 
L 211.272079 137.783052 
L 217.11794 143.220065 
L 222.963801 148.616564 
L 228.809662 153.97285 
L 234.655523 159.289224 
L 240.501384 164.565982 
L 246.347245 169.803421 
L 252.193106 175.001832 
L 258.038967 180.161507 
L 263.884828 185.282734 
L 269.730689 190.3658 
L 275.57655 195.410989 
L 281.422412 200.418584 
L 287.268273 205.388864 
L 293.114134 210.322108 
L 298.959995 215.218592 
L 304.805856 220.078589 
L 310.651717 224.902372 
L 316.497578 229.690209 
L 322.343439 234.44237 
L 328.1893 239.15912 
L 334.035161 243.840723 
L 339.881022 248.48744 
L 345.726883 253.099533 
L 351.572744 257.677257 
L 357.418605 262.220871 
L 363.264466 266.730628 
L 369.110327 271.206779 
L 374.956188 275.649577 
L 380.802049 280.059269 
L 386.64791 284.436101 
L 392.493771 288.78032 
L 398.339633 293.092167 
L 404.185494 297.371884 
L 410.031355 301.61971 
L 415.877216 305.835884 
L 421.723077 310.020641 
L 427.568938 314.174214 
L 433.414799 318.296837 
L 439.26066 322.38874 
L 445.106521 326.450152 
L 450.952382 330.4813 
L 456.798243 334.482409 
L 462.644104 338.453704 
L 468.489965 342.395407 
L 474.335826 346.307738 
L 480.181687 350.190916 
L 486.027548 354.045158 
L 491.873409 357.87068 
L 497.71927 361.667695 
L 503.565131 365.436418 
L 509.410992 369.177057 
L 515.256854 372.889822 
L 521.102715 376.574922 
L 526.948576 380.232562 
L 532.794437 383.862947 
L 538.640298 387.46628 
L 544.486159 391.042762 
L 550.33202 394.592594 
L 556.177881 398.115974 
L 562.023742 401.613099 
L 567.869603 405.084166 
L 573.715464 408.529367 
L 579.561325 411.948897 
L 585.407186 415.342945 
L 591.253047 418.711703 
L 597.098908 422.055358 
L 602.944769 425.374097 
L 608.79063 428.668107 
L 614.636491 431.937571 
L 620.482352 435.182673 
L 626.328213 438.403593 
L 632.174075 441.600513 
L 638.019936 444.77361 
L 643.865797 447.923063 
L 649.711658 451.049048 
L 655.557519 454.151739 
L 661.40338 457.231311 
L 667.249241 460.287934 
L 673.095102 463.321781 
L 678.940963 466.333021 
L 684.786824 469.321823 
L 690.632685 472.288353 
L 696.478546 475.232779 
L 702.324407 478.155263 
L 708.170268 481.055971 
L 714.016129 483.935063 
L 719.86199 486.792702 
L 725.707851 489.629047 
L 731.553712 492.444257 
L 737.399573 495.238489 
L 743.245434 498.0119 
L 749.091296 500.764644 
L 754.937157 503.496876 
L 760.783018 506.208749 
L 766.628879 508.900414 
L 772.47474 511.572022 
L 778.320601 514.223723 
L 784.166462 516.855664 
L 790.012323 519.467993 
L 795.858184 522.060856 
L 801.704045 524.634398 
L 807.549906 527.188763 
L 813.395767 528.477813 
" clip-path="url(#p3563c2b9ff)" style="fill: none; stroke: #ff7f0e; stroke-width: 2; stroke-linecap: square"/>
   </g>
   <g id="line2d_30">
    <path d="M 58.402813 528.477813 
L 849.347813 528.477813 
" clip-path="url(#p3563c2b9ff)" style="fill: none; stroke-dasharray: 5.55,2.4; stroke-dashoffset: 0; stroke: #ff0000; stroke-opacity: 0.7; stroke-width: 1.5"/>
   </g>
   <g id="patch_3">
    <path d="M 58.402813 528.477813 
L 58.402813 23.837812 
" style="fill: none; stroke: #000000; stroke-width: 0.8; stroke-linejoin: miter; stroke-linecap: square"/>
   </g>
   <g id="patch_4">
    <path d="M 849.347813 528.477813 
L 849.347813 23.837812 
" style="fill: none; stroke: #000000; stroke-width: 0.8; stroke-linejoin: miter; stroke-linecap: square"/>
   </g>
   <g id="patch_5">
    <path d="M 58.402813 528.477813 
L 849.347812 528.477813 
" style="fill: none; stroke: #000000; stroke-width: 0.8; stroke-linejoin: miter; stroke-linecap: square"/>
   </g>
   <g id="patch_6">
    <path d="M 58.402813 23.837812 
L 849.347812 23.837812 
" style="fill: none; stroke: #000000; stroke-width: 0.8; stroke-linejoin: miter; stroke-linecap: square"/>
   </g>
   <g id="text_15">
    <!-- Remaining Useful Life (%) vs Time (Feedback Factor = 1.5) -->
    <g transform="translate(247.888281 17.837812) scale(0.14 -0.14)">
     <defs>
      <path id="DejaVuSans-76" d="M 191 3500 
L 800 3500 
L 1894 563 
L 2988 3500 
L 3597 3500 
L 2284 0 
L 1503 0 
L 191 3500 
z
" transform="scale(0.015625)"/>
      <path id="DejaVuSans-46" d="M 628 4666 
L 3309 4666 
L 3309 4134 
L 1259 4134 
L 1259 2759 
L 3109 2759 
L 3109 2228 
L 1259 2228 
L 1259 0 
L 628 0 
L 628 4666 
z
" transform="scale(0.015625)"/>
      <path id="DejaVuSans-64" d="M 2906 2969 
L 2906 4863 
L 3481 4863 
L 3481 0 
L 2906 0 
L 2906 525 
Q 2725 213 2448 61 
Q 2172 -91 1784 -91 
Q 1150 -91 751 415 
Q 353 922 353 1747 
Q 353 2572 751 3078 
Q 1150 3584 1784 3584 
Q 2172 3584 2448 3432 
Q 2725 3281 2906 2969 
z
M 947 1747 
Q 947 1113 1208 752 
Q 1469 391 1925 391 
Q 2381 391 2643 752 
Q 2906 1113 2906 1747 
Q 2906 2381 2643 2742 
Q 2381 3103 1925 3103 
Q 1469 3103 1208 2742 
Q 947 2381 947 1747 
z
" transform="scale(0.015625)"/>
      <path id="DejaVuSans-62" d="M 3116 1747 
Q 3116 2381 2855 2742 
Q 2594 3103 2138 3103 
Q 1681 3103 1420 2742 
Q 1159 2381 1159 1747 
Q 1159 1113 1420 752 
Q 1681 391 2138 391 
Q 2594 391 2855 752 
Q 3116 1113 3116 1747 
z
M 1159 2969 
Q 1341 3281 1617 3432 
Q 1894 3584 2278 3584 
Q 2916 3584 3314 3078 
Q 3713 2572 3713 1747 
Q 3713 922 3314 415 
Q 2916 -91 2278 -91 
Q 1894 -91 1617 61 
Q 1341 213 1159 525 
L 1159 0 
L 581 0 
L 581 4863 
L 1159 4863 
L 1159 2969 
z
" transform="scale(0.015625)"/>
      <path id="DejaVuSans-63" d="M 3122 3366 
L 3122 2828 
Q 2878 2963 2633 3030 
Q 2388 3097 2138 3097 
Q 1578 3097 1268 2742 
Q 959 2388 959 1747 
Q 959 1106 1268 751 
Q 1578 397 2138 397 
Q 2388 397 2633 464 
Q 2878 531 3122 666 
L 3122 134 
Q 2881 22 2623 -34 
Q 2366 -91 2075 -91 
Q 1284 -91 818 406 
Q 353 903 353 1747 
Q 353 2603 823 3093 
Q 1294 3584 2113 3584 
Q 2378 3584 2631 3529 
Q 2884 3475 3122 3366 
z
" transform="scale(0.015625)"/>
      <path id="DejaVuSans-6b" d="M 581 4863 
L 1159 4863 
L 1159 1991 
L 2875 3500 
L 3609 3500 
L 1753 1863 
L 3688 0 
L 2938 0 
L 1159 1709 
L 1159 0 
L 581 0 
L 581 4863 
z
" transform="scale(0.015625)"/>
      <path id="DejaVuSans-74" d="M 1172 4494 
L 1172 3500 
L 2356 3500 
L 2356 3053 
L 1172 3053 
L 1172 1153 
Q 1172 725 1289 603 
Q 1406 481 1766 481 
L 2356 481 
L 2356 0 
L 1766 0 
Q 1100 0 847 248 
Q 594 497 594 1153 
L 594 3053 
L 172 3053 
L 172 3500 
L 594 3500 
L 594 4494 
L 1172 4494 
z
" transform="scale(0.015625)"/>
      <path id="DejaVuSans-6f" d="M 1959 3097 
Q 1497 3097 1228 2736 
Q 959 2375 959 1747 
Q 959 1119 1226 758 
Q 1494 397 1959 397 
Q 2419 397 2687 759 
Q 2956 1122 2956 1747 
Q 2956 2369 2687 2733 
Q 2419 3097 1959 3097 
z
M 1959 3584 
Q 2709 3584 3137 3096 
Q 3566 2609 3566 1747 
Q 3566 888 3137 398 
Q 2709 -91 1959 -91 
Q 1206 -91 779 398 
Q 353 888 353 1747 
Q 353 2609 779 3096 
Q 1206 3584 1959 3584 
z
" transform="scale(0.015625)"/>
      <path id="DejaVuSans-3d" d="M 678 2906 
L 4684 2906 
L 4684 2381 
L 678 2381 
L 678 2906 
z
M 678 1631 
L 4684 1631 
L 4684 1100 
L 678 1100 
L 678 1631 
z
" transform="scale(0.015625)"/>
     </defs>
     <use xlink:href="#DejaVuSans-52"/>
     <use xlink:href="#DejaVuSans-65" transform="translate(64.982422 0)"/>
     <use xlink:href="#DejaVuSans-6d" transform="translate(126.505859 0)"/>
     <use xlink:href="#DejaVuSans-61" transform="translate(223.917969 0)"/>
     <use xlink:href="#DejaVuSans-69" transform="translate(285.197266 0)"/>
     <use xlink:href="#DejaVuSans-6e" transform="translate(312.980469 0)"/>
     <use xlink:href="#DejaVuSans-69" transform="translate(376.359375 0)"/>
     <use xlink:href="#DejaVuSans-6e" transform="translate(404.142578 0)"/>
     <use xlink:href="#DejaVuSans-67" transform="translate(467.521484 0)"/>
     <use xlink:href="#DejaVuSans-20" transform="translate(530.998047 0)"/>
     <use xlink:href="#DejaVuSans-55" transform="translate(562.785156 0)"/>
     <use xlink:href="#DejaVuSans-73" transform="translate(635.978516 0)"/>
     <use xlink:href="#DejaVuSans-65" transform="translate(688.078125 0)"/>
     <use xlink:href="#DejaVuSans-66" transform="translate(749.601562 0)"/>
     <use xlink:href="#DejaVuSans-75" transform="translate(784.806641 0)"/>
     <use xlink:href="#DejaVuSans-6c" transform="translate(848.185547 0)"/>
     <use xlink:href="#DejaVuSans-20" transform="translate(875.96875 0)"/>
     <use xlink:href="#DejaVuSans-4c" transform="translate(907.755859 0)"/>
     <use xlink:href="#DejaVuSans-69" transform="translate(963.46875 0)"/>
     <use xlink:href="#DejaVuSans-66" transform="translate(991.251953 0)"/>
     <use xlink:href="#DejaVuSans-65" transform="translate(1026.457031 0)"/>
     <use xlink:href="#DejaVuSans-20" transform="translate(1087.980469 0)"/>
     <use xlink:href="#DejaVuSans-28" transform="translate(1119.767578 0)"/>
     <use xlink:href="#DejaVuSans-25" transform="translate(1158.78125 0)"/>
     <use xlink:href="#DejaVuSans-29" transform="translate(1253.800781 0)"/>
     <use xlink:href="#DejaVuSans-20" transform="translate(1292.814453 0)"/>
     <use xlink:href="#DejaVuSans-76" transform="translate(1324.601562 0)"/>
     <use xlink:href="#DejaVuSans-73" transform="translate(1383.78125 0)"/>
     <use xlink:href="#DejaVuSans-20" transform="translate(1435.880859 0)"/>
     <use xlink:href="#DejaVuSans-54" transform="translate(1467.667969 0)"/>
     <use xlink:href="#DejaVuSans-69" transform="translate(1525.626953 0)"/>
     <use xlink:href="#DejaVuSans-6d" transform="translate(1553.410156 0)"/>
     <use xlink:href="#DejaVuSans-65" transform="translate(1650.822266 0)"/>
     <use xlink:href="#DejaVuSans-20" transform="translate(1712.345703 0)"/>
     <use xlink:href="#DejaVuSans-28" transform="translate(1744.132812 0)"/>
     <use xlink:href="#DejaVuSans-46" transform="translate(1783.146484 0)"/>
     <use xlink:href="#DejaVuSans-65" transform="translate(1835.166016 0)"/>
     <use xlink:href="#DejaVuSans-65" transform="translate(1896.689453 0)"/>
     <use xlink:href="#DejaVuSans-64" transform="translate(1958.212891 0)"/>
     <use xlink:href="#DejaVuSans-62" transform="translate(2021.689453 0)"/>
     <use xlink:href="#DejaVuSans-61" transform="translate(2085.166016 0)"/>
     <use xlink:href="#DejaVuSans-63" transform="translate(2146.445312 0)"/>
     <use xlink:href="#DejaVuSans-6b" transform="translate(2201.425781 0)"/>
     <use xlink:href="#DejaVuSans-20" transform="translate(2259.335938 0)"/>
     <use xlink:href="#DejaVuSans-46" transform="translate(2291.123047 0)"/>
     <use xlink:href="#DejaVuSans-61" transform="translate(2339.517578 0)"/>
     <use xlink:href="#DejaVuSans-63" transform="translate(2400.796875 0)"/>
     <use xlink:href="#DejaVuSans-74" transform="translate(2455.777344 0)"/>
     <use xlink:href="#DejaVuSans-6f" transform="translate(2494.986328 0)"/>
     <use xlink:href="#DejaVuSans-72" transform="translate(2556.167969 0)"/>
     <use xlink:href="#DejaVuSans-20" transform="translate(2597.28125 0)"/>
     <use xlink:href="#DejaVuSans-3d" transform="translate(2629.068359 0)"/>
     <use xlink:href="#DejaVuSans-20" transform="translate(2712.857422 0)"/>
     <use xlink:href="#DejaVuSans-31" transform="translate(2744.644531 0)"/>
     <use xlink:href="#DejaVuSans-2e" transform="translate(2808.267578 0)"/>
     <use xlink:href="#DejaVuSans-35" transform="translate(2840.054688 0)"/>
     <use xlink:href="#DejaVuSans-29" transform="translate(2903.677734 0)"/>
    </g>
   </g>
   <g id="legend_1">
    <g id="patch_7">
     <path d="M 664.091563 121.297187 
L 842.347813 121.297187 
Q 844.347813 121.297187 844.347813 119.297187 
L 844.347813 30.837812 
Q 844.347813 28.837812 842.347813 28.837812 
L 664.091563 28.837812 
Q 662.091563 28.837812 662.091563 30.837812 
L 662.091563 119.297187 
Q 662.091563 121.297187 664.091563 121.297187 
z
" style="fill: #ffffff; opacity: 0.8; stroke: #cccccc; stroke-linejoin: miter"/>
    </g>
    <g id="line2d_31">
     <path d="M 666.091563 36.93625 
L 676.091563 36.93625 
L 686.091563 36.93625 
" style="fill: none; stroke: #d62728; stroke-width: 2; stroke-linecap: square"/>
    </g>
    <g id="text_16">
     <!-- Point_0_33 (Avg : 0.002539) -->
     <g transform="translate(694.091563 40.43625) scale(0.1 -0.1)">
      <defs>
       <path id="DejaVuSans-50" d="M 1259 4147 
L 1259 2394 
L 2053 2394 
Q 2494 2394 2734 2622 
Q 2975 2850 2975 3272 
Q 2975 3691 2734 3919 
Q 2494 4147 2053 4147 
L 1259 4147 
z
M 628 4666 
L 2053 4666 
Q 2838 4666 3239 4311 
Q 3641 3956 3641 3272 
Q 3641 2581 3239 2228 
Q 2838 1875 2053 1875 
L 1259 1875 
L 1259 0 
L 628 0 
L 628 4666 
z
" transform="scale(0.015625)"/>
       <path id="DejaVuSans-5f" d="M 3263 -1063 
L 3263 -1509 
L -63 -1509 
L -63 -1063 
L 3263 -1063 
z
" transform="scale(0.015625)"/>
       <path id="DejaVuSans-33" d="M 2597 2516 
Q 3050 2419 3304 2112 
Q 3559 1806 3559 1356 
Q 3559 666 3084 287 
Q 2609 -91 1734 -91 
Q 1441 -91 1130 -33 
Q 819 25 488 141 
L 488 750 
Q 750 597 1062 519 
Q 1375 441 1716 441 
Q 2309 441 2620 675 
Q 2931 909 2931 1356 
Q 2931 1769 2642 2001 
Q 2353 2234 1838 2234 
L 1294 2234 
L 1294 2753 
L 1863 2753 
Q 2328 2753 2575 2939 
Q 2822 3125 2822 3475 
Q 2822 3834 2567 4026 
Q 2313 4219 1838 4219 
Q 1578 4219 1281 4162 
Q 984 4106 628 3988 
L 628 4550 
Q 988 4650 1302 4700 
Q 1616 4750 1894 4750 
Q 2613 4750 3031 4423 
Q 3450 4097 3450 3541 
Q 3450 3153 3228 2886 
Q 3006 2619 2597 2516 
z
" transform="scale(0.015625)"/>
       <path id="DejaVuSans-41" d="M 2188 4044 
L 1331 1722 
L 3047 1722 
L 2188 4044 
z
M 1831 4666 
L 2547 4666 
L 4325 0 
L 3669 0 
L 3244 1197 
L 1141 1197 
L 716 0 
L 50 0 
L 1831 4666 
z
" transform="scale(0.015625)"/>
       <path id="DejaVuSans-3b5" d="M 1234 1888 
Q 884 1963 697 2166 
Q 509 2366 509 2656 
Q 509 3097 866 3344 
Q 1219 3588 1831 3588 
Q 2069 3588 2334 3550 
Q 2600 3513 2906 3438 
L 2906 2916 
Q 2603 3006 2353 3047 
Q 2100 3088 1878 3088 
Q 1506 3088 1291 2944 
Q 1072 2800 1072 2600 
Q 1072 2381 1284 2241 
Q 1494 2103 1856 2103 
L 2341 2103 
L 2341 1628 
L 1878 1628 
Q 1450 1628 1225 1469 
Q 981 1294 981 1019 
Q 981 738 1244 563 
Q 1509 388 1981 388 
Q 2272 388 2538 444 
Q 2803 503 3025 619 
L 3025 84 
Q 2744 -3 2481 -47 
Q 2216 -91 1966 -91 
Q 1222 -91 819 194 
Q 416 478 416 1019 
Q 416 1356 631 1584 
Q 847 1813 1234 1888 
z
" transform="scale(0.015625)"/>
       <path id="DejaVuSans-3a" d="M 750 794 
L 1409 794 
L 1409 0 
L 750 0 
L 750 794 
z
M 750 3309 
L 1409 3309 
L 1409 2516 
L 750 2516 
L 750 3309 
z
" transform="scale(0.015625)"/>
       <path id="DejaVuSans-39" d="M 703 97 
L 703 672 
Q 941 559 1184 500 
Q 1428 441 1663 441 
Q 2288 441 2617 861 
Q 2947 1281 2994 2138 
Q 2813 1869 2534 1725 
Q 2256 1581 1919 1581 
Q 1219 1581 811 2004 
Q 403 2428 403 3163 
Q 403 3881 828 4315 
Q 1253 4750 1959 4750 
Q 2769 4750 3195 4129 
Q 3622 3509 3622 2328 
Q 3622 1225 3098 567 
Q 2575 -91 1691 -91 
Q 1453 -91 1209 -44 
Q 966 3 703 97 
z
M 1959 2075 
Q 2384 2075 2632 2365 
Q 2881 2656 2881 3163 
Q 2881 3666 2632 3958 
Q 2384 4250 1959 4250 
Q 1534 4250 1286 3958 
Q 1038 3666 1038 3163 
Q 1038 2656 1286 2365 
Q 1534 2075 1959 2075 
z
" transform="scale(0.015625)"/>
      </defs>
      <use xlink:href="#DejaVuSans-50"/>
      <use xlink:href="#DejaVuSans-6f" transform="translate(56.677734 0)"/>
      <use xlink:href="#DejaVuSans-69" transform="translate(117.859375 0)"/>
      <use xlink:href="#DejaVuSans-6e" transform="translate(145.642578 0)"/>
      <use xlink:href="#DejaVuSans-74" transform="translate(209.021484 0)"/>
      <use xlink:href="#DejaVuSans-5f" transform="translate(248.230469 0)"/>
      <use xlink:href="#DejaVuSans-30" transform="translate(298.230469 0)"/>
      <use xlink:href="#DejaVuSans-5f" transform="translate(361.853516 0)"/>
      <use xlink:href="#DejaVuSans-33" transform="translate(411.853516 0)"/>
      <use xlink:href="#DejaVuSans-33" transform="translate(475.476562 0)"/>
      <use xlink:href="#DejaVuSans-20" transform="translate(539.099609 0)"/>
      <use xlink:href="#DejaVuSans-28" transform="translate(570.886719 0)"/>
      <use xlink:href="#DejaVuSans-41" transform="translate(609.900391 0)"/>
      <use xlink:href="#DejaVuSans-76" transform="translate(672.433594 0)"/>
      <use xlink:href="#DejaVuSans-67" transform="translate(731.613281 0)"/>
      <use xlink:href="#DejaVuSans-20" transform="translate(795.089844 0)"/>
      <use xlink:href="#DejaVuSans-3b5" transform="translate(826.876953 0)"/>
      <use xlink:href="#DejaVuSans-3a" transform="translate(880.929688 0)"/>
      <use xlink:href="#DejaVuSans-20" transform="translate(914.621094 0)"/>
      <use xlink:href="#DejaVuSans-30" transform="translate(946.408203 0)"/>
      <use xlink:href="#DejaVuSans-2e" transform="translate(1010.03125 0)"/>
      <use xlink:href="#DejaVuSans-30" transform="translate(1041.818359 0)"/>
      <use xlink:href="#DejaVuSans-30" transform="translate(1105.441406 0)"/>
      <use xlink:href="#DejaVuSans-32" transform="translate(1169.064453 0)"/>
      <use xlink:href="#DejaVuSans-35" transform="translate(1232.6875 0)"/>
      <use xlink:href="#DejaVuSans-33" transform="translate(1296.310547 0)"/>
      <use xlink:href="#DejaVuSans-39" transform="translate(1359.933594 0)"/>
      <use xlink:href="#DejaVuSans-29" transform="translate(1423.556641 0)"/>
     </g>
    </g>
    <g id="line2d_32">
     <path d="M 666.091563 51.8925 
L 676.091563 51.8925 
L 686.091563 51.8925 
" style="fill: none; stroke: #2ca02c; stroke-width: 2; stroke-linecap: square"/>
    </g>
    <g id="text_17">
     <!-- Point_0_28 (Avg : 0.002510) -->
     <g transform="translate(694.091563 55.3925) scale(0.1 -0.1)">
      <use xlink:href="#DejaVuSans-50"/>
      <use xlink:href="#DejaVuSans-6f" transform="translate(56.677734 0)"/>
      <use xlink:href="#DejaVuSans-69" transform="translate(117.859375 0)"/>
      <use xlink:href="#DejaVuSans-6e" transform="translate(145.642578 0)"/>
      <use xlink:href="#DejaVuSans-74" transform="translate(209.021484 0)"/>
      <use xlink:href="#DejaVuSans-5f" transform="translate(248.230469 0)"/>
      <use xlink:href="#DejaVuSans-30" transform="translate(298.230469 0)"/>
      <use xlink:href="#DejaVuSans-5f" transform="translate(361.853516 0)"/>
      <use xlink:href="#DejaVuSans-32" transform="translate(411.853516 0)"/>
      <use xlink:href="#DejaVuSans-38" transform="translate(475.476562 0)"/>
      <use xlink:href="#DejaVuSans-20" transform="translate(539.099609 0)"/>
      <use xlink:href="#DejaVuSans-28" transform="translate(570.886719 0)"/>
      <use xlink:href="#DejaVuSans-41" transform="translate(609.900391 0)"/>
      <use xlink:href="#DejaVuSans-76" transform="translate(672.433594 0)"/>
      <use xlink:href="#DejaVuSans-67" transform="translate(731.613281 0)"/>
      <use xlink:href="#DejaVuSans-20" transform="translate(795.089844 0)"/>
      <use xlink:href="#DejaVuSans-3b5" transform="translate(826.876953 0)"/>
      <use xlink:href="#DejaVuSans-3a" transform="translate(880.929688 0)"/>
      <use xlink:href="#DejaVuSans-20" transform="translate(914.621094 0)"/>
      <use xlink:href="#DejaVuSans-30" transform="translate(946.408203 0)"/>
      <use xlink:href="#DejaVuSans-2e" transform="translate(1010.03125 0)"/>
      <use xlink:href="#DejaVuSans-30" transform="translate(1041.818359 0)"/>
      <use xlink:href="#DejaVuSans-30" transform="translate(1105.441406 0)"/>
      <use xlink:href="#DejaVuSans-32" transform="translate(1169.064453 0)"/>
      <use xlink:href="#DejaVuSans-35" transform="translate(1232.6875 0)"/>
      <use xlink:href="#DejaVuSans-31" transform="translate(1296.310547 0)"/>
      <use xlink:href="#DejaVuSans-30" transform="translate(1359.933594 0)"/>
      <use xlink:href="#DejaVuSans-29" transform="translate(1423.556641 0)"/>
     </g>
    </g>
    <g id="line2d_33">
     <path d="M 666.091563 66.84875 
L 676.091563 66.84875 
L 686.091563 66.84875 
" style="fill: none; stroke: #1f77b4; stroke-width: 2; stroke-linecap: square"/>
    </g>
    <g id="text_18">
     <!-- Point_0_26 (Avg : 0.002520) -->
     <g transform="translate(694.091563 70.34875) scale(0.1 -0.1)">
      <use xlink:href="#DejaVuSans-50"/>
      <use xlink:href="#DejaVuSans-6f" transform="translate(56.677734 0)"/>
      <use xlink:href="#DejaVuSans-69" transform="translate(117.859375 0)"/>
      <use xlink:href="#DejaVuSans-6e" transform="translate(145.642578 0)"/>
      <use xlink:href="#DejaVuSans-74" transform="translate(209.021484 0)"/>
      <use xlink:href="#DejaVuSans-5f" transform="translate(248.230469 0)"/>
      <use xlink:href="#DejaVuSans-30" transform="translate(298.230469 0)"/>
      <use xlink:href="#DejaVuSans-5f" transform="translate(361.853516 0)"/>
      <use xlink:href="#DejaVuSans-32" transform="translate(411.853516 0)"/>
      <use xlink:href="#DejaVuSans-36" transform="translate(475.476562 0)"/>
      <use xlink:href="#DejaVuSans-20" transform="translate(539.099609 0)"/>
      <use xlink:href="#DejaVuSans-28" transform="translate(570.886719 0)"/>
      <use xlink:href="#DejaVuSans-41" transform="translate(609.900391 0)"/>
      <use xlink:href="#DejaVuSans-76" transform="translate(672.433594 0)"/>
      <use xlink:href="#DejaVuSans-67" transform="translate(731.613281 0)"/>
      <use xlink:href="#DejaVuSans-20" transform="translate(795.089844 0)"/>
      <use xlink:href="#DejaVuSans-3b5" transform="translate(826.876953 0)"/>
      <use xlink:href="#DejaVuSans-3a" transform="translate(880.929688 0)"/>
      <use xlink:href="#DejaVuSans-20" transform="translate(914.621094 0)"/>
      <use xlink:href="#DejaVuSans-30" transform="translate(946.408203 0)"/>
      <use xlink:href="#DejaVuSans-2e" transform="translate(1010.03125 0)"/>
      <use xlink:href="#DejaVuSans-30" transform="translate(1041.818359 0)"/>
      <use xlink:href="#DejaVuSans-30" transform="translate(1105.441406 0)"/>
      <use xlink:href="#DejaVuSans-32" transform="translate(1169.064453 0)"/>
      <use xlink:href="#DejaVuSans-35" transform="translate(1232.6875 0)"/>
      <use xlink:href="#DejaVuSans-32" transform="translate(1296.310547 0)"/>
      <use xlink:href="#DejaVuSans-30" transform="translate(1359.933594 0)"/>
      <use xlink:href="#DejaVuSans-29" transform="translate(1423.556641 0)"/>
     </g>
    </g>
    <g id="line2d_34">
     <path d="M 666.091563 81.805 
L 676.091563 81.805 
L 686.091563 81.805 
" style="fill: none; stroke: #9467bd; stroke-width: 2; stroke-linecap: square"/>
    </g>
    <g id="text_19">
     <!-- Point_0_27 (Avg : 0.002519) -->
     <g transform="translate(694.091563 85.305) scale(0.1 -0.1)">
      <defs>
       <path id="DejaVuSans-37" d="M 525 4666 
L 3525 4666 
L 3525 4397 
L 1831 0 
L 1172 0 
L 2766 4134 
L 525 4134 
L 525 4666 
z
" transform="scale(0.015625)"/>
      </defs>
      <use xlink:href="#DejaVuSans-50"/>
      <use xlink:href="#DejaVuSans-6f" transform="translate(56.677734 0)"/>
      <use xlink:href="#DejaVuSans-69" transform="translate(117.859375 0)"/>
      <use xlink:href="#DejaVuSans-6e" transform="translate(145.642578 0)"/>
      <use xlink:href="#DejaVuSans-74" transform="translate(209.021484 0)"/>
      <use xlink:href="#DejaVuSans-5f" transform="translate(248.230469 0)"/>
      <use xlink:href="#DejaVuSans-30" transform="translate(298.230469 0)"/>
      <use xlink:href="#DejaVuSans-5f" transform="translate(361.853516 0)"/>
      <use xlink:href="#DejaVuSans-32" transform="translate(411.853516 0)"/>
      <use xlink:href="#DejaVuSans-37" transform="translate(475.476562 0)"/>
      <use xlink:href="#DejaVuSans-20" transform="translate(539.099609 0)"/>
      <use xlink:href="#DejaVuSans-28" transform="translate(570.886719 0)"/>
      <use xlink:href="#DejaVuSans-41" transform="translate(609.900391 0)"/>
      <use xlink:href="#DejaVuSans-76" transform="translate(672.433594 0)"/>
      <use xlink:href="#DejaVuSans-67" transform="translate(731.613281 0)"/>
      <use xlink:href="#DejaVuSans-20" transform="translate(795.089844 0)"/>
      <use xlink:href="#DejaVuSans-3b5" transform="translate(826.876953 0)"/>
      <use xlink:href="#DejaVuSans-3a" transform="translate(880.929688 0)"/>
      <use xlink:href="#DejaVuSans-20" transform="translate(914.621094 0)"/>
      <use xlink:href="#DejaVuSans-30" transform="translate(946.408203 0)"/>
      <use xlink:href="#DejaVuSans-2e" transform="translate(1010.03125 0)"/>
      <use xlink:href="#DejaVuSans-30" transform="translate(1041.818359 0)"/>
      <use xlink:href="#DejaVuSans-30" transform="translate(1105.441406 0)"/>
      <use xlink:href="#DejaVuSans-32" transform="translate(1169.064453 0)"/>
      <use xlink:href="#DejaVuSans-35" transform="translate(1232.6875 0)"/>
      <use xlink:href="#DejaVuSans-31" transform="translate(1296.310547 0)"/>
      <use xlink:href="#DejaVuSans-39" transform="translate(1359.933594 0)"/>
      <use xlink:href="#DejaVuSans-29" transform="translate(1423.556641 0)"/>
     </g>
    </g>
    <g id="line2d_35">
     <path d="M 666.091563 96.76125 
L 676.091563 96.76125 
L 686.091563 96.76125 
" style="fill: none; stroke: #ff7f0e; stroke-width: 2; stroke-linecap: square"/>
    </g>
    <g id="text_20">
     <!-- Point_0_25 (Avg : 0.002525) -->
     <g transform="translate(694.091563 100.26125) scale(0.1 -0.1)">
      <use xlink:href="#DejaVuSans-50"/>
      <use xlink:href="#DejaVuSans-6f" transform="translate(56.677734 0)"/>
      <use xlink:href="#DejaVuSans-69" transform="translate(117.859375 0)"/>
      <use xlink:href="#DejaVuSans-6e" transform="translate(145.642578 0)"/>
      <use xlink:href="#DejaVuSans-74" transform="translate(209.021484 0)"/>
      <use xlink:href="#DejaVuSans-5f" transform="translate(248.230469 0)"/>
      <use xlink:href="#DejaVuSans-30" transform="translate(298.230469 0)"/>
      <use xlink:href="#DejaVuSans-5f" transform="translate(361.853516 0)"/>
      <use xlink:href="#DejaVuSans-32" transform="translate(411.853516 0)"/>
      <use xlink:href="#DejaVuSans-35" transform="translate(475.476562 0)"/>
      <use xlink:href="#DejaVuSans-20" transform="translate(539.099609 0)"/>
      <use xlink:href="#DejaVuSans-28" transform="translate(570.886719 0)"/>
      <use xlink:href="#DejaVuSans-41" transform="translate(609.900391 0)"/>
      <use xlink:href="#DejaVuSans-76" transform="translate(672.433594 0)"/>
      <use xlink:href="#DejaVuSans-67" transform="translate(731.613281 0)"/>
      <use xlink:href="#DejaVuSans-20" transform="translate(795.089844 0)"/>
      <use xlink:href="#DejaVuSans-3b5" transform="translate(826.876953 0)"/>
      <use xlink:href="#DejaVuSans-3a" transform="translate(880.929688 0)"/>
      <use xlink:href="#DejaVuSans-20" transform="translate(914.621094 0)"/>
      <use xlink:href="#DejaVuSans-30" transform="translate(946.408203 0)"/>
      <use xlink:href="#DejaVuSans-2e" transform="translate(1010.03125 0)"/>
      <use xlink:href="#DejaVuSans-30" transform="translate(1041.818359 0)"/>
      <use xlink:href="#DejaVuSans-30" transform="translate(1105.441406 0)"/>
      <use xlink:href="#DejaVuSans-32" transform="translate(1169.064453 0)"/>
      <use xlink:href="#DejaVuSans-35" transform="translate(1232.6875 0)"/>
      <use xlink:href="#DejaVuSans-32" transform="translate(1296.310547 0)"/>
      <use xlink:href="#DejaVuSans-35" transform="translate(1359.933594 0)"/>
      <use xlink:href="#DejaVuSans-29" transform="translate(1423.556641 0)"/>
     </g>
    </g>
    <g id="line2d_36">
     <path d="M 666.091563 111.7175 
L 676.091563 111.7175 
L 686.091563 111.7175 
" style="fill: none; stroke-dasharray: 5.55,2.4; stroke-dashoffset: 0; stroke: #ff0000; stroke-opacity: 0.7; stroke-width: 1.5"/>
    </g>
    <g id="text_21">
     <!-- Failure (0% RUL) -->
     <g transform="translate(694.091563 115.2175) scale(0.1 -0.1)">
      <use xlink:href="#DejaVuSans-46"/>
      <use xlink:href="#DejaVuSans-61" transform="translate(48.394531 0)"/>
      <use xlink:href="#DejaVuSans-69" transform="translate(109.673828 0)"/>
      <use xlink:href="#DejaVuSans-6c" transform="translate(137.457031 0)"/>
      <use xlink:href="#DejaVuSans-75" transform="translate(165.240234 0)"/>
      <use xlink:href="#DejaVuSans-72" transform="translate(228.619141 0)"/>
      <use xlink:href="#DejaVuSans-65" transform="translate(267.482422 0)"/>
      <use xlink:href="#DejaVuSans-20" transform="translate(329.005859 0)"/>
      <use xlink:href="#DejaVuSans-28" transform="translate(360.792969 0)"/>
      <use xlink:href="#DejaVuSans-30" transform="translate(399.806641 0)"/>
      <use xlink:href="#DejaVuSans-25" transform="translate(463.429688 0)"/>
      <use xlink:href="#DejaVuSans-20" transform="translate(558.449219 0)"/>
      <use xlink:href="#DejaVuSans-52" transform="translate(590.236328 0)"/>
      <use xlink:href="#DejaVuSans-55" transform="translate(659.71875 0)"/>
      <use xlink:href="#DejaVuSans-4c" transform="translate(732.912109 0)"/>
      <use xlink:href="#DejaVuSans-29" transform="translate(788.625 0)"/>
     </g>
    </g>
   </g>
  </g>
 </g>
 <defs>
  <clipPath id="p3563c2b9ff">
   <rect x="58.402813" y="23.837812" width="790.945" height="504.64"/>
  </clipPath>
 </defs>
</svg>
