<?xml version="1.0" encoding="utf-8" standalone="no"?>
<!DOCTYPE svg PUBLIC "-//W3C//DTD SVG 1.1//EN"
  "http://www.w3.org/Graphics/SVG/1.1/DTD/svg11.dtd">
<svg xmlns:xlink="http://www.w3.org/1999/xlink" width="1144.547812pt" height="849.651875pt" viewBox="0 0 1144.547812 849.651875" xmlns="http://www.w3.org/2000/svg" version="1.1">
 <metadata>
  <rdf:RDF xmlns:dc="http://purl.org/dc/elements/1.1/" xmlns:cc="http://creativecommons.org/ns#" xmlns:rdf="http://www.w3.org/1999/02/22-rdf-syntax-ns#">
   <cc:Work>
    <dc:type rdf:resource="http://purl.org/dc/dcmitype/StillImage"/>
    <dc:date>2025-04-16T17:03:51.889680</dc:date>
    <dc:format>image/svg+xml</dc:format>
    <dc:creator>
     <cc:Agent>
      <dc:title>Matplotlib v3.10.1, https://matplotlib.org/</dc:title>
     </cc:Agent>
    </dc:creator>
   </cc:Work>
  </rdf:RDF>
 </metadata>
 <defs>
  <style type="text/css">*{stroke-linejoin: round; stroke-linecap: butt}</style>
 </defs>
 <g id="figure_1">
  <g id="patch_1">
   <path d="M 0 849.651875 
L 1144.547812 849.651875 
L 1144.547812 0 
L 0 0 
z
" style="fill: #ffffff"/>
  </g>
  <g id="axes_1">
   <g id="patch_2">
    <path d="M 58.402813 427.534 
L 573.047812 427.534 
L 573.047812 105.468 
L 58.402813 105.468 
z
" style="fill: #ffffff"/>
   </g>
   <g id="matplotlib.axis_1">
    <g id="xtick_1">
     <g id="line2d_1">
      <path d="M 81.795767 427.534 
L 81.795767 105.468 
" clip-path="url(#p8e1e1b25df)" style="fill: none; stroke: #b0b0b0; stroke-opacity: 0.3; stroke-width: 0.8; stroke-linecap: square"/>
     </g>
     <g id="line2d_2">
      <defs>
       <path id="m4b60e67a9a" d="M 0 0 
L 0 3.5 
" style="stroke: #000000; stroke-width: 0.8"/>
      </defs>
      <g>
       <use xlink:href="#m4b60e67a9a" x="81.795767" y="427.534" style="stroke: #000000; stroke-width: 0.8"/>
      </g>
     </g>
     <g id="text_1">
      <!-- 0.0 -->
      <g transform="translate(73.844205 442.132438) scale(0.1 -0.1)">
       <defs>
        <path id="DejaVuSans-30" d="M 2034 4250 
Q 1547 4250 1301 3770 
Q 1056 3291 1056 2328 
Q 1056 1369 1301 889 
Q 1547 409 2034 409 
Q 2525 409 2770 889 
Q 3016 1369 3016 2328 
Q 3016 3291 2770 3770 
Q 2525 4250 2034 4250 
z
M 2034 4750 
Q 2819 4750 3233 4129 
Q 3647 3509 3647 2328 
Q 3647 1150 3233 529 
Q 2819 -91 2034 -91 
Q 1250 -91 836 529 
Q 422 1150 422 2328 
Q 422 3509 836 4129 
Q 1250 4750 2034 4750 
z
" transform="scale(0.015625)"/>
        <path id="DejaVuSans-2e" d="M 684 794 
L 1344 794 
L 1344 0 
L 684 0 
L 684 794 
z
" transform="scale(0.015625)"/>
       </defs>
       <use xlink:href="#DejaVuSans-30"/>
       <use xlink:href="#DejaVuSans-2e" transform="translate(63.623047 0)"/>
       <use xlink:href="#DejaVuSans-30" transform="translate(95.410156 0)"/>
      </g>
     </g>
    </g>
    <g id="xtick_2">
     <g id="line2d_3">
      <path d="M 168.843817 427.534 
L 168.843817 105.468 
" clip-path="url(#p8e1e1b25df)" style="fill: none; stroke: #b0b0b0; stroke-opacity: 0.3; stroke-width: 0.8; stroke-linecap: square"/>
     </g>
     <g id="line2d_4">
      <g>
       <use xlink:href="#m4b60e67a9a" x="168.843817" y="427.534" style="stroke: #000000; stroke-width: 0.8"/>
      </g>
     </g>
     <g id="text_2">
      <!-- 0.2 -->
      <g transform="translate(160.892255 442.132438) scale(0.1 -0.1)">
       <defs>
        <path id="DejaVuSans-32" d="M 1228 531 
L 3431 531 
L 3431 0 
L 469 0 
L 469 531 
Q 828 903 1448 1529 
Q 2069 2156 2228 2338 
Q 2531 2678 2651 2914 
Q 2772 3150 2772 3378 
Q 2772 3750 2511 3984 
Q 2250 4219 1831 4219 
Q 1534 4219 1204 4116 
Q 875 4013 500 3803 
L 500 4441 
Q 881 4594 1212 4672 
Q 1544 4750 1819 4750 
Q 2544 4750 2975 4387 
Q 3406 4025 3406 3419 
Q 3406 3131 3298 2873 
Q 3191 2616 2906 2266 
Q 2828 2175 2409 1742 
Q 1991 1309 1228 531 
z
" transform="scale(0.015625)"/>
       </defs>
       <use xlink:href="#DejaVuSans-30"/>
       <use xlink:href="#DejaVuSans-2e" transform="translate(63.623047 0)"/>
       <use xlink:href="#DejaVuSans-32" transform="translate(95.410156 0)"/>
      </g>
     </g>
    </g>
    <g id="xtick_3">
     <g id="line2d_5">
      <path d="M 255.891868 427.534 
L 255.891868 105.468 
" clip-path="url(#p8e1e1b25df)" style="fill: none; stroke: #b0b0b0; stroke-opacity: 0.3; stroke-width: 0.8; stroke-linecap: square"/>
     </g>
     <g id="line2d_6">
      <g>
       <use xlink:href="#m4b60e67a9a" x="255.891868" y="427.534" style="stroke: #000000; stroke-width: 0.8"/>
      </g>
     </g>
     <g id="text_3">
      <!-- 0.4 -->
      <g transform="translate(247.940305 442.132438) scale(0.1 -0.1)">
       <defs>
        <path id="DejaVuSans-34" d="M 2419 4116 
L 825 1625 
L 2419 1625 
L 2419 4116 
z
M 2253 4666 
L 3047 4666 
L 3047 1625 
L 3713 1625 
L 3713 1100 
L 3047 1100 
L 3047 0 
L 2419 0 
L 2419 1100 
L 313 1100 
L 313 1709 
L 2253 4666 
z
" transform="scale(0.015625)"/>
       </defs>
       <use xlink:href="#DejaVuSans-30"/>
       <use xlink:href="#DejaVuSans-2e" transform="translate(63.623047 0)"/>
       <use xlink:href="#DejaVuSans-34" transform="translate(95.410156 0)"/>
      </g>
     </g>
    </g>
    <g id="xtick_4">
     <g id="line2d_7">
      <path d="M 342.939918 427.534 
L 342.939918 105.468 
" clip-path="url(#p8e1e1b25df)" style="fill: none; stroke: #b0b0b0; stroke-opacity: 0.3; stroke-width: 0.8; stroke-linecap: square"/>
     </g>
     <g id="line2d_8">
      <g>
       <use xlink:href="#m4b60e67a9a" x="342.939918" y="427.534" style="stroke: #000000; stroke-width: 0.8"/>
      </g>
     </g>
     <g id="text_4">
      <!-- 0.6 -->
      <g transform="translate(334.988356 442.132438) scale(0.1 -0.1)">
       <defs>
        <path id="DejaVuSans-36" d="M 2113 2584 
Q 1688 2584 1439 2293 
Q 1191 2003 1191 1497 
Q 1191 994 1439 701 
Q 1688 409 2113 409 
Q 2538 409 2786 701 
Q 3034 994 3034 1497 
Q 3034 2003 2786 2293 
Q 2538 2584 2113 2584 
z
M 3366 4563 
L 3366 3988 
Q 3128 4100 2886 4159 
Q 2644 4219 2406 4219 
Q 1781 4219 1451 3797 
Q 1122 3375 1075 2522 
Q 1259 2794 1537 2939 
Q 1816 3084 2150 3084 
Q 2853 3084 3261 2657 
Q 3669 2231 3669 1497 
Q 3669 778 3244 343 
Q 2819 -91 2113 -91 
Q 1303 -91 875 529 
Q 447 1150 447 2328 
Q 447 3434 972 4092 
Q 1497 4750 2381 4750 
Q 2619 4750 2861 4703 
Q 3103 4656 3366 4563 
z
" transform="scale(0.015625)"/>
       </defs>
       <use xlink:href="#DejaVuSans-30"/>
       <use xlink:href="#DejaVuSans-2e" transform="translate(63.623047 0)"/>
       <use xlink:href="#DejaVuSans-36" transform="translate(95.410156 0)"/>
      </g>
     </g>
    </g>
    <g id="xtick_5">
     <g id="line2d_9">
      <path d="M 429.987969 427.534 
L 429.987969 105.468 
" clip-path="url(#p8e1e1b25df)" style="fill: none; stroke: #b0b0b0; stroke-opacity: 0.3; stroke-width: 0.8; stroke-linecap: square"/>
     </g>
     <g id="line2d_10">
      <g>
       <use xlink:href="#m4b60e67a9a" x="429.987969" y="427.534" style="stroke: #000000; stroke-width: 0.8"/>
      </g>
     </g>
     <g id="text_5">
      <!-- 0.8 -->
      <g transform="translate(422.036406 442.132438) scale(0.1 -0.1)">
       <defs>
        <path id="DejaVuSans-38" d="M 2034 2216 
Q 1584 2216 1326 1975 
Q 1069 1734 1069 1313 
Q 1069 891 1326 650 
Q 1584 409 2034 409 
Q 2484 409 2743 651 
Q 3003 894 3003 1313 
Q 3003 1734 2745 1975 
Q 2488 2216 2034 2216 
z
M 1403 2484 
Q 997 2584 770 2862 
Q 544 3141 544 3541 
Q 544 4100 942 4425 
Q 1341 4750 2034 4750 
Q 2731 4750 3128 4425 
Q 3525 4100 3525 3541 
Q 3525 3141 3298 2862 
Q 3072 2584 2669 2484 
Q 3125 2378 3379 2068 
Q 3634 1759 3634 1313 
Q 3634 634 3220 271 
Q 2806 -91 2034 -91 
Q 1263 -91 848 271 
Q 434 634 434 1313 
Q 434 1759 690 2068 
Q 947 2378 1403 2484 
z
M 1172 3481 
Q 1172 3119 1398 2916 
Q 1625 2713 2034 2713 
Q 2441 2713 2670 2916 
Q 2900 3119 2900 3481 
Q 2900 3844 2670 4047 
Q 2441 4250 2034 4250 
Q 1625 4250 1398 4047 
Q 1172 3844 1172 3481 
z
" transform="scale(0.015625)"/>
       </defs>
       <use xlink:href="#DejaVuSans-30"/>
       <use xlink:href="#DejaVuSans-2e" transform="translate(63.623047 0)"/>
       <use xlink:href="#DejaVuSans-38" transform="translate(95.410156 0)"/>
      </g>
     </g>
    </g>
    <g id="xtick_6">
     <g id="line2d_11">
      <path d="M 517.036019 427.534 
L 517.036019 105.468 
" clip-path="url(#p8e1e1b25df)" style="fill: none; stroke: #b0b0b0; stroke-opacity: 0.3; stroke-width: 0.8; stroke-linecap: square"/>
     </g>
     <g id="line2d_12">
      <g>
       <use xlink:href="#m4b60e67a9a" x="517.036019" y="427.534" style="stroke: #000000; stroke-width: 0.8"/>
      </g>
     </g>
     <g id="text_6">
      <!-- 1.0 -->
      <g transform="translate(509.084457 442.132438) scale(0.1 -0.1)">
       <defs>
        <path id="DejaVuSans-31" d="M 794 531 
L 1825 531 
L 1825 4091 
L 703 3866 
L 703 4441 
L 1819 4666 
L 2450 4666 
L 2450 531 
L 3481 531 
L 3481 0 
L 794 0 
L 794 531 
z
" transform="scale(0.015625)"/>
       </defs>
       <use xlink:href="#DejaVuSans-31"/>
       <use xlink:href="#DejaVuSans-2e" transform="translate(63.623047 0)"/>
       <use xlink:href="#DejaVuSans-30" transform="translate(95.410156 0)"/>
      </g>
     </g>
    </g>
    <g id="text_7">
     <!-- Time (hours) -->
     <g transform="translate(277.587812 457.33025) scale(0.12 -0.12)">
      <defs>
       <path id="DejaVuSans-54" d="M -19 4666 
L 3928 4666 
L 3928 4134 
L 2272 4134 
L 2272 0 
L 1638 0 
L 1638 4134 
L -19 4134 
L -19 4666 
z
" transform="scale(0.015625)"/>
       <path id="DejaVuSans-69" d="M 603 3500 
L 1178 3500 
L 1178 0 
L 603 0 
L 603 3500 
z
M 603 4863 
L 1178 4863 
L 1178 4134 
L 603 4134 
L 603 4863 
z
" transform="scale(0.015625)"/>
       <path id="DejaVuSans-6d" d="M 3328 2828 
Q 3544 3216 3844 3400 
Q 4144 3584 4550 3584 
Q 5097 3584 5394 3201 
Q 5691 2819 5691 2113 
L 5691 0 
L 5113 0 
L 5113 2094 
Q 5113 2597 4934 2840 
Q 4756 3084 4391 3084 
Q 3944 3084 3684 2787 
Q 3425 2491 3425 1978 
L 3425 0 
L 2847 0 
L 2847 2094 
Q 2847 2600 2669 2842 
Q 2491 3084 2119 3084 
Q 1678 3084 1418 2786 
Q 1159 2488 1159 1978 
L 1159 0 
L 581 0 
L 581 3500 
L 1159 3500 
L 1159 2956 
Q 1356 3278 1631 3431 
Q 1906 3584 2284 3584 
Q 2666 3584 2933 3390 
Q 3200 3197 3328 2828 
z
" transform="scale(0.015625)"/>
       <path id="DejaVuSans-65" d="M 3597 1894 
L 3597 1613 
L 953 1613 
Q 991 1019 1311 708 
Q 1631 397 2203 397 
Q 2534 397 2845 478 
Q 3156 559 3463 722 
L 3463 178 
Q 3153 47 2828 -22 
Q 2503 -91 2169 -91 
Q 1331 -91 842 396 
Q 353 884 353 1716 
Q 353 2575 817 3079 
Q 1281 3584 2069 3584 
Q 2775 3584 3186 3129 
Q 3597 2675 3597 1894 
z
M 3022 2063 
Q 3016 2534 2758 2815 
Q 2500 3097 2075 3097 
Q 1594 3097 1305 2825 
Q 1016 2553 972 2059 
L 3022 2063 
z
" transform="scale(0.015625)"/>
       <path id="DejaVuSans-20" transform="scale(0.015625)"/>
       <path id="DejaVuSans-28" d="M 1984 4856 
Q 1566 4138 1362 3434 
Q 1159 2731 1159 2009 
Q 1159 1288 1364 580 
Q 1569 -128 1984 -844 
L 1484 -844 
Q 1016 -109 783 600 
Q 550 1309 550 2009 
Q 550 2706 781 3412 
Q 1013 4119 1484 4856 
L 1984 4856 
z
" transform="scale(0.015625)"/>
       <path id="DejaVuSans-68" d="M 3513 2113 
L 3513 0 
L 2938 0 
L 2938 2094 
Q 2938 2591 2744 2837 
Q 2550 3084 2163 3084 
Q 1697 3084 1428 2787 
Q 1159 2491 1159 1978 
L 1159 0 
L 581 0 
L 581 4863 
L 1159 4863 
L 1159 2956 
Q 1366 3272 1645 3428 
Q 1925 3584 2291 3584 
Q 2894 3584 3203 3211 
Q 3513 2838 3513 2113 
z
" transform="scale(0.015625)"/>
       <path id="DejaVuSans-6f" d="M 1959 3097 
Q 1497 3097 1228 2736 
Q 959 2375 959 1747 
Q 959 1119 1226 758 
Q 1494 397 1959 397 
Q 2419 397 2687 759 
Q 2956 1122 2956 1747 
Q 2956 2369 2687 2733 
Q 2419 3097 1959 3097 
z
M 1959 3584 
Q 2709 3584 3137 3096 
Q 3566 2609 3566 1747 
Q 3566 888 3137 398 
Q 2709 -91 1959 -91 
Q 1206 -91 779 398 
Q 353 888 353 1747 
Q 353 2609 779 3096 
Q 1206 3584 1959 3584 
z
" transform="scale(0.015625)"/>
       <path id="DejaVuSans-75" d="M 544 1381 
L 544 3500 
L 1119 3500 
L 1119 1403 
Q 1119 906 1312 657 
Q 1506 409 1894 409 
Q 2359 409 2629 706 
Q 2900 1003 2900 1516 
L 2900 3500 
L 3475 3500 
L 3475 0 
L 2900 0 
L 2900 538 
Q 2691 219 2414 64 
Q 2138 -91 1772 -91 
Q 1169 -91 856 284 
Q 544 659 544 1381 
z
M 1991 3584 
L 1991 3584 
z
" transform="scale(0.015625)"/>
       <path id="DejaVuSans-72" d="M 2631 2963 
Q 2534 3019 2420 3045 
Q 2306 3072 2169 3072 
Q 1681 3072 1420 2755 
Q 1159 2438 1159 1844 
L 1159 0 
L 581 0 
L 581 3500 
L 1159 3500 
L 1159 2956 
Q 1341 3275 1631 3429 
Q 1922 3584 2338 3584 
Q 2397 3584 2469 3576 
Q 2541 3569 2628 3553 
L 2631 2963 
z
" transform="scale(0.015625)"/>
       <path id="DejaVuSans-73" d="M 2834 3397 
L 2834 2853 
Q 2591 2978 2328 3040 
Q 2066 3103 1784 3103 
Q 1356 3103 1142 2972 
Q 928 2841 928 2578 
Q 928 2378 1081 2264 
Q 1234 2150 1697 2047 
L 1894 2003 
Q 2506 1872 2764 1633 
Q 3022 1394 3022 966 
Q 3022 478 2636 193 
Q 2250 -91 1575 -91 
Q 1294 -91 989 -36 
Q 684 19 347 128 
L 347 722 
Q 666 556 975 473 
Q 1284 391 1588 391 
Q 1994 391 2212 530 
Q 2431 669 2431 922 
Q 2431 1156 2273 1281 
Q 2116 1406 1581 1522 
L 1381 1569 
Q 847 1681 609 1914 
Q 372 2147 372 2553 
Q 372 3047 722 3315 
Q 1072 3584 1716 3584 
Q 2034 3584 2315 3537 
Q 2597 3491 2834 3397 
z
" transform="scale(0.015625)"/>
       <path id="DejaVuSans-29" d="M 513 4856 
L 1013 4856 
Q 1481 4119 1714 3412 
Q 1947 2706 1947 2009 
Q 1947 1309 1714 600 
Q 1481 -109 1013 -844 
L 513 -844 
Q 928 -128 1133 580 
Q 1338 1288 1338 2009 
Q 1338 2731 1133 3434 
Q 928 4138 513 4856 
z
" transform="scale(0.015625)"/>
      </defs>
      <use xlink:href="#DejaVuSans-54"/>
      <use xlink:href="#DejaVuSans-69" transform="translate(57.958984 0)"/>
      <use xlink:href="#DejaVuSans-6d" transform="translate(85.742188 0)"/>
      <use xlink:href="#DejaVuSans-65" transform="translate(183.154297 0)"/>
      <use xlink:href="#DejaVuSans-20" transform="translate(244.677734 0)"/>
      <use xlink:href="#DejaVuSans-28" transform="translate(276.464844 0)"/>
      <use xlink:href="#DejaVuSans-68" transform="translate(315.478516 0)"/>
      <use xlink:href="#DejaVuSans-6f" transform="translate(378.857422 0)"/>
      <use xlink:href="#DejaVuSans-75" transform="translate(440.039062 0)"/>
      <use xlink:href="#DejaVuSans-72" transform="translate(503.417969 0)"/>
      <use xlink:href="#DejaVuSans-73" transform="translate(544.53125 0)"/>
      <use xlink:href="#DejaVuSans-29" transform="translate(596.630859 0)"/>
     </g>
    </g>
   </g>
   <g id="matplotlib.axis_2">
    <g id="ytick_1">
     <g id="line2d_13">
      <path d="M 58.402813 412.894636 
L 573.047812 412.894636 
" clip-path="url(#p8e1e1b25df)" style="fill: none; stroke: #b0b0b0; stroke-opacity: 0.3; stroke-width: 0.8; stroke-linecap: square"/>
     </g>
     <g id="line2d_14">
      <defs>
       <path id="mfe81695b45" d="M 0 0 
L -3.5 0 
" style="stroke: #000000; stroke-width: 0.8"/>
      </defs>
      <g>
       <use xlink:href="#mfe81695b45" x="58.402813" y="412.894636" style="stroke: #000000; stroke-width: 0.8"/>
      </g>
     </g>
     <g id="text_8">
      <!-- 0.0 -->
      <g transform="translate(35.499688 416.693855) scale(0.1 -0.1)">
       <use xlink:href="#DejaVuSans-30"/>
       <use xlink:href="#DejaVuSans-2e" transform="translate(63.623047 0)"/>
       <use xlink:href="#DejaVuSans-30" transform="translate(95.410156 0)"/>
      </g>
     </g>
    </g>
    <g id="ytick_2">
     <g id="line2d_15">
      <path d="M 58.402813 354.337182 
L 573.047812 354.337182 
" clip-path="url(#p8e1e1b25df)" style="fill: none; stroke: #b0b0b0; stroke-opacity: 0.3; stroke-width: 0.8; stroke-linecap: square"/>
     </g>
     <g id="line2d_16">
      <g>
       <use xlink:href="#mfe81695b45" x="58.402813" y="354.337182" style="stroke: #000000; stroke-width: 0.8"/>
      </g>
     </g>
     <g id="text_9">
      <!-- 0.2 -->
      <g transform="translate(35.499688 358.136401) scale(0.1 -0.1)">
       <use xlink:href="#DejaVuSans-30"/>
       <use xlink:href="#DejaVuSans-2e" transform="translate(63.623047 0)"/>
       <use xlink:href="#DejaVuSans-32" transform="translate(95.410156 0)"/>
      </g>
     </g>
    </g>
    <g id="ytick_3">
     <g id="line2d_17">
      <path d="M 58.402813 295.779727 
L 573.047812 295.779727 
" clip-path="url(#p8e1e1b25df)" style="fill: none; stroke: #b0b0b0; stroke-opacity: 0.3; stroke-width: 0.8; stroke-linecap: square"/>
     </g>
     <g id="line2d_18">
      <g>
       <use xlink:href="#mfe81695b45" x="58.402813" y="295.779727" style="stroke: #000000; stroke-width: 0.8"/>
      </g>
     </g>
     <g id="text_10">
      <!-- 0.4 -->
      <g transform="translate(35.499688 299.578946) scale(0.1 -0.1)">
       <use xlink:href="#DejaVuSans-30"/>
       <use xlink:href="#DejaVuSans-2e" transform="translate(63.623047 0)"/>
       <use xlink:href="#DejaVuSans-34" transform="translate(95.410156 0)"/>
      </g>
     </g>
    </g>
    <g id="ytick_4">
     <g id="line2d_19">
      <path d="M 58.402813 237.222273 
L 573.047812 237.222273 
" clip-path="url(#p8e1e1b25df)" style="fill: none; stroke: #b0b0b0; stroke-opacity: 0.3; stroke-width: 0.8; stroke-linecap: square"/>
     </g>
     <g id="line2d_20">
      <g>
       <use xlink:href="#mfe81695b45" x="58.402813" y="237.222273" style="stroke: #000000; stroke-width: 0.8"/>
      </g>
     </g>
     <g id="text_11">
      <!-- 0.6 -->
      <g transform="translate(35.499688 241.021491) scale(0.1 -0.1)">
       <use xlink:href="#DejaVuSans-30"/>
       <use xlink:href="#DejaVuSans-2e" transform="translate(63.623047 0)"/>
       <use xlink:href="#DejaVuSans-36" transform="translate(95.410156 0)"/>
      </g>
     </g>
    </g>
    <g id="ytick_5">
     <g id="line2d_21">
      <path d="M 58.402813 178.664818 
L 573.047812 178.664818 
" clip-path="url(#p8e1e1b25df)" style="fill: none; stroke: #b0b0b0; stroke-opacity: 0.3; stroke-width: 0.8; stroke-linecap: square"/>
     </g>
     <g id="line2d_22">
      <g>
       <use xlink:href="#mfe81695b45" x="58.402813" y="178.664818" style="stroke: #000000; stroke-width: 0.8"/>
      </g>
     </g>
     <g id="text_12">
      <!-- 0.8 -->
      <g transform="translate(35.499688 182.464037) scale(0.1 -0.1)">
       <use xlink:href="#DejaVuSans-30"/>
       <use xlink:href="#DejaVuSans-2e" transform="translate(63.623047 0)"/>
       <use xlink:href="#DejaVuSans-38" transform="translate(95.410156 0)"/>
      </g>
     </g>
    </g>
    <g id="ytick_6">
     <g id="line2d_23">
      <path d="M 58.402813 120.107364 
L 573.047812 120.107364 
" clip-path="url(#p8e1e1b25df)" style="fill: none; stroke: #b0b0b0; stroke-opacity: 0.3; stroke-width: 0.8; stroke-linecap: square"/>
     </g>
     <g id="line2d_24">
      <g>
       <use xlink:href="#mfe81695b45" x="58.402813" y="120.107364" style="stroke: #000000; stroke-width: 0.8"/>
      </g>
     </g>
     <g id="text_13">
      <!-- 1.0 -->
      <g transform="translate(35.499688 123.906582) scale(0.1 -0.1)">
       <use xlink:href="#DejaVuSans-31"/>
       <use xlink:href="#DejaVuSans-2e" transform="translate(63.623047 0)"/>
       <use xlink:href="#DejaVuSans-30" transform="translate(95.410156 0)"/>
      </g>
     </g>
    </g>
    <g id="text_14">
     <!-- Cumulative Damage -->
     <g transform="translate(29.004062 327.971938) rotate(-90) scale(0.12 -0.12)">
      <defs>
       <path id="DejaVuSans-43" d="M 4122 4306 
L 4122 3641 
Q 3803 3938 3442 4084 
Q 3081 4231 2675 4231 
Q 1875 4231 1450 3742 
Q 1025 3253 1025 2328 
Q 1025 1406 1450 917 
Q 1875 428 2675 428 
Q 3081 428 3442 575 
Q 3803 722 4122 1019 
L 4122 359 
Q 3791 134 3420 21 
Q 3050 -91 2638 -91 
Q 1578 -91 968 557 
Q 359 1206 359 2328 
Q 359 3453 968 4101 
Q 1578 4750 2638 4750 
Q 3056 4750 3426 4639 
Q 3797 4528 4122 4306 
z
" transform="scale(0.015625)"/>
       <path id="DejaVuSans-6c" d="M 603 4863 
L 1178 4863 
L 1178 0 
L 603 0 
L 603 4863 
z
" transform="scale(0.015625)"/>
       <path id="DejaVuSans-61" d="M 2194 1759 
Q 1497 1759 1228 1600 
Q 959 1441 959 1056 
Q 959 750 1161 570 
Q 1363 391 1709 391 
Q 2188 391 2477 730 
Q 2766 1069 2766 1631 
L 2766 1759 
L 2194 1759 
z
M 3341 1997 
L 3341 0 
L 2766 0 
L 2766 531 
Q 2569 213 2275 61 
Q 1981 -91 1556 -91 
Q 1019 -91 701 211 
Q 384 513 384 1019 
Q 384 1609 779 1909 
Q 1175 2209 1959 2209 
L 2766 2209 
L 2766 2266 
Q 2766 2663 2505 2880 
Q 2244 3097 1772 3097 
Q 1472 3097 1187 3025 
Q 903 2953 641 2809 
L 641 3341 
Q 956 3463 1253 3523 
Q 1550 3584 1831 3584 
Q 2591 3584 2966 3190 
Q 3341 2797 3341 1997 
z
" transform="scale(0.015625)"/>
       <path id="DejaVuSans-74" d="M 1172 4494 
L 1172 3500 
L 2356 3500 
L 2356 3053 
L 1172 3053 
L 1172 1153 
Q 1172 725 1289 603 
Q 1406 481 1766 481 
L 2356 481 
L 2356 0 
L 1766 0 
Q 1100 0 847 248 
Q 594 497 594 1153 
L 594 3053 
L 172 3053 
L 172 3500 
L 594 3500 
L 594 4494 
L 1172 4494 
z
" transform="scale(0.015625)"/>
       <path id="DejaVuSans-76" d="M 191 3500 
L 800 3500 
L 1894 563 
L 2988 3500 
L 3597 3500 
L 2284 0 
L 1503 0 
L 191 3500 
z
" transform="scale(0.015625)"/>
       <path id="DejaVuSans-44" d="M 1259 4147 
L 1259 519 
L 2022 519 
Q 2988 519 3436 956 
Q 3884 1394 3884 2338 
Q 3884 3275 3436 3711 
Q 2988 4147 2022 4147 
L 1259 4147 
z
M 628 4666 
L 1925 4666 
Q 3281 4666 3915 4102 
Q 4550 3538 4550 2338 
Q 4550 1131 3912 565 
Q 3275 0 1925 0 
L 628 0 
L 628 4666 
z
" transform="scale(0.015625)"/>
       <path id="DejaVuSans-67" d="M 2906 1791 
Q 2906 2416 2648 2759 
Q 2391 3103 1925 3103 
Q 1463 3103 1205 2759 
Q 947 2416 947 1791 
Q 947 1169 1205 825 
Q 1463 481 1925 481 
Q 2391 481 2648 825 
Q 2906 1169 2906 1791 
z
M 3481 434 
Q 3481 -459 3084 -895 
Q 2688 -1331 1869 -1331 
Q 1566 -1331 1297 -1286 
Q 1028 -1241 775 -1147 
L 775 -588 
Q 1028 -725 1275 -790 
Q 1522 -856 1778 -856 
Q 2344 -856 2625 -561 
Q 2906 -266 2906 331 
L 2906 616 
Q 2728 306 2450 153 
Q 2172 0 1784 0 
Q 1141 0 747 490 
Q 353 981 353 1791 
Q 353 2603 747 3093 
Q 1141 3584 1784 3584 
Q 2172 3584 2450 3431 
Q 2728 3278 2906 2969 
L 2906 3500 
L 3481 3500 
L 3481 434 
z
" transform="scale(0.015625)"/>
      </defs>
      <use xlink:href="#DejaVuSans-43"/>
      <use xlink:href="#DejaVuSans-75" transform="translate(69.824219 0)"/>
      <use xlink:href="#DejaVuSans-6d" transform="translate(133.203125 0)"/>
      <use xlink:href="#DejaVuSans-75" transform="translate(230.615234 0)"/>
      <use xlink:href="#DejaVuSans-6c" transform="translate(293.994141 0)"/>
      <use xlink:href="#DejaVuSans-61" transform="translate(321.777344 0)"/>
      <use xlink:href="#DejaVuSans-74" transform="translate(383.056641 0)"/>
      <use xlink:href="#DejaVuSans-69" transform="translate(422.265625 0)"/>
      <use xlink:href="#DejaVuSans-76" transform="translate(450.048828 0)"/>
      <use xlink:href="#DejaVuSans-65" transform="translate(509.228516 0)"/>
      <use xlink:href="#DejaVuSans-20" transform="translate(570.751953 0)"/>
      <use xlink:href="#DejaVuSans-44" transform="translate(602.539062 0)"/>
      <use xlink:href="#DejaVuSans-61" transform="translate(679.541016 0)"/>
      <use xlink:href="#DejaVuSans-6d" transform="translate(740.820312 0)"/>
      <use xlink:href="#DejaVuSans-61" transform="translate(838.232422 0)"/>
      <use xlink:href="#DejaVuSans-67" transform="translate(899.511719 0)"/>
      <use xlink:href="#DejaVuSans-65" transform="translate(962.988281 0)"/>
     </g>
    </g>
   </g>
   <g id="line2d_25">
    <path d="M 81.795767 412.894636 
L 92.109294 410.851309 
L 102.422821 408.593866 
L 112.736348 406.122306 
L 123.049875 403.436629 
L 133.363402 400.536835 
L 143.676929 397.422925 
L 153.990456 394.094898 
L 165.241577 390.220123 
L 176.492697 386.090533 
L 187.743818 381.706125 
L 198.994938 377.066902 
L 210.246059 372.172861 
L 221.497179 367.024004 
L 232.748299 361.620331 
L 243.99942 355.961841 
L 255.25054 350.048534 
L 266.501661 343.880411 
L 277.752781 337.457471 
L 289.003901 330.779715 
L 300.255022 323.847142 
L 311.506142 316.659752 
L 322.757263 309.217546 
L 334.008383 301.520524 
L 345.259504 293.568685 
L 356.510624 285.362029 
L 368.699338 276.183932 
L 380.888052 266.706779 
L 393.076765 256.930571 
L 405.265479 246.855307 
L 417.454193 236.480988 
L 429.642907 225.807613 
L 441.831621 214.835183 
L 454.020334 203.563697 
L 466.209048 191.993155 
L 478.397762 180.123558 
L 490.586476 167.954906 
L 502.77519 155.487198 
L 514.963903 142.720434 
L 528.09021 128.637165 
L 535.590957 120.433861 
L 536.528551 120.107364 
L 549.654858 120.107364 
L 549.654858 120.107364 
" clip-path="url(#p8e1e1b25df)" style="fill: none; stroke: #2ca02c; stroke-width: 3; stroke-linecap: square"/>
   </g>
   <g id="line2d_26">
    <path d="M 58.402813 120.107364 
L 573.047812 120.107364 
" clip-path="url(#p8e1e1b25df)" style="fill: none; stroke-dasharray: 5.55,2.4; stroke-dashoffset: 0; stroke: #000000; stroke-opacity: 0.7; stroke-width: 1.5"/>
   </g>
   <g id="line2d_27">
    <path d="M 89.339931 427.534 
L 89.339931 105.468 
" clip-path="url(#p8e1e1b25df)" style="fill: none; stroke-dasharray: 5.55,2.4; stroke-dashoffset: 0; stroke: #ff0000; stroke-opacity: 0.5; stroke-width: 1.5"/>
   </g>
   <g id="patch_3">
    <path d="M 58.402813 427.534 
L 58.402813 105.468 
" style="fill: none; stroke: #000000; stroke-width: 0.8; stroke-linejoin: miter; stroke-linecap: square"/>
   </g>
   <g id="patch_4">
    <path d="M 573.047812 427.534 
L 573.047812 105.468 
" style="fill: none; stroke: #000000; stroke-width: 0.8; stroke-linejoin: miter; stroke-linecap: square"/>
   </g>
   <g id="patch_5">
    <path d="M 58.402812 427.534 
L 573.047812 427.534 
" style="fill: none; stroke: #000000; stroke-width: 0.8; stroke-linejoin: miter; stroke-linecap: square"/>
   </g>
   <g id="patch_6">
    <path d="M 58.402812 105.468 
L 573.047812 105.468 
" style="fill: none; stroke: #000000; stroke-width: 0.8; stroke-linejoin: miter; stroke-linecap: square"/>
   </g>
   <g id="text_15">
    <!-- Damage Accumulation vs Time -->
    <g transform="translate(206.898281 99.468) scale(0.14 -0.14)">
     <defs>
      <path id="DejaVuSans-41" d="M 2188 4044 
L 1331 1722 
L 3047 1722 
L 2188 4044 
z
M 1831 4666 
L 2547 4666 
L 4325 0 
L 3669 0 
L 3244 1197 
L 1141 1197 
L 716 0 
L 50 0 
L 1831 4666 
z
" transform="scale(0.015625)"/>
      <path id="DejaVuSans-63" d="M 3122 3366 
L 3122 2828 
Q 2878 2963 2633 3030 
Q 2388 3097 2138 3097 
Q 1578 3097 1268 2742 
Q 959 2388 959 1747 
Q 959 1106 1268 751 
Q 1578 397 2138 397 
Q 2388 397 2633 464 
Q 2878 531 3122 666 
L 3122 134 
Q 2881 22 2623 -34 
Q 2366 -91 2075 -91 
Q 1284 -91 818 406 
Q 353 903 353 1747 
Q 353 2603 823 3093 
Q 1294 3584 2113 3584 
Q 2378 3584 2631 3529 
Q 2884 3475 3122 3366 
z
" transform="scale(0.015625)"/>
      <path id="DejaVuSans-6e" d="M 3513 2113 
L 3513 0 
L 2938 0 
L 2938 2094 
Q 2938 2591 2744 2837 
Q 2550 3084 2163 3084 
Q 1697 3084 1428 2787 
Q 1159 2491 1159 1978 
L 1159 0 
L 581 0 
L 581 3500 
L 1159 3500 
L 1159 2956 
Q 1366 3272 1645 3428 
Q 1925 3584 2291 3584 
Q 2894 3584 3203 3211 
Q 3513 2838 3513 2113 
z
" transform="scale(0.015625)"/>
     </defs>
     <use xlink:href="#DejaVuSans-44"/>
     <use xlink:href="#DejaVuSans-61" transform="translate(77.001953 0)"/>
     <use xlink:href="#DejaVuSans-6d" transform="translate(138.28125 0)"/>
     <use xlink:href="#DejaVuSans-61" transform="translate(235.693359 0)"/>
     <use xlink:href="#DejaVuSans-67" transform="translate(296.972656 0)"/>
     <use xlink:href="#DejaVuSans-65" transform="translate(360.449219 0)"/>
     <use xlink:href="#DejaVuSans-20" transform="translate(421.972656 0)"/>
     <use xlink:href="#DejaVuSans-41" transform="translate(453.759766 0)"/>
     <use xlink:href="#DejaVuSans-63" transform="translate(520.417969 0)"/>
     <use xlink:href="#DejaVuSans-63" transform="translate(575.398438 0)"/>
     <use xlink:href="#DejaVuSans-75" transform="translate(630.378906 0)"/>
     <use xlink:href="#DejaVuSans-6d" transform="translate(693.757812 0)"/>
     <use xlink:href="#DejaVuSans-75" transform="translate(791.169922 0)"/>
     <use xlink:href="#DejaVuSans-6c" transform="translate(854.548828 0)"/>
     <use xlink:href="#DejaVuSans-61" transform="translate(882.332031 0)"/>
     <use xlink:href="#DejaVuSans-74" transform="translate(943.611328 0)"/>
     <use xlink:href="#DejaVuSans-69" transform="translate(982.820312 0)"/>
     <use xlink:href="#DejaVuSans-6f" transform="translate(1010.603516 0)"/>
     <use xlink:href="#DejaVuSans-6e" transform="translate(1071.785156 0)"/>
     <use xlink:href="#DejaVuSans-20" transform="translate(1135.164062 0)"/>
     <use xlink:href="#DejaVuSans-76" transform="translate(1166.951172 0)"/>
     <use xlink:href="#DejaVuSans-73" transform="translate(1226.130859 0)"/>
     <use xlink:href="#DejaVuSans-20" transform="translate(1278.230469 0)"/>
     <use xlink:href="#DejaVuSans-54" transform="translate(1310.017578 0)"/>
     <use xlink:href="#DejaVuSans-69" transform="translate(1367.976562 0)"/>
     <use xlink:href="#DejaVuSans-6d" transform="translate(1395.759766 0)"/>
     <use xlink:href="#DejaVuSans-65" transform="translate(1493.171875 0)"/>
    </g>
   </g>
   <g id="legend_1">
    <g id="patch_7">
     <path d="M 448.693125 422.534 
L 566.047812 422.534 
Q 568.047812 422.534 568.047812 420.534 
L 568.047812 406.855875 
Q 568.047812 404.855875 566.047812 404.855875 
L 448.693125 404.855875 
Q 446.693125 404.855875 446.693125 406.855875 
L 446.693125 420.534 
Q 446.693125 422.534 448.693125 422.534 
z
" style="fill: #ffffff; opacity: 0.8; stroke: #cccccc; stroke-linejoin: miter"/>
    </g>
    <g id="line2d_28">
     <path d="M 450.693125 412.954313 
L 460.693125 412.954313 
L 470.693125 412.954313 
" style="fill: none; stroke-dasharray: 5.55,2.4; stroke-dashoffset: 0; stroke: #000000; stroke-opacity: 0.7; stroke-width: 1.5"/>
    </g>
    <g id="text_16">
     <!-- Failure Threshold -->
     <g transform="translate(478.693125 416.454313) scale(0.1 -0.1)">
      <defs>
       <path id="DejaVuSans-46" d="M 628 4666 
L 3309 4666 
L 3309 4134 
L 1259 4134 
L 1259 2759 
L 3109 2759 
L 3109 2228 
L 1259 2228 
L 1259 0 
L 628 0 
L 628 4666 
z
" transform="scale(0.015625)"/>
       <path id="DejaVuSans-64" d="M 2906 2969 
L 2906 4863 
L 3481 4863 
L 3481 0 
L 2906 0 
L 2906 525 
Q 2725 213 2448 61 
Q 2172 -91 1784 -91 
Q 1150 -91 751 415 
Q 353 922 353 1747 
Q 353 2572 751 3078 
Q 1150 3584 1784 3584 
Q 2172 3584 2448 3432 
Q 2725 3281 2906 2969 
z
M 947 1747 
Q 947 1113 1208 752 
Q 1469 391 1925 391 
Q 2381 391 2643 752 
Q 2906 1113 2906 1747 
Q 2906 2381 2643 2742 
Q 2381 3103 1925 3103 
Q 1469 3103 1208 2742 
Q 947 2381 947 1747 
z
" transform="scale(0.015625)"/>
      </defs>
      <use xlink:href="#DejaVuSans-46"/>
      <use xlink:href="#DejaVuSans-61" transform="translate(48.394531 0)"/>
      <use xlink:href="#DejaVuSans-69" transform="translate(109.673828 0)"/>
      <use xlink:href="#DejaVuSans-6c" transform="translate(137.457031 0)"/>
      <use xlink:href="#DejaVuSans-75" transform="translate(165.240234 0)"/>
      <use xlink:href="#DejaVuSans-72" transform="translate(228.619141 0)"/>
      <use xlink:href="#DejaVuSans-65" transform="translate(267.482422 0)"/>
      <use xlink:href="#DejaVuSans-20" transform="translate(329.005859 0)"/>
      <use xlink:href="#DejaVuSans-54" transform="translate(360.792969 0)"/>
      <use xlink:href="#DejaVuSans-68" transform="translate(421.876953 0)"/>
      <use xlink:href="#DejaVuSans-72" transform="translate(485.255859 0)"/>
      <use xlink:href="#DejaVuSans-65" transform="translate(524.119141 0)"/>
      <use xlink:href="#DejaVuSans-73" transform="translate(585.642578 0)"/>
      <use xlink:href="#DejaVuSans-68" transform="translate(637.742188 0)"/>
      <use xlink:href="#DejaVuSans-6f" transform="translate(701.121094 0)"/>
      <use xlink:href="#DejaVuSans-6c" transform="translate(762.302734 0)"/>
      <use xlink:href="#DejaVuSans-64" transform="translate(790.085938 0)"/>
     </g>
    </g>
   </g>
  </g>
  <g id="axes_2">
   <g id="patch_8">
    <path d="M 622.702813 427.534 
L 1137.347813 427.534 
L 1137.347813 105.468 
L 622.702813 105.468 
z
" style="fill: #ffffff"/>
   </g>
   <g id="matplotlib.axis_3">
    <g id="xtick_7">
     <g id="line2d_29">
      <path d="M 646.095767 427.534 
L 646.095767 105.468 
" clip-path="url(#pf6acc00b88)" style="fill: none; stroke: #b0b0b0; stroke-opacity: 0.3; stroke-width: 0.8; stroke-linecap: square"/>
     </g>
     <g id="line2d_30">
      <g>
       <use xlink:href="#m4b60e67a9a" x="646.095767" y="427.534" style="stroke: #000000; stroke-width: 0.8"/>
      </g>
     </g>
     <g id="text_17">
      <!-- 0.0 -->
      <g transform="translate(638.144205 442.132438) scale(0.1 -0.1)">
       <use xlink:href="#DejaVuSans-30"/>
       <use xlink:href="#DejaVuSans-2e" transform="translate(63.623047 0)"/>
       <use xlink:href="#DejaVuSans-30" transform="translate(95.410156 0)"/>
      </g>
     </g>
    </g>
    <g id="xtick_8">
     <g id="line2d_31">
      <path d="M 733.143817 427.534 
L 733.143817 105.468 
" clip-path="url(#pf6acc00b88)" style="fill: none; stroke: #b0b0b0; stroke-opacity: 0.3; stroke-width: 0.8; stroke-linecap: square"/>
     </g>
     <g id="line2d_32">
      <g>
       <use xlink:href="#m4b60e67a9a" x="733.143817" y="427.534" style="stroke: #000000; stroke-width: 0.8"/>
      </g>
     </g>
     <g id="text_18">
      <!-- 0.2 -->
      <g transform="translate(725.192255 442.132438) scale(0.1 -0.1)">
       <use xlink:href="#DejaVuSans-30"/>
       <use xlink:href="#DejaVuSans-2e" transform="translate(63.623047 0)"/>
       <use xlink:href="#DejaVuSans-32" transform="translate(95.410156 0)"/>
      </g>
     </g>
    </g>
    <g id="xtick_9">
     <g id="line2d_33">
      <path d="M 820.191868 427.534 
L 820.191868 105.468 
" clip-path="url(#pf6acc00b88)" style="fill: none; stroke: #b0b0b0; stroke-opacity: 0.3; stroke-width: 0.8; stroke-linecap: square"/>
     </g>
     <g id="line2d_34">
      <g>
       <use xlink:href="#m4b60e67a9a" x="820.191868" y="427.534" style="stroke: #000000; stroke-width: 0.8"/>
      </g>
     </g>
     <g id="text_19">
      <!-- 0.4 -->
      <g transform="translate(812.240305 442.132438) scale(0.1 -0.1)">
       <use xlink:href="#DejaVuSans-30"/>
       <use xlink:href="#DejaVuSans-2e" transform="translate(63.623047 0)"/>
       <use xlink:href="#DejaVuSans-34" transform="translate(95.410156 0)"/>
      </g>
     </g>
    </g>
    <g id="xtick_10">
     <g id="line2d_35">
      <path d="M 907.239918 427.534 
L 907.239918 105.468 
" clip-path="url(#pf6acc00b88)" style="fill: none; stroke: #b0b0b0; stroke-opacity: 0.3; stroke-width: 0.8; stroke-linecap: square"/>
     </g>
     <g id="line2d_36">
      <g>
       <use xlink:href="#m4b60e67a9a" x="907.239918" y="427.534" style="stroke: #000000; stroke-width: 0.8"/>
      </g>
     </g>
     <g id="text_20">
      <!-- 0.6 -->
      <g transform="translate(899.288356 442.132438) scale(0.1 -0.1)">
       <use xlink:href="#DejaVuSans-30"/>
       <use xlink:href="#DejaVuSans-2e" transform="translate(63.623047 0)"/>
       <use xlink:href="#DejaVuSans-36" transform="translate(95.410156 0)"/>
      </g>
     </g>
    </g>
    <g id="xtick_11">
     <g id="line2d_37">
      <path d="M 994.287969 427.534 
L 994.287969 105.468 
" clip-path="url(#pf6acc00b88)" style="fill: none; stroke: #b0b0b0; stroke-opacity: 0.3; stroke-width: 0.8; stroke-linecap: square"/>
     </g>
     <g id="line2d_38">
      <g>
       <use xlink:href="#m4b60e67a9a" x="994.287969" y="427.534" style="stroke: #000000; stroke-width: 0.8"/>
      </g>
     </g>
     <g id="text_21">
      <!-- 0.8 -->
      <g transform="translate(986.336406 442.132438) scale(0.1 -0.1)">
       <use xlink:href="#DejaVuSans-30"/>
       <use xlink:href="#DejaVuSans-2e" transform="translate(63.623047 0)"/>
       <use xlink:href="#DejaVuSans-38" transform="translate(95.410156 0)"/>
      </g>
     </g>
    </g>
    <g id="xtick_12">
     <g id="line2d_39">
      <path d="M 1081.336019 427.534 
L 1081.336019 105.468 
" clip-path="url(#pf6acc00b88)" style="fill: none; stroke: #b0b0b0; stroke-opacity: 0.3; stroke-width: 0.8; stroke-linecap: square"/>
     </g>
     <g id="line2d_40">
      <g>
       <use xlink:href="#m4b60e67a9a" x="1081.336019" y="427.534" style="stroke: #000000; stroke-width: 0.8"/>
      </g>
     </g>
     <g id="text_22">
      <!-- 1.0 -->
      <g transform="translate(1073.384457 442.132438) scale(0.1 -0.1)">
       <use xlink:href="#DejaVuSans-31"/>
       <use xlink:href="#DejaVuSans-2e" transform="translate(63.623047 0)"/>
       <use xlink:href="#DejaVuSans-30" transform="translate(95.410156 0)"/>
      </g>
     </g>
    </g>
    <g id="text_23">
     <!-- Time (hours) -->
     <g transform="translate(841.887813 457.33025) scale(0.12 -0.12)">
      <use xlink:href="#DejaVuSans-54"/>
      <use xlink:href="#DejaVuSans-69" transform="translate(57.958984 0)"/>
      <use xlink:href="#DejaVuSans-6d" transform="translate(85.742188 0)"/>
      <use xlink:href="#DejaVuSans-65" transform="translate(183.154297 0)"/>
      <use xlink:href="#DejaVuSans-20" transform="translate(244.677734 0)"/>
      <use xlink:href="#DejaVuSans-28" transform="translate(276.464844 0)"/>
      <use xlink:href="#DejaVuSans-68" transform="translate(315.478516 0)"/>
      <use xlink:href="#DejaVuSans-6f" transform="translate(378.857422 0)"/>
      <use xlink:href="#DejaVuSans-75" transform="translate(440.039062 0)"/>
      <use xlink:href="#DejaVuSans-72" transform="translate(503.417969 0)"/>
      <use xlink:href="#DejaVuSans-73" transform="translate(544.53125 0)"/>
      <use xlink:href="#DejaVuSans-29" transform="translate(596.630859 0)"/>
     </g>
    </g>
   </g>
   <g id="matplotlib.axis_4">
    <g id="ytick_7">
     <g id="line2d_41">
      <path d="M 622.702813 412.894636 
L 1137.347813 412.894636 
" clip-path="url(#pf6acc00b88)" style="fill: none; stroke: #b0b0b0; stroke-opacity: 0.3; stroke-width: 0.8; stroke-linecap: square"/>
     </g>
     <g id="line2d_42">
      <g>
       <use xlink:href="#mfe81695b45" x="622.702813" y="412.894636" style="stroke: #000000; stroke-width: 0.8"/>
      </g>
     </g>
     <g id="text_24">
      <!-- 0.0 -->
      <g transform="translate(599.799688 416.693855) scale(0.1 -0.1)">
       <use xlink:href="#DejaVuSans-30"/>
       <use xlink:href="#DejaVuSans-2e" transform="translate(63.623047 0)"/>
       <use xlink:href="#DejaVuSans-30" transform="translate(95.410156 0)"/>
      </g>
     </g>
    </g>
    <g id="ytick_8">
     <g id="line2d_43">
      <path d="M 622.702813 357.240853 
L 1137.347813 357.240853 
" clip-path="url(#pf6acc00b88)" style="fill: none; stroke: #b0b0b0; stroke-opacity: 0.3; stroke-width: 0.8; stroke-linecap: square"/>
     </g>
     <g id="line2d_44">
      <g>
       <use xlink:href="#mfe81695b45" x="622.702813" y="357.240853" style="stroke: #000000; stroke-width: 0.8"/>
      </g>
     </g>
     <g id="text_25">
      <!-- 0.2 -->
      <g transform="translate(599.799688 361.040071) scale(0.1 -0.1)">
       <use xlink:href="#DejaVuSans-30"/>
       <use xlink:href="#DejaVuSans-2e" transform="translate(63.623047 0)"/>
       <use xlink:href="#DejaVuSans-32" transform="translate(95.410156 0)"/>
      </g>
     </g>
    </g>
    <g id="ytick_9">
     <g id="line2d_45">
      <path d="M 622.702813 301.587069 
L 1137.347813 301.587069 
" clip-path="url(#pf6acc00b88)" style="fill: none; stroke: #b0b0b0; stroke-opacity: 0.3; stroke-width: 0.8; stroke-linecap: square"/>
     </g>
     <g id="line2d_46">
      <g>
       <use xlink:href="#mfe81695b45" x="622.702813" y="301.587069" style="stroke: #000000; stroke-width: 0.8"/>
      </g>
     </g>
     <g id="text_26">
      <!-- 0.4 -->
      <g transform="translate(599.799688 305.386288) scale(0.1 -0.1)">
       <use xlink:href="#DejaVuSans-30"/>
       <use xlink:href="#DejaVuSans-2e" transform="translate(63.623047 0)"/>
       <use xlink:href="#DejaVuSans-34" transform="translate(95.410156 0)"/>
      </g>
     </g>
    </g>
    <g id="ytick_10">
     <g id="line2d_47">
      <path d="M 622.702813 245.933285 
L 1137.347813 245.933285 
" clip-path="url(#pf6acc00b88)" style="fill: none; stroke: #b0b0b0; stroke-opacity: 0.3; stroke-width: 0.8; stroke-linecap: square"/>
     </g>
     <g id="line2d_48">
      <g>
       <use xlink:href="#mfe81695b45" x="622.702813" y="245.933285" style="stroke: #000000; stroke-width: 0.8"/>
      </g>
     </g>
     <g id="text_27">
      <!-- 0.6 -->
      <g transform="translate(599.799688 249.732504) scale(0.1 -0.1)">
       <use xlink:href="#DejaVuSans-30"/>
       <use xlink:href="#DejaVuSans-2e" transform="translate(63.623047 0)"/>
       <use xlink:href="#DejaVuSans-36" transform="translate(95.410156 0)"/>
      </g>
     </g>
    </g>
    <g id="ytick_11">
     <g id="line2d_49">
      <path d="M 622.702813 190.279501 
L 1137.347813 190.279501 
" clip-path="url(#pf6acc00b88)" style="fill: none; stroke: #b0b0b0; stroke-opacity: 0.3; stroke-width: 0.8; stroke-linecap: square"/>
     </g>
     <g id="line2d_50">
      <g>
       <use xlink:href="#mfe81695b45" x="622.702813" y="190.279501" style="stroke: #000000; stroke-width: 0.8"/>
      </g>
     </g>
     <g id="text_28">
      <!-- 0.8 -->
      <g transform="translate(599.799688 194.07872) scale(0.1 -0.1)">
       <use xlink:href="#DejaVuSans-30"/>
       <use xlink:href="#DejaVuSans-2e" transform="translate(63.623047 0)"/>
       <use xlink:href="#DejaVuSans-38" transform="translate(95.410156 0)"/>
      </g>
     </g>
    </g>
    <g id="ytick_12">
     <g id="line2d_51">
      <path d="M 622.702813 134.625718 
L 1137.347813 134.625718 
" clip-path="url(#pf6acc00b88)" style="fill: none; stroke: #b0b0b0; stroke-opacity: 0.3; stroke-width: 0.8; stroke-linecap: square"/>
     </g>
     <g id="line2d_52">
      <g>
       <use xlink:href="#mfe81695b45" x="622.702813" y="134.625718" style="stroke: #000000; stroke-width: 0.8"/>
      </g>
     </g>
     <g id="text_29">
      <!-- 1.0 -->
      <g transform="translate(599.799688 138.424936) scale(0.1 -0.1)">
       <use xlink:href="#DejaVuSans-31"/>
       <use xlink:href="#DejaVuSans-2e" transform="translate(63.623047 0)"/>
       <use xlink:href="#DejaVuSans-30" transform="translate(95.410156 0)"/>
      </g>
     </g>
    </g>
    <g id="text_30">
     <!-- RUL (hours) -->
     <g transform="translate(593.304062 301.861625) rotate(-90) scale(0.12 -0.12)">
      <defs>
       <path id="DejaVuSans-52" d="M 2841 2188 
Q 3044 2119 3236 1894 
Q 3428 1669 3622 1275 
L 4263 0 
L 3584 0 
L 2988 1197 
Q 2756 1666 2539 1819 
Q 2322 1972 1947 1972 
L 1259 1972 
L 1259 0 
L 628 0 
L 628 4666 
L 2053 4666 
Q 2853 4666 3247 4331 
Q 3641 3997 3641 3322 
Q 3641 2881 3436 2590 
Q 3231 2300 2841 2188 
z
M 1259 4147 
L 1259 2491 
L 2053 2491 
Q 2509 2491 2742 2702 
Q 2975 2913 2975 3322 
Q 2975 3731 2742 3939 
Q 2509 4147 2053 4147 
L 1259 4147 
z
" transform="scale(0.015625)"/>
       <path id="DejaVuSans-55" d="M 556 4666 
L 1191 4666 
L 1191 1831 
Q 1191 1081 1462 751 
Q 1734 422 2344 422 
Q 2950 422 3222 751 
Q 3494 1081 3494 1831 
L 3494 4666 
L 4128 4666 
L 4128 1753 
Q 4128 841 3676 375 
Q 3225 -91 2344 -91 
Q 1459 -91 1007 375 
Q 556 841 556 1753 
L 556 4666 
z
" transform="scale(0.015625)"/>
       <path id="DejaVuSans-4c" d="M 628 4666 
L 1259 4666 
L 1259 531 
L 3531 531 
L 3531 0 
L 628 0 
L 628 4666 
z
" transform="scale(0.015625)"/>
      </defs>
      <use xlink:href="#DejaVuSans-52"/>
      <use xlink:href="#DejaVuSans-55" transform="translate(69.482422 0)"/>
      <use xlink:href="#DejaVuSans-4c" transform="translate(142.675781 0)"/>
      <use xlink:href="#DejaVuSans-20" transform="translate(198.388672 0)"/>
      <use xlink:href="#DejaVuSans-28" transform="translate(230.175781 0)"/>
      <use xlink:href="#DejaVuSans-68" transform="translate(269.189453 0)"/>
      <use xlink:href="#DejaVuSans-6f" transform="translate(332.568359 0)"/>
      <use xlink:href="#DejaVuSans-75" transform="translate(393.75 0)"/>
      <use xlink:href="#DejaVuSans-72" transform="translate(457.128906 0)"/>
      <use xlink:href="#DejaVuSans-73" transform="translate(498.242188 0)"/>
      <use xlink:href="#DejaVuSans-29" transform="translate(550.341797 0)"/>
     </g>
    </g>
   </g>
   <g id="line2d_53">
    <path d="M 646.095767 120.107829 
L 688.287469 149.017148 
L 728.603983 176.37516 
L 767.045312 202.195478 
L 803.611453 226.492152 
L 838.302408 249.279693 
L 871.118175 270.573094 
L 902.058757 290.38784 
L 931.124151 308.739914 
L 958.314359 325.645773 
L 983.62938 341.122291 
L 1006.131621 354.629545 
L 1026.758675 366.765861 
L 1045.510542 377.552284 
L 1062.387223 387.010244 
L 1077.388717 395.160736 
L 1089.57743 401.542736 
L 1099.890957 406.70597 
L 1106.454111 409.789215 
L 1112.079671 412.200931 
L 1113.954858 412.894636 
L 1113.954858 412.894636 
" clip-path="url(#pf6acc00b88)" style="fill: none; stroke: #1f77b4; stroke-width: 3; stroke-linecap: square"/>
   </g>
   <g id="line2d_54">
    <path d="M 646.095767 120.107364 
L 654.534107 137.832172 
L 662.972448 155.052646 
L 670.473195 169.900308 
L 677.973942 184.287191 
L 685.474689 198.191181 
L 692.975435 211.594726 
L 699.538589 222.901821 
L 706.101743 233.809311 
L 712.664896 244.313164 
L 719.22805 254.411425 
L 725.791203 264.104055 
L 732.354357 273.392758 
L 738.917511 282.280814 
L 745.480664 290.772908 
L 752.043818 298.874967 
L 758.606971 306.594004 
L 765.170125 313.937968 
L 771.733278 320.915601 
L 778.296432 327.536305 
L 784.859586 333.810022 
L 791.422739 339.747117 
L 797.985893 345.358279 
L 804.549046 350.654423 
L 811.1122 355.64661 
L 817.675353 360.345969 
L 824.238507 364.763632 
L 830.801661 368.910676 
L 837.364814 372.79807 
L 843.927968 376.436636 
L 850.491121 379.837006 
L 857.054275 383.009597 
L 864.555022 386.369538 
L 872.055769 389.460006 
L 879.556516 392.295277 
L 887.057263 394.88912 
L 894.55801 397.254782 
L 902.058757 399.40498 
L 910.497097 401.581552 
L 918.935437 403.517364 
L 927.373778 405.228105 
L 935.812118 406.728632 
L 945.188052 408.166391 
L 954.563985 409.380073 
L 964.877512 410.476535 
L 975.191039 411.343423 
L 986.44216 412.050181 
L 997.69328 412.530294 
L 1009.881994 412.819014 
L 1023.008301 412.894636 
L 1113.954858 412.894636 
L 1113.954858 412.894636 
" clip-path="url(#pf6acc00b88)" style="fill: none; stroke: #ff7f0e; stroke-width: 3; stroke-linecap: square"/>
   </g>
   <g id="line2d_55">
    <path d="M 653.639931 427.534 
L 653.639931 105.468 
" clip-path="url(#pf6acc00b88)" style="fill: none; stroke-dasharray: 5.55,2.4; stroke-dashoffset: 0; stroke: #ff0000; stroke-opacity: 0.5; stroke-width: 1.5"/>
   </g>
   <g id="patch_9">
    <path d="M 622.702813 427.534 
L 622.702813 105.468 
" style="fill: none; stroke: #000000; stroke-width: 0.8; stroke-linejoin: miter; stroke-linecap: square"/>
   </g>
   <g id="patch_10">
    <path d="M 1137.347813 427.534 
L 1137.347813 105.468 
" style="fill: none; stroke: #000000; stroke-width: 0.8; stroke-linejoin: miter; stroke-linecap: square"/>
   </g>
   <g id="patch_11">
    <path d="M 622.702813 427.534 
L 1137.347813 427.534 
" style="fill: none; stroke: #000000; stroke-width: 0.8; stroke-linejoin: miter; stroke-linecap: square"/>
   </g>
   <g id="patch_12">
    <path d="M 622.702813 105.468 
L 1137.347813 105.468 
" style="fill: none; stroke: #000000; stroke-width: 0.8; stroke-linejoin: miter; stroke-linecap: square"/>
   </g>
   <g id="text_31">
    <!-- Remaining Useful Life vs Time -->
    <g transform="translate(774.501406 99.468) scale(0.14 -0.14)">
     <defs>
      <path id="DejaVuSans-66" d="M 2375 4863 
L 2375 4384 
L 1825 4384 
Q 1516 4384 1395 4259 
Q 1275 4134 1275 3809 
L 1275 3500 
L 2222 3500 
L 2222 3053 
L 1275 3053 
L 1275 0 
L 697 0 
L 697 3053 
L 147 3053 
L 147 3500 
L 697 3500 
L 697 3744 
Q 697 4328 969 4595 
Q 1241 4863 1831 4863 
L 2375 4863 
z
" transform="scale(0.015625)"/>
     </defs>
     <use xlink:href="#DejaVuSans-52"/>
     <use xlink:href="#DejaVuSans-65" transform="translate(64.982422 0)"/>
     <use xlink:href="#DejaVuSans-6d" transform="translate(126.505859 0)"/>
     <use xlink:href="#DejaVuSans-61" transform="translate(223.917969 0)"/>
     <use xlink:href="#DejaVuSans-69" transform="translate(285.197266 0)"/>
     <use xlink:href="#DejaVuSans-6e" transform="translate(312.980469 0)"/>
     <use xlink:href="#DejaVuSans-69" transform="translate(376.359375 0)"/>
     <use xlink:href="#DejaVuSans-6e" transform="translate(404.142578 0)"/>
     <use xlink:href="#DejaVuSans-67" transform="translate(467.521484 0)"/>
     <use xlink:href="#DejaVuSans-20" transform="translate(530.998047 0)"/>
     <use xlink:href="#DejaVuSans-55" transform="translate(562.785156 0)"/>
     <use xlink:href="#DejaVuSans-73" transform="translate(635.978516 0)"/>
     <use xlink:href="#DejaVuSans-65" transform="translate(688.078125 0)"/>
     <use xlink:href="#DejaVuSans-66" transform="translate(749.601562 0)"/>
     <use xlink:href="#DejaVuSans-75" transform="translate(784.806641 0)"/>
     <use xlink:href="#DejaVuSans-6c" transform="translate(848.185547 0)"/>
     <use xlink:href="#DejaVuSans-20" transform="translate(875.96875 0)"/>
     <use xlink:href="#DejaVuSans-4c" transform="translate(907.755859 0)"/>
     <use xlink:href="#DejaVuSans-69" transform="translate(963.46875 0)"/>
     <use xlink:href="#DejaVuSans-66" transform="translate(991.251953 0)"/>
     <use xlink:href="#DejaVuSans-65" transform="translate(1026.457031 0)"/>
     <use xlink:href="#DejaVuSans-20" transform="translate(1087.980469 0)"/>
     <use xlink:href="#DejaVuSans-76" transform="translate(1119.767578 0)"/>
     <use xlink:href="#DejaVuSans-73" transform="translate(1178.947266 0)"/>
     <use xlink:href="#DejaVuSans-20" transform="translate(1231.046875 0)"/>
     <use xlink:href="#DejaVuSans-54" transform="translate(1262.833984 0)"/>
     <use xlink:href="#DejaVuSans-69" transform="translate(1320.792969 0)"/>
     <use xlink:href="#DejaVuSans-6d" transform="translate(1348.576172 0)"/>
     <use xlink:href="#DejaVuSans-65" transform="translate(1445.988281 0)"/>
    </g>
   </g>
   <g id="legend_2">
    <g id="patch_13">
     <path d="M 953.649375 142.82425 
L 1130.347813 142.82425 
Q 1132.347813 142.82425 1132.347813 140.82425 
L 1132.347813 112.468 
Q 1132.347813 110.468 1130.347813 110.468 
L 953.649375 110.468 
Q 951.649375 110.468 951.649375 112.468 
L 951.649375 140.82425 
Q 951.649375 142.82425 953.649375 142.82425 
z
" style="fill: #ffffff; opacity: 0.8; stroke: #cccccc; stroke-linejoin: miter"/>
    </g>
    <g id="line2d_56">
     <path d="M 955.649375 118.566438 
L 965.649375 118.566438 
L 975.649375 118.566438 
" style="fill: none; stroke: #1f77b4; stroke-width: 3; stroke-linecap: square"/>
    </g>
    <g id="text_32">
     <!-- Linear Model -->
     <g transform="translate(983.649375 122.066438) scale(0.1 -0.1)">
      <defs>
       <path id="DejaVuSans-4d" d="M 628 4666 
L 1569 4666 
L 2759 1491 
L 3956 4666 
L 4897 4666 
L 4897 0 
L 4281 0 
L 4281 4097 
L 3078 897 
L 2444 897 
L 1241 4097 
L 1241 0 
L 628 0 
L 628 4666 
z
" transform="scale(0.015625)"/>
      </defs>
      <use xlink:href="#DejaVuSans-4c"/>
      <use xlink:href="#DejaVuSans-69" transform="translate(55.712891 0)"/>
      <use xlink:href="#DejaVuSans-6e" transform="translate(83.496094 0)"/>
      <use xlink:href="#DejaVuSans-65" transform="translate(146.875 0)"/>
      <use xlink:href="#DejaVuSans-61" transform="translate(208.398438 0)"/>
      <use xlink:href="#DejaVuSans-72" transform="translate(269.677734 0)"/>
      <use xlink:href="#DejaVuSans-20" transform="translate(310.791016 0)"/>
      <use xlink:href="#DejaVuSans-4d" transform="translate(342.578125 0)"/>
      <use xlink:href="#DejaVuSans-6f" transform="translate(428.857422 0)"/>
      <use xlink:href="#DejaVuSans-64" transform="translate(490.039062 0)"/>
      <use xlink:href="#DejaVuSans-65" transform="translate(553.515625 0)"/>
      <use xlink:href="#DejaVuSans-6c" transform="translate(615.039062 0)"/>
     </g>
    </g>
    <g id="line2d_57">
     <path d="M 955.649375 133.244563 
L 965.649375 133.244563 
L 975.649375 133.244563 
" style="fill: none; stroke: #ff7f0e; stroke-width: 3; stroke-linecap: square"/>
    </g>
    <g id="text_33">
     <!-- Feedback Model (Factor: 3.0) -->
     <g transform="translate(983.649375 136.744563) scale(0.1 -0.1)">
      <defs>
       <path id="DejaVuSans-62" d="M 3116 1747 
Q 3116 2381 2855 2742 
Q 2594 3103 2138 3103 
Q 1681 3103 1420 2742 
Q 1159 2381 1159 1747 
Q 1159 1113 1420 752 
Q 1681 391 2138 391 
Q 2594 391 2855 752 
Q 3116 1113 3116 1747 
z
M 1159 2969 
Q 1341 3281 1617 3432 
Q 1894 3584 2278 3584 
Q 2916 3584 3314 3078 
Q 3713 2572 3713 1747 
Q 3713 922 3314 415 
Q 2916 -91 2278 -91 
Q 1894 -91 1617 61 
Q 1341 213 1159 525 
L 1159 0 
L 581 0 
L 581 4863 
L 1159 4863 
L 1159 2969 
z
" transform="scale(0.015625)"/>
       <path id="DejaVuSans-6b" d="M 581 4863 
L 1159 4863 
L 1159 1991 
L 2875 3500 
L 3609 3500 
L 1753 1863 
L 3688 0 
L 2938 0 
L 1159 1709 
L 1159 0 
L 581 0 
L 581 4863 
z
" transform="scale(0.015625)"/>
       <path id="DejaVuSans-3a" d="M 750 794 
L 1409 794 
L 1409 0 
L 750 0 
L 750 794 
z
M 750 3309 
L 1409 3309 
L 1409 2516 
L 750 2516 
L 750 3309 
z
" transform="scale(0.015625)"/>
       <path id="DejaVuSans-33" d="M 2597 2516 
Q 3050 2419 3304 2112 
Q 3559 1806 3559 1356 
Q 3559 666 3084 287 
Q 2609 -91 1734 -91 
Q 1441 -91 1130 -33 
Q 819 25 488 141 
L 488 750 
Q 750 597 1062 519 
Q 1375 441 1716 441 
Q 2309 441 2620 675 
Q 2931 909 2931 1356 
Q 2931 1769 2642 2001 
Q 2353 2234 1838 2234 
L 1294 2234 
L 1294 2753 
L 1863 2753 
Q 2328 2753 2575 2939 
Q 2822 3125 2822 3475 
Q 2822 3834 2567 4026 
Q 2313 4219 1838 4219 
Q 1578 4219 1281 4162 
Q 984 4106 628 3988 
L 628 4550 
Q 988 4650 1302 4700 
Q 1616 4750 1894 4750 
Q 2613 4750 3031 4423 
Q 3450 4097 3450 3541 
Q 3450 3153 3228 2886 
Q 3006 2619 2597 2516 
z
" transform="scale(0.015625)"/>
      </defs>
      <use xlink:href="#DejaVuSans-46"/>
      <use xlink:href="#DejaVuSans-65" transform="translate(52.019531 0)"/>
      <use xlink:href="#DejaVuSans-65" transform="translate(113.542969 0)"/>
      <use xlink:href="#DejaVuSans-64" transform="translate(175.066406 0)"/>
      <use xlink:href="#DejaVuSans-62" transform="translate(238.542969 0)"/>
      <use xlink:href="#DejaVuSans-61" transform="translate(302.019531 0)"/>
      <use xlink:href="#DejaVuSans-63" transform="translate(363.298828 0)"/>
      <use xlink:href="#DejaVuSans-6b" transform="translate(418.279297 0)"/>
      <use xlink:href="#DejaVuSans-20" transform="translate(476.189453 0)"/>
      <use xlink:href="#DejaVuSans-4d" transform="translate(507.976562 0)"/>
      <use xlink:href="#DejaVuSans-6f" transform="translate(594.255859 0)"/>
      <use xlink:href="#DejaVuSans-64" transform="translate(655.4375 0)"/>
      <use xlink:href="#DejaVuSans-65" transform="translate(718.914062 0)"/>
      <use xlink:href="#DejaVuSans-6c" transform="translate(780.4375 0)"/>
      <use xlink:href="#DejaVuSans-20" transform="translate(808.220703 0)"/>
      <use xlink:href="#DejaVuSans-28" transform="translate(840.007812 0)"/>
      <use xlink:href="#DejaVuSans-46" transform="translate(879.021484 0)"/>
      <use xlink:href="#DejaVuSans-61" transform="translate(927.416016 0)"/>
      <use xlink:href="#DejaVuSans-63" transform="translate(988.695312 0)"/>
      <use xlink:href="#DejaVuSans-74" transform="translate(1043.675781 0)"/>
      <use xlink:href="#DejaVuSans-6f" transform="translate(1082.884766 0)"/>
      <use xlink:href="#DejaVuSans-72" transform="translate(1144.066406 0)"/>
      <use xlink:href="#DejaVuSans-3a" transform="translate(1183.429688 0)"/>
      <use xlink:href="#DejaVuSans-20" transform="translate(1217.121094 0)"/>
      <use xlink:href="#DejaVuSans-33" transform="translate(1248.908203 0)"/>
      <use xlink:href="#DejaVuSans-2e" transform="translate(1312.53125 0)"/>
      <use xlink:href="#DejaVuSans-30" transform="translate(1344.318359 0)"/>
      <use xlink:href="#DejaVuSans-29" transform="translate(1407.941406 0)"/>
     </g>
    </g>
   </g>
  </g>
  <g id="axes_3">
   <g id="patch_14">
    <path d="M 58.402813 810.16 
L 573.047812 810.16 
L 573.047812 488.094 
L 58.402813 488.094 
z
" style="fill: #ffffff"/>
   </g>
   <g id="matplotlib.axis_5">
    <g id="xtick_13">
     <g id="line2d_58">
      <path d="M 81.795767 810.16 
L 81.795767 488.094 
" clip-path="url(#p6e255845e4)" style="fill: none; stroke: #b0b0b0; stroke-opacity: 0.3; stroke-width: 0.8; stroke-linecap: square"/>
     </g>
     <g id="line2d_59">
      <g>
       <use xlink:href="#m4b60e67a9a" x="81.795767" y="810.16" style="stroke: #000000; stroke-width: 0.8"/>
      </g>
     </g>
     <g id="text_34">
      <!-- 0.0 -->
      <g transform="translate(73.844205 824.758438) scale(0.1 -0.1)">
       <use xlink:href="#DejaVuSans-30"/>
       <use xlink:href="#DejaVuSans-2e" transform="translate(63.623047 0)"/>
       <use xlink:href="#DejaVuSans-30" transform="translate(95.410156 0)"/>
      </g>
     </g>
    </g>
    <g id="xtick_14">
     <g id="line2d_60">
      <path d="M 168.843817 810.16 
L 168.843817 488.094 
" clip-path="url(#p6e255845e4)" style="fill: none; stroke: #b0b0b0; stroke-opacity: 0.3; stroke-width: 0.8; stroke-linecap: square"/>
     </g>
     <g id="line2d_61">
      <g>
       <use xlink:href="#m4b60e67a9a" x="168.843817" y="810.16" style="stroke: #000000; stroke-width: 0.8"/>
      </g>
     </g>
     <g id="text_35">
      <!-- 0.2 -->
      <g transform="translate(160.892255 824.758438) scale(0.1 -0.1)">
       <use xlink:href="#DejaVuSans-30"/>
       <use xlink:href="#DejaVuSans-2e" transform="translate(63.623047 0)"/>
       <use xlink:href="#DejaVuSans-32" transform="translate(95.410156 0)"/>
      </g>
     </g>
    </g>
    <g id="xtick_15">
     <g id="line2d_62">
      <path d="M 255.891868 810.16 
L 255.891868 488.094 
" clip-path="url(#p6e255845e4)" style="fill: none; stroke: #b0b0b0; stroke-opacity: 0.3; stroke-width: 0.8; stroke-linecap: square"/>
     </g>
     <g id="line2d_63">
      <g>
       <use xlink:href="#m4b60e67a9a" x="255.891868" y="810.16" style="stroke: #000000; stroke-width: 0.8"/>
      </g>
     </g>
     <g id="text_36">
      <!-- 0.4 -->
      <g transform="translate(247.940305 824.758438) scale(0.1 -0.1)">
       <use xlink:href="#DejaVuSans-30"/>
       <use xlink:href="#DejaVuSans-2e" transform="translate(63.623047 0)"/>
       <use xlink:href="#DejaVuSans-34" transform="translate(95.410156 0)"/>
      </g>
     </g>
    </g>
    <g id="xtick_16">
     <g id="line2d_64">
      <path d="M 342.939918 810.16 
L 342.939918 488.094 
" clip-path="url(#p6e255845e4)" style="fill: none; stroke: #b0b0b0; stroke-opacity: 0.3; stroke-width: 0.8; stroke-linecap: square"/>
     </g>
     <g id="line2d_65">
      <g>
       <use xlink:href="#m4b60e67a9a" x="342.939918" y="810.16" style="stroke: #000000; stroke-width: 0.8"/>
      </g>
     </g>
     <g id="text_37">
      <!-- 0.6 -->
      <g transform="translate(334.988356 824.758438) scale(0.1 -0.1)">
       <use xlink:href="#DejaVuSans-30"/>
       <use xlink:href="#DejaVuSans-2e" transform="translate(63.623047 0)"/>
       <use xlink:href="#DejaVuSans-36" transform="translate(95.410156 0)"/>
      </g>
     </g>
    </g>
    <g id="xtick_17">
     <g id="line2d_66">
      <path d="M 429.987969 810.16 
L 429.987969 488.094 
" clip-path="url(#p6e255845e4)" style="fill: none; stroke: #b0b0b0; stroke-opacity: 0.3; stroke-width: 0.8; stroke-linecap: square"/>
     </g>
     <g id="line2d_67">
      <g>
       <use xlink:href="#m4b60e67a9a" x="429.987969" y="810.16" style="stroke: #000000; stroke-width: 0.8"/>
      </g>
     </g>
     <g id="text_38">
      <!-- 0.8 -->
      <g transform="translate(422.036406 824.758438) scale(0.1 -0.1)">
       <use xlink:href="#DejaVuSans-30"/>
       <use xlink:href="#DejaVuSans-2e" transform="translate(63.623047 0)"/>
       <use xlink:href="#DejaVuSans-38" transform="translate(95.410156 0)"/>
      </g>
     </g>
    </g>
    <g id="xtick_18">
     <g id="line2d_68">
      <path d="M 517.036019 810.16 
L 517.036019 488.094 
" clip-path="url(#p6e255845e4)" style="fill: none; stroke: #b0b0b0; stroke-opacity: 0.3; stroke-width: 0.8; stroke-linecap: square"/>
     </g>
     <g id="line2d_69">
      <g>
       <use xlink:href="#m4b60e67a9a" x="517.036019" y="810.16" style="stroke: #000000; stroke-width: 0.8"/>
      </g>
     </g>
     <g id="text_39">
      <!-- 1.0 -->
      <g transform="translate(509.084457 824.758438) scale(0.1 -0.1)">
       <use xlink:href="#DejaVuSans-31"/>
       <use xlink:href="#DejaVuSans-2e" transform="translate(63.623047 0)"/>
       <use xlink:href="#DejaVuSans-30" transform="translate(95.410156 0)"/>
      </g>
     </g>
    </g>
    <g id="text_40">
     <!-- Time (hours) -->
     <g transform="translate(277.587812 839.95625) scale(0.12 -0.12)">
      <use xlink:href="#DejaVuSans-54"/>
      <use xlink:href="#DejaVuSans-69" transform="translate(57.958984 0)"/>
      <use xlink:href="#DejaVuSans-6d" transform="translate(85.742188 0)"/>
      <use xlink:href="#DejaVuSans-65" transform="translate(183.154297 0)"/>
      <use xlink:href="#DejaVuSans-20" transform="translate(244.677734 0)"/>
      <use xlink:href="#DejaVuSans-28" transform="translate(276.464844 0)"/>
      <use xlink:href="#DejaVuSans-68" transform="translate(315.478516 0)"/>
      <use xlink:href="#DejaVuSans-6f" transform="translate(378.857422 0)"/>
      <use xlink:href="#DejaVuSans-75" transform="translate(440.039062 0)"/>
      <use xlink:href="#DejaVuSans-72" transform="translate(503.417969 0)"/>
      <use xlink:href="#DejaVuSans-73" transform="translate(544.53125 0)"/>
      <use xlink:href="#DejaVuSans-29" transform="translate(596.630859 0)"/>
     </g>
    </g>
   </g>
   <g id="matplotlib.axis_6">
    <g id="ytick_13">
     <g id="line2d_70">
      <path d="M 58.402813 810.16 
L 573.047812 810.16 
" clip-path="url(#p6e255845e4)" style="fill: none; stroke: #b0b0b0; stroke-opacity: 0.3; stroke-width: 0.8; stroke-linecap: square"/>
     </g>
     <g id="line2d_71">
      <g>
       <use xlink:href="#mfe81695b45" x="58.402813" y="810.16" style="stroke: #000000; stroke-width: 0.8"/>
      </g>
     </g>
     <g id="text_41">
      <!-- 0% -->
      <g transform="translate(35.53875 813.959219) scale(0.1 -0.1)">
       <defs>
        <path id="DejaVuSans-25" d="M 4653 2053 
Q 4381 2053 4226 1822 
Q 4072 1591 4072 1178 
Q 4072 772 4226 539 
Q 4381 306 4653 306 
Q 4919 306 5073 539 
Q 5228 772 5228 1178 
Q 5228 1588 5073 1820 
Q 4919 2053 4653 2053 
z
M 4653 2450 
Q 5147 2450 5437 2106 
Q 5728 1763 5728 1178 
Q 5728 594 5436 251 
Q 5144 -91 4653 -91 
Q 4153 -91 3862 251 
Q 3572 594 3572 1178 
Q 3572 1766 3864 2108 
Q 4156 2450 4653 2450 
z
M 1428 4353 
Q 1159 4353 1004 4120 
Q 850 3888 850 3481 
Q 850 3069 1003 2837 
Q 1156 2606 1428 2606 
Q 1700 2606 1854 2837 
Q 2009 3069 2009 3481 
Q 2009 3884 1853 4118 
Q 1697 4353 1428 4353 
z
M 4250 4750 
L 4750 4750 
L 1831 -91 
L 1331 -91 
L 4250 4750 
z
M 1428 4750 
Q 1922 4750 2215 4408 
Q 2509 4066 2509 3481 
Q 2509 2891 2217 2550 
Q 1925 2209 1428 2209 
Q 931 2209 642 2551 
Q 353 2894 353 3481 
Q 353 4063 643 4406 
Q 934 4750 1428 4750 
z
" transform="scale(0.015625)"/>
       </defs>
       <use xlink:href="#DejaVuSans-30"/>
       <use xlink:href="#DejaVuSans-25" transform="translate(63.623047 0)"/>
      </g>
     </g>
    </g>
    <g id="ytick_14">
     <g id="line2d_72">
      <path d="M 58.402813 748.814095 
L 573.047812 748.814095 
" clip-path="url(#p6e255845e4)" style="fill: none; stroke: #b0b0b0; stroke-opacity: 0.3; stroke-width: 0.8; stroke-linecap: square"/>
     </g>
     <g id="line2d_73">
      <g>
       <use xlink:href="#mfe81695b45" x="58.402813" y="748.814095" style="stroke: #000000; stroke-width: 0.8"/>
      </g>
     </g>
     <g id="text_42">
      <!-- 20% -->
      <g transform="translate(29.17625 752.613314) scale(0.1 -0.1)">
       <use xlink:href="#DejaVuSans-32"/>
       <use xlink:href="#DejaVuSans-30" transform="translate(63.623047 0)"/>
       <use xlink:href="#DejaVuSans-25" transform="translate(127.246094 0)"/>
      </g>
     </g>
    </g>
    <g id="ytick_15">
     <g id="line2d_74">
      <path d="M 58.402813 687.46819 
L 573.047812 687.46819 
" clip-path="url(#p6e255845e4)" style="fill: none; stroke: #b0b0b0; stroke-opacity: 0.3; stroke-width: 0.8; stroke-linecap: square"/>
     </g>
     <g id="line2d_75">
      <g>
       <use xlink:href="#mfe81695b45" x="58.402813" y="687.46819" style="stroke: #000000; stroke-width: 0.8"/>
      </g>
     </g>
     <g id="text_43">
      <!-- 40% -->
      <g transform="translate(29.17625 691.267409) scale(0.1 -0.1)">
       <use xlink:href="#DejaVuSans-34"/>
       <use xlink:href="#DejaVuSans-30" transform="translate(63.623047 0)"/>
       <use xlink:href="#DejaVuSans-25" transform="translate(127.246094 0)"/>
      </g>
     </g>
    </g>
    <g id="ytick_16">
     <g id="line2d_76">
      <path d="M 58.402813 626.122286 
L 573.047812 626.122286 
" clip-path="url(#p6e255845e4)" style="fill: none; stroke: #b0b0b0; stroke-opacity: 0.3; stroke-width: 0.8; stroke-linecap: square"/>
     </g>
     <g id="line2d_77">
      <g>
       <use xlink:href="#mfe81695b45" x="58.402813" y="626.122286" style="stroke: #000000; stroke-width: 0.8"/>
      </g>
     </g>
     <g id="text_44">
      <!-- 60% -->
      <g transform="translate(29.17625 629.921504) scale(0.1 -0.1)">
       <use xlink:href="#DejaVuSans-36"/>
       <use xlink:href="#DejaVuSans-30" transform="translate(63.623047 0)"/>
       <use xlink:href="#DejaVuSans-25" transform="translate(127.246094 0)"/>
      </g>
     </g>
    </g>
    <g id="ytick_17">
     <g id="line2d_78">
      <path d="M 58.402813 564.776381 
L 573.047812 564.776381 
" clip-path="url(#p6e255845e4)" style="fill: none; stroke: #b0b0b0; stroke-opacity: 0.3; stroke-width: 0.8; stroke-linecap: square"/>
     </g>
     <g id="line2d_79">
      <g>
       <use xlink:href="#mfe81695b45" x="58.402813" y="564.776381" style="stroke: #000000; stroke-width: 0.8"/>
      </g>
     </g>
     <g id="text_45">
      <!-- 80% -->
      <g transform="translate(29.17625 568.5756) scale(0.1 -0.1)">
       <use xlink:href="#DejaVuSans-38"/>
       <use xlink:href="#DejaVuSans-30" transform="translate(63.623047 0)"/>
       <use xlink:href="#DejaVuSans-25" transform="translate(127.246094 0)"/>
      </g>
     </g>
    </g>
    <g id="ytick_18">
     <g id="line2d_80">
      <path d="M 58.402813 503.430476 
L 573.047812 503.430476 
" clip-path="url(#p6e255845e4)" style="fill: none; stroke: #b0b0b0; stroke-opacity: 0.3; stroke-width: 0.8; stroke-linecap: square"/>
     </g>
     <g id="line2d_81">
      <g>
       <use xlink:href="#mfe81695b45" x="58.402813" y="503.430476" style="stroke: #000000; stroke-width: 0.8"/>
      </g>
     </g>
     <g id="text_46">
      <!-- 100% -->
      <g transform="translate(22.81375 507.229695) scale(0.1 -0.1)">
       <use xlink:href="#DejaVuSans-31"/>
       <use xlink:href="#DejaVuSans-30" transform="translate(63.623047 0)"/>
       <use xlink:href="#DejaVuSans-30" transform="translate(127.246094 0)"/>
       <use xlink:href="#DejaVuSans-25" transform="translate(190.869141 0)"/>
      </g>
     </g>
    </g>
    <g id="text_47">
     <!-- RUL (%) -->
     <g transform="translate(16.318125 673.320125) rotate(-90) scale(0.12 -0.12)">
      <use xlink:href="#DejaVuSans-52"/>
      <use xlink:href="#DejaVuSans-55" transform="translate(69.482422 0)"/>
      <use xlink:href="#DejaVuSans-4c" transform="translate(142.675781 0)"/>
      <use xlink:href="#DejaVuSans-20" transform="translate(198.388672 0)"/>
      <use xlink:href="#DejaVuSans-28" transform="translate(230.175781 0)"/>
      <use xlink:href="#DejaVuSans-25" transform="translate(269.189453 0)"/>
      <use xlink:href="#DejaVuSans-29" transform="translate(364.208984 0)"/>
     </g>
    </g>
   </g>
   <g id="line2d_82">
    <path d="M 81.795767 503.430477 
L 123.049875 533.046607 
L 162.428797 561.050645 
L 200.870125 588.114379 
L 237.436266 613.582578 
L 272.127221 637.470529 
L 304.942989 659.794039 
L 335.88357 680.569458 
L 364.948964 699.813689 
L 391.201579 716.937588 
L 415.579006 732.586287 
L 438.081247 746.780829 
L 458.708301 759.543315 
L 477.460169 770.896926 
L 494.336849 780.865858 
L 509.338343 789.475019 
L 522.46465 796.749161 
L 532.778177 802.227585 
L 540.278924 806.010297 
L 545.904484 808.620912 
L 549.654858 810.16 
L 549.654858 810.16 
" clip-path="url(#p6e255845e4)" style="fill: none; stroke: #1f77b4; stroke-width: 3; stroke-linecap: square"/>
   </g>
   <g id="line2d_83">
    <path d="M 81.795767 503.429989 
L 90.234107 521.998865 
L 98.672448 540.039391 
L 106.173195 555.594109 
L 113.673942 570.666106 
L 121.174689 585.232214 
L 128.675435 599.274045 
L 135.238589 611.119591 
L 141.801743 622.546504 
L 148.364896 633.550558 
L 154.92805 644.129705 
L 161.491203 654.283905 
L 168.054357 664.014943 
L 174.617511 673.326255 
L 181.180664 682.222748 
L 187.743818 690.710632 
L 194.306971 698.797256 
L 200.870125 706.490945 
L 207.433278 713.800857 
L 213.996432 720.736844 
L 220.559586 727.30932 
L 227.122739 733.529144 
L 233.685893 739.407513 
L 240.249046 744.955863 
L 246.8122 750.185782 
L 253.375353 755.108928 
L 259.938507 759.736963 
L 266.501661 764.081492 
L 273.064814 768.154007 
L 279.627968 771.965843 
L 286.191121 775.528142 
L 292.754275 778.851814 
L 299.317429 781.947515 
L 306.818175 785.219614 
L 314.318922 788.222521 
L 321.819669 790.97073 
L 329.320416 793.478187 
L 336.821163 795.758285 
L 344.32191 797.823856 
L 352.760251 799.906451 
L 361.198591 801.749681 
L 369.636931 803.369302 
L 379.012865 804.924717 
L 388.388799 806.241685 
L 397.764732 807.338222 
L 408.078259 808.309891 
L 418.391786 809.056075 
L 429.642907 809.635603 
L 440.894027 809.992895 
L 453.082741 810.150873 
L 482.148135 810.16 
L 549.654858 810.16 
L 549.654858 810.16 
" clip-path="url(#p6e255845e4)" style="fill: none; stroke: #ff7f0e; stroke-width: 3; stroke-linecap: square"/>
   </g>
   <g id="line2d_84">
    <path d="M 89.339931 810.16 
L 89.339931 488.094 
" clip-path="url(#p6e255845e4)" style="fill: none; stroke-dasharray: 5.55,2.4; stroke-dashoffset: 0; stroke: #ff0000; stroke-opacity: 0.5; stroke-width: 1.5"/>
   </g>
   <g id="patch_15">
    <path d="M 58.402813 810.16 
L 58.402813 488.094 
" style="fill: none; stroke: #000000; stroke-width: 0.8; stroke-linejoin: miter; stroke-linecap: square"/>
   </g>
   <g id="patch_16">
    <path d="M 573.047812 810.16 
L 573.047812 488.094 
" style="fill: none; stroke: #000000; stroke-width: 0.8; stroke-linejoin: miter; stroke-linecap: square"/>
   </g>
   <g id="patch_17">
    <path d="M 58.402812 810.16 
L 573.047812 810.16 
" style="fill: none; stroke: #000000; stroke-width: 0.8; stroke-linejoin: miter; stroke-linecap: square"/>
   </g>
   <g id="patch_18">
    <path d="M 58.402812 488.094 
L 573.047812 488.094 
" style="fill: none; stroke: #000000; stroke-width: 0.8; stroke-linejoin: miter; stroke-linecap: square"/>
   </g>
   <g id="text_48">
    <!-- Remaining Useful Life Percentage vs Time -->
    <g transform="translate(168.605 482.094) scale(0.14 -0.14)">
     <defs>
      <path id="DejaVuSans-50" d="M 1259 4147 
L 1259 2394 
L 2053 2394 
Q 2494 2394 2734 2622 
Q 2975 2850 2975 3272 
Q 2975 3691 2734 3919 
Q 2494 4147 2053 4147 
L 1259 4147 
z
M 628 4666 
L 2053 4666 
Q 2838 4666 3239 4311 
Q 3641 3956 3641 3272 
Q 3641 2581 3239 2228 
Q 2838 1875 2053 1875 
L 1259 1875 
L 1259 0 
L 628 0 
L 628 4666 
z
" transform="scale(0.015625)"/>
     </defs>
     <use xlink:href="#DejaVuSans-52"/>
     <use xlink:href="#DejaVuSans-65" transform="translate(64.982422 0)"/>
     <use xlink:href="#DejaVuSans-6d" transform="translate(126.505859 0)"/>
     <use xlink:href="#DejaVuSans-61" transform="translate(223.917969 0)"/>
     <use xlink:href="#DejaVuSans-69" transform="translate(285.197266 0)"/>
     <use xlink:href="#DejaVuSans-6e" transform="translate(312.980469 0)"/>
     <use xlink:href="#DejaVuSans-69" transform="translate(376.359375 0)"/>
     <use xlink:href="#DejaVuSans-6e" transform="translate(404.142578 0)"/>
     <use xlink:href="#DejaVuSans-67" transform="translate(467.521484 0)"/>
     <use xlink:href="#DejaVuSans-20" transform="translate(530.998047 0)"/>
     <use xlink:href="#DejaVuSans-55" transform="translate(562.785156 0)"/>
     <use xlink:href="#DejaVuSans-73" transform="translate(635.978516 0)"/>
     <use xlink:href="#DejaVuSans-65" transform="translate(688.078125 0)"/>
     <use xlink:href="#DejaVuSans-66" transform="translate(749.601562 0)"/>
     <use xlink:href="#DejaVuSans-75" transform="translate(784.806641 0)"/>
     <use xlink:href="#DejaVuSans-6c" transform="translate(848.185547 0)"/>
     <use xlink:href="#DejaVuSans-20" transform="translate(875.96875 0)"/>
     <use xlink:href="#DejaVuSans-4c" transform="translate(907.755859 0)"/>
     <use xlink:href="#DejaVuSans-69" transform="translate(963.46875 0)"/>
     <use xlink:href="#DejaVuSans-66" transform="translate(991.251953 0)"/>
     <use xlink:href="#DejaVuSans-65" transform="translate(1026.457031 0)"/>
     <use xlink:href="#DejaVuSans-20" transform="translate(1087.980469 0)"/>
     <use xlink:href="#DejaVuSans-50" transform="translate(1119.767578 0)"/>
     <use xlink:href="#DejaVuSans-65" transform="translate(1176.445312 0)"/>
     <use xlink:href="#DejaVuSans-72" transform="translate(1237.96875 0)"/>
     <use xlink:href="#DejaVuSans-63" transform="translate(1276.832031 0)"/>
     <use xlink:href="#DejaVuSans-65" transform="translate(1331.8125 0)"/>
     <use xlink:href="#DejaVuSans-6e" transform="translate(1393.335938 0)"/>
     <use xlink:href="#DejaVuSans-74" transform="translate(1456.714844 0)"/>
     <use xlink:href="#DejaVuSans-61" transform="translate(1495.923828 0)"/>
     <use xlink:href="#DejaVuSans-67" transform="translate(1557.203125 0)"/>
     <use xlink:href="#DejaVuSans-65" transform="translate(1620.679688 0)"/>
     <use xlink:href="#DejaVuSans-20" transform="translate(1682.203125 0)"/>
     <use xlink:href="#DejaVuSans-76" transform="translate(1713.990234 0)"/>
     <use xlink:href="#DejaVuSans-73" transform="translate(1773.169922 0)"/>
     <use xlink:href="#DejaVuSans-20" transform="translate(1825.269531 0)"/>
     <use xlink:href="#DejaVuSans-54" transform="translate(1857.056641 0)"/>
     <use xlink:href="#DejaVuSans-69" transform="translate(1915.015625 0)"/>
     <use xlink:href="#DejaVuSans-6d" transform="translate(1942.798828 0)"/>
     <use xlink:href="#DejaVuSans-65" transform="translate(2040.210938 0)"/>
    </g>
   </g>
   <g id="legend_3">
    <g id="patch_19">
     <path d="M 389.349375 525.45025 
L 566.047812 525.45025 
Q 568.047812 525.45025 568.047812 523.45025 
L 568.047812 495.094 
Q 568.047812 493.094 566.047812 493.094 
L 389.349375 493.094 
Q 387.349375 493.094 387.349375 495.094 
L 387.349375 523.45025 
Q 387.349375 525.45025 389.349375 525.45025 
z
" style="fill: #ffffff; opacity: 0.8; stroke: #cccccc; stroke-linejoin: miter"/>
    </g>
    <g id="line2d_85">
     <path d="M 391.349375 501.192438 
L 401.349375 501.192438 
L 411.349375 501.192438 
" style="fill: none; stroke: #1f77b4; stroke-width: 3; stroke-linecap: square"/>
    </g>
    <g id="text_49">
     <!-- Linear Model -->
     <g transform="translate(419.349375 504.692438) scale(0.1 -0.1)">
      <use xlink:href="#DejaVuSans-4c"/>
      <use xlink:href="#DejaVuSans-69" transform="translate(55.712891 0)"/>
      <use xlink:href="#DejaVuSans-6e" transform="translate(83.496094 0)"/>
      <use xlink:href="#DejaVuSans-65" transform="translate(146.875 0)"/>
      <use xlink:href="#DejaVuSans-61" transform="translate(208.398438 0)"/>
      <use xlink:href="#DejaVuSans-72" transform="translate(269.677734 0)"/>
      <use xlink:href="#DejaVuSans-20" transform="translate(310.791016 0)"/>
      <use xlink:href="#DejaVuSans-4d" transform="translate(342.578125 0)"/>
      <use xlink:href="#DejaVuSans-6f" transform="translate(428.857422 0)"/>
      <use xlink:href="#DejaVuSans-64" transform="translate(490.039062 0)"/>
      <use xlink:href="#DejaVuSans-65" transform="translate(553.515625 0)"/>
      <use xlink:href="#DejaVuSans-6c" transform="translate(615.039062 0)"/>
     </g>
    </g>
    <g id="line2d_86">
     <path d="M 391.349375 515.870563 
L 401.349375 515.870563 
L 411.349375 515.870563 
" style="fill: none; stroke: #ff7f0e; stroke-width: 3; stroke-linecap: square"/>
    </g>
    <g id="text_50">
     <!-- Feedback Model (Factor: 3.0) -->
     <g transform="translate(419.349375 519.370563) scale(0.1 -0.1)">
      <use xlink:href="#DejaVuSans-46"/>
      <use xlink:href="#DejaVuSans-65" transform="translate(52.019531 0)"/>
      <use xlink:href="#DejaVuSans-65" transform="translate(113.542969 0)"/>
      <use xlink:href="#DejaVuSans-64" transform="translate(175.066406 0)"/>
      <use xlink:href="#DejaVuSans-62" transform="translate(238.542969 0)"/>
      <use xlink:href="#DejaVuSans-61" transform="translate(302.019531 0)"/>
      <use xlink:href="#DejaVuSans-63" transform="translate(363.298828 0)"/>
      <use xlink:href="#DejaVuSans-6b" transform="translate(418.279297 0)"/>
      <use xlink:href="#DejaVuSans-20" transform="translate(476.189453 0)"/>
      <use xlink:href="#DejaVuSans-4d" transform="translate(507.976562 0)"/>
      <use xlink:href="#DejaVuSans-6f" transform="translate(594.255859 0)"/>
      <use xlink:href="#DejaVuSans-64" transform="translate(655.4375 0)"/>
      <use xlink:href="#DejaVuSans-65" transform="translate(718.914062 0)"/>
      <use xlink:href="#DejaVuSans-6c" transform="translate(780.4375 0)"/>
      <use xlink:href="#DejaVuSans-20" transform="translate(808.220703 0)"/>
      <use xlink:href="#DejaVuSans-28" transform="translate(840.007812 0)"/>
      <use xlink:href="#DejaVuSans-46" transform="translate(879.021484 0)"/>
      <use xlink:href="#DejaVuSans-61" transform="translate(927.416016 0)"/>
      <use xlink:href="#DejaVuSans-63" transform="translate(988.695312 0)"/>
      <use xlink:href="#DejaVuSans-74" transform="translate(1043.675781 0)"/>
      <use xlink:href="#DejaVuSans-6f" transform="translate(1082.884766 0)"/>
      <use xlink:href="#DejaVuSans-72" transform="translate(1144.066406 0)"/>
      <use xlink:href="#DejaVuSans-3a" transform="translate(1183.429688 0)"/>
      <use xlink:href="#DejaVuSans-20" transform="translate(1217.121094 0)"/>
      <use xlink:href="#DejaVuSans-33" transform="translate(1248.908203 0)"/>
      <use xlink:href="#DejaVuSans-2e" transform="translate(1312.53125 0)"/>
      <use xlink:href="#DejaVuSans-30" transform="translate(1344.318359 0)"/>
      <use xlink:href="#DejaVuSans-29" transform="translate(1407.941406 0)"/>
     </g>
    </g>
   </g>
  </g>
  <g id="text_51">
   <!-- Smoothed Time-Accurate RUL Model (Feedback Factor: 3.0) -->
   <g transform="translate(334.291562 19.3575) scale(0.16 -0.16)">
    <defs>
     <path id="DejaVuSans-53" d="M 3425 4513 
L 3425 3897 
Q 3066 4069 2747 4153 
Q 2428 4238 2131 4238 
Q 1616 4238 1336 4038 
Q 1056 3838 1056 3469 
Q 1056 3159 1242 3001 
Q 1428 2844 1947 2747 
L 2328 2669 
Q 3034 2534 3370 2195 
Q 3706 1856 3706 1288 
Q 3706 609 3251 259 
Q 2797 -91 1919 -91 
Q 1588 -91 1214 -16 
Q 841 59 441 206 
L 441 856 
Q 825 641 1194 531 
Q 1563 422 1919 422 
Q 2459 422 2753 634 
Q 3047 847 3047 1241 
Q 3047 1584 2836 1778 
Q 2625 1972 2144 2069 
L 1759 2144 
Q 1053 2284 737 2584 
Q 422 2884 422 3419 
Q 422 4038 858 4394 
Q 1294 4750 2059 4750 
Q 2388 4750 2728 4690 
Q 3069 4631 3425 4513 
z
" transform="scale(0.015625)"/>
     <path id="DejaVuSans-2d" d="M 313 2009 
L 1997 2009 
L 1997 1497 
L 313 1497 
L 313 2009 
z
" transform="scale(0.015625)"/>
    </defs>
    <use xlink:href="#DejaVuSans-53"/>
    <use xlink:href="#DejaVuSans-6d" transform="translate(63.476562 0)"/>
    <use xlink:href="#DejaVuSans-6f" transform="translate(160.888672 0)"/>
    <use xlink:href="#DejaVuSans-6f" transform="translate(222.070312 0)"/>
    <use xlink:href="#DejaVuSans-74" transform="translate(283.251953 0)"/>
    <use xlink:href="#DejaVuSans-68" transform="translate(322.460938 0)"/>
    <use xlink:href="#DejaVuSans-65" transform="translate(385.839844 0)"/>
    <use xlink:href="#DejaVuSans-64" transform="translate(447.363281 0)"/>
    <use xlink:href="#DejaVuSans-20" transform="translate(510.839844 0)"/>
    <use xlink:href="#DejaVuSans-54" transform="translate(542.626953 0)"/>
    <use xlink:href="#DejaVuSans-69" transform="translate(600.585938 0)"/>
    <use xlink:href="#DejaVuSans-6d" transform="translate(628.369141 0)"/>
    <use xlink:href="#DejaVuSans-65" transform="translate(725.78125 0)"/>
    <use xlink:href="#DejaVuSans-2d" transform="translate(787.304688 0)"/>
    <use xlink:href="#DejaVuSans-41" transform="translate(821.138672 0)"/>
    <use xlink:href="#DejaVuSans-63" transform="translate(887.796875 0)"/>
    <use xlink:href="#DejaVuSans-63" transform="translate(942.777344 0)"/>
    <use xlink:href="#DejaVuSans-75" transform="translate(997.757812 0)"/>
    <use xlink:href="#DejaVuSans-72" transform="translate(1061.136719 0)"/>
    <use xlink:href="#DejaVuSans-61" transform="translate(1102.25 0)"/>
    <use xlink:href="#DejaVuSans-74" transform="translate(1163.529297 0)"/>
    <use xlink:href="#DejaVuSans-65" transform="translate(1202.738281 0)"/>
    <use xlink:href="#DejaVuSans-20" transform="translate(1264.261719 0)"/>
    <use xlink:href="#DejaVuSans-52" transform="translate(1296.048828 0)"/>
    <use xlink:href="#DejaVuSans-55" transform="translate(1365.53125 0)"/>
    <use xlink:href="#DejaVuSans-4c" transform="translate(1438.724609 0)"/>
    <use xlink:href="#DejaVuSans-20" transform="translate(1494.4375 0)"/>
    <use xlink:href="#DejaVuSans-4d" transform="translate(1526.224609 0)"/>
    <use xlink:href="#DejaVuSans-6f" transform="translate(1612.503906 0)"/>
    <use xlink:href="#DejaVuSans-64" transform="translate(1673.685547 0)"/>
    <use xlink:href="#DejaVuSans-65" transform="translate(1737.162109 0)"/>
    <use xlink:href="#DejaVuSans-6c" transform="translate(1798.685547 0)"/>
    <use xlink:href="#DejaVuSans-20" transform="translate(1826.46875 0)"/>
    <use xlink:href="#DejaVuSans-28" transform="translate(1858.255859 0)"/>
    <use xlink:href="#DejaVuSans-46" transform="translate(1897.269531 0)"/>
    <use xlink:href="#DejaVuSans-65" transform="translate(1949.289062 0)"/>
    <use xlink:href="#DejaVuSans-65" transform="translate(2010.8125 0)"/>
    <use xlink:href="#DejaVuSans-64" transform="translate(2072.335938 0)"/>
    <use xlink:href="#DejaVuSans-62" transform="translate(2135.8125 0)"/>
    <use xlink:href="#DejaVuSans-61" transform="translate(2199.289062 0)"/>
    <use xlink:href="#DejaVuSans-63" transform="translate(2260.568359 0)"/>
    <use xlink:href="#DejaVuSans-6b" transform="translate(2315.548828 0)"/>
    <use xlink:href="#DejaVuSans-20" transform="translate(2373.458984 0)"/>
    <use xlink:href="#DejaVuSans-46" transform="translate(2405.246094 0)"/>
    <use xlink:href="#DejaVuSans-61" transform="translate(2453.640625 0)"/>
    <use xlink:href="#DejaVuSans-63" transform="translate(2514.919922 0)"/>
    <use xlink:href="#DejaVuSans-74" transform="translate(2569.900391 0)"/>
    <use xlink:href="#DejaVuSans-6f" transform="translate(2609.109375 0)"/>
    <use xlink:href="#DejaVuSans-72" transform="translate(2670.291016 0)"/>
    <use xlink:href="#DejaVuSans-3a" transform="translate(2709.654297 0)"/>
    <use xlink:href="#DejaVuSans-20" transform="translate(2743.345703 0)"/>
    <use xlink:href="#DejaVuSans-33" transform="translate(2775.132812 0)"/>
    <use xlink:href="#DejaVuSans-2e" transform="translate(2838.755859 0)"/>
    <use xlink:href="#DejaVuSans-30" transform="translate(2870.542969 0)"/>
    <use xlink:href="#DejaVuSans-29" transform="translate(2934.166016 0)"/>
   </g>
   <!-- Initial RUL: 1.05 hours | Feedback Model Failure: 0.86 hours -->
   <g transform="translate(334.126562 37.358) scale(0.16 -0.16)">
    <defs>
     <path id="DejaVuSans-49" d="M 628 4666 
L 1259 4666 
L 1259 0 
L 628 0 
L 628 4666 
z
" transform="scale(0.015625)"/>
     <path id="DejaVuSans-35" d="M 691 4666 
L 3169 4666 
L 3169 4134 
L 1269 4134 
L 1269 2991 
Q 1406 3038 1543 3061 
Q 1681 3084 1819 3084 
Q 2600 3084 3056 2656 
Q 3513 2228 3513 1497 
Q 3513 744 3044 326 
Q 2575 -91 1722 -91 
Q 1428 -91 1123 -41 
Q 819 9 494 109 
L 494 744 
Q 775 591 1075 516 
Q 1375 441 1709 441 
Q 2250 441 2565 725 
Q 2881 1009 2881 1497 
Q 2881 1984 2565 2268 
Q 2250 2553 1709 2553 
Q 1456 2553 1204 2497 
Q 953 2441 691 2322 
L 691 4666 
z
" transform="scale(0.015625)"/>
     <path id="DejaVuSans-7c" d="M 1344 4891 
L 1344 -1509 
L 813 -1509 
L 813 4891 
L 1344 4891 
z
" transform="scale(0.015625)"/>
    </defs>
    <use xlink:href="#DejaVuSans-49"/>
    <use xlink:href="#DejaVuSans-6e" transform="translate(29.492188 0)"/>
    <use xlink:href="#DejaVuSans-69" transform="translate(92.871094 0)"/>
    <use xlink:href="#DejaVuSans-74" transform="translate(120.654297 0)"/>
    <use xlink:href="#DejaVuSans-69" transform="translate(159.863281 0)"/>
    <use xlink:href="#DejaVuSans-61" transform="translate(187.646484 0)"/>
    <use xlink:href="#DejaVuSans-6c" transform="translate(248.925781 0)"/>
    <use xlink:href="#DejaVuSans-20" transform="translate(276.708984 0)"/>
    <use xlink:href="#DejaVuSans-52" transform="translate(308.496094 0)"/>
    <use xlink:href="#DejaVuSans-55" transform="translate(377.978516 0)"/>
    <use xlink:href="#DejaVuSans-4c" transform="translate(451.171875 0)"/>
    <use xlink:href="#DejaVuSans-3a" transform="translate(506.884766 0)"/>
    <use xlink:href="#DejaVuSans-20" transform="translate(540.576172 0)"/>
    <use xlink:href="#DejaVuSans-31" transform="translate(572.363281 0)"/>
    <use xlink:href="#DejaVuSans-2e" transform="translate(635.986328 0)"/>
    <use xlink:href="#DejaVuSans-30" transform="translate(667.773438 0)"/>
    <use xlink:href="#DejaVuSans-35" transform="translate(731.396484 0)"/>
    <use xlink:href="#DejaVuSans-20" transform="translate(795.019531 0)"/>
    <use xlink:href="#DejaVuSans-68" transform="translate(826.806641 0)"/>
    <use xlink:href="#DejaVuSans-6f" transform="translate(890.185547 0)"/>
    <use xlink:href="#DejaVuSans-75" transform="translate(951.367188 0)"/>
    <use xlink:href="#DejaVuSans-72" transform="translate(1014.746094 0)"/>
    <use xlink:href="#DejaVuSans-73" transform="translate(1055.859375 0)"/>
    <use xlink:href="#DejaVuSans-20" transform="translate(1107.958984 0)"/>
    <use xlink:href="#DejaVuSans-7c" transform="translate(1139.746094 0)"/>
    <use xlink:href="#DejaVuSans-20" transform="translate(1173.4375 0)"/>
    <use xlink:href="#DejaVuSans-46" transform="translate(1205.224609 0)"/>
    <use xlink:href="#DejaVuSans-65" transform="translate(1257.244141 0)"/>
    <use xlink:href="#DejaVuSans-65" transform="translate(1318.767578 0)"/>
    <use xlink:href="#DejaVuSans-64" transform="translate(1380.291016 0)"/>
    <use xlink:href="#DejaVuSans-62" transform="translate(1443.767578 0)"/>
    <use xlink:href="#DejaVuSans-61" transform="translate(1507.244141 0)"/>
    <use xlink:href="#DejaVuSans-63" transform="translate(1568.523438 0)"/>
    <use xlink:href="#DejaVuSans-6b" transform="translate(1623.503906 0)"/>
    <use xlink:href="#DejaVuSans-20" transform="translate(1681.414062 0)"/>
    <use xlink:href="#DejaVuSans-4d" transform="translate(1713.201172 0)"/>
    <use xlink:href="#DejaVuSans-6f" transform="translate(1799.480469 0)"/>
    <use xlink:href="#DejaVuSans-64" transform="translate(1860.662109 0)"/>
    <use xlink:href="#DejaVuSans-65" transform="translate(1924.138672 0)"/>
    <use xlink:href="#DejaVuSans-6c" transform="translate(1985.662109 0)"/>
    <use xlink:href="#DejaVuSans-20" transform="translate(2013.445312 0)"/>
    <use xlink:href="#DejaVuSans-46" transform="translate(2045.232422 0)"/>
    <use xlink:href="#DejaVuSans-61" transform="translate(2093.626953 0)"/>
    <use xlink:href="#DejaVuSans-69" transform="translate(2154.90625 0)"/>
    <use xlink:href="#DejaVuSans-6c" transform="translate(2182.689453 0)"/>
    <use xlink:href="#DejaVuSans-75" transform="translate(2210.472656 0)"/>
    <use xlink:href="#DejaVuSans-72" transform="translate(2273.851562 0)"/>
    <use xlink:href="#DejaVuSans-65" transform="translate(2312.714844 0)"/>
    <use xlink:href="#DejaVuSans-3a" transform="translate(2374.238281 0)"/>
    <use xlink:href="#DejaVuSans-20" transform="translate(2407.929688 0)"/>
    <use xlink:href="#DejaVuSans-30" transform="translate(2439.716797 0)"/>
    <use xlink:href="#DejaVuSans-2e" transform="translate(2503.339844 0)"/>
    <use xlink:href="#DejaVuSans-38" transform="translate(2535.126953 0)"/>
    <use xlink:href="#DejaVuSans-36" transform="translate(2598.75 0)"/>
    <use xlink:href="#DejaVuSans-20" transform="translate(2662.373047 0)"/>
    <use xlink:href="#DejaVuSans-68" transform="translate(2694.160156 0)"/>
    <use xlink:href="#DejaVuSans-6f" transform="translate(2757.539062 0)"/>
    <use xlink:href="#DejaVuSans-75" transform="translate(2818.720703 0)"/>
    <use xlink:href="#DejaVuSans-72" transform="translate(2882.099609 0)"/>
    <use xlink:href="#DejaVuSans-73" transform="translate(2923.212891 0)"/>
   </g>
  </g>
 </g>
 <defs>
  <clipPath id="p8e1e1b25df">
   <rect x="58.402813" y="105.468" width="514.645" height="322.066"/>
  </clipPath>
  <clipPath id="pf6acc00b88">
   <rect x="622.702813" y="105.468" width="514.645" height="322.066"/>
  </clipPath>
  <clipPath id="p6e255845e4">
   <rect x="58.402813" y="488.094" width="514.645" height="322.066"/>
  </clipPath>
 </defs>
</svg>
